%TF.GenerationSoftware,KiCad,Pcbnew,8.0.5*%
%TF.CreationDate,2025-09-24T23:13:40-07:00*%
%TF.ProjectId,Power8Board V1,506f7765-7238-4426-9f61-72642056312e,rev?*%
%TF.SameCoordinates,Original*%
%TF.FileFunction,Profile,NP*%
%FSLAX46Y46*%
G04 Gerber Fmt 4.6, Leading zero omitted, Abs format (unit mm)*
G04 Created by KiCad (PCBNEW 8.0.5) date 2025-09-24 23:13:40*
%MOMM*%
%LPD*%
G01*
G04 APERTURE LIST*
%TA.AperFunction,Profile*%
%ADD10C,0.200000*%
%TD*%
%TA.AperFunction,Profile*%
%ADD11C,0.100000*%
%TD*%
G04 APERTURE END LIST*
D10*
X197650000Y-148750000D02*
G75*
G02*
X194350000Y-148750000I-1650000J0D01*
G01*
X194350000Y-148750000D02*
G75*
G02*
X197650000Y-148750000I1650000J0D01*
G01*
X196000000Y-51750000D02*
G75*
G02*
X201000000Y-56750000I0J-5000000D01*
G01*
X105650000Y-56750000D02*
G75*
G02*
X102350000Y-56750000I-1650000J0D01*
G01*
X102350000Y-56750000D02*
G75*
G02*
X105650000Y-56750000I1650000J0D01*
G01*
X104000000Y-51750000D02*
X196000000Y-51750000D01*
X99000000Y-148750000D02*
X99000000Y-56750000D01*
X105650000Y-148750000D02*
G75*
G02*
X102350000Y-148750000I-1650000J0D01*
G01*
X102350000Y-148750000D02*
G75*
G02*
X105650000Y-148750000I1650000J0D01*
G01*
X104000000Y-153750000D02*
G75*
G02*
X99000000Y-148750000I0J5000000D01*
G01*
X201000000Y-56750000D02*
X201000000Y-148750000D01*
X196000000Y-153750000D02*
X104000000Y-153750000D01*
X197650000Y-56750000D02*
G75*
G02*
X194350000Y-56750000I-1650000J0D01*
G01*
X194350000Y-56750000D02*
G75*
G02*
X197650000Y-56750000I1650000J0D01*
G01*
X201000000Y-148750000D02*
G75*
G02*
X196000000Y-153750000I-5000000J0D01*
G01*
X99000000Y-56750000D02*
G75*
G02*
X104000000Y-51750000I5000000J0D01*
G01*
%TO.C,U1*%
D11*
X187727000Y-130559000D02*
X174773000Y-130559000D01*
X174773000Y-131321000D01*
X187727000Y-131321000D01*
X187727000Y-130559000D01*
%TO.C,U2*%
X125227000Y-130559000D02*
X112273000Y-130559000D01*
X112273000Y-131321000D01*
X125227000Y-131321000D01*
X125227000Y-130559000D01*
%TD*%
M02*
