%TF.GenerationSoftware,KiCad,Pcbnew,8.0.5*%
%TF.CreationDate,2025-09-24T23:13:40-07:00*%
%TF.ProjectId,Power8Board V1,506f7765-7238-4426-9f61-72642056312e,rev?*%
%TF.SameCoordinates,Original*%
%TF.FileFunction,Paste,Top*%
%TF.FilePolarity,Positive*%
%FSLAX46Y46*%
G04 Gerber Fmt 4.6, Leading zero omitted, Abs format (unit mm)*
G04 Created by KiCad (PCBNEW 8.0.5) date 2025-09-24 23:13:40*
%MOMM*%
%LPD*%
G01*
G04 APERTURE LIST*
G04 Aperture macros list*
%AMRoundRect*
0 Rectangle with rounded corners*
0 $1 Rounding radius*
0 $2 $3 $4 $5 $6 $7 $8 $9 X,Y pos of 4 corners*
0 Add a 4 corners polygon primitive as box body*
4,1,4,$2,$3,$4,$5,$6,$7,$8,$9,$2,$3,0*
0 Add four circle primitives for the rounded corners*
1,1,$1+$1,$2,$3*
1,1,$1+$1,$4,$5*
1,1,$1+$1,$6,$7*
1,1,$1+$1,$8,$9*
0 Add four rect primitives between the rounded corners*
20,1,$1+$1,$2,$3,$4,$5,0*
20,1,$1+$1,$4,$5,$6,$7,0*
20,1,$1+$1,$6,$7,$8,$9,0*
20,1,$1+$1,$8,$9,$2,$3,0*%
%AMRotRect*
0 Rectangle, with rotation*
0 The origin of the aperture is its center*
0 $1 length*
0 $2 width*
0 $3 Rotation angle, in degrees counterclockwise*
0 Add horizontal line*
21,1,$1,$2,0,0,$3*%
G04 Aperture macros list end*
%ADD10RoundRect,0.225000X0.250000X-0.225000X0.250000X0.225000X-0.250000X0.225000X-0.250000X-0.225000X0*%
%ADD11R,1.397000X0.965200*%
%ADD12RoundRect,0.250000X-0.503814X-0.132583X-0.132583X-0.503814X0.503814X0.132583X0.132583X0.503814X0*%
%ADD13R,1.200000X1.470000*%
%ADD14R,1.498600X0.457200*%
%ADD15RotRect,1.100000X1.200000X45.000000*%
%ADD16RoundRect,0.225000X0.225000X0.250000X-0.225000X0.250000X-0.225000X-0.250000X0.225000X-0.250000X0*%
%ADD17R,1.080000X1.420000*%
%ADD18RoundRect,0.225000X-0.225000X-0.250000X0.225000X-0.250000X0.225000X0.250000X-0.225000X0.250000X0*%
%ADD19RoundRect,0.200000X-0.200000X-0.275000X0.200000X-0.275000X0.200000X0.275000X-0.200000X0.275000X0*%
%ADD20RotRect,1.100000X1.200000X135.000000*%
%ADD21R,3.683000X2.540000*%
%ADD22R,1.320800X3.302000*%
%ADD23RotRect,1.100000X1.200000X315.000000*%
%ADD24RoundRect,0.250000X0.262500X0.450000X-0.262500X0.450000X-0.262500X-0.450000X0.262500X-0.450000X0*%
%ADD25RoundRect,0.250000X-0.132583X0.503814X-0.503814X0.132583X0.132583X-0.503814X0.503814X-0.132583X0*%
%ADD26R,1.100000X0.250000*%
%ADD27RotRect,1.100000X1.200000X225.000000*%
%ADD28RoundRect,0.250000X0.450000X-0.262500X0.450000X0.262500X-0.450000X0.262500X-0.450000X-0.262500X0*%
%ADD29R,1.000000X0.970000*%
%ADD30RoundRect,0.250000X-0.475000X0.250000X-0.475000X-0.250000X0.475000X-0.250000X0.475000X0.250000X0*%
%ADD31RoundRect,0.250000X0.132583X-0.503814X0.503814X-0.132583X-0.132583X0.503814X-0.503814X0.132583X0*%
%ADD32RoundRect,0.250000X-0.450000X0.262500X-0.450000X-0.262500X0.450000X-0.262500X0.450000X0.262500X0*%
%ADD33RoundRect,0.250000X0.250000X0.475000X-0.250000X0.475000X-0.250000X-0.475000X0.250000X-0.475000X0*%
%ADD34RoundRect,0.250000X0.503814X0.132583X0.132583X0.503814X-0.503814X-0.132583X-0.132583X-0.503814X0*%
%ADD35R,0.600000X1.550000*%
%ADD36R,1.200000X1.800000*%
%ADD37RoundRect,0.200000X0.200000X0.275000X-0.200000X0.275000X-0.200000X-0.275000X0.200000X-0.275000X0*%
G04 APERTURE END LIST*
D10*
%TO.C,C23*%
X162750000Y-104300000D03*
X162750000Y-102750000D03*
%TD*%
D11*
%TO.C,R12*%
X157000000Y-76572900D03*
X157000000Y-78427100D03*
%TD*%
D12*
%TO.C,R23*%
X188854765Y-141354765D03*
X190145235Y-142645235D03*
%TD*%
D13*
%TO.C,FB10*%
X185720000Y-68000000D03*
X184000000Y-68000000D03*
%TD*%
D14*
%TO.C,U4*%
X124399999Y-115224998D03*
X124399999Y-114575000D03*
X124399999Y-113925000D03*
X124399999Y-113275002D03*
X118600001Y-113275002D03*
X118600001Y-113925000D03*
X118600001Y-114575000D03*
X118600001Y-115224998D03*
%TD*%
D13*
%TO.C,FB11*%
X114140000Y-137500000D03*
X115860000Y-137500000D03*
%TD*%
D15*
%TO.C,D3*%
X106757538Y-145742462D03*
X108242462Y-144257538D03*
%TD*%
D16*
%TO.C,C22*%
X142025000Y-98600000D03*
X140475000Y-98600000D03*
%TD*%
D17*
%TO.C,C19*%
X122395001Y-111250000D03*
X120604999Y-111250000D03*
%TD*%
D13*
%TO.C,FB6*%
X114390000Y-68000000D03*
X116110000Y-68000000D03*
%TD*%
D11*
%TO.C,R10*%
X159750000Y-76572900D03*
X159750000Y-78427100D03*
%TD*%
D18*
%TO.C,C35*%
X164700000Y-103500000D03*
X166250000Y-103500000D03*
%TD*%
%TO.C,C5*%
X145475000Y-100600000D03*
X147025000Y-100600000D03*
%TD*%
D16*
%TO.C,C32*%
X154525000Y-103500000D03*
X152975000Y-103500000D03*
%TD*%
D19*
%TO.C,R28*%
X130100000Y-102350000D03*
X131750000Y-102350000D03*
%TD*%
D13*
%TO.C,FB9*%
X185720000Y-91166666D03*
X184000000Y-91166666D03*
%TD*%
D14*
%TO.C,U6*%
X124399999Y-68974998D03*
X124399999Y-68325000D03*
X124399999Y-67675000D03*
X124399999Y-67025002D03*
X118600001Y-67025002D03*
X118600001Y-67675000D03*
X118600001Y-68325000D03*
X118600001Y-68974998D03*
%TD*%
D11*
%TO.C,R20*%
X157000000Y-80572900D03*
X157000000Y-82427100D03*
%TD*%
D14*
%TO.C,U8*%
X175600001Y-113358333D03*
X175600001Y-114008331D03*
X175600001Y-114658333D03*
X175600001Y-115308331D03*
X181399999Y-115308331D03*
X181399999Y-114658333D03*
X181399999Y-114008331D03*
X181399999Y-113358333D03*
%TD*%
D20*
%TO.C,D2*%
X193242462Y-145742462D03*
X191757538Y-144257538D03*
%TD*%
D17*
%TO.C,C27*%
X122395001Y-88000000D03*
X120604999Y-88000000D03*
%TD*%
D14*
%TO.C,U5*%
X124399999Y-92141664D03*
X124399999Y-91491666D03*
X124399999Y-90841666D03*
X124399999Y-90191668D03*
X118600001Y-90191668D03*
X118600001Y-90841666D03*
X118600001Y-91491666D03*
X118600001Y-92141664D03*
%TD*%
D21*
%TO.C,R16*%
X170500000Y-111920332D03*
X170500000Y-116746332D03*
%TD*%
D19*
%TO.C,R29*%
X152925000Y-101750000D03*
X154575000Y-101750000D03*
%TD*%
D17*
%TO.C,C10*%
X177605000Y-117250000D03*
X179395000Y-117250000D03*
%TD*%
%TO.C,C9*%
X182145001Y-73750000D03*
X180354999Y-73750000D03*
%TD*%
D22*
%TO.C,C15*%
X163000000Y-140311402D03*
X163000000Y-134698000D03*
%TD*%
D19*
%TO.C,R32*%
X167925000Y-103500000D03*
X169575000Y-103500000D03*
%TD*%
D21*
%TO.C,R19*%
X129500000Y-139913000D03*
X129500000Y-135087000D03*
%TD*%
D17*
%TO.C,C6*%
X122395001Y-65000000D03*
X120604999Y-65000000D03*
%TD*%
D10*
%TO.C,C21*%
X137250000Y-101525000D03*
X137250000Y-99975000D03*
%TD*%
D16*
%TO.C,C30*%
X135000000Y-100600000D03*
X133450000Y-100600000D03*
%TD*%
D14*
%TO.C,U11*%
X124399999Y-138474998D03*
X124399999Y-137825000D03*
X124399999Y-137175000D03*
X124399999Y-136525002D03*
X118600001Y-136525002D03*
X118600001Y-137175000D03*
X118600001Y-137825000D03*
X118600001Y-138474998D03*
%TD*%
D23*
%TO.C,D4*%
X106757538Y-59757538D03*
X108242462Y-61242462D03*
%TD*%
D24*
%TO.C,R2*%
X120662500Y-82000000D03*
X118837500Y-82000000D03*
%TD*%
D17*
%TO.C,C8*%
X177605000Y-140500000D03*
X179395000Y-140500000D03*
%TD*%
D25*
%TO.C,R22*%
X111145235Y-141354765D03*
X109854765Y-142645235D03*
%TD*%
D13*
%TO.C,FB5*%
X114390000Y-91166666D03*
X116110000Y-91166666D03*
%TD*%
D26*
%TO.C,U14*%
X147850000Y-78500000D03*
X147850000Y-79000000D03*
X147850000Y-79500000D03*
X147850000Y-80000000D03*
X147850000Y-80500000D03*
X152150000Y-80500000D03*
X152150000Y-80000000D03*
X152150000Y-79500000D03*
X152150000Y-79000000D03*
X152150000Y-78500000D03*
%TD*%
D17*
%TO.C,C28*%
X177604999Y-71000000D03*
X179395001Y-71000000D03*
%TD*%
D27*
%TO.C,D1*%
X193242462Y-59757538D03*
X191757538Y-61242462D03*
%TD*%
D28*
%TO.C,R4*%
X150000000Y-146825000D03*
X150000000Y-145000000D03*
%TD*%
D13*
%TO.C,FB8*%
X185720000Y-114500000D03*
X184000000Y-114500000D03*
%TD*%
D21*
%TO.C,R17*%
X170500000Y-88753666D03*
X170500000Y-93579666D03*
%TD*%
D29*
%TO.C,FB1*%
X141984999Y-104500000D03*
X140515001Y-104500000D03*
%TD*%
D16*
%TO.C,C31*%
X135025000Y-102350000D03*
X133475000Y-102350000D03*
%TD*%
D11*
%TO.C,R8*%
X143000000Y-76572900D03*
X143000000Y-78427100D03*
%TD*%
D21*
%TO.C,R14*%
X129500000Y-70413000D03*
X129500000Y-65587000D03*
%TD*%
%TO.C,R18*%
X170500000Y-65587000D03*
X170500000Y-70413000D03*
%TD*%
D18*
%TO.C,C20*%
X158200000Y-101250000D03*
X159750000Y-101250000D03*
%TD*%
D30*
%TO.C,C25*%
X154000000Y-79550001D03*
X154000000Y-81449999D03*
%TD*%
D31*
%TO.C,R21*%
X188854765Y-64145235D03*
X190145235Y-62854765D03*
%TD*%
D22*
%TO.C,C17*%
X163000000Y-94056701D03*
X163000000Y-88443299D03*
%TD*%
D11*
%TO.C,R7*%
X140500000Y-76572900D03*
X140500000Y-78427100D03*
%TD*%
D17*
%TO.C,C29*%
X122395001Y-134500000D03*
X120604999Y-134500000D03*
%TD*%
D32*
%TO.C,R9*%
X143000000Y-80587500D03*
X143000000Y-82412500D03*
%TD*%
D14*
%TO.C,U10*%
X175600001Y-67025001D03*
X175600001Y-67674999D03*
X175600001Y-68325001D03*
X175600001Y-68974999D03*
X181399999Y-68974999D03*
X181399999Y-68325001D03*
X181399999Y-67674999D03*
X181399999Y-67025001D03*
%TD*%
D22*
%TO.C,C13*%
X137000000Y-88443299D03*
X137000000Y-94056701D03*
%TD*%
D14*
%TO.C,U9*%
X175600001Y-90191667D03*
X175600001Y-90841665D03*
X175600001Y-91491667D03*
X175600001Y-92141665D03*
X181399999Y-92141665D03*
X181399999Y-91491667D03*
X181399999Y-90841665D03*
X181399999Y-90191667D03*
%TD*%
D22*
%TO.C,C18*%
X163000000Y-70863402D03*
X163000000Y-65250000D03*
%TD*%
D18*
%TO.C,C34*%
X164700000Y-105250000D03*
X166250000Y-105250000D03*
%TD*%
D21*
%TO.C,R15*%
X170500000Y-135087000D03*
X170500000Y-139913000D03*
%TD*%
D17*
%TO.C,C26*%
X177605000Y-94250000D03*
X179395000Y-94250000D03*
%TD*%
D29*
%TO.C,FB2*%
X158240001Y-107000000D03*
X159709999Y-107000000D03*
%TD*%
D19*
%TO.C,R30*%
X152925000Y-107000000D03*
X154575000Y-107000000D03*
%TD*%
D33*
%TO.C,C24*%
X150949999Y-83000000D03*
X149050001Y-83000000D03*
%TD*%
D34*
%TO.C,R1*%
X186040470Y-80790470D03*
X184750000Y-79500000D03*
%TD*%
D14*
%TO.C,U7*%
X175600001Y-136525002D03*
X175600001Y-137175000D03*
X175600001Y-137825000D03*
X175600001Y-138474998D03*
X181399999Y-138474998D03*
X181399999Y-137825000D03*
X181399999Y-137175000D03*
X181399999Y-136525002D03*
%TD*%
D22*
%TO.C,C14*%
X137000000Y-65188599D03*
X137000000Y-70802001D03*
%TD*%
D19*
%TO.C,R27*%
X130100000Y-100600000D03*
X131750000Y-100600000D03*
%TD*%
D22*
%TO.C,C12*%
X137000000Y-111386598D03*
X137000000Y-117000000D03*
%TD*%
D35*
%TO.C,J8*%
X151500000Y-57275000D03*
X150500000Y-57275000D03*
X149500000Y-57275000D03*
X148500000Y-57275000D03*
D36*
X152800000Y-53400000D03*
X147200000Y-53400000D03*
%TD*%
D18*
%TO.C,C4*%
X145475000Y-102350000D03*
X147025000Y-102350000D03*
%TD*%
D32*
%TO.C,R6*%
X140500000Y-80587500D03*
X140500000Y-82412500D03*
%TD*%
D28*
%TO.C,R3*%
X150000000Y-127912500D03*
X150000000Y-126087500D03*
%TD*%
D34*
%TO.C,R24*%
X111145235Y-64145235D03*
X109854765Y-62854765D03*
%TD*%
D13*
%TO.C,FB7*%
X185720000Y-137500000D03*
X184000000Y-137500000D03*
%TD*%
D22*
%TO.C,C11*%
X137000000Y-134636598D03*
X137000000Y-140250000D03*
%TD*%
D26*
%TO.C,U12*%
X143400000Y-102500000D03*
X143400000Y-102000000D03*
X143400001Y-101500000D03*
X143400000Y-101000000D03*
X143400000Y-100500000D03*
X139100000Y-100500000D03*
X139100000Y-101000000D03*
X139099999Y-101500000D03*
X139100000Y-102000000D03*
X139100000Y-102500000D03*
%TD*%
D11*
%TO.C,R11*%
X159750000Y-80572900D03*
X159750000Y-82427100D03*
%TD*%
D19*
%TO.C,R31*%
X167925000Y-105250000D03*
X169575000Y-105250000D03*
%TD*%
D22*
%TO.C,C16*%
X163000000Y-111500000D03*
X163000000Y-117113402D03*
%TD*%
D17*
%TO.C,C7*%
X119645001Y-73750000D03*
X117854999Y-73750000D03*
%TD*%
D21*
%TO.C,R13*%
X129500000Y-93579666D03*
X129500000Y-88753666D03*
%TD*%
D13*
%TO.C,FB4*%
X114390000Y-114250000D03*
X116110000Y-114250000D03*
%TD*%
D37*
%TO.C,R26*%
X147075000Y-98850000D03*
X145425000Y-98850000D03*
%TD*%
D16*
%TO.C,C33*%
X154525000Y-105250000D03*
X152975000Y-105250000D03*
%TD*%
D13*
%TO.C,FB3*%
X149140000Y-76000000D03*
X150860000Y-76000000D03*
%TD*%
D26*
%TO.C,U13*%
X156600000Y-103250000D03*
X156600000Y-103750000D03*
X156599999Y-104250000D03*
X156600000Y-104750000D03*
X156600000Y-105250000D03*
X160900000Y-105250000D03*
X160900000Y-104750000D03*
X160900001Y-104250000D03*
X160900000Y-103750000D03*
X160900000Y-103250000D03*
%TD*%
D21*
%TO.C,R25*%
X129500000Y-116663000D03*
X129500000Y-111837000D03*
%TD*%
D37*
%TO.C,R5*%
X147075000Y-104100000D03*
X145425000Y-104100000D03*
%TD*%
M02*
