%TF.GenerationSoftware,KiCad,Pcbnew,8.0.5*%
%TF.CreationDate,2025-09-24T23:13:40-07:00*%
%TF.ProjectId,Power8Board V1,506f7765-7238-4426-9f61-72642056312e,rev?*%
%TF.SameCoordinates,Original*%
%TF.FileFunction,Copper,L1,Top*%
%TF.FilePolarity,Positive*%
%FSLAX46Y46*%
G04 Gerber Fmt 4.6, Leading zero omitted, Abs format (unit mm)*
G04 Created by KiCad (PCBNEW 8.0.5) date 2025-09-24 23:13:40*
%MOMM*%
%LPD*%
G01*
G04 APERTURE LIST*
G04 Aperture macros list*
%AMRoundRect*
0 Rectangle with rounded corners*
0 $1 Rounding radius*
0 $2 $3 $4 $5 $6 $7 $8 $9 X,Y pos of 4 corners*
0 Add a 4 corners polygon primitive as box body*
4,1,4,$2,$3,$4,$5,$6,$7,$8,$9,$2,$3,0*
0 Add four circle primitives for the rounded corners*
1,1,$1+$1,$2,$3*
1,1,$1+$1,$4,$5*
1,1,$1+$1,$6,$7*
1,1,$1+$1,$8,$9*
0 Add four rect primitives between the rounded corners*
20,1,$1+$1,$2,$3,$4,$5,0*
20,1,$1+$1,$4,$5,$6,$7,0*
20,1,$1+$1,$6,$7,$8,$9,0*
20,1,$1+$1,$8,$9,$2,$3,0*%
%AMRotRect*
0 Rectangle, with rotation*
0 The origin of the aperture is its center*
0 $1 length*
0 $2 width*
0 $3 Rotation angle, in degrees counterclockwise*
0 Add horizontal line*
21,1,$1,$2,0,0,$3*%
%AMOutline5P*
0 Free polygon, 5 corners , with rotation*
0 The origin of the aperture is its center*
0 number of corners: always 5*
0 $1 to $10 corner X, Y*
0 $11 Rotation angle, in degrees counterclockwise*
0 create outline with 5 corners*
4,1,5,$1,$2,$3,$4,$5,$6,$7,$8,$9,$10,$1,$2,$11*%
%AMOutline6P*
0 Free polygon, 6 corners , with rotation*
0 The origin of the aperture is its center*
0 number of corners: always 6*
0 $1 to $12 corner X, Y*
0 $13 Rotation angle, in degrees counterclockwise*
0 create outline with 6 corners*
4,1,6,$1,$2,$3,$4,$5,$6,$7,$8,$9,$10,$11,$12,$1,$2,$13*%
%AMOutline7P*
0 Free polygon, 7 corners , with rotation*
0 The origin of the aperture is its center*
0 number of corners: always 7*
0 $1 to $14 corner X, Y*
0 $15 Rotation angle, in degrees counterclockwise*
0 create outline with 7 corners*
4,1,7,$1,$2,$3,$4,$5,$6,$7,$8,$9,$10,$11,$12,$13,$14,$1,$2,$15*%
%AMOutline8P*
0 Free polygon, 8 corners , with rotation*
0 The origin of the aperture is its center*
0 number of corners: always 8*
0 $1 to $16 corner X, Y*
0 $17 Rotation angle, in degrees counterclockwise*
0 create outline with 8 corners*
4,1,8,$1,$2,$3,$4,$5,$6,$7,$8,$9,$10,$11,$12,$13,$14,$15,$16,$1,$2,$17*%
G04 Aperture macros list end*
%TA.AperFunction,SMDPad,CuDef*%
%ADD10RoundRect,0.225000X0.250000X-0.225000X0.250000X0.225000X-0.250000X0.225000X-0.250000X-0.225000X0*%
%TD*%
%TA.AperFunction,SMDPad,CuDef*%
%ADD11R,1.397000X0.965200*%
%TD*%
%TA.AperFunction,SMDPad,CuDef*%
%ADD12RoundRect,0.250000X-0.503814X-0.132583X-0.132583X-0.503814X0.503814X0.132583X0.132583X0.503814X0*%
%TD*%
%TA.AperFunction,SMDPad,CuDef*%
%ADD13R,1.200000X1.470000*%
%TD*%
%TA.AperFunction,SMDPad,CuDef*%
%ADD14R,1.498600X0.457200*%
%TD*%
%TA.AperFunction,SMDPad,CuDef*%
%ADD15RotRect,1.100000X1.200000X45.000000*%
%TD*%
%TA.AperFunction,SMDPad,CuDef*%
%ADD16RoundRect,0.225000X0.225000X0.250000X-0.225000X0.250000X-0.225000X-0.250000X0.225000X-0.250000X0*%
%TD*%
%TA.AperFunction,SMDPad,CuDef*%
%ADD17R,1.080000X1.420000*%
%TD*%
%TA.AperFunction,SMDPad,CuDef*%
%ADD18RoundRect,0.225000X-0.225000X-0.250000X0.225000X-0.250000X0.225000X0.250000X-0.225000X0.250000X0*%
%TD*%
%TA.AperFunction,SMDPad,CuDef*%
%ADD19RoundRect,0.200000X-0.200000X-0.275000X0.200000X-0.275000X0.200000X0.275000X-0.200000X0.275000X0*%
%TD*%
%TA.AperFunction,ComponentPad*%
%ADD20R,3.800000X3.800000*%
%TD*%
%TA.AperFunction,ComponentPad*%
%ADD21C,4.100000*%
%TD*%
%TA.AperFunction,SMDPad,CuDef*%
%ADD22RotRect,1.100000X1.200000X135.000000*%
%TD*%
%TA.AperFunction,SMDPad,CuDef*%
%ADD23R,3.683000X2.540000*%
%TD*%
%TA.AperFunction,SMDPad,CuDef*%
%ADD24R,1.320800X3.302000*%
%TD*%
%TA.AperFunction,SMDPad,CuDef*%
%ADD25RotRect,1.100000X1.200000X315.000000*%
%TD*%
%TA.AperFunction,SMDPad,CuDef*%
%ADD26RoundRect,0.250000X0.262500X0.450000X-0.262500X0.450000X-0.262500X-0.450000X0.262500X-0.450000X0*%
%TD*%
%TA.AperFunction,SMDPad,CuDef*%
%ADD27RoundRect,0.250000X-0.132583X0.503814X-0.503814X0.132583X0.132583X-0.503814X0.503814X-0.132583X0*%
%TD*%
%TA.AperFunction,SMDPad,CuDef*%
%ADD28R,1.100000X0.250000*%
%TD*%
%TA.AperFunction,SMDPad,CuDef*%
%ADD29RotRect,1.100000X1.200000X225.000000*%
%TD*%
%TA.AperFunction,ComponentPad*%
%ADD30R,1.524000X1.524000*%
%TD*%
%TA.AperFunction,ComponentPad*%
%ADD31C,1.524000*%
%TD*%
%TA.AperFunction,SMDPad,CuDef*%
%ADD32RoundRect,0.250000X0.450000X-0.262500X0.450000X0.262500X-0.450000X0.262500X-0.450000X-0.262500X0*%
%TD*%
%TA.AperFunction,ComponentPad*%
%ADD33R,2.000000X0.900000*%
%TD*%
%TA.AperFunction,ComponentPad*%
%ADD34RoundRect,1.025000X-1.025000X1.025000X-1.025000X-1.025000X1.025000X-1.025000X1.025000X1.025000X0*%
%TD*%
%TA.AperFunction,ComponentPad*%
%ADD35R,1.300000X2.300000*%
%TD*%
%TA.AperFunction,SMDPad,CuDef*%
%ADD36R,1.000000X0.970000*%
%TD*%
%TA.AperFunction,ComponentPad*%
%ADD37C,3.810000*%
%TD*%
%TA.AperFunction,ComponentPad*%
%ADD38R,3.556000X5.080000*%
%TD*%
%TA.AperFunction,ComponentPad*%
%ADD39Outline5P,-2.540000X1.778000X2.540000X1.778000X2.540000X-0.533400X1.295400X-1.778000X-2.540000X-1.778000X270.000000*%
%TD*%
%TA.AperFunction,ComponentPad*%
%ADD40Outline5P,-2.540000X1.778000X1.295400X1.778000X2.540000X0.533400X2.540000X-1.778000X-2.540000X-1.778000X270.000000*%
%TD*%
%TA.AperFunction,SMDPad,CuDef*%
%ADD41RoundRect,0.250000X-0.475000X0.250000X-0.475000X-0.250000X0.475000X-0.250000X0.475000X0.250000X0*%
%TD*%
%TA.AperFunction,SMDPad,CuDef*%
%ADD42RoundRect,0.250000X0.132583X-0.503814X0.503814X-0.132583X-0.132583X0.503814X-0.503814X0.132583X0*%
%TD*%
%TA.AperFunction,SMDPad,CuDef*%
%ADD43RoundRect,0.250000X-0.450000X0.262500X-0.450000X-0.262500X0.450000X-0.262500X0.450000X0.262500X0*%
%TD*%
%TA.AperFunction,SMDPad,CuDef*%
%ADD44RoundRect,0.250000X0.250000X0.475000X-0.250000X0.475000X-0.250000X-0.475000X0.250000X-0.475000X0*%
%TD*%
%TA.AperFunction,ComponentPad*%
%ADD45C,1.400000*%
%TD*%
%TA.AperFunction,ComponentPad*%
%ADD46R,3.000000X3.000000*%
%TD*%
%TA.AperFunction,ComponentPad*%
%ADD47C,3.000000*%
%TD*%
%TA.AperFunction,SMDPad,CuDef*%
%ADD48RoundRect,0.250000X0.503814X0.132583X0.132583X0.503814X-0.503814X-0.132583X-0.132583X-0.503814X0*%
%TD*%
%TA.AperFunction,ComponentPad*%
%ADD49C,3.302000*%
%TD*%
%TA.AperFunction,ComponentPad*%
%ADD50C,4.318000*%
%TD*%
%TA.AperFunction,ComponentPad*%
%ADD51C,2.794000*%
%TD*%
%TA.AperFunction,ComponentPad*%
%ADD52C,3.048000*%
%TD*%
%TA.AperFunction,SMDPad,CuDef*%
%ADD53R,0.600000X1.550000*%
%TD*%
%TA.AperFunction,SMDPad,CuDef*%
%ADD54R,1.200000X1.800000*%
%TD*%
%TA.AperFunction,SMDPad,CuDef*%
%ADD55RoundRect,0.200000X0.200000X0.275000X-0.200000X0.275000X-0.200000X-0.275000X0.200000X-0.275000X0*%
%TD*%
%TA.AperFunction,ViaPad*%
%ADD56C,0.800000*%
%TD*%
%TA.AperFunction,ViaPad*%
%ADD57C,0.600000*%
%TD*%
%TA.AperFunction,ViaPad*%
%ADD58C,0.500000*%
%TD*%
%TA.AperFunction,Conductor*%
%ADD59C,0.400000*%
%TD*%
%TA.AperFunction,Conductor*%
%ADD60C,1.000000*%
%TD*%
%TA.AperFunction,Conductor*%
%ADD61C,0.500000*%
%TD*%
%TA.AperFunction,Conductor*%
%ADD62C,0.300000*%
%TD*%
%TA.AperFunction,Conductor*%
%ADD63C,0.200000*%
%TD*%
%TA.AperFunction,Conductor*%
%ADD64C,0.800000*%
%TD*%
G04 APERTURE END LIST*
D10*
%TO.P,C23,1*%
%TO.N,+3.3VA{slash}2*%
X162750000Y-104300000D03*
%TO.P,C23,2*%
%TO.N,GND*%
X162750000Y-102750000D03*
%TD*%
D11*
%TO.P,R12,1*%
%TO.N,+3.3V*%
X157000000Y-76572900D03*
%TO.P,R12,2*%
%TO.N,/Voltage Sensing/AIN3*%
X157000000Y-78427100D03*
%TD*%
D12*
%TO.P,R23,1*%
%TO.N,+5V*%
X188854765Y-141354765D03*
%TO.P,R23,2*%
%TO.N,Net-(D2-A)*%
X190145235Y-142645235D03*
%TD*%
D13*
%TO.P,FB10,1*%
%TO.N,+3.3V*%
X185720000Y-68000000D03*
%TO.P,FB10,2*%
%TO.N,+3.3VA{slash}10*%
X184000000Y-68000000D03*
%TD*%
D14*
%TO.P,U4,1,NC*%
%TO.N,unconnected-(U4-NC-Pad1)*%
X124399999Y-115224998D03*
%TO.P,U4,2,IN+*%
%TO.N,+12V*%
X124399999Y-114575000D03*
%TO.P,U4,3,IN-*%
%TO.N,+12V{slash}1*%
X124399999Y-113925000D03*
%TO.P,U4,4,GND*%
%TO.N,GND*%
X124399999Y-113275002D03*
%TO.P,U4,5,VS*%
%TO.N,+3.3VA{slash}4*%
X118600001Y-113275002D03*
%TO.P,U4,6,REF2*%
%TO.N,GND*%
X118600001Y-113925000D03*
%TO.P,U4,7,REF1*%
X118600001Y-114575000D03*
%TO.P,U4,8,OUT*%
%TO.N,/Current Sensing/INA240 Current Sensor 1/OUT1*%
X118600001Y-115224998D03*
%TD*%
D13*
%TO.P,FB11,1*%
%TO.N,+3.3V*%
X114140000Y-137500000D03*
%TO.P,FB11,2*%
%TO.N,+3.3VA{slash}11*%
X115860000Y-137500000D03*
%TD*%
D15*
%TO.P,D3,1,K*%
%TO.N,GND*%
X106757538Y-145742462D03*
%TO.P,D3,2,A*%
%TO.N,Net-(D3-A)*%
X108242462Y-144257538D03*
%TD*%
D16*
%TO.P,C22,1*%
%TO.N,+3.3V*%
X142025000Y-98600000D03*
%TO.P,C22,2*%
%TO.N,GND*%
X140475000Y-98600000D03*
%TD*%
D17*
%TO.P,C19,1*%
%TO.N,GND*%
X122395001Y-111250000D03*
%TO.P,C19,2*%
%TO.N,+3.3VA{slash}4*%
X120604999Y-111250000D03*
%TD*%
D13*
%TO.P,FB6,1*%
%TO.N,+3.3V*%
X114390000Y-68000000D03*
%TO.P,FB6,2*%
%TO.N,+3.3VA{slash}6*%
X116110000Y-68000000D03*
%TD*%
D11*
%TO.P,R10,1*%
%TO.N,+5V*%
X159750000Y-76572900D03*
%TO.P,R10,2*%
%TO.N,/Voltage Sensing/AIN2*%
X159750000Y-78427100D03*
%TD*%
D18*
%TO.P,C35,1*%
%TO.N,Net-(U13-AIN3)*%
X164700000Y-103500000D03*
%TO.P,C35,2*%
%TO.N,GND*%
X166250000Y-103500000D03*
%TD*%
%TO.P,C5,1*%
%TO.N,Net-(U12-AIN1)*%
X145475000Y-100600000D03*
%TO.P,C5,2*%
%TO.N,GND*%
X147025000Y-100600000D03*
%TD*%
D16*
%TO.P,C32,1*%
%TO.N,Net-(U13-AIN0)*%
X154525000Y-103500000D03*
%TO.P,C32,2*%
%TO.N,GND*%
X152975000Y-103500000D03*
%TD*%
D19*
%TO.P,R28,1*%
%TO.N,/Current Sensing/INA240 Current Sensor 3/OUT3*%
X130100000Y-102350000D03*
%TO.P,R28,2*%
%TO.N,Net-(U12-AIN3)*%
X131750000Y-102350000D03*
%TD*%
D13*
%TO.P,FB9,1*%
%TO.N,+3.3V*%
X185720000Y-91166666D03*
%TO.P,FB9,2*%
%TO.N,+3.3VA{slash}9*%
X184000000Y-91166666D03*
%TD*%
D14*
%TO.P,U6,1,NC*%
%TO.N,unconnected-(U6-NC-Pad1)*%
X124399999Y-68974998D03*
%TO.P,U6,2,IN+*%
%TO.N,+12V*%
X124399999Y-68325000D03*
%TO.P,U6,3,IN-*%
%TO.N,+12V{slash}3*%
X124399999Y-67675000D03*
%TO.P,U6,4,GND*%
%TO.N,GND*%
X124399999Y-67025002D03*
%TO.P,U6,5,VS*%
%TO.N,+3.3VA{slash}6*%
X118600001Y-67025002D03*
%TO.P,U6,6,REF2*%
%TO.N,GND*%
X118600001Y-67675000D03*
%TO.P,U6,7,REF1*%
X118600001Y-68325000D03*
%TO.P,U6,8,OUT*%
%TO.N,/Current Sensing/INA240 Current Sensor 3/OUT3*%
X118600001Y-68974998D03*
%TD*%
D20*
%TO.P,J1,1,NEG*%
%TO.N,GND*%
X145750000Y-116833332D03*
D21*
%TO.P,J1,2,POS*%
%TO.N,+12V{slash}1*%
X145750000Y-111833332D03*
%TD*%
D20*
%TO.P,J5,1,NEG*%
%TO.N,GND*%
X154250000Y-111833332D03*
D21*
%TO.P,J5,2,POS*%
%TO.N,+12V{slash}5*%
X154250000Y-116833332D03*
%TD*%
D11*
%TO.P,R20,1*%
%TO.N,/Voltage Sensing/AIN3*%
X157000000Y-80572900D03*
%TO.P,R20,2*%
%TO.N,GND*%
X157000000Y-82427100D03*
%TD*%
D14*
%TO.P,U8,1,NC*%
%TO.N,unconnected-(U8-NC-Pad1)*%
X175600001Y-113358333D03*
%TO.P,U8,2,IN+*%
%TO.N,+12V*%
X175600001Y-114008331D03*
%TO.P,U8,3,IN-*%
%TO.N,+12V{slash}5*%
X175600001Y-114658333D03*
%TO.P,U8,4,GND*%
%TO.N,GND*%
X175600001Y-115308331D03*
%TO.P,U8,5,VS*%
%TO.N,+3.3VA{slash}8*%
X181399999Y-115308331D03*
%TO.P,U8,6,REF2*%
%TO.N,GND*%
X181399999Y-114658333D03*
%TO.P,U8,7,REF1*%
X181399999Y-114008331D03*
%TO.P,U8,8,OUT*%
%TO.N,/Current Sensing/INA240 Current Sensor 5/OUT5*%
X181399999Y-113358333D03*
%TD*%
D22*
%TO.P,D2,1,K*%
%TO.N,GND*%
X193242462Y-145742462D03*
%TO.P,D2,2,A*%
%TO.N,Net-(D2-A)*%
X191757538Y-144257538D03*
%TD*%
D17*
%TO.P,C27,1*%
%TO.N,GND*%
X122395001Y-88000000D03*
%TO.P,C27,2*%
%TO.N,+3.3VA{slash}5*%
X120604999Y-88000000D03*
%TD*%
D14*
%TO.P,U5,1,NC*%
%TO.N,unconnected-(U5-NC-Pad1)*%
X124399999Y-92141664D03*
%TO.P,U5,2,IN+*%
%TO.N,+12V*%
X124399999Y-91491666D03*
%TO.P,U5,3,IN-*%
%TO.N,+12V{slash}2*%
X124399999Y-90841666D03*
%TO.P,U5,4,GND*%
%TO.N,GND*%
X124399999Y-90191668D03*
%TO.P,U5,5,VS*%
%TO.N,+3.3VA{slash}5*%
X118600001Y-90191668D03*
%TO.P,U5,6,REF2*%
%TO.N,GND*%
X118600001Y-90841666D03*
%TO.P,U5,7,REF1*%
X118600001Y-91491666D03*
%TO.P,U5,8,OUT*%
%TO.N,/Current Sensing/INA240 Current Sensor 2/OUT2*%
X118600001Y-92141664D03*
%TD*%
D23*
%TO.P,R16,1*%
%TO.N,+12V*%
X170500000Y-111920332D03*
%TO.P,R16,2*%
%TO.N,+12V{slash}5*%
X170500000Y-116746332D03*
%TD*%
D19*
%TO.P,R29,1*%
%TO.N,/Current Sensing/INA240 Current Sensor 4/OUT4*%
X152925000Y-101750000D03*
%TO.P,R29,2*%
%TO.N,Net-(U13-AIN0)*%
X154575000Y-101750000D03*
%TD*%
D17*
%TO.P,C10,1*%
%TO.N,GND*%
X177605000Y-117250000D03*
%TO.P,C10,2*%
%TO.N,+3.3VA{slash}8*%
X179395000Y-117250000D03*
%TD*%
%TO.P,C9,1*%
%TO.N,GND*%
X182145001Y-73750000D03*
%TO.P,C9,2*%
%TO.N,+48V*%
X180354999Y-73750000D03*
%TD*%
D24*
%TO.P,C15,1*%
%TO.N,+12V{slash}4*%
X163000000Y-140311402D03*
%TO.P,C15,2*%
%TO.N,GND*%
X163000000Y-134698000D03*
%TD*%
D19*
%TO.P,R32,1*%
%TO.N,/Current Sensing/INA240 Current Sensor 7/OUT7*%
X167925000Y-103500000D03*
%TO.P,R32,2*%
%TO.N,Net-(U13-AIN3)*%
X169575000Y-103500000D03*
%TD*%
D23*
%TO.P,R19,1*%
%TO.N,+12V*%
X129500000Y-139913000D03*
%TO.P,R19,2*%
%TO.N,+12V{slash}0*%
X129500000Y-135087000D03*
%TD*%
D17*
%TO.P,C6,1*%
%TO.N,GND*%
X122395001Y-65000000D03*
%TO.P,C6,2*%
%TO.N,+3.3VA{slash}6*%
X120604999Y-65000000D03*
%TD*%
D10*
%TO.P,C21,1*%
%TO.N,+3.3VA{slash}1*%
X137250000Y-101525000D03*
%TO.P,C21,2*%
%TO.N,GND*%
X137250000Y-99975000D03*
%TD*%
D16*
%TO.P,C30,1*%
%TO.N,Net-(U12-AIN2)*%
X135000000Y-100600000D03*
%TO.P,C30,2*%
%TO.N,GND*%
X133450000Y-100600000D03*
%TD*%
D14*
%TO.P,U11,1,NC*%
%TO.N,unconnected-(U11-NC-Pad1)*%
X124399999Y-138474998D03*
%TO.P,U11,2,IN+*%
%TO.N,+12V*%
X124399999Y-137825000D03*
%TO.P,U11,3,IN-*%
%TO.N,+12V{slash}0*%
X124399999Y-137175000D03*
%TO.P,U11,4,GND*%
%TO.N,GND*%
X124399999Y-136525002D03*
%TO.P,U11,5,VS*%
%TO.N,+3.3VA{slash}11*%
X118600001Y-136525002D03*
%TO.P,U11,6,REF2*%
%TO.N,GND*%
X118600001Y-137175000D03*
%TO.P,U11,7,REF1*%
X118600001Y-137825000D03*
%TO.P,U11,8,OUT*%
%TO.N,/Current Sensing/INA240 Current Sensor 0/OUT0*%
X118600001Y-138474998D03*
%TD*%
D25*
%TO.P,D4,1,K*%
%TO.N,GND*%
X106757538Y-59757538D03*
%TO.P,D4,2,A*%
%TO.N,Net-(D4-A)*%
X108242462Y-61242462D03*
%TD*%
D26*
%TO.P,R2,1*%
%TO.N,GND*%
X120662500Y-82000000D03*
%TO.P,R2,2*%
%TO.N,Net-(U2-On{slash}Off)*%
X118837500Y-82000000D03*
%TD*%
D17*
%TO.P,C8,1*%
%TO.N,GND*%
X177605000Y-140500000D03*
%TO.P,C8,2*%
%TO.N,+3.3VA{slash}7*%
X179395000Y-140500000D03*
%TD*%
D27*
%TO.P,R22,1*%
%TO.N,+12V*%
X111145235Y-141354765D03*
%TO.P,R22,2*%
%TO.N,Net-(D3-A)*%
X109854765Y-142645235D03*
%TD*%
D20*
%TO.P,J0,1,NEG*%
%TO.N,GND*%
X145750000Y-140000000D03*
D21*
%TO.P,J0,2,POS*%
%TO.N,+12V{slash}0*%
X145750000Y-135000000D03*
%TD*%
D13*
%TO.P,FB5,1*%
%TO.N,+3.3V*%
X114390000Y-91166666D03*
%TO.P,FB5,2*%
%TO.N,+3.3VA{slash}5*%
X116110000Y-91166666D03*
%TD*%
D28*
%TO.P,U14,1,ADDR*%
%TO.N,SDA*%
X147850000Y-78500000D03*
%TO.P,U14,2,ALERT/RDY*%
%TO.N,unconnected-(U14-ALERT{slash}RDY-Pad2)*%
X147850000Y-79000000D03*
%TO.P,U14,3,GND*%
%TO.N,GND*%
X147850000Y-79500000D03*
%TO.P,U14,4,AIN0*%
%TO.N,/Voltage Sensing/AIN0*%
X147850000Y-80000000D03*
%TO.P,U14,5,AIN1*%
%TO.N,/Voltage Sensing/AIN1*%
X147850000Y-80500000D03*
%TO.P,U14,6,AIN2*%
%TO.N,/Voltage Sensing/AIN2*%
X152150000Y-80500000D03*
%TO.P,U14,7,AIN3*%
%TO.N,/Voltage Sensing/AIN3*%
X152150000Y-80000000D03*
%TO.P,U14,8,VDD*%
%TO.N,+3.3VA{slash}3*%
X152150000Y-79500000D03*
%TO.P,U14,9,SDA*%
%TO.N,SDA*%
X152150000Y-79000000D03*
%TO.P,U14,10,SCL*%
%TO.N,SCL*%
X152150000Y-78500000D03*
%TD*%
D17*
%TO.P,C28,1*%
%TO.N,GND*%
X177604999Y-71000000D03*
%TO.P,C28,2*%
%TO.N,+3.3VA{slash}10*%
X179395001Y-71000000D03*
%TD*%
D29*
%TO.P,D1,1,K*%
%TO.N,GND*%
X193242462Y-59757538D03*
%TO.P,D1,2,A*%
%TO.N,Net-(D1-A)*%
X191757538Y-61242462D03*
%TD*%
D30*
%TO.P,C3,1*%
%TO.N,+48V*%
X179500000Y-84500000D03*
D31*
%TO.P,C3,2*%
%TO.N,GND*%
X183000000Y-84500000D03*
%TD*%
D32*
%TO.P,R4,1*%
%TO.N,Net-(U3-Trim)*%
X150000000Y-146825000D03*
%TO.P,R4,2*%
%TO.N,GND*%
X150000000Y-145000000D03*
%TD*%
D33*
%TO.P,J10,*%
%TO.N,*%
X189600000Y-97000000D03*
X189600000Y-110500000D03*
D34*
%TO.P,J10,1,NEG*%
%TO.N,GND*%
X183600000Y-100150000D03*
D21*
%TO.P,J10,2,POS*%
%TO.N,+48V*%
X183600000Y-107350000D03*
D35*
%TO.P,J10,3,NC*%
%TO.N,unconnected-(J10-NC-Pad3)*%
X187250000Y-103750000D03*
%TD*%
D13*
%TO.P,FB8,1*%
%TO.N,+3.3V*%
X185720000Y-114500000D03*
%TO.P,FB8,2*%
%TO.N,+3.3VA{slash}8*%
X184000000Y-114500000D03*
%TD*%
D23*
%TO.P,R17,1*%
%TO.N,+12V*%
X170500000Y-88753666D03*
%TO.P,R17,2*%
%TO.N,+12V{slash}6*%
X170500000Y-93579666D03*
%TD*%
D36*
%TO.P,FB1,1*%
%TO.N,+3.3V*%
X141984999Y-104500000D03*
%TO.P,FB1,2*%
%TO.N,+3.3VA{slash}1*%
X140515001Y-104500000D03*
%TD*%
D20*
%TO.P,J4,1,NEG*%
%TO.N,GND*%
X154250000Y-135000000D03*
D21*
%TO.P,J4,2,POS*%
%TO.N,+12V{slash}4*%
X154250000Y-140000000D03*
%TD*%
D16*
%TO.P,C31,1*%
%TO.N,Net-(U12-AIN3)*%
X135025000Y-102350000D03*
%TO.P,C31,2*%
%TO.N,GND*%
X133475000Y-102350000D03*
%TD*%
D11*
%TO.P,R8,1*%
%TO.N,+12V*%
X143000000Y-76572900D03*
%TO.P,R8,2*%
%TO.N,/Voltage Sensing/AIN1*%
X143000000Y-78427100D03*
%TD*%
D23*
%TO.P,R14,1*%
%TO.N,+12V*%
X129500000Y-70413000D03*
%TO.P,R14,2*%
%TO.N,+12V{slash}3*%
X129500000Y-65587000D03*
%TD*%
D20*
%TO.P,J2,1,NEG*%
%TO.N,GND*%
X145750000Y-93666666D03*
D21*
%TO.P,J2,2,POS*%
%TO.N,+12V{slash}2*%
X145750000Y-88666666D03*
%TD*%
D37*
%TO.P,U1,1,Vin+*%
%TO.N,+48V*%
X173630000Y-77600000D03*
%TO.P,U1,2,On/Off*%
%TO.N,Net-(U1-On{slash}Off)*%
X181250000Y-77600000D03*
%TO.P,U1,3,Vin-*%
%TO.N,GND*%
X188870000Y-77600000D03*
D38*
%TO.P,U1,4,Vout-*%
X192680000Y-128400000D03*
D39*
%TO.P,U1,5,Vout-*%
X188870000Y-127765000D03*
D40*
%TO.P,U1,7,Vout+*%
%TO.N,+12V*%
X173630000Y-127765000D03*
D38*
%TO.P,U1,8,Vout+*%
X169820000Y-128400000D03*
%TD*%
D23*
%TO.P,R18,1*%
%TO.N,+12V*%
X170500000Y-65587000D03*
%TO.P,R18,2*%
%TO.N,+12V{slash}7*%
X170500000Y-70413000D03*
%TD*%
D18*
%TO.P,C20,1*%
%TO.N,+3.3V*%
X158200000Y-101250000D03*
%TO.P,C20,2*%
%TO.N,GND*%
X159750000Y-101250000D03*
%TD*%
D41*
%TO.P,C25,1*%
%TO.N,+3.3VA{slash}3*%
X154000000Y-79550001D03*
%TO.P,C25,2*%
%TO.N,GND*%
X154000000Y-81449999D03*
%TD*%
D42*
%TO.P,R21,1*%
%TO.N,+3.3V*%
X188854765Y-64145235D03*
%TO.P,R21,2*%
%TO.N,Net-(D1-A)*%
X190145235Y-62854765D03*
%TD*%
D24*
%TO.P,C17,1*%
%TO.N,+12V{slash}6*%
X163000000Y-94056701D03*
%TO.P,C17,2*%
%TO.N,GND*%
X163000000Y-88443299D03*
%TD*%
D11*
%TO.P,R7,1*%
%TO.N,+48V*%
X140500000Y-76572900D03*
%TO.P,R7,2*%
%TO.N,/Voltage Sensing/AIN0*%
X140500000Y-78427100D03*
%TD*%
D17*
%TO.P,C29,1*%
%TO.N,GND*%
X122395001Y-134500000D03*
%TO.P,C29,2*%
%TO.N,+3.3VA{slash}11*%
X120604999Y-134500000D03*
%TD*%
D43*
%TO.P,R9,1*%
%TO.N,/Voltage Sensing/AIN1*%
X143000000Y-80587500D03*
%TO.P,R9,2*%
%TO.N,GND*%
X143000000Y-82412500D03*
%TD*%
D14*
%TO.P,U10,1,NC*%
%TO.N,unconnected-(U10-NC-Pad1)*%
X175600001Y-67025001D03*
%TO.P,U10,2,IN+*%
%TO.N,+12V*%
X175600001Y-67674999D03*
%TO.P,U10,3,IN-*%
%TO.N,+12V{slash}7*%
X175600001Y-68325001D03*
%TO.P,U10,4,GND*%
%TO.N,GND*%
X175600001Y-68974999D03*
%TO.P,U10,5,VS*%
%TO.N,+3.3VA{slash}10*%
X181399999Y-68974999D03*
%TO.P,U10,6,REF2*%
%TO.N,GND*%
X181399999Y-68325001D03*
%TO.P,U10,7,REF1*%
X181399999Y-67674999D03*
%TO.P,U10,8,OUT*%
%TO.N,/Current Sensing/INA240 Current Sensor 7/OUT7*%
X181399999Y-67025001D03*
%TD*%
D24*
%TO.P,C13,1*%
%TO.N,+12V{slash}2*%
X137000000Y-88443299D03*
%TO.P,C13,2*%
%TO.N,GND*%
X137000000Y-94056701D03*
%TD*%
D14*
%TO.P,U9,1,NC*%
%TO.N,unconnected-(U9-NC-Pad1)*%
X175600001Y-90191667D03*
%TO.P,U9,2,IN+*%
%TO.N,+12V*%
X175600001Y-90841665D03*
%TO.P,U9,3,IN-*%
%TO.N,+12V{slash}6*%
X175600001Y-91491667D03*
%TO.P,U9,4,GND*%
%TO.N,GND*%
X175600001Y-92141665D03*
%TO.P,U9,5,VS*%
%TO.N,+3.3VA{slash}9*%
X181399999Y-92141665D03*
%TO.P,U9,6,REF2*%
%TO.N,GND*%
X181399999Y-91491667D03*
%TO.P,U9,7,REF1*%
X181399999Y-90841665D03*
%TO.P,U9,8,OUT*%
%TO.N,/Current Sensing/INA240 Current Sensor 6/OUT6*%
X181399999Y-90191667D03*
%TD*%
D24*
%TO.P,C18,1*%
%TO.N,+12V{slash}7*%
X163000000Y-70863402D03*
%TO.P,C18,2*%
%TO.N,GND*%
X163000000Y-65250000D03*
%TD*%
D18*
%TO.P,C34,1*%
%TO.N,Net-(U13-AIN2)*%
X164700000Y-105250000D03*
%TO.P,C34,2*%
%TO.N,GND*%
X166250000Y-105250000D03*
%TD*%
D20*
%TO.P,J3,1,NEG*%
%TO.N,GND*%
X145750000Y-70500000D03*
D21*
%TO.P,J3,2,POS*%
%TO.N,+12V{slash}3*%
X145750000Y-65500000D03*
%TD*%
D23*
%TO.P,R15,1*%
%TO.N,+12V*%
X170500000Y-135087000D03*
%TO.P,R15,2*%
%TO.N,+12V{slash}4*%
X170500000Y-139913000D03*
%TD*%
D20*
%TO.P,J7,1,NEG*%
%TO.N,GND*%
X154250000Y-65500000D03*
D21*
%TO.P,J7,2,POS*%
%TO.N,+12V{slash}7*%
X154250000Y-70500000D03*
%TD*%
D17*
%TO.P,C26,1*%
%TO.N,GND*%
X177605000Y-94250000D03*
%TO.P,C26,2*%
%TO.N,+3.3VA{slash}9*%
X179395000Y-94250000D03*
%TD*%
D36*
%TO.P,FB2,1*%
%TO.N,+3.3V*%
X158240001Y-107000000D03*
%TO.P,FB2,2*%
%TO.N,+3.3VA{slash}2*%
X159709999Y-107000000D03*
%TD*%
D19*
%TO.P,R30,1*%
%TO.N,/Current Sensing/INA240 Current Sensor 5/OUT5*%
X152925000Y-107000000D03*
%TO.P,R30,2*%
%TO.N,Net-(U13-AIN1)*%
X154575000Y-107000000D03*
%TD*%
D30*
%TO.P,C2,1*%
%TO.N,+48V*%
X111250000Y-84750000D03*
D31*
%TO.P,C2,2*%
%TO.N,GND*%
X114750000Y-84750000D03*
%TD*%
D44*
%TO.P,C24,1*%
%TO.N,+3.3V*%
X150949999Y-83000000D03*
%TO.P,C24,2*%
%TO.N,GND*%
X149050001Y-83000000D03*
%TD*%
D45*
%TO.P,J9,*%
%TO.N,*%
X103500000Y-108250000D03*
X103500000Y-95250000D03*
D46*
%TO.P,J9,1,Pin_1*%
%TO.N,+12V*%
X113500000Y-105250000D03*
D47*
%TO.P,J9,2,Pin_2*%
%TO.N,GND*%
X113500000Y-101750000D03*
%TO.P,J9,3,Pin_3*%
%TO.N,+5V*%
X113500000Y-98250001D03*
%TD*%
D48*
%TO.P,R1,1*%
%TO.N,GND*%
X186040470Y-80790470D03*
%TO.P,R1,2*%
%TO.N,Net-(U1-On{slash}Off)*%
X184750000Y-79500000D03*
%TD*%
D14*
%TO.P,U7,1,NC*%
%TO.N,unconnected-(U7-NC-Pad1)*%
X175600001Y-136525002D03*
%TO.P,U7,2,IN+*%
%TO.N,+12V*%
X175600001Y-137175000D03*
%TO.P,U7,3,IN-*%
%TO.N,+12V{slash}4*%
X175600001Y-137825000D03*
%TO.P,U7,4,GND*%
%TO.N,GND*%
X175600001Y-138474998D03*
%TO.P,U7,5,VS*%
%TO.N,+3.3VA{slash}7*%
X181399999Y-138474998D03*
%TO.P,U7,6,REF2*%
%TO.N,GND*%
X181399999Y-137825000D03*
%TO.P,U7,7,REF1*%
X181399999Y-137175000D03*
%TO.P,U7,8,OUT*%
%TO.N,/Current Sensing/INA240 Current Sensor 4/OUT4*%
X181399999Y-136525002D03*
%TD*%
D20*
%TO.P,J6,1,NEG*%
%TO.N,GND*%
X154250000Y-88666666D03*
D21*
%TO.P,J6,2,POS*%
%TO.N,+12V{slash}6*%
X154250000Y-93666666D03*
%TD*%
D24*
%TO.P,C14,1*%
%TO.N,+12V{slash}3*%
X137000000Y-65188599D03*
%TO.P,C14,2*%
%TO.N,GND*%
X137000000Y-70802001D03*
%TD*%
D19*
%TO.P,R27,1*%
%TO.N,/Current Sensing/INA240 Current Sensor 2/OUT2*%
X130100000Y-100600000D03*
%TO.P,R27,2*%
%TO.N,Net-(U12-AIN2)*%
X131750000Y-100600000D03*
%TD*%
D24*
%TO.P,C12,1*%
%TO.N,+12V{slash}1*%
X137000000Y-111386598D03*
%TO.P,C12,2*%
%TO.N,GND*%
X137000000Y-117000000D03*
%TD*%
D49*
%TO.P,U3,1,Vin+*%
%TO.N,+48V*%
X142380000Y-122310000D03*
%TO.P,U3,2,On/Off*%
%TO.N,Net-(U3-On{slash}Off)*%
X150000000Y-122310000D03*
%TO.P,U3,3,Vin-*%
%TO.N,GND*%
X157620000Y-122310000D03*
D50*
%TO.P,U3,4,Vout-*%
X157620000Y-150250000D03*
D51*
%TO.P,U3,5,Sense-*%
X153810000Y-150250000D03*
D52*
%TO.P,U3,6,Trim*%
%TO.N,Net-(U3-Trim)*%
X150000000Y-150250000D03*
D51*
%TO.P,U3,7,Sense+*%
%TO.N,+5V*%
X146190000Y-150250000D03*
D50*
%TO.P,U3,8,Vout+*%
X142380000Y-150250000D03*
%TD*%
D30*
%TO.P,C1,1*%
%TO.N,+48V*%
X176000000Y-106083250D03*
D31*
%TO.P,C1,2*%
%TO.N,GND*%
X176000000Y-102583249D03*
%TD*%
D53*
%TO.P,J8,1,Pin_1*%
%TO.N,GND*%
X151500000Y-57275000D03*
%TO.P,J8,2,Pin_2*%
%TO.N,+3.3V*%
X150500000Y-57275000D03*
%TO.P,J8,3,Pin_3*%
%TO.N,SDA*%
X149500000Y-57275000D03*
%TO.P,J8,4,Pin_4*%
%TO.N,SCL*%
X148500000Y-57275000D03*
D54*
%TO.P,J8,NC1,5*%
%TO.N,unconnected-(J8-5-PadNC1)*%
X152800000Y-53400000D03*
%TO.P,J8,NC2,6*%
%TO.N,unconnected-(J8-6-PadNC2)*%
X147200000Y-53400000D03*
%TD*%
D18*
%TO.P,C4,1*%
%TO.N,Net-(U12-AIN0)*%
X145475000Y-102350000D03*
%TO.P,C4,2*%
%TO.N,GND*%
X147025000Y-102350000D03*
%TD*%
D43*
%TO.P,R6,1*%
%TO.N,/Voltage Sensing/AIN0*%
X140500000Y-80587500D03*
%TO.P,R6,2*%
%TO.N,GND*%
X140500000Y-82412500D03*
%TD*%
D32*
%TO.P,R3,1*%
%TO.N,GND*%
X150000000Y-127912500D03*
%TO.P,R3,2*%
%TO.N,Net-(U3-On{slash}Off)*%
X150000000Y-126087500D03*
%TD*%
D37*
%TO.P,U2,1,Vin+*%
%TO.N,+48V*%
X111130000Y-77600000D03*
%TO.P,U2,2,On/Off*%
%TO.N,Net-(U2-On{slash}Off)*%
X118750000Y-77600000D03*
%TO.P,U2,3,Vin-*%
%TO.N,GND*%
X126370000Y-77600000D03*
D38*
%TO.P,U2,4,Vout-*%
X130180000Y-128400000D03*
D39*
%TO.P,U2,5,Vout-*%
X126370000Y-127765000D03*
D40*
%TO.P,U2,7,Vout+*%
%TO.N,+12V*%
X111130000Y-127765000D03*
D38*
%TO.P,U2,8,Vout+*%
X107320000Y-128400000D03*
%TD*%
D48*
%TO.P,R24,1*%
%TO.N,+48V*%
X111145235Y-64145235D03*
%TO.P,R24,2*%
%TO.N,Net-(D4-A)*%
X109854765Y-62854765D03*
%TD*%
D13*
%TO.P,FB7,1*%
%TO.N,+3.3V*%
X185720000Y-137500000D03*
%TO.P,FB7,2*%
%TO.N,+3.3VA{slash}7*%
X184000000Y-137500000D03*
%TD*%
D24*
%TO.P,C11,1*%
%TO.N,+12V{slash}0*%
X137000000Y-134636598D03*
%TO.P,C11,2*%
%TO.N,GND*%
X137000000Y-140250000D03*
%TD*%
D28*
%TO.P,U12,1,ADDR*%
%TO.N,GND*%
X143400000Y-102500000D03*
%TO.P,U12,2,ALERT/RDY*%
%TO.N,unconnected-(U12-ALERT{slash}RDY-Pad2)*%
X143400000Y-102000000D03*
%TO.P,U12,3,GND*%
%TO.N,GND*%
X143400001Y-101500000D03*
%TO.P,U12,4,AIN0*%
%TO.N,Net-(U12-AIN0)*%
X143400000Y-101000000D03*
%TO.P,U12,5,AIN1*%
%TO.N,Net-(U12-AIN1)*%
X143400000Y-100500000D03*
%TO.P,U12,6,AIN2*%
%TO.N,Net-(U12-AIN2)*%
X139100000Y-100500000D03*
%TO.P,U12,7,AIN3*%
%TO.N,Net-(U12-AIN3)*%
X139100000Y-101000000D03*
%TO.P,U12,8,VDD*%
%TO.N,+3.3VA{slash}1*%
X139099999Y-101500000D03*
%TO.P,U12,9,SDA*%
%TO.N,SDA*%
X139100000Y-102000000D03*
%TO.P,U12,10,SCL*%
%TO.N,SCL*%
X139100000Y-102500000D03*
%TD*%
D11*
%TO.P,R11,1*%
%TO.N,/Voltage Sensing/AIN2*%
X159750000Y-80572900D03*
%TO.P,R11,2*%
%TO.N,GND*%
X159750000Y-82427100D03*
%TD*%
D19*
%TO.P,R31,1*%
%TO.N,/Current Sensing/INA240 Current Sensor 6/OUT6*%
X167925000Y-105250000D03*
%TO.P,R31,2*%
%TO.N,Net-(U13-AIN2)*%
X169575000Y-105250000D03*
%TD*%
D24*
%TO.P,C16,2*%
%TO.N,GND*%
X163000000Y-111500000D03*
%TO.P,C16,1*%
%TO.N,+12V{slash}5*%
X163000000Y-117113402D03*
%TD*%
D17*
%TO.P,C7,1*%
%TO.N,GND*%
X119645001Y-73750000D03*
%TO.P,C7,2*%
%TO.N,+48V*%
X117854999Y-73750000D03*
%TD*%
D23*
%TO.P,R13,1*%
%TO.N,+12V*%
X129500000Y-93579666D03*
%TO.P,R13,2*%
%TO.N,+12V{slash}2*%
X129500000Y-88753666D03*
%TD*%
D13*
%TO.P,FB4,1*%
%TO.N,+3.3V*%
X114390000Y-114250000D03*
%TO.P,FB4,2*%
%TO.N,+3.3VA{slash}4*%
X116110000Y-114250000D03*
%TD*%
D55*
%TO.P,R26,1*%
%TO.N,/Current Sensing/INA240 Current Sensor 1/OUT1*%
X147075000Y-98850000D03*
%TO.P,R26,2*%
%TO.N,Net-(U12-AIN1)*%
X145425000Y-98850000D03*
%TD*%
D16*
%TO.P,C33,1*%
%TO.N,Net-(U13-AIN1)*%
X154525000Y-105250000D03*
%TO.P,C33,2*%
%TO.N,GND*%
X152975000Y-105250000D03*
%TD*%
D13*
%TO.P,FB3,1*%
%TO.N,+3.3V*%
X149140000Y-76000000D03*
%TO.P,FB3,2*%
%TO.N,+3.3VA{slash}3*%
X150860000Y-76000000D03*
%TD*%
D28*
%TO.P,U13,1,ADDR*%
%TO.N,+3.3VA{slash}2*%
X156600000Y-103250000D03*
%TO.P,U13,2,ALERT/RDY*%
%TO.N,unconnected-(U13-ALERT{slash}RDY-Pad2)*%
X156600000Y-103750000D03*
%TO.P,U13,3,GND*%
%TO.N,GND*%
X156599999Y-104250000D03*
%TO.P,U13,4,AIN0*%
%TO.N,Net-(U13-AIN0)*%
X156600000Y-104750000D03*
%TO.P,U13,5,AIN1*%
%TO.N,Net-(U13-AIN1)*%
X156600000Y-105250000D03*
%TO.P,U13,6,AIN2*%
%TO.N,Net-(U13-AIN2)*%
X160900000Y-105250000D03*
%TO.P,U13,7,AIN3*%
%TO.N,Net-(U13-AIN3)*%
X160900000Y-104750000D03*
%TO.P,U13,8,VDD*%
%TO.N,+3.3VA{slash}2*%
X160900001Y-104250000D03*
%TO.P,U13,9,SDA*%
%TO.N,SDA*%
X160900000Y-103750000D03*
%TO.P,U13,10,SCL*%
%TO.N,SCL*%
X160900000Y-103250000D03*
%TD*%
D23*
%TO.P,R25,1*%
%TO.N,+12V*%
X129500000Y-116663000D03*
%TO.P,R25,2*%
%TO.N,+12V{slash}1*%
X129500000Y-111837000D03*
%TD*%
D55*
%TO.P,R5,1*%
%TO.N,/Current Sensing/INA240 Current Sensor 0/OUT0*%
X147075000Y-104100000D03*
%TO.P,R5,2*%
%TO.N,Net-(U12-AIN0)*%
X145425000Y-104100000D03*
%TD*%
D56*
%TO.N,+12V*%
X104000000Y-142750000D03*
X110000000Y-148750000D03*
X176125000Y-149000000D03*
X104000000Y-62750000D03*
X104000000Y-83750000D03*
X104000000Y-102000000D03*
X162250000Y-149000000D03*
X190000000Y-149000000D03*
X196000000Y-142750000D03*
X196000000Y-126750000D03*
X196000000Y-110750000D03*
X196000000Y-94750000D03*
X196000000Y-78750000D03*
X196000000Y-62750000D03*
X190000000Y-56750000D03*
X174000000Y-56750000D03*
X158000000Y-56750000D03*
X142000000Y-56750000D03*
X126000000Y-56750000D03*
X110000000Y-56750000D03*
D57*
%TO.N,+12V{slash}4*%
X154250000Y-143750000D03*
X163000000Y-143750000D03*
X170500000Y-143750000D03*
X163000000Y-140311402D03*
X170500000Y-139913000D03*
%TO.N,+12V{slash}5*%
X154250000Y-120750000D03*
X163000000Y-120750000D03*
X163000000Y-117113402D03*
X170500000Y-120750000D03*
X170500000Y-116746332D03*
%TO.N,+12V{slash}6*%
X154250000Y-98250000D03*
X163000000Y-97750000D03*
X163000000Y-94056701D03*
X170500000Y-97750000D03*
X170500000Y-93579666D03*
D56*
%TO.N,GND*%
X137000000Y-94056701D03*
D57*
X118600001Y-68000000D03*
X181399999Y-91100000D03*
D56*
X163000000Y-88443299D03*
X150000000Y-127912500D03*
D57*
X118600001Y-137500000D03*
X149050001Y-83000000D03*
D56*
X193242462Y-59757538D03*
D57*
X133450000Y-100600000D03*
X140475000Y-98600000D03*
D56*
X177604999Y-71000000D03*
D57*
X159750000Y-101250000D03*
D56*
X106757538Y-145742462D03*
D57*
X181399999Y-68000000D03*
X152975000Y-103500000D03*
X120662500Y-82000000D03*
X118600001Y-114250000D03*
X133475000Y-102350000D03*
D56*
X106757538Y-59757538D03*
D58*
X155500000Y-104000000D03*
D56*
X137000000Y-117000000D03*
D57*
X154000000Y-81449999D03*
D56*
X137000000Y-70802001D03*
X177605000Y-94250000D03*
D57*
X181399999Y-137500000D03*
D56*
X143000000Y-82412500D03*
D57*
X166250000Y-105250000D03*
X147025000Y-100600000D03*
X118600001Y-91250000D03*
X137250000Y-99975000D03*
X162750000Y-102750000D03*
D56*
X163000000Y-134698000D03*
X157000000Y-82427100D03*
X163000000Y-65250000D03*
X163000000Y-111500000D03*
D58*
X144430000Y-101820000D03*
D57*
X148750000Y-79500000D03*
D56*
X140500000Y-82412500D03*
D57*
X181399999Y-114250000D03*
D56*
X122395001Y-134500000D03*
X177605000Y-140500000D03*
X159750000Y-82427100D03*
X122395001Y-65000000D03*
X150000000Y-145000000D03*
X122395001Y-88000000D03*
D57*
X147025000Y-102350000D03*
D56*
X137000000Y-140250000D03*
D57*
X152975000Y-105250000D03*
D58*
X143400674Y-102575002D03*
D57*
X166250000Y-103500000D03*
D56*
X186040470Y-80790470D03*
X193242462Y-145742462D03*
X122395001Y-111250000D03*
D57*
X151500000Y-57275000D03*
D56*
X177605000Y-117250000D03*
%TO.N,+48V*%
X111145235Y-64145235D03*
X140500000Y-76572900D03*
%TO.N,+12V{slash}0*%
X137000000Y-134636598D03*
X137000000Y-132000000D03*
X145750000Y-131000000D03*
X129500000Y-135087000D03*
X129500000Y-132250000D03*
%TO.N,+12V{slash}1*%
X129500000Y-111837000D03*
X145750000Y-107750000D03*
X129500000Y-107750000D03*
X137000000Y-107750000D03*
X137000000Y-111386598D03*
%TO.N,+12V{slash}2*%
X137000000Y-85000000D03*
X145750000Y-85000000D03*
X129500000Y-88753666D03*
X137000000Y-88443299D03*
X129500000Y-85000000D03*
%TO.N,+12V{slash}3*%
X129500000Y-61750000D03*
X137000000Y-61750000D03*
X137000000Y-65188599D03*
X145750000Y-61750000D03*
X129500000Y-65587000D03*
%TO.N,+12V{slash}7*%
X154250000Y-74500000D03*
X170500000Y-70413000D03*
X170500000Y-74750000D03*
X163000000Y-74750000D03*
X163000000Y-70863402D03*
%TO.N,+3.3V*%
X188854765Y-64145235D03*
X114390000Y-91166666D03*
X185720000Y-91166666D03*
D57*
X142025000Y-98600000D03*
D56*
X157000000Y-76572900D03*
D57*
X141984999Y-104500000D03*
D56*
X185720000Y-68000000D03*
X114390000Y-68000000D03*
X114140000Y-137500000D03*
D57*
X158200000Y-101250000D03*
X150949999Y-83000000D03*
D56*
X185720000Y-137500000D03*
X185720000Y-114500000D03*
X114390000Y-114250000D03*
D57*
X150500000Y-57275000D03*
%TO.N,+3.3VA{slash}2*%
X159709999Y-107000000D03*
X162775000Y-104275000D03*
D58*
%TO.N,SDA*%
X140000000Y-102000000D03*
D57*
X149500000Y-57275000D03*
D58*
X161874614Y-103524010D03*
D57*
X151000000Y-78000000D03*
X148000000Y-78000000D03*
D58*
%TO.N,SCL*%
X160900000Y-103160000D03*
X139100000Y-102600000D03*
D57*
X148500000Y-57275000D03*
X152062164Y-78000000D03*
%TO.N,/Voltage Sensing/AIN0*%
X140500000Y-79500000D03*
X146750000Y-79750000D03*
%TO.N,/Voltage Sensing/AIN1*%
X146750000Y-80750000D03*
X143000000Y-79500000D03*
D56*
%TO.N,+5V*%
X188854765Y-141354765D03*
X158250000Y-79500000D03*
D57*
%TO.N,/Voltage Sensing/AIN2*%
X152833423Y-80897540D03*
X159750000Y-79500000D03*
%TO.N,/Current Sensing/INA240 Current Sensor 1/OUT1*%
X118600001Y-115303602D03*
X147075000Y-98850000D03*
%TO.N,/Current Sensing/INA240 Current Sensor 2/OUT2*%
X118600001Y-92220268D03*
X130100000Y-100600000D03*
%TO.N,/Current Sensing/INA240 Current Sensor 3/OUT3*%
X118600001Y-69053602D03*
X130100000Y-102350000D03*
%TO.N,/Current Sensing/INA240 Current Sensor 4/OUT4*%
X181399999Y-136446398D03*
X152925000Y-101750000D03*
%TO.N,/Current Sensing/INA240 Current Sensor 5/OUT5*%
X181399999Y-113279729D03*
X152925000Y-107000000D03*
%TO.N,/Current Sensing/INA240 Current Sensor 6/OUT6*%
X181399999Y-90113063D03*
X167925000Y-105250000D03*
%TO.N,/Current Sensing/INA240 Current Sensor 7/OUT7*%
X181399999Y-66946397D03*
X167900000Y-103500000D03*
%TO.N,/Current Sensing/INA240 Current Sensor 0/OUT0*%
X118600001Y-138553602D03*
X147075000Y-104100000D03*
%TO.N,Net-(U12-AIN2)*%
X131750000Y-100600000D03*
X135000000Y-100600000D03*
%TO.N,Net-(U12-AIN3)*%
X135025000Y-102350000D03*
D58*
X138000000Y-100750000D03*
D57*
X131750000Y-102350000D03*
%TO.N,Net-(U13-AIN2)*%
X169575000Y-105250000D03*
X164700000Y-105250000D03*
%TO.N,Net-(U13-AIN3)*%
X169550000Y-103500000D03*
X164700000Y-103500000D03*
%TD*%
D59*
%TO.N,GND*%
X118600001Y-137500000D02*
X118600001Y-137175000D01*
D60*
X163000000Y-87452699D02*
X163000000Y-88443299D01*
D61*
X122395001Y-65000000D02*
X122395001Y-65170000D01*
D62*
X181399999Y-68000000D02*
X181399999Y-68325001D01*
D60*
X137702699Y-95750000D02*
X137000000Y-95047301D01*
D61*
X124221401Y-113246400D02*
X124399999Y-113246400D01*
D60*
X145750000Y-140000000D02*
X143500000Y-142250000D01*
X163000000Y-65250000D02*
X162788800Y-65038800D01*
D61*
X122395001Y-65170000D02*
X124221401Y-66996400D01*
D62*
X181399999Y-67674999D02*
X181399999Y-68000000D01*
D60*
X137000000Y-71792601D02*
X137957399Y-72750000D01*
X156416666Y-86500000D02*
X162047301Y-86500000D01*
D62*
X155500000Y-104000000D02*
X155750000Y-104250000D01*
X144110000Y-101500000D02*
X143400001Y-101500000D01*
D60*
X122520000Y-73750000D02*
X126370000Y-77600000D01*
X163000000Y-110509400D02*
X163000000Y-111500000D01*
D59*
X181399999Y-137175000D02*
X181399999Y-137500000D01*
D61*
X122395001Y-88170000D02*
X124388067Y-90163066D01*
D60*
X137000000Y-70802001D02*
X137000000Y-71792601D01*
X143833332Y-118750000D02*
X138207993Y-118750000D01*
D59*
X177605000Y-140479997D02*
X175600001Y-138474998D01*
D60*
X162240600Y-109750000D02*
X163000000Y-110509400D01*
D59*
X118600001Y-91250000D02*
X118600001Y-91491666D01*
D61*
X124388067Y-90163066D02*
X124399999Y-90163066D01*
X122395001Y-111250000D02*
X122395001Y-111420000D01*
X124221401Y-66996400D02*
X124399999Y-66996400D01*
D59*
X118600001Y-113925000D02*
X118600001Y-114250000D01*
D62*
X181475000Y-67750000D02*
X181399999Y-67674999D01*
D60*
X162788800Y-64496793D02*
X161792007Y-63500000D01*
D62*
X147850000Y-79500000D02*
X148750000Y-79500000D01*
D59*
X177605000Y-140500000D02*
X177605000Y-140479997D01*
D60*
X154250000Y-88666666D02*
X156416666Y-86500000D01*
D59*
X118600001Y-137825000D02*
X118600001Y-137500000D01*
X118600001Y-114250000D02*
X118600001Y-114575000D01*
X118600001Y-90841666D02*
X118600001Y-91250000D01*
D60*
X161792007Y-63500000D02*
X156250000Y-63500000D01*
D61*
X122395001Y-111420000D02*
X124221401Y-113246400D01*
D60*
X138207993Y-118750000D02*
X137000000Y-117542007D01*
X137957399Y-72750000D02*
X143500000Y-72750000D01*
D61*
X122395001Y-134670000D02*
X124221401Y-136496400D01*
D59*
X118600001Y-67675000D02*
X118600001Y-68000000D01*
D60*
X162788800Y-65038800D02*
X162788800Y-64496793D01*
D61*
X177605000Y-94250000D02*
X177605000Y-94080000D01*
X122395001Y-88000000D02*
X122395001Y-88170000D01*
D60*
X154250000Y-111833332D02*
X156333332Y-109750000D01*
X137000000Y-141240600D02*
X137000000Y-140250000D01*
X162047301Y-86500000D02*
X163000000Y-87452699D01*
X163000000Y-134698000D02*
X163000000Y-134155993D01*
X145750000Y-93666666D02*
X143666666Y-95750000D01*
X137000000Y-95047301D02*
X137000000Y-94056701D01*
D62*
X144430000Y-101820000D02*
X144110000Y-101500000D01*
D60*
X143666666Y-95750000D02*
X137702699Y-95750000D01*
D62*
X181411666Y-91480000D02*
X181399999Y-91491667D01*
D60*
X137000000Y-117542007D02*
X137000000Y-117000000D01*
D62*
X143400674Y-102500674D02*
X143400000Y-102500000D01*
D60*
X156000000Y-133250000D02*
X154250000Y-135000000D01*
D59*
X175600001Y-69003603D02*
X175608602Y-69003603D01*
D60*
X143500000Y-72750000D02*
X145750000Y-70500000D01*
D62*
X181399999Y-90841665D02*
X181399999Y-91100000D01*
D61*
X122395001Y-134500000D02*
X122395001Y-134670000D01*
D60*
X182145001Y-73750000D02*
X185020000Y-73750000D01*
D62*
X181399999Y-91100000D02*
X181399999Y-91491667D01*
D60*
X163000000Y-134155993D02*
X162094007Y-133250000D01*
X145750000Y-116833332D02*
X143833332Y-118750000D01*
D59*
X177541670Y-117250000D02*
X175600001Y-115308331D01*
D60*
X156333332Y-109750000D02*
X162240600Y-109750000D01*
D59*
X177605000Y-117250000D02*
X177541670Y-117250000D01*
X181399999Y-137500000D02*
X181399999Y-137825000D01*
D60*
X162094007Y-133250000D02*
X156000000Y-133250000D01*
D61*
X124221401Y-136496400D02*
X124399999Y-136496400D01*
D59*
X177605000Y-94080000D02*
X175695267Y-92170267D01*
X175608602Y-69003603D02*
X177604999Y-71000000D01*
D62*
X155750000Y-104250000D02*
X156599999Y-104250000D01*
D59*
X118600001Y-68000000D02*
X118600001Y-68325000D01*
D62*
X181411664Y-90830000D02*
X181399999Y-90841665D01*
D60*
X119645001Y-73750000D02*
X122520000Y-73750000D01*
X138009400Y-142250000D02*
X137000000Y-141240600D01*
D62*
X143400674Y-102575002D02*
X143400674Y-102500674D01*
D60*
X185020000Y-73750000D02*
X188870000Y-77600000D01*
D59*
X181399999Y-114250000D02*
X181399999Y-114658333D01*
X175695267Y-92170267D02*
X175600001Y-92170267D01*
X181399999Y-114008331D02*
X181399999Y-114250000D01*
D60*
X156250000Y-63500000D02*
X154250000Y-65500000D01*
X143500000Y-142250000D02*
X138009400Y-142250000D01*
%TO.N,+48V*%
X180354999Y-73750000D02*
X177480000Y-73750000D01*
X177480000Y-73750000D02*
X173630000Y-77600000D01*
X114980000Y-73750000D02*
X111130000Y-77600000D01*
X117854999Y-73750000D02*
X114980000Y-73750000D01*
D62*
%TO.N,+12V{slash}0*%
X129075000Y-137175000D02*
X129500000Y-136750000D01*
X129500000Y-136750000D02*
X129500000Y-135087000D01*
X124399999Y-137175000D02*
X129075000Y-137175000D01*
%TO.N,+12V{slash}1*%
X124399999Y-113925000D02*
X129075000Y-113925000D01*
X129075000Y-113925000D02*
X129500000Y-113500000D01*
X129500000Y-113500000D02*
X129500000Y-111837000D01*
%TO.N,+12V{slash}2*%
X129500000Y-90250000D02*
X129500000Y-88753666D01*
X124399999Y-90841666D02*
X128908334Y-90841666D01*
X128908334Y-90841666D02*
X129500000Y-90250000D01*
%TO.N,+12V{slash}3*%
X129075000Y-67675000D02*
X129500000Y-67250000D01*
X129500000Y-67250000D02*
X129500000Y-65587000D01*
X124399999Y-67675000D02*
X129075000Y-67675000D01*
%TO.N,+12V{slash}4*%
X170500000Y-139913000D02*
X170500000Y-138250000D01*
X170925000Y-137825000D02*
X175600001Y-137825000D01*
X170500000Y-138250000D02*
X170925000Y-137825000D01*
%TO.N,+12V{slash}5*%
X171091667Y-114658333D02*
X175600001Y-114658333D01*
X170500000Y-115250000D02*
X171091667Y-114658333D01*
X170500000Y-116746332D02*
X170500000Y-115250000D01*
%TO.N,+12V{slash}6*%
X171008333Y-91491667D02*
X170500000Y-92000000D01*
X170500000Y-92000000D02*
X170500000Y-93579666D01*
X175600001Y-91491667D02*
X171008333Y-91491667D01*
%TO.N,+12V{slash}7*%
X175600001Y-68325001D02*
X170924999Y-68325001D01*
X170924999Y-68325001D02*
X170500000Y-68750000D01*
X170500000Y-68750000D02*
X170500000Y-70413000D01*
D60*
%TO.N,+3.3V*%
X150949999Y-83000000D02*
X150949999Y-82949999D01*
X158240001Y-107000000D02*
X158240001Y-101290001D01*
X150900000Y-80000000D02*
X149140000Y-78240000D01*
X141984999Y-104500000D02*
X141984999Y-98640001D01*
X150949999Y-82949999D02*
X150900000Y-82900000D01*
X141984999Y-98640001D02*
X142025000Y-98600000D01*
X150900000Y-82900000D02*
X150900000Y-80000000D01*
X149140000Y-78240000D02*
X149140000Y-76000000D01*
X158240001Y-101290001D02*
X158200000Y-101250000D01*
%TO.N,+3.3VA{slash}1*%
X139015001Y-104500000D02*
X137250000Y-102734999D01*
D62*
X137275000Y-101500000D02*
X137250000Y-101525000D01*
D60*
X140515001Y-104500000D02*
X139015001Y-104500000D01*
X137250000Y-102734999D02*
X137250000Y-101525000D01*
D62*
X139099999Y-101500000D02*
X137275000Y-101500000D01*
%TO.N,+3.3VA{slash}2*%
X161294408Y-100000000D02*
X157750000Y-100000000D01*
X162775000Y-104275000D02*
X163575000Y-103475000D01*
X156600000Y-101150000D02*
X156600000Y-103250000D01*
X162700000Y-104250000D02*
X162750000Y-104300000D01*
X162750000Y-104300000D02*
X162775000Y-104275000D01*
X163575000Y-102280592D02*
X161294408Y-100000000D01*
X163575000Y-103475000D02*
X163575000Y-102280592D01*
X157750000Y-100000000D02*
X156600000Y-101150000D01*
X160900001Y-104250000D02*
X162700000Y-104250000D01*
D60*
%TO.N,+3.3VA{slash}3*%
X152460000Y-76000000D02*
X154000000Y-77540000D01*
X154000000Y-77540000D02*
X154000000Y-79550001D01*
D62*
X153949999Y-79500000D02*
X154000000Y-79550001D01*
D60*
X150860000Y-76000000D02*
X152460000Y-76000000D01*
D62*
X152150000Y-79500000D02*
X153949999Y-79500000D01*
D61*
%TO.N,Net-(D1-A)*%
X190145235Y-62854765D02*
X191757538Y-61242462D01*
%TO.N,Net-(D2-A)*%
X190145235Y-142645235D02*
X191757538Y-144257538D01*
D63*
%TO.N,Net-(D3-A)*%
X108250000Y-144250000D02*
X108250000Y-144257538D01*
D61*
X109854765Y-142645235D02*
X108242462Y-144257538D01*
%TO.N,Net-(D4-A)*%
X109854765Y-62854765D02*
X108242462Y-61242462D01*
D62*
%TO.N,SDA*%
X140000000Y-102000000D02*
X139100000Y-102000000D01*
X161648624Y-103750000D02*
X160900000Y-103750000D01*
X151000000Y-78725000D02*
X151275000Y-79000000D01*
X161874614Y-103524010D02*
X161648624Y-103750000D01*
X151275000Y-79000000D02*
X152150000Y-79000000D01*
X147850000Y-78150000D02*
X148000000Y-78000000D01*
X147850000Y-78500000D02*
X147850000Y-78150000D01*
X151000000Y-78000000D02*
X151000000Y-78725000D01*
%TO.N,SCL*%
X152062164Y-78000000D02*
X152150000Y-78087836D01*
X139100000Y-102600000D02*
X139100000Y-102500000D01*
X160900000Y-103160000D02*
X160900000Y-103250000D01*
X152150000Y-78087836D02*
X152150000Y-78500000D01*
D60*
%TO.N,Net-(U1-On{slash}Off)*%
X183150000Y-79500000D02*
X181250000Y-77600000D01*
X184750000Y-79500000D02*
X183150000Y-79500000D01*
%TO.N,Net-(U2-On{slash}Off)*%
X118750000Y-81912500D02*
X118837500Y-82000000D01*
X118750000Y-77600000D02*
X118750000Y-81912500D01*
D64*
%TO.N,Net-(U3-On{slash}Off)*%
X150000000Y-122310000D02*
X150000000Y-126087500D01*
D60*
%TO.N,Net-(U3-Trim)*%
X150000000Y-149750000D02*
X150000000Y-146825000D01*
D62*
%TO.N,+12V*%
X170500000Y-67250000D02*
X170500000Y-65587000D01*
X175600001Y-137175000D02*
X170925000Y-137175000D01*
X170924999Y-67674999D02*
X170500000Y-67250000D01*
X124399999Y-114575000D02*
X129075000Y-114575000D01*
X170500000Y-136750000D02*
X170500000Y-135087000D01*
X124399999Y-137825000D02*
X129075000Y-137825000D01*
X129500000Y-138250000D02*
X129500000Y-139913000D01*
X124471399Y-68253600D02*
X129003600Y-68253600D01*
X170925000Y-137175000D02*
X170500000Y-136750000D01*
X129003600Y-68253600D02*
X129500000Y-68750000D01*
X170500000Y-113500000D02*
X171008331Y-114008331D01*
X129075000Y-137825000D02*
X129500000Y-138250000D01*
X170500000Y-90500000D02*
X170500000Y-88753666D01*
X171008331Y-114008331D02*
X175600001Y-114008331D01*
X175600001Y-67674999D02*
X170924999Y-67674999D01*
X129500000Y-68750000D02*
X129500000Y-70413000D01*
X128991666Y-91491666D02*
X129500000Y-92000000D01*
X129500000Y-115000000D02*
X129500000Y-116663000D01*
X170841665Y-90841665D02*
X170500000Y-90500000D01*
X129075000Y-114575000D02*
X129500000Y-115000000D01*
X124399999Y-91491666D02*
X128991666Y-91491666D01*
X175600001Y-90841665D02*
X170841665Y-90841665D01*
X170500000Y-111920332D02*
X170500000Y-113500000D01*
X129500000Y-92000000D02*
X129500000Y-93579666D01*
X124399999Y-68325000D02*
X124471399Y-68253600D01*
%TO.N,/Voltage Sensing/AIN0*%
X147000000Y-80000000D02*
X147850000Y-80000000D01*
D64*
X140500000Y-79500000D02*
X140500000Y-80587500D01*
X140500000Y-78427100D02*
X140500000Y-79500000D01*
D62*
X146750000Y-79750000D02*
X147000000Y-80000000D01*
D64*
%TO.N,/Voltage Sensing/AIN1*%
X143000000Y-78427100D02*
X143000000Y-79500000D01*
D62*
X147000000Y-80500000D02*
X147850000Y-80500000D01*
D64*
X143000000Y-79500000D02*
X143000000Y-80587500D01*
D62*
X146750000Y-80750000D02*
X147000000Y-80500000D01*
D64*
%TO.N,+5V*%
X158451500Y-79298500D02*
X158451500Y-77191414D01*
X158451500Y-77191414D02*
X159070014Y-76572900D01*
X158250000Y-79500000D02*
X158451500Y-79298500D01*
X159070014Y-76572900D02*
X159750000Y-76572900D01*
D62*
%TO.N,/Voltage Sensing/AIN2*%
X152833423Y-80897540D02*
X152547540Y-80897540D01*
X152547540Y-80897540D02*
X152150000Y-80500000D01*
D64*
X159750000Y-79500000D02*
X159750000Y-80572900D01*
X159750000Y-78427100D02*
X159750000Y-79500000D01*
D62*
%TO.N,/Voltage Sensing/AIN3*%
X152925000Y-80055457D02*
X153269544Y-80400001D01*
X152925000Y-80000000D02*
X152925000Y-80055457D01*
X156750000Y-79750000D02*
X157000000Y-79500000D01*
X154730456Y-80400001D02*
X155380457Y-79750000D01*
X155380457Y-79750000D02*
X156750000Y-79750000D01*
D64*
X157000000Y-79500000D02*
X157000000Y-80572900D01*
D62*
X152150000Y-80000000D02*
X152925000Y-80000000D01*
X153269544Y-80400001D02*
X154730456Y-80400001D01*
D64*
X157000000Y-78427100D02*
X157000000Y-79500000D01*
D62*
%TO.N,/Current Sensing/INA240 Current Sensor 4/OUT4*%
X181399999Y-136446398D02*
X181399999Y-136525002D01*
%TO.N,/Current Sensing/INA240 Current Sensor 5/OUT5*%
X181399999Y-113279729D02*
X181399999Y-113358333D01*
X181399999Y-113279729D02*
X181470271Y-113279729D01*
%TO.N,/Current Sensing/INA240 Current Sensor 6/OUT6*%
X181399999Y-90113063D02*
X181399999Y-90191667D01*
%TO.N,/Current Sensing/INA240 Current Sensor 7/OUT7*%
X181399999Y-66946397D02*
X181399999Y-67025001D01*
D59*
%TO.N,/Current Sensing/INA240 Current Sensor 0/OUT0*%
X118600001Y-138474998D02*
X118600001Y-138553602D01*
%TO.N,+3.3VA{slash}6*%
X118600001Y-67025002D02*
X118600001Y-67004998D01*
X117084998Y-67025002D02*
X118600001Y-67025002D01*
X118600001Y-67004998D02*
X120604999Y-65000000D01*
X116110000Y-68000000D02*
X117084998Y-67025002D01*
%TO.N,+3.3VA{slash}7*%
X183025002Y-138474998D02*
X181399999Y-138474998D01*
X184000000Y-137500000D02*
X183025002Y-138474998D01*
X181399999Y-138474998D02*
X181399999Y-138495001D01*
X181399999Y-138495001D02*
X179395000Y-140500000D01*
%TO.N,+3.3VA{slash}8*%
X183191669Y-115308331D02*
X184000000Y-114500000D01*
X179458330Y-117250000D02*
X181399999Y-115308331D01*
X179395000Y-117250000D02*
X179458330Y-117250000D01*
X181399999Y-115308331D02*
X183191669Y-115308331D01*
D61*
%TO.N,+3.3VA{slash}4*%
X120604999Y-111420000D02*
X118778599Y-113246400D01*
D59*
X118600001Y-113275002D02*
X117084998Y-113275002D01*
D61*
X118778599Y-113246400D02*
X118600001Y-113246400D01*
X120604999Y-111250000D02*
X120604999Y-111420000D01*
D59*
X117084998Y-113275002D02*
X116110000Y-114250000D01*
%TO.N,+3.3VA{slash}9*%
X181304733Y-92170267D02*
X181399999Y-92170267D01*
X183025001Y-92141665D02*
X181399999Y-92141665D01*
X184000000Y-91166666D02*
X183025001Y-92141665D01*
D61*
X179395000Y-94250000D02*
X179395000Y-94080000D01*
D59*
X179395000Y-94080000D02*
X181304733Y-92170267D01*
%TO.N,+3.3VA{slash}5*%
X118600001Y-90191668D02*
X118600001Y-90004998D01*
X118600001Y-90004998D02*
X120604999Y-88000000D01*
X116110000Y-91166666D02*
X117084998Y-90191668D01*
X117084998Y-90191668D02*
X118600001Y-90191668D01*
D61*
%TO.N,+3.3VA{slash}10*%
X179395001Y-71000000D02*
X179395001Y-70830000D01*
D59*
X181221400Y-69003601D02*
X181399999Y-69003601D01*
D62*
X183025001Y-68974999D02*
X184000000Y-68000000D01*
D59*
X179395001Y-70830000D02*
X181221400Y-69003601D01*
D62*
X181399999Y-68974999D02*
X183025001Y-68974999D01*
D59*
%TO.N,+3.3VA{slash}11*%
X115860000Y-137500000D02*
X116834998Y-136525002D01*
X118600001Y-136525002D02*
X118600001Y-136504998D01*
X116834998Y-136525002D02*
X118600001Y-136525002D01*
D61*
X118600001Y-136504998D02*
X120604999Y-134500000D01*
D62*
%TO.N,Net-(U12-AIN0)*%
X144527818Y-101000000D02*
X143400000Y-101000000D01*
D64*
X145425000Y-104100000D02*
X145425000Y-102400000D01*
D62*
X145475000Y-102350000D02*
X145475000Y-101947182D01*
D64*
X145425000Y-102400000D02*
X145475000Y-102350000D01*
D62*
X145475000Y-101947182D02*
X144527818Y-101000000D01*
D64*
%TO.N,Net-(U12-AIN1)*%
X145425000Y-100550000D02*
X145475000Y-100600000D01*
D62*
X145475000Y-100600000D02*
X145375000Y-100500000D01*
D64*
X145425000Y-98850000D02*
X145425000Y-100550000D01*
D62*
X145375000Y-100500000D02*
X143400000Y-100500000D01*
%TO.N,Net-(U12-AIN2)*%
X137600000Y-99000000D02*
X139100000Y-100500000D01*
X135000000Y-100600000D02*
X136600000Y-99000000D01*
X136600000Y-99000000D02*
X137600000Y-99000000D01*
%TO.N,Net-(U12-AIN3)*%
X139100000Y-101000000D02*
X139789193Y-101000000D01*
X138225000Y-101000000D02*
X139789193Y-101000000D01*
X139789193Y-101000000D02*
X139750000Y-101000000D01*
X138000000Y-100750000D02*
X138000000Y-100775000D01*
X138000000Y-100775000D02*
X138225000Y-101000000D01*
D64*
%TO.N,Net-(U13-AIN0)*%
X154575000Y-103450000D02*
X154525000Y-103500000D01*
D62*
X154525000Y-103887500D02*
X155387500Y-104750000D01*
X155387500Y-104750000D02*
X156600000Y-104750000D01*
X154525000Y-103500000D02*
X154525000Y-103887500D01*
D64*
X154575000Y-101750000D02*
X154575000Y-103450000D01*
%TO.N,Net-(U13-AIN1)*%
X154575000Y-107000000D02*
X154575000Y-105300000D01*
D62*
X154525000Y-105250000D02*
X156600000Y-105250000D01*
D64*
X154575000Y-105300000D02*
X154525000Y-105250000D01*
D62*
%TO.N,Net-(U13-AIN2)*%
X164700000Y-105250000D02*
X164200000Y-105750000D01*
X161400000Y-105750000D02*
X160900000Y-105250000D01*
X164200000Y-105750000D02*
X161400000Y-105750000D01*
%TO.N,Net-(U13-AIN3)*%
X163244408Y-105100000D02*
X162125000Y-105100000D01*
X162125000Y-105100000D02*
X161775000Y-104750000D01*
X164700000Y-103644408D02*
X163244408Y-105100000D01*
X161775000Y-104750000D02*
X160900000Y-104750000D01*
X164700000Y-103500000D02*
X164700000Y-103644408D01*
%TD*%
%TA.AperFunction,Conductor*%
%TO.N,+12V{slash}3*%
G36*
X148693039Y-59769685D02*
G01*
X148738794Y-59822489D01*
X148750000Y-59874000D01*
X148750000Y-67876000D01*
X148730315Y-67943039D01*
X148677511Y-67988794D01*
X148626000Y-68000000D01*
X140476800Y-68000000D01*
X140409761Y-67980315D01*
X140364006Y-67927511D01*
X140352800Y-67876000D01*
X140352800Y-64642500D01*
X137711200Y-64642500D01*
X137711200Y-66766400D01*
X137691515Y-66833439D01*
X137638711Y-66879194D01*
X137587200Y-66890400D01*
X136412800Y-66890400D01*
X136345761Y-66870715D01*
X136300006Y-66817911D01*
X136288800Y-66766400D01*
X136288800Y-64642500D01*
X133647200Y-64642500D01*
X133647200Y-66626000D01*
X133627515Y-66693039D01*
X133574711Y-66738794D01*
X133523200Y-66750000D01*
X127624000Y-66750000D01*
X127556961Y-66730315D01*
X127511206Y-66677511D01*
X127500000Y-66626000D01*
X127500000Y-59874000D01*
X127519685Y-59806961D01*
X127572489Y-59761206D01*
X127624000Y-59750000D01*
X148626000Y-59750000D01*
X148693039Y-59769685D01*
G37*
%TD.AperFunction*%
%TD*%
%TA.AperFunction,Conductor*%
%TO.N,+12V{slash}5*%
G36*
X159590239Y-114269685D02*
G01*
X159635994Y-114322489D01*
X159647200Y-114374000D01*
X159647200Y-117659501D01*
X162288800Y-117659501D01*
X162288800Y-115535601D01*
X162308485Y-115468562D01*
X162361289Y-115422807D01*
X162412800Y-115411601D01*
X163587200Y-115411601D01*
X163654239Y-115431286D01*
X163699994Y-115484090D01*
X163711200Y-115535601D01*
X163711200Y-117659501D01*
X166352800Y-117659501D01*
X166352800Y-115624000D01*
X166372485Y-115556961D01*
X166425289Y-115511206D01*
X166476800Y-115500000D01*
X166500000Y-115500000D01*
X172376000Y-115500000D01*
X172443039Y-115519685D01*
X172488794Y-115572489D01*
X172500000Y-115624000D01*
X172500000Y-122376000D01*
X172480315Y-122443039D01*
X172427511Y-122488794D01*
X172376000Y-122500000D01*
X159896302Y-122500000D01*
X159829263Y-122480315D01*
X159783508Y-122427511D01*
X159772591Y-122367537D01*
X159776527Y-122310000D01*
X159756441Y-122016353D01*
X159735766Y-121916860D01*
X159696560Y-121728187D01*
X159696555Y-121728170D01*
X159597991Y-121450838D01*
X159597991Y-121450837D01*
X159462579Y-121189503D01*
X159292842Y-120949042D01*
X159292837Y-120949036D01*
X159091940Y-120733929D01*
X158863623Y-120548179D01*
X158612141Y-120395250D01*
X158342178Y-120277989D01*
X158058764Y-120198580D01*
X158058759Y-120198579D01*
X158058758Y-120198579D01*
X157912962Y-120178539D01*
X157767168Y-120158500D01*
X157767167Y-120158500D01*
X157472833Y-120158500D01*
X157472832Y-120158500D01*
X157181242Y-120198579D01*
X157181235Y-120198580D01*
X156897821Y-120277989D01*
X156627858Y-120395250D01*
X156376376Y-120548179D01*
X156148059Y-120733929D01*
X155947162Y-120949036D01*
X155947162Y-120949037D01*
X155777421Y-121189502D01*
X155642008Y-121450838D01*
X155543444Y-121728170D01*
X155543439Y-121728187D01*
X155483559Y-122016350D01*
X155483558Y-122016352D01*
X155463473Y-122309999D01*
X155467409Y-122367537D01*
X155452345Y-122435764D01*
X155402787Y-122485016D01*
X155343698Y-122500000D01*
X152276302Y-122500000D01*
X152209263Y-122480315D01*
X152163508Y-122427511D01*
X152152591Y-122367537D01*
X152156527Y-122310000D01*
X152136441Y-122016353D01*
X152115766Y-121916860D01*
X152076560Y-121728187D01*
X152076555Y-121728170D01*
X151977991Y-121450838D01*
X151977991Y-121450837D01*
X151842579Y-121189503D01*
X151672842Y-120949042D01*
X151672837Y-120949036D01*
X151597218Y-120868069D01*
X151471944Y-120733933D01*
X151372709Y-120653198D01*
X151295744Y-120590582D01*
X151256164Y-120533004D01*
X151250000Y-120494394D01*
X151250000Y-114374000D01*
X151269685Y-114306961D01*
X151322489Y-114261206D01*
X151374000Y-114250000D01*
X159250000Y-114250000D01*
X159523200Y-114250000D01*
X159590239Y-114269685D01*
G37*
%TD.AperFunction*%
%TD*%
%TA.AperFunction,Conductor*%
%TO.N,+12V{slash}1*%
G36*
X148693039Y-106019685D02*
G01*
X148738794Y-106072489D01*
X148750000Y-106124000D01*
X148750000Y-114126000D01*
X148730315Y-114193039D01*
X148677511Y-114238794D01*
X148626000Y-114250000D01*
X140476800Y-114250000D01*
X140409761Y-114230315D01*
X140364006Y-114177511D01*
X140352800Y-114126000D01*
X140352800Y-110840499D01*
X137711200Y-110840499D01*
X137711200Y-112964399D01*
X137691515Y-113031438D01*
X137638711Y-113077193D01*
X137587200Y-113088399D01*
X136412800Y-113088399D01*
X136345761Y-113068714D01*
X136300006Y-113015910D01*
X136288800Y-112964399D01*
X136288800Y-110840499D01*
X133647200Y-110840499D01*
X133647200Y-112876000D01*
X133627515Y-112943039D01*
X133574711Y-112988794D01*
X133523200Y-113000000D01*
X127624000Y-113000000D01*
X127556961Y-112980315D01*
X127511206Y-112927511D01*
X127500000Y-112876000D01*
X127500000Y-106124000D01*
X127519685Y-106056961D01*
X127572489Y-106011206D01*
X127624000Y-106000000D01*
X148626000Y-106000000D01*
X148693039Y-106019685D01*
G37*
%TD.AperFunction*%
%TD*%
%TA.AperFunction,Conductor*%
%TO.N,+12V{slash}7*%
G36*
X159590239Y-68019685D02*
G01*
X159635994Y-68072489D01*
X159647200Y-68124000D01*
X159647200Y-71409501D01*
X162288800Y-71409501D01*
X162288800Y-69285601D01*
X162308485Y-69218562D01*
X162361289Y-69172807D01*
X162412800Y-69161601D01*
X163587200Y-69161601D01*
X163654239Y-69181286D01*
X163699994Y-69234090D01*
X163711200Y-69285601D01*
X163711200Y-71409501D01*
X166352800Y-71409501D01*
X166352800Y-69374000D01*
X166372485Y-69306961D01*
X166425289Y-69261206D01*
X166476800Y-69250000D01*
X166500000Y-69250000D01*
X172376000Y-69250000D01*
X172443039Y-69269685D01*
X172488794Y-69322489D01*
X172500000Y-69374000D01*
X172500000Y-75402845D01*
X172480315Y-75469884D01*
X172435738Y-75511507D01*
X172338517Y-75564955D01*
X172093653Y-75742859D01*
X172093643Y-75742867D01*
X171873001Y-75950064D01*
X171680059Y-76183290D01*
X171674251Y-76192443D01*
X171621709Y-76238499D01*
X171569555Y-76250000D01*
X161072999Y-76250000D01*
X161005960Y-76230315D01*
X160960205Y-76177511D01*
X160948999Y-76126000D01*
X160948999Y-76042429D01*
X160948998Y-76042423D01*
X160942591Y-75982816D01*
X160892297Y-75847971D01*
X160892293Y-75847964D01*
X160806047Y-75732755D01*
X160806044Y-75732752D01*
X160690835Y-75646506D01*
X160690828Y-75646502D01*
X160555982Y-75596208D01*
X160555983Y-75596208D01*
X160496383Y-75589801D01*
X160496381Y-75589800D01*
X160496373Y-75589800D01*
X160496364Y-75589800D01*
X159003629Y-75589800D01*
X159003623Y-75589801D01*
X158944016Y-75596208D01*
X158809171Y-75646502D01*
X158809168Y-75646504D01*
X158703955Y-75725267D01*
X158638491Y-75749684D01*
X158629644Y-75750000D01*
X158120356Y-75750000D01*
X158053317Y-75730315D01*
X158046045Y-75725267D01*
X157940831Y-75646504D01*
X157940828Y-75646502D01*
X157805982Y-75596208D01*
X157805983Y-75596208D01*
X157746383Y-75589801D01*
X157746381Y-75589800D01*
X157746373Y-75589800D01*
X157746364Y-75589800D01*
X156253629Y-75589800D01*
X156253623Y-75589801D01*
X156194016Y-75596208D01*
X156059171Y-75646502D01*
X156059168Y-75646504D01*
X155953955Y-75725267D01*
X155888491Y-75749684D01*
X155879644Y-75750000D01*
X153676282Y-75750000D01*
X153609243Y-75730315D01*
X153588601Y-75713681D01*
X153241479Y-75366559D01*
X153241459Y-75366537D01*
X153097785Y-75222863D01*
X153097781Y-75222860D01*
X152933920Y-75113371D01*
X152933911Y-75113366D01*
X152861315Y-75083296D01*
X152805165Y-75060038D01*
X152751836Y-75037949D01*
X152751832Y-75037948D01*
X152751828Y-75037946D01*
X152655188Y-75018724D01*
X152558544Y-74999500D01*
X152558541Y-74999500D01*
X151948521Y-74999500D01*
X151881482Y-74979815D01*
X151849254Y-74949810D01*
X151817550Y-74907458D01*
X151817547Y-74907455D01*
X151817546Y-74907454D01*
X151817542Y-74907451D01*
X151702335Y-74821206D01*
X151702328Y-74821202D01*
X151567482Y-74770908D01*
X151567483Y-74770908D01*
X151507883Y-74764501D01*
X151507881Y-74764500D01*
X151507873Y-74764500D01*
X151507865Y-74764500D01*
X151374000Y-74764500D01*
X151306961Y-74744815D01*
X151261206Y-74692011D01*
X151250000Y-74640500D01*
X151250000Y-68124000D01*
X151269685Y-68056961D01*
X151322489Y-68011206D01*
X151374000Y-68000000D01*
X159250000Y-68000000D01*
X159523200Y-68000000D01*
X159590239Y-68019685D01*
G37*
%TD.AperFunction*%
%TD*%
%TA.AperFunction,Conductor*%
%TO.N,+12V{slash}0*%
G36*
X148693039Y-129269685D02*
G01*
X148738794Y-129322489D01*
X148750000Y-129374000D01*
X148750000Y-137376000D01*
X148730315Y-137443039D01*
X148677511Y-137488794D01*
X148626000Y-137500000D01*
X140476800Y-137500000D01*
X140409761Y-137480315D01*
X140364006Y-137427511D01*
X140352800Y-137376000D01*
X140352800Y-134090499D01*
X137711200Y-134090499D01*
X137711200Y-136214399D01*
X137691515Y-136281438D01*
X137638711Y-136327193D01*
X137587200Y-136338399D01*
X136412800Y-136338399D01*
X136345761Y-136318714D01*
X136300006Y-136265910D01*
X136288800Y-136214399D01*
X136288800Y-134090499D01*
X133647200Y-134090499D01*
X133647200Y-136126000D01*
X133627515Y-136193039D01*
X133574711Y-136238794D01*
X133523200Y-136250000D01*
X127624000Y-136250000D01*
X127556961Y-136230315D01*
X127511206Y-136177511D01*
X127500000Y-136126000D01*
X127500000Y-130929499D01*
X127519685Y-130862460D01*
X127572489Y-130816705D01*
X127623999Y-130805499D01*
X127777501Y-130805499D01*
X127844540Y-130825184D01*
X127890295Y-130877988D01*
X127901501Y-130929499D01*
X127901501Y-130987876D01*
X127907908Y-131047483D01*
X127958202Y-131182328D01*
X127958206Y-131182335D01*
X128044452Y-131297544D01*
X128044455Y-131297547D01*
X128159664Y-131383793D01*
X128159671Y-131383797D01*
X128294517Y-131434091D01*
X128294516Y-131434091D01*
X128301444Y-131434835D01*
X128354127Y-131440500D01*
X132005872Y-131440499D01*
X132065483Y-131434091D01*
X132200331Y-131383796D01*
X132315546Y-131297546D01*
X132401796Y-131182331D01*
X132452091Y-131047483D01*
X132458500Y-130987873D01*
X132458500Y-129374000D01*
X132478185Y-129306961D01*
X132530989Y-129261206D01*
X132582500Y-129250000D01*
X148626000Y-129250000D01*
X148693039Y-129269685D01*
G37*
%TD.AperFunction*%
%TD*%
%TA.AperFunction,Conductor*%
%TO.N,+12V*%
G36*
X146050171Y-52270185D02*
G01*
X146095926Y-52322989D01*
X146106421Y-52387756D01*
X146099500Y-52452118D01*
X146099500Y-54347870D01*
X146099501Y-54347876D01*
X146105908Y-54407483D01*
X146156202Y-54542328D01*
X146156206Y-54542335D01*
X146242452Y-54657544D01*
X146242455Y-54657547D01*
X146357664Y-54743793D01*
X146357671Y-54743797D01*
X146492517Y-54794091D01*
X146492516Y-54794091D01*
X146499444Y-54794835D01*
X146552127Y-54800500D01*
X147847872Y-54800499D01*
X147907483Y-54794091D01*
X148042331Y-54743796D01*
X148157546Y-54657546D01*
X148243796Y-54542331D01*
X148294091Y-54407483D01*
X148300500Y-54347873D01*
X148300499Y-52452128D01*
X148294091Y-52392517D01*
X148293579Y-52387753D01*
X148305986Y-52318994D01*
X148353597Y-52267857D01*
X148416869Y-52250500D01*
X151583132Y-52250500D01*
X151650171Y-52270185D01*
X151695926Y-52322989D01*
X151706421Y-52387756D01*
X151699500Y-52452118D01*
X151699500Y-54347870D01*
X151699501Y-54347876D01*
X151705908Y-54407483D01*
X151756202Y-54542328D01*
X151756206Y-54542335D01*
X151842452Y-54657544D01*
X151842455Y-54657547D01*
X151957664Y-54743793D01*
X151957671Y-54743797D01*
X152092517Y-54794091D01*
X152092516Y-54794091D01*
X152099444Y-54794835D01*
X152152127Y-54800500D01*
X153447872Y-54800499D01*
X153507483Y-54794091D01*
X153642331Y-54743796D01*
X153757546Y-54657546D01*
X153843796Y-54542331D01*
X153894091Y-54407483D01*
X153900500Y-54347873D01*
X153900499Y-52452128D01*
X153894091Y-52392517D01*
X153893579Y-52387753D01*
X153905986Y-52318994D01*
X153953597Y-52267857D01*
X154016869Y-52250500D01*
X195934108Y-52250500D01*
X195997294Y-52250500D01*
X196002702Y-52250617D01*
X196386771Y-52267386D01*
X196397506Y-52268326D01*
X196775971Y-52318152D01*
X196786597Y-52320025D01*
X197159284Y-52402648D01*
X197169710Y-52405442D01*
X197533765Y-52520227D01*
X197543911Y-52523920D01*
X197896578Y-52670000D01*
X197906369Y-52674566D01*
X198244942Y-52850816D01*
X198254310Y-52856224D01*
X198576244Y-53061318D01*
X198585105Y-53067523D01*
X198887930Y-53299889D01*
X198896217Y-53306843D01*
X199177635Y-53564715D01*
X199185284Y-53572364D01*
X199443156Y-53853782D01*
X199450110Y-53862069D01*
X199682476Y-54164894D01*
X199688681Y-54173755D01*
X199893775Y-54495689D01*
X199899183Y-54505057D01*
X200075430Y-54843623D01*
X200080002Y-54853427D01*
X200226075Y-55206078D01*
X200229775Y-55216244D01*
X200344554Y-55580278D01*
X200347354Y-55590727D01*
X200429971Y-55963389D01*
X200431849Y-55974042D01*
X200481671Y-56352473D01*
X200482614Y-56363249D01*
X200499382Y-56747297D01*
X200499500Y-56752706D01*
X200499500Y-148747293D01*
X200499382Y-148752702D01*
X200482614Y-149136750D01*
X200481671Y-149147526D01*
X200431849Y-149525957D01*
X200429971Y-149536610D01*
X200347354Y-149909272D01*
X200344554Y-149919721D01*
X200229775Y-150283755D01*
X200226075Y-150293921D01*
X200080002Y-150646572D01*
X200075430Y-150656376D01*
X199899183Y-150994942D01*
X199893775Y-151004310D01*
X199688681Y-151326244D01*
X199682476Y-151335105D01*
X199450110Y-151637930D01*
X199443156Y-151646217D01*
X199185284Y-151927635D01*
X199177635Y-151935284D01*
X198896217Y-152193156D01*
X198887930Y-152200110D01*
X198585105Y-152432476D01*
X198576244Y-152438681D01*
X198254310Y-152643775D01*
X198244942Y-152649183D01*
X197906376Y-152825430D01*
X197896572Y-152830002D01*
X197543921Y-152976075D01*
X197533755Y-152979775D01*
X197169721Y-153094554D01*
X197159272Y-153097354D01*
X196786610Y-153179971D01*
X196775957Y-153181849D01*
X196397526Y-153231671D01*
X196386750Y-153232614D01*
X196002703Y-153249382D01*
X195997294Y-153249500D01*
X104002706Y-153249500D01*
X103997297Y-153249382D01*
X103613249Y-153232614D01*
X103602473Y-153231671D01*
X103224042Y-153181849D01*
X103213389Y-153179971D01*
X102840727Y-153097354D01*
X102830278Y-153094554D01*
X102466244Y-152979775D01*
X102456078Y-152976075D01*
X102103427Y-152830002D01*
X102093623Y-152825430D01*
X101755057Y-152649183D01*
X101745689Y-152643775D01*
X101423755Y-152438681D01*
X101414894Y-152432476D01*
X101112069Y-152200110D01*
X101103782Y-152193156D01*
X100822364Y-151935284D01*
X100814715Y-151927635D01*
X100556843Y-151646217D01*
X100549889Y-151637930D01*
X100317523Y-151335105D01*
X100311318Y-151326244D01*
X100108803Y-151008359D01*
X100106223Y-151004309D01*
X100100816Y-150994942D01*
X100094937Y-150983648D01*
X99924566Y-150656369D01*
X99919997Y-150646572D01*
X99773920Y-150293911D01*
X99770224Y-150283755D01*
X99655442Y-149919710D01*
X99652648Y-149909284D01*
X99570025Y-149536597D01*
X99568152Y-149525971D01*
X99518326Y-149147506D01*
X99517386Y-149136771D01*
X99500618Y-148752702D01*
X99500559Y-148750000D01*
X101844475Y-148750000D01*
X101864551Y-149043511D01*
X101864552Y-149043513D01*
X101924404Y-149331543D01*
X101924409Y-149331559D01*
X102022927Y-149608762D01*
X102158278Y-149869977D01*
X102158282Y-149869983D01*
X102327932Y-150110323D01*
X102327935Y-150110326D01*
X102524536Y-150320834D01*
X102528743Y-150325338D01*
X102656384Y-150429181D01*
X102756951Y-150510999D01*
X102756953Y-150511000D01*
X102756954Y-150511001D01*
X103008319Y-150663860D01*
X103008324Y-150663862D01*
X103209363Y-150751185D01*
X103278159Y-150781067D01*
X103561445Y-150860440D01*
X103817681Y-150895659D01*
X103852901Y-150900500D01*
X103852902Y-150900500D01*
X104147099Y-150900500D01*
X104178520Y-150896180D01*
X104438555Y-150860440D01*
X104721841Y-150781067D01*
X104991682Y-150663859D01*
X105243049Y-150510999D01*
X105471260Y-150325335D01*
X105541618Y-150250000D01*
X139715639Y-150250000D01*
X139735064Y-150571147D01*
X139735064Y-150571152D01*
X139735065Y-150571153D01*
X139793060Y-150887623D01*
X139793061Y-150887627D01*
X139793062Y-150887631D01*
X139888772Y-151194776D01*
X139888776Y-151194787D01*
X139888777Y-151194790D01*
X139888779Y-151194795D01*
X140020825Y-151488190D01*
X140116356Y-151646217D01*
X140187273Y-151763528D01*
X140187279Y-151763537D01*
X140385699Y-152016801D01*
X140613198Y-152244300D01*
X140857597Y-152435775D01*
X140866470Y-152442726D01*
X141141810Y-152609175D01*
X141435205Y-152741221D01*
X141435215Y-152741224D01*
X141435223Y-152741227D01*
X141639986Y-152805033D01*
X141742377Y-152836940D01*
X142058847Y-152894935D01*
X142380000Y-152914361D01*
X142701153Y-152894935D01*
X143017623Y-152836940D01*
X143324795Y-152741221D01*
X143618190Y-152609175D01*
X143893530Y-152442726D01*
X144146798Y-152244303D01*
X144374303Y-152016798D01*
X144572726Y-151763530D01*
X144659384Y-151620180D01*
X144710910Y-151572995D01*
X144779769Y-151561156D01*
X144844098Y-151588425D01*
X144853180Y-151596651D01*
X144944217Y-151687688D01*
X144944235Y-151687704D01*
X145161511Y-151850354D01*
X145161519Y-151850359D01*
X145399730Y-151980433D01*
X145399734Y-151980435D01*
X145399736Y-151980436D01*
X145654047Y-152075289D01*
X145654050Y-152075289D01*
X145654051Y-152075290D01*
X145919262Y-152132983D01*
X145919264Y-152132983D01*
X145919268Y-152132984D01*
X146159856Y-152150191D01*
X146189999Y-152152347D01*
X146190000Y-152152347D01*
X146190001Y-152152347D01*
X146217123Y-152150407D01*
X146460732Y-152132984D01*
X146725953Y-152075289D01*
X146980264Y-151980436D01*
X147218486Y-151850356D01*
X147435772Y-151687698D01*
X147627698Y-151495772D01*
X147790356Y-151278486D01*
X147916103Y-151048198D01*
X147965508Y-150998794D01*
X148033781Y-150983942D01*
X148099246Y-151008359D01*
X148136148Y-151055033D01*
X148136818Y-151054687D01*
X148138612Y-151058149D01*
X148138667Y-151058219D01*
X148138764Y-151058444D01*
X148138765Y-151058447D01*
X148138766Y-151058448D01*
X148266186Y-151304356D01*
X148425903Y-151530623D01*
X148614942Y-151733035D01*
X148829782Y-151907821D01*
X148829784Y-151907822D01*
X148829785Y-151907823D01*
X149066423Y-152051725D01*
X149239917Y-152127083D01*
X149320452Y-152162065D01*
X149587141Y-152236788D01*
X149828364Y-152269942D01*
X149861519Y-152274500D01*
X149861520Y-152274500D01*
X150138481Y-152274500D01*
X150168061Y-152270434D01*
X150412859Y-152236788D01*
X150679548Y-152162065D01*
X150933578Y-152051724D01*
X151170218Y-151907821D01*
X151385058Y-151733035D01*
X151574097Y-151530623D01*
X151733814Y-151304356D01*
X151861234Y-151058448D01*
X151861242Y-151058422D01*
X151861322Y-151058243D01*
X151861368Y-151058187D01*
X151863182Y-151054687D01*
X151863954Y-151055087D01*
X151906077Y-151004588D01*
X151972734Y-150983648D01*
X152040132Y-151002070D01*
X152083896Y-151048199D01*
X152209640Y-151278480D01*
X152209645Y-151278488D01*
X152372295Y-151495764D01*
X152372311Y-151495782D01*
X152564217Y-151687688D01*
X152564235Y-151687704D01*
X152781511Y-151850354D01*
X152781519Y-151850359D01*
X153019730Y-151980433D01*
X153019734Y-151980435D01*
X153019736Y-151980436D01*
X153274047Y-152075289D01*
X153274050Y-152075289D01*
X153274051Y-152075290D01*
X153539262Y-152132983D01*
X153539264Y-152132983D01*
X153539268Y-152132984D01*
X153779856Y-152150191D01*
X153809999Y-152152347D01*
X153810000Y-152152347D01*
X153810001Y-152152347D01*
X153837123Y-152150407D01*
X154080732Y-152132984D01*
X154345953Y-152075289D01*
X154600264Y-151980436D01*
X154838486Y-151850356D01*
X155055772Y-151687698D01*
X155146820Y-151596649D01*
X155208141Y-151563166D01*
X155277833Y-151568150D01*
X155333767Y-151610021D01*
X155340617Y-151620182D01*
X155427273Y-151763528D01*
X155427279Y-151763537D01*
X155625699Y-152016801D01*
X155853198Y-152244300D01*
X156097597Y-152435775D01*
X156106470Y-152442726D01*
X156381810Y-152609175D01*
X156675205Y-152741221D01*
X156675215Y-152741224D01*
X156675223Y-152741227D01*
X156879986Y-152805033D01*
X156982377Y-152836940D01*
X157298847Y-152894935D01*
X157620000Y-152914361D01*
X157941153Y-152894935D01*
X158257623Y-152836940D01*
X158564795Y-152741221D01*
X158858190Y-152609175D01*
X159133530Y-152442726D01*
X159386798Y-152244303D01*
X159614303Y-152016798D01*
X159812726Y-151763530D01*
X159979175Y-151488190D01*
X160111221Y-151194795D01*
X160206940Y-150887623D01*
X160264935Y-150571153D01*
X160284361Y-150250000D01*
X160264935Y-149928847D01*
X160206940Y-149612377D01*
X160126780Y-149355134D01*
X160111227Y-149305223D01*
X160111223Y-149305212D01*
X160111221Y-149305205D01*
X159979175Y-149011810D01*
X159820905Y-148750000D01*
X193844475Y-148750000D01*
X193864551Y-149043511D01*
X193864552Y-149043513D01*
X193924404Y-149331543D01*
X193924409Y-149331559D01*
X194022927Y-149608762D01*
X194158278Y-149869977D01*
X194158282Y-149869983D01*
X194327932Y-150110323D01*
X194327935Y-150110326D01*
X194524536Y-150320834D01*
X194528743Y-150325338D01*
X194656384Y-150429181D01*
X194756951Y-150510999D01*
X194756953Y-150511000D01*
X194756954Y-150511001D01*
X195008319Y-150663860D01*
X195008324Y-150663862D01*
X195209363Y-150751185D01*
X195278159Y-150781067D01*
X195561445Y-150860440D01*
X195817681Y-150895659D01*
X195852901Y-150900500D01*
X195852902Y-150900500D01*
X196147099Y-150900500D01*
X196178520Y-150896180D01*
X196438555Y-150860440D01*
X196721841Y-150781067D01*
X196991682Y-150663859D01*
X197243049Y-150510999D01*
X197471260Y-150325335D01*
X197672065Y-150110326D01*
X197841722Y-149869976D01*
X197977072Y-149608764D01*
X198075592Y-149331554D01*
X198075592Y-149331549D01*
X198075595Y-149331543D01*
X198116073Y-149136750D01*
X198135448Y-149043511D01*
X198155525Y-148750000D01*
X198135448Y-148456489D01*
X198110151Y-148334753D01*
X198075595Y-148168456D01*
X198075590Y-148168440D01*
X197977072Y-147891237D01*
X197977072Y-147891236D01*
X197841722Y-147630024D01*
X197841721Y-147630022D01*
X197841717Y-147630016D01*
X197672067Y-147389676D01*
X197471256Y-147174661D01*
X197243045Y-146988998D01*
X196991680Y-146836139D01*
X196991675Y-146836137D01*
X196721845Y-146718934D01*
X196438560Y-146639561D01*
X196438556Y-146639560D01*
X196438555Y-146639560D01*
X196292826Y-146619530D01*
X196147099Y-146599500D01*
X196147098Y-146599500D01*
X195852902Y-146599500D01*
X195852901Y-146599500D01*
X195561445Y-146639560D01*
X195561439Y-146639561D01*
X195278154Y-146718934D01*
X195008324Y-146836137D01*
X195008319Y-146836139D01*
X194756954Y-146988998D01*
X194528743Y-147174661D01*
X194327932Y-147389676D01*
X194158282Y-147630016D01*
X194158278Y-147630022D01*
X194022927Y-147891237D01*
X193924409Y-148168440D01*
X193924404Y-148168456D01*
X193864552Y-148456486D01*
X193864551Y-148456488D01*
X193844475Y-148750000D01*
X159820905Y-148750000D01*
X159812726Y-148736470D01*
X159699680Y-148592178D01*
X159614300Y-148483198D01*
X159386801Y-148255699D01*
X159133537Y-148057279D01*
X159133532Y-148057276D01*
X159133530Y-148057274D01*
X158858190Y-147890825D01*
X158564795Y-147758779D01*
X158564790Y-147758777D01*
X158564787Y-147758776D01*
X158564776Y-147758772D01*
X158257631Y-147663062D01*
X158257627Y-147663061D01*
X158257623Y-147663060D01*
X157941153Y-147605065D01*
X157941152Y-147605064D01*
X157941147Y-147605064D01*
X157620000Y-147585639D01*
X157298852Y-147605064D01*
X157298847Y-147605065D01*
X156982377Y-147663060D01*
X156982374Y-147663060D01*
X156982368Y-147663062D01*
X156675223Y-147758772D01*
X156675212Y-147758776D01*
X156675206Y-147758778D01*
X156675205Y-147758779D01*
X156381810Y-147890825D01*
X156286599Y-147948382D01*
X156106471Y-148057273D01*
X156106462Y-148057279D01*
X155853198Y-148255699D01*
X155625699Y-148483198D01*
X155427279Y-148736462D01*
X155427270Y-148736476D01*
X155340616Y-148879818D01*
X155289088Y-148927005D01*
X155220229Y-148938843D01*
X155155900Y-148911574D01*
X155146819Y-148903348D01*
X155055782Y-148812311D01*
X155055764Y-148812295D01*
X154838488Y-148649645D01*
X154838480Y-148649640D01*
X154600269Y-148519566D01*
X154600265Y-148519564D01*
X154345948Y-148424709D01*
X154080737Y-148367016D01*
X153810001Y-148347653D01*
X153809999Y-148347653D01*
X153539262Y-148367016D01*
X153274051Y-148424709D01*
X153019734Y-148519564D01*
X153019730Y-148519566D01*
X152781519Y-148649640D01*
X152781511Y-148649645D01*
X152564235Y-148812295D01*
X152564217Y-148812311D01*
X152372311Y-149004217D01*
X152372295Y-149004235D01*
X152209645Y-149221511D01*
X152209644Y-149221513D01*
X152083896Y-149451801D01*
X152034490Y-149501206D01*
X151966217Y-149516057D01*
X151900753Y-149491640D01*
X151863854Y-149444964D01*
X151863182Y-149445313D01*
X151861378Y-149441832D01*
X151861326Y-149441766D01*
X151861235Y-149441556D01*
X151861234Y-149441552D01*
X151733814Y-149195644D01*
X151574097Y-148969377D01*
X151385058Y-148766965D01*
X151170217Y-148592178D01*
X151060071Y-148525197D01*
X151013019Y-148473545D01*
X151000500Y-148419249D01*
X151000500Y-147649730D01*
X151020185Y-147582691D01*
X151036819Y-147562049D01*
X151042712Y-147556156D01*
X151134814Y-147406834D01*
X151189999Y-147240297D01*
X151200500Y-147137509D01*
X151200499Y-146512492D01*
X151189999Y-146409703D01*
X151188581Y-146403078D01*
X151189932Y-146402788D01*
X151187784Y-146340455D01*
X151223511Y-146280410D01*
X151286029Y-146249213D01*
X151325536Y-146248532D01*
X151374000Y-146255500D01*
X151374003Y-146255500D01*
X172375990Y-146255500D01*
X172376000Y-146255500D01*
X172483456Y-146243947D01*
X172534967Y-146232741D01*
X172569197Y-146221347D01*
X172637497Y-146198616D01*
X172637501Y-146198613D01*
X172637504Y-146198613D01*
X172758543Y-146120825D01*
X172811347Y-146075070D01*
X172905567Y-145966336D01*
X172965338Y-145835459D01*
X172985023Y-145768420D01*
X172985024Y-145768416D01*
X173005500Y-145626000D01*
X173005500Y-142874000D01*
X173025185Y-142806961D01*
X173077989Y-142761206D01*
X173129500Y-142750000D01*
X187500000Y-142750000D01*
X187500000Y-141981478D01*
X187519685Y-141914439D01*
X187572489Y-141868684D01*
X187641647Y-141858740D01*
X187705203Y-141887765D01*
X187720136Y-141903160D01*
X187784906Y-141982669D01*
X188226861Y-142424623D01*
X188226869Y-142424629D01*
X188226874Y-142424634D01*
X188306960Y-142489875D01*
X188306963Y-142489877D01*
X188306968Y-142489881D01*
X188463749Y-142568618D01*
X188463751Y-142568619D01*
X188606294Y-142602403D01*
X188634462Y-142609079D01*
X188634465Y-142609079D01*
X188766921Y-142609079D01*
X188833960Y-142628764D01*
X188879715Y-142681568D01*
X188890921Y-142733079D01*
X188890921Y-142865534D01*
X188890922Y-142865545D01*
X188931380Y-143036248D01*
X188931382Y-143036251D01*
X189010119Y-143193032D01*
X189075376Y-143273139D01*
X189517331Y-143715093D01*
X189517339Y-143715099D01*
X189517344Y-143715104D01*
X189597430Y-143780345D01*
X189597433Y-143780347D01*
X189597438Y-143780351D01*
X189754219Y-143859088D01*
X189754221Y-143859089D01*
X189896764Y-143892873D01*
X189924932Y-143899549D01*
X189924935Y-143899549D01*
X190100370Y-143899549D01*
X190100373Y-143899549D01*
X190225277Y-143869945D01*
X190295046Y-143873637D01*
X190341553Y-143902921D01*
X190439036Y-144000404D01*
X190472521Y-144061727D01*
X190467537Y-144131419D01*
X190464151Y-144139594D01*
X190459200Y-144150435D01*
X190459199Y-144150437D01*
X190438719Y-144292893D01*
X190459199Y-144435350D01*
X190518986Y-144566263D01*
X190518987Y-144566264D01*
X190518988Y-144566266D01*
X190556607Y-144612949D01*
X190556610Y-144612952D01*
X190556615Y-144612958D01*
X191256160Y-145312501D01*
X191402127Y-145458468D01*
X191448810Y-145496088D01*
X191579725Y-145555876D01*
X191722183Y-145576357D01*
X191793516Y-145566101D01*
X191862671Y-145576045D01*
X191915475Y-145621799D01*
X191935160Y-145688839D01*
X191933898Y-145706484D01*
X191923643Y-145777815D01*
X191923643Y-145777817D01*
X191944123Y-145920274D01*
X192003910Y-146051187D01*
X192003911Y-146051188D01*
X192003912Y-146051190D01*
X192041531Y-146097873D01*
X192041534Y-146097876D01*
X192041539Y-146097882D01*
X192779796Y-146836137D01*
X192887051Y-146943392D01*
X192933734Y-146981012D01*
X193064649Y-147040800D01*
X193207106Y-147061281D01*
X193207106Y-147061280D01*
X193207107Y-147061281D01*
X193349564Y-147040800D01*
X193480480Y-146981012D01*
X193527162Y-146943393D01*
X194443392Y-146027162D01*
X194481012Y-145980480D01*
X194540800Y-145849564D01*
X194561281Y-145707107D01*
X194561191Y-145706484D01*
X194540800Y-145564649D01*
X194481013Y-145433736D01*
X194481012Y-145433735D01*
X194481012Y-145433734D01*
X194443393Y-145387051D01*
X194443388Y-145387046D01*
X194443384Y-145387041D01*
X193597880Y-144541539D01*
X193597873Y-144541532D01*
X193551190Y-144503912D01*
X193532893Y-144495556D01*
X193420273Y-144444123D01*
X193420274Y-144444123D01*
X193277817Y-144423643D01*
X193277816Y-144423643D01*
X193206484Y-144433898D01*
X193137326Y-144423954D01*
X193084523Y-144378198D01*
X193064839Y-144311158D01*
X193066100Y-144293525D01*
X193076357Y-144222183D01*
X193055876Y-144079725D01*
X192996088Y-143948810D01*
X192958469Y-143902127D01*
X192958464Y-143902122D01*
X192958460Y-143902117D01*
X192112956Y-143056615D01*
X192112949Y-143056608D01*
X192066266Y-143018988D01*
X191967959Y-142974092D01*
X191935349Y-142959199D01*
X191935350Y-142959199D01*
X191792893Y-142938719D01*
X191650437Y-142959199D01*
X191650435Y-142959200D01*
X191639594Y-142964151D01*
X191570435Y-142974092D01*
X191506880Y-142945066D01*
X191500404Y-142939036D01*
X191402921Y-142841553D01*
X191369436Y-142780230D01*
X191369944Y-142725278D01*
X191399549Y-142600373D01*
X191399549Y-142424932D01*
X191384775Y-142362596D01*
X191359089Y-142254221D01*
X191359088Y-142254219D01*
X191280351Y-142097438D01*
X191215094Y-142017331D01*
X190773139Y-141575377D01*
X190773127Y-141575367D01*
X190773125Y-141575365D01*
X190693039Y-141510124D01*
X190693033Y-141510120D01*
X190693032Y-141510119D01*
X190614290Y-141470574D01*
X190536248Y-141431380D01*
X190365545Y-141390922D01*
X190365540Y-141390921D01*
X190365538Y-141390921D01*
X190233079Y-141390921D01*
X190166040Y-141371236D01*
X190120285Y-141318432D01*
X190109079Y-141266921D01*
X190109079Y-141134465D01*
X190109079Y-141134462D01*
X190094164Y-141071533D01*
X190068619Y-140963751D01*
X190068618Y-140963749D01*
X189989881Y-140806968D01*
X189924624Y-140726861D01*
X189482669Y-140284907D01*
X189482657Y-140284897D01*
X189482655Y-140284895D01*
X189402569Y-140219654D01*
X189402563Y-140219650D01*
X189402562Y-140219649D01*
X189323820Y-140180104D01*
X189245778Y-140140910D01*
X189075075Y-140100452D01*
X189075070Y-140100451D01*
X189075068Y-140100451D01*
X188899627Y-140100451D01*
X188899625Y-140100451D01*
X188899619Y-140100452D01*
X188728916Y-140140910D01*
X188624393Y-140193403D01*
X188572133Y-140219649D01*
X188572132Y-140219650D01*
X188572126Y-140219654D01*
X188492036Y-140284897D01*
X188492018Y-140284913D01*
X187784914Y-140992018D01*
X187784903Y-140992030D01*
X187720137Y-141071533D01*
X187662534Y-141111076D01*
X187592696Y-141113199D01*
X187532798Y-141077228D01*
X187501855Y-141014583D01*
X187500000Y-140993215D01*
X187500000Y-132250000D01*
X176000000Y-132250000D01*
X173037200Y-136200400D01*
X172981229Y-136242221D01*
X172938000Y-136250000D01*
X168065228Y-136250000D01*
X167998189Y-136230315D01*
X167963047Y-136196250D01*
X165250000Y-132250000D01*
X162203716Y-132250000D01*
X162193538Y-132249500D01*
X162192548Y-132249500D01*
X155901459Y-132249500D01*
X155900469Y-132249500D01*
X155890291Y-132250000D01*
X151250000Y-132250000D01*
X151250000Y-136916204D01*
X151230315Y-136983243D01*
X151177511Y-137028998D01*
X151165159Y-137033858D01*
X151112502Y-137051383D01*
X151112496Y-137051386D01*
X150991462Y-137129171D01*
X150991451Y-137129179D01*
X150938659Y-137174923D01*
X150844433Y-137283664D01*
X150844430Y-137283668D01*
X150784664Y-137414534D01*
X150764976Y-137481582D01*
X150744500Y-137624000D01*
X150744500Y-143874664D01*
X150724815Y-143941703D01*
X150672011Y-143987458D01*
X150607897Y-143998022D01*
X150500010Y-143987000D01*
X149499998Y-143987000D01*
X149499980Y-143987001D01*
X149397203Y-143997500D01*
X149397200Y-143997501D01*
X149230668Y-144052685D01*
X149230663Y-144052687D01*
X149081342Y-144144789D01*
X148957289Y-144268842D01*
X148865187Y-144418163D01*
X148865185Y-144418168D01*
X148856584Y-144444124D01*
X148810001Y-144584703D01*
X148810001Y-144584704D01*
X148810000Y-144584704D01*
X148799500Y-144687483D01*
X148799500Y-145312501D01*
X148799501Y-145312519D01*
X148810000Y-145415296D01*
X148810001Y-145415299D01*
X148865185Y-145581831D01*
X148865187Y-145581836D01*
X148889836Y-145621799D01*
X148942070Y-145706484D01*
X148957289Y-145731157D01*
X149050951Y-145824819D01*
X149084436Y-145886142D01*
X149079452Y-145955834D01*
X149050951Y-146000181D01*
X148957289Y-146093842D01*
X148865187Y-146243163D01*
X148865185Y-146243168D01*
X148837349Y-146327170D01*
X148810001Y-146409703D01*
X148810001Y-146409704D01*
X148810000Y-146409704D01*
X148799500Y-146512483D01*
X148799500Y-147137501D01*
X148799501Y-147137519D01*
X148810000Y-147240296D01*
X148810001Y-147240299D01*
X148865185Y-147406831D01*
X148865187Y-147406836D01*
X148957289Y-147556157D01*
X148963181Y-147562049D01*
X148996666Y-147623372D01*
X148999500Y-147649730D01*
X148999500Y-148419249D01*
X148979815Y-148486288D01*
X148939929Y-148525197D01*
X148829782Y-148592178D01*
X148614941Y-148766965D01*
X148425907Y-148969372D01*
X148425904Y-148969374D01*
X148425903Y-148969377D01*
X148395949Y-149011812D01*
X148266186Y-149195643D01*
X148138764Y-149441556D01*
X148138663Y-149441790D01*
X148138611Y-149441851D01*
X148136818Y-149445313D01*
X148136053Y-149444916D01*
X148093892Y-149495431D01*
X148027228Y-149516352D01*
X147959836Y-149497910D01*
X147916103Y-149451800D01*
X147790359Y-149221519D01*
X147790354Y-149221511D01*
X147627704Y-149004235D01*
X147627688Y-149004217D01*
X147435782Y-148812311D01*
X147435764Y-148812295D01*
X147218488Y-148649645D01*
X147218480Y-148649640D01*
X146980269Y-148519566D01*
X146980265Y-148519564D01*
X146725948Y-148424709D01*
X146460737Y-148367016D01*
X146190001Y-148347653D01*
X146189999Y-148347653D01*
X145919262Y-148367016D01*
X145654051Y-148424709D01*
X145399734Y-148519564D01*
X145399730Y-148519566D01*
X145161519Y-148649640D01*
X145161511Y-148649645D01*
X144944235Y-148812295D01*
X144944224Y-148812305D01*
X144853180Y-148903349D01*
X144791856Y-148936833D01*
X144722165Y-148931849D01*
X144666231Y-148889977D01*
X144659382Y-148879817D01*
X144572726Y-148736470D01*
X144459680Y-148592178D01*
X144374300Y-148483198D01*
X144146801Y-148255699D01*
X143893537Y-148057279D01*
X143893532Y-148057276D01*
X143893530Y-148057274D01*
X143618190Y-147890825D01*
X143324795Y-147758779D01*
X143324790Y-147758777D01*
X143324787Y-147758776D01*
X143324776Y-147758772D01*
X143017631Y-147663062D01*
X143017627Y-147663061D01*
X143017623Y-147663060D01*
X142701153Y-147605065D01*
X142701152Y-147605064D01*
X142701147Y-147605064D01*
X142380000Y-147585639D01*
X142058852Y-147605064D01*
X142058847Y-147605065D01*
X141742377Y-147663060D01*
X141742374Y-147663060D01*
X141742368Y-147663062D01*
X141435223Y-147758772D01*
X141435212Y-147758776D01*
X141435206Y-147758778D01*
X141435205Y-147758779D01*
X141141810Y-147890825D01*
X141046599Y-147948382D01*
X140866471Y-148057273D01*
X140866462Y-148057279D01*
X140613198Y-148255699D01*
X140385699Y-148483198D01*
X140187279Y-148736462D01*
X140187273Y-148736471D01*
X140177461Y-148752702D01*
X140025409Y-149004228D01*
X140020824Y-149011812D01*
X140020823Y-149011814D01*
X139888776Y-149305212D01*
X139888772Y-149305223D01*
X139793062Y-149612368D01*
X139793060Y-149612374D01*
X139793060Y-149612377D01*
X139762527Y-149778990D01*
X139735064Y-149928852D01*
X139715639Y-150250000D01*
X105541618Y-150250000D01*
X105672065Y-150110326D01*
X105841722Y-149869976D01*
X105977072Y-149608764D01*
X106075592Y-149331554D01*
X106075592Y-149331549D01*
X106075595Y-149331543D01*
X106116073Y-149136750D01*
X106135448Y-149043511D01*
X106155525Y-148750000D01*
X106135448Y-148456489D01*
X106110151Y-148334753D01*
X106075595Y-148168456D01*
X106075590Y-148168440D01*
X105977072Y-147891237D01*
X105977072Y-147891236D01*
X105841722Y-147630024D01*
X105841721Y-147630022D01*
X105841717Y-147630016D01*
X105672067Y-147389676D01*
X105471256Y-147174661D01*
X105243045Y-146988998D01*
X104991680Y-146836139D01*
X104991675Y-146836137D01*
X104721845Y-146718934D01*
X104438560Y-146639561D01*
X104438556Y-146639560D01*
X104438555Y-146639560D01*
X104292826Y-146619530D01*
X104147099Y-146599500D01*
X104147098Y-146599500D01*
X103852902Y-146599500D01*
X103852901Y-146599500D01*
X103561445Y-146639560D01*
X103561439Y-146639561D01*
X103278154Y-146718934D01*
X103008324Y-146836137D01*
X103008319Y-146836139D01*
X102756954Y-146988998D01*
X102528743Y-147174661D01*
X102327932Y-147389676D01*
X102158282Y-147630016D01*
X102158278Y-147630022D01*
X102022927Y-147891237D01*
X101924409Y-148168440D01*
X101924404Y-148168456D01*
X101864552Y-148456486D01*
X101864551Y-148456488D01*
X101844475Y-148750000D01*
X99500559Y-148750000D01*
X99500500Y-148747293D01*
X99500500Y-145707106D01*
X105438719Y-145707106D01*
X105459199Y-145849562D01*
X105459200Y-145849566D01*
X105518986Y-145980477D01*
X105518989Y-145980482D01*
X105534864Y-146000181D01*
X105556607Y-146027162D01*
X106472838Y-146943392D01*
X106472842Y-146943395D01*
X106472844Y-146943397D01*
X106519519Y-146981012D01*
X106650433Y-147040799D01*
X106650434Y-147040799D01*
X106650436Y-147040800D01*
X106792893Y-147061281D01*
X106935351Y-147040800D01*
X107066266Y-146981012D01*
X107112949Y-146943393D01*
X107958468Y-146097873D01*
X107996088Y-146051190D01*
X108055876Y-145920275D01*
X108076357Y-145777817D01*
X108066101Y-145706483D01*
X108076045Y-145637327D01*
X108121800Y-145584523D01*
X108188839Y-145564839D01*
X108206475Y-145566100D01*
X108277817Y-145576357D01*
X108420275Y-145555876D01*
X108551190Y-145496088D01*
X108597873Y-145458469D01*
X109443392Y-144612949D01*
X109481012Y-144566266D01*
X109540800Y-144435351D01*
X109561281Y-144292893D01*
X109540800Y-144150436D01*
X109535850Y-144139598D01*
X109525904Y-144070443D01*
X109554927Y-144006886D01*
X109560948Y-144000418D01*
X109658447Y-143902919D01*
X109719768Y-143869436D01*
X109774721Y-143869944D01*
X109843172Y-143886168D01*
X109899621Y-143899548D01*
X109899624Y-143899548D01*
X109899627Y-143899549D01*
X109899630Y-143899549D01*
X110075065Y-143899549D01*
X110075068Y-143899549D01*
X110184396Y-143873637D01*
X110245778Y-143859089D01*
X110245779Y-143859088D01*
X110245781Y-143859088D01*
X110402562Y-143780351D01*
X110482669Y-143715094D01*
X110924623Y-143273139D01*
X110989881Y-143193032D01*
X111068618Y-143036251D01*
X111070779Y-143027136D01*
X111103807Y-142887782D01*
X111109079Y-142865538D01*
X111109079Y-142690097D01*
X111089876Y-142609077D01*
X111068619Y-142519386D01*
X111053798Y-142489875D01*
X110989881Y-142362603D01*
X110924624Y-142282496D01*
X110217504Y-141575377D01*
X110217492Y-141575367D01*
X110217490Y-141575365D01*
X110137404Y-141510124D01*
X110137398Y-141510120D01*
X110137397Y-141510119D01*
X110058655Y-141470574D01*
X109980613Y-141431380D01*
X109809910Y-141390922D01*
X109809905Y-141390921D01*
X109809903Y-141390921D01*
X109634462Y-141390921D01*
X109634460Y-141390921D01*
X109634454Y-141390922D01*
X109463751Y-141431380D01*
X109359228Y-141483873D01*
X109306968Y-141510119D01*
X109306967Y-141510120D01*
X109306961Y-141510124D01*
X109226871Y-141575367D01*
X109226853Y-141575383D01*
X108784914Y-142017323D01*
X108784895Y-142017344D01*
X108719654Y-142097430D01*
X108719650Y-142097436D01*
X108640910Y-142254221D01*
X108600452Y-142424924D01*
X108600451Y-142424930D01*
X108600451Y-142424932D01*
X108600451Y-142600373D01*
X108607180Y-142628764D01*
X108630054Y-142725275D01*
X108626360Y-142795047D01*
X108597077Y-142841553D01*
X108499594Y-142939036D01*
X108438271Y-142972521D01*
X108368579Y-142967537D01*
X108360410Y-142964153D01*
X108349564Y-142959200D01*
X108349562Y-142959199D01*
X108349561Y-142959199D01*
X108207107Y-142938719D01*
X108064649Y-142959199D01*
X107933736Y-143018986D01*
X107887041Y-143056615D01*
X107041539Y-143902119D01*
X107041533Y-143902126D01*
X107003911Y-143948811D01*
X107003910Y-143948813D01*
X106944123Y-144079725D01*
X106923643Y-144222182D01*
X106923643Y-144222183D01*
X106933898Y-144293514D01*
X106923954Y-144362673D01*
X106878198Y-144415476D01*
X106811159Y-144435160D01*
X106793514Y-144433898D01*
X106722183Y-144423643D01*
X106579725Y-144444123D01*
X106448812Y-144503910D01*
X106402117Y-144541539D01*
X105556615Y-145387043D01*
X105556609Y-145387050D01*
X105518987Y-145433735D01*
X105518986Y-145433737D01*
X105459199Y-145564649D01*
X105438719Y-145707106D01*
X99500500Y-145707106D01*
X99500500Y-130493108D01*
X111772500Y-130493108D01*
X111772500Y-131386891D01*
X111806608Y-131514187D01*
X111839554Y-131571250D01*
X111872500Y-131628314D01*
X111965686Y-131721500D01*
X112079814Y-131787392D01*
X112207108Y-131821500D01*
X112207110Y-131821500D01*
X125292890Y-131821500D01*
X125292892Y-131821500D01*
X125420186Y-131787392D01*
X125534314Y-131721500D01*
X125627500Y-131628314D01*
X125693392Y-131514186D01*
X125727500Y-131386892D01*
X125727500Y-130929499D01*
X125747185Y-130862460D01*
X125799989Y-130816705D01*
X125851495Y-130805499D01*
X126870500Y-130805499D01*
X126937539Y-130825184D01*
X126983294Y-130877988D01*
X126994500Y-130929499D01*
X126994500Y-132126000D01*
X126974815Y-132193039D01*
X126922011Y-132238794D01*
X126870500Y-132250000D01*
X112500000Y-132250000D01*
X112500000Y-142750000D01*
X124000000Y-142750000D01*
X126962800Y-138799600D01*
X127018771Y-138757779D01*
X127062000Y-138750000D01*
X131934772Y-138750000D01*
X132001811Y-138769685D01*
X132036953Y-138803750D01*
X134591453Y-142519386D01*
X134750000Y-142750000D01*
X137043118Y-142750000D01*
X137110157Y-142769685D01*
X137130799Y-142786319D01*
X137229135Y-142884655D01*
X137229164Y-142884686D01*
X137371614Y-143027136D01*
X137371618Y-143027139D01*
X137535479Y-143136628D01*
X137535492Y-143136635D01*
X137664233Y-143189961D01*
X137707144Y-143207735D01*
X137717564Y-143212051D01*
X137814212Y-143231275D01*
X137862535Y-143240887D01*
X137910858Y-143250500D01*
X137910859Y-143250500D01*
X143598542Y-143250500D01*
X143617870Y-143246655D01*
X143695188Y-143231275D01*
X143791836Y-143212051D01*
X143845165Y-143189961D01*
X143973914Y-143136632D01*
X144137782Y-143027139D01*
X144277139Y-142887782D01*
X144277139Y-142887780D01*
X144287347Y-142877573D01*
X144287350Y-142877569D01*
X144378603Y-142786318D01*
X144439926Y-142752833D01*
X144466283Y-142750000D01*
X148750000Y-142750000D01*
X148750000Y-138083795D01*
X148769685Y-138016756D01*
X148822489Y-137971001D01*
X148834828Y-137966145D01*
X148887504Y-137948613D01*
X149008543Y-137870825D01*
X149061347Y-137825070D01*
X149155567Y-137716336D01*
X149215338Y-137585459D01*
X149235023Y-137518420D01*
X149235024Y-137518416D01*
X149255500Y-137376000D01*
X149255500Y-130493108D01*
X174272500Y-130493108D01*
X174272500Y-131386891D01*
X174306608Y-131514187D01*
X174339554Y-131571250D01*
X174372500Y-131628314D01*
X174465686Y-131721500D01*
X174579814Y-131787392D01*
X174707108Y-131821500D01*
X174707110Y-131821500D01*
X187792890Y-131821500D01*
X187792892Y-131821500D01*
X187920186Y-131787392D01*
X188034314Y-131721500D01*
X188127500Y-131628314D01*
X188193392Y-131514186D01*
X188227500Y-131386892D01*
X188227500Y-130929499D01*
X188247185Y-130862460D01*
X188299989Y-130816705D01*
X188351495Y-130805499D01*
X190277500Y-130805499D01*
X190344539Y-130825184D01*
X190390294Y-130877988D01*
X190401500Y-130929497D01*
X190401500Y-130987869D01*
X190401501Y-130987876D01*
X190407908Y-131047483D01*
X190458202Y-131182328D01*
X190458206Y-131182335D01*
X190544452Y-131297544D01*
X190544455Y-131297547D01*
X190659664Y-131383793D01*
X190659671Y-131383797D01*
X190794517Y-131434091D01*
X190794516Y-131434091D01*
X190801444Y-131434835D01*
X190854127Y-131440500D01*
X194505872Y-131440499D01*
X194565483Y-131434091D01*
X194700331Y-131383796D01*
X194815546Y-131297546D01*
X194901796Y-131182331D01*
X194952091Y-131047483D01*
X194958500Y-130987873D01*
X194958499Y-125812128D01*
X194952091Y-125752517D01*
X194922136Y-125672204D01*
X194901797Y-125617671D01*
X194901793Y-125617664D01*
X194815547Y-125502455D01*
X194815544Y-125502452D01*
X194700335Y-125416206D01*
X194700328Y-125416202D01*
X194565482Y-125365908D01*
X194565483Y-125365908D01*
X194505883Y-125359501D01*
X194505881Y-125359500D01*
X194505873Y-125359500D01*
X194505865Y-125359500D01*
X191272499Y-125359500D01*
X191205460Y-125339815D01*
X191159705Y-125287011D01*
X191148499Y-125235500D01*
X191148499Y-125177129D01*
X191148498Y-125177123D01*
X191148497Y-125177116D01*
X191142091Y-125117517D01*
X191091796Y-124982669D01*
X191091795Y-124982668D01*
X191091793Y-124982664D01*
X191005547Y-124867455D01*
X191005544Y-124867452D01*
X190890335Y-124781206D01*
X190890328Y-124781202D01*
X190755482Y-124730908D01*
X190755483Y-124730908D01*
X190695883Y-124724501D01*
X190695881Y-124724500D01*
X190695873Y-124724500D01*
X190695864Y-124724500D01*
X187044129Y-124724500D01*
X187044123Y-124724501D01*
X186984516Y-124730908D01*
X186849671Y-124781202D01*
X186849664Y-124781206D01*
X186734455Y-124867452D01*
X186734452Y-124867455D01*
X186648206Y-124982664D01*
X186648202Y-124982671D01*
X186597908Y-125117517D01*
X186591501Y-125177116D01*
X186591501Y-125177123D01*
X186591500Y-125177135D01*
X186591500Y-129101370D01*
X186592898Y-129112502D01*
X186602060Y-129185450D01*
X186614314Y-129215033D01*
X186657136Y-129318415D01*
X186657137Y-129318416D01*
X186709121Y-129385335D01*
X186709127Y-129385341D01*
X187170604Y-129846819D01*
X187204089Y-129908142D01*
X187199105Y-129977834D01*
X187157233Y-130033767D01*
X187091769Y-130058184D01*
X187082923Y-130058500D01*
X174707108Y-130058500D01*
X174579812Y-130092608D01*
X174465686Y-130158500D01*
X174465683Y-130158502D01*
X174372502Y-130251683D01*
X174372500Y-130251686D01*
X174306608Y-130365812D01*
X174272500Y-130493108D01*
X149255500Y-130493108D01*
X149255500Y-129374000D01*
X149243947Y-129266544D01*
X149232741Y-129215033D01*
X149222895Y-129185450D01*
X149198616Y-129112502D01*
X149198613Y-129112496D01*
X149173245Y-129073023D01*
X149153560Y-129005983D01*
X149173244Y-128938944D01*
X149226048Y-128893189D01*
X149295207Y-128883245D01*
X149316552Y-128888274D01*
X149397203Y-128914999D01*
X149499991Y-128925500D01*
X150500008Y-128925499D01*
X150500016Y-128925498D01*
X150500019Y-128925498D01*
X150556302Y-128919748D01*
X150602797Y-128914999D01*
X150769334Y-128859814D01*
X150918656Y-128767712D01*
X151042712Y-128643656D01*
X151134814Y-128494334D01*
X151189999Y-128327797D01*
X151200500Y-128225009D01*
X151200499Y-127599992D01*
X151189999Y-127497203D01*
X151134814Y-127330666D01*
X151042712Y-127181344D01*
X150949049Y-127087681D01*
X150915564Y-127026358D01*
X150920548Y-126956666D01*
X150949049Y-126912319D01*
X151042712Y-126818656D01*
X151134814Y-126669334D01*
X151189999Y-126502797D01*
X151200500Y-126400009D01*
X151200499Y-125774992D01*
X151189999Y-125672203D01*
X151134814Y-125505666D01*
X151042712Y-125356344D01*
X150936818Y-125250450D01*
X150903334Y-125189127D01*
X150900500Y-125162769D01*
X150900500Y-124345886D01*
X150920185Y-124278847D01*
X150972989Y-124233092D01*
X150975079Y-124232159D01*
X150992143Y-124224748D01*
X151243627Y-124071818D01*
X151471944Y-123886067D01*
X151672842Y-123670958D01*
X151842579Y-123430497D01*
X151977991Y-123169163D01*
X152013833Y-123068310D01*
X152054830Y-123011736D01*
X152119907Y-122986305D01*
X152148317Y-122987098D01*
X152276302Y-123005500D01*
X152276305Y-123005500D01*
X155343695Y-123005500D01*
X155343698Y-123005500D01*
X155467952Y-122989991D01*
X155467952Y-122989990D01*
X155471773Y-122989514D01*
X155471912Y-122990627D01*
X155536632Y-122997064D01*
X155591383Y-123040471D01*
X155606934Y-123070474D01*
X155642008Y-123169161D01*
X155642009Y-123169163D01*
X155777421Y-123430497D01*
X155947158Y-123670958D01*
X155947162Y-123670962D01*
X155947162Y-123670963D01*
X156148059Y-123886070D01*
X156275757Y-123989960D01*
X156376373Y-124071818D01*
X156376375Y-124071819D01*
X156376376Y-124071820D01*
X156627858Y-124224749D01*
X156719499Y-124264554D01*
X156897823Y-124342011D01*
X157181242Y-124421421D01*
X157437596Y-124456656D01*
X157472832Y-124461500D01*
X157472833Y-124461500D01*
X157767168Y-124461500D01*
X157798604Y-124457178D01*
X158058758Y-124421421D01*
X158342177Y-124342011D01*
X158612143Y-124224748D01*
X158863627Y-124071818D01*
X159091944Y-123886067D01*
X159292842Y-123670958D01*
X159462579Y-123430497D01*
X159597991Y-123169163D01*
X159633833Y-123068310D01*
X159674830Y-123011736D01*
X159739907Y-122986305D01*
X159768317Y-122987098D01*
X159896302Y-123005500D01*
X159896305Y-123005500D01*
X172375990Y-123005500D01*
X172376000Y-123005500D01*
X172483456Y-122993947D01*
X172534967Y-122982741D01*
X172569197Y-122971347D01*
X172637497Y-122948616D01*
X172637501Y-122948613D01*
X172637504Y-122948613D01*
X172758543Y-122870825D01*
X172811347Y-122825070D01*
X172905567Y-122716336D01*
X172965338Y-122585459D01*
X172985023Y-122518420D01*
X172985024Y-122518416D01*
X173005500Y-122376000D01*
X173005500Y-119624000D01*
X173025185Y-119556961D01*
X173077989Y-119511206D01*
X173129500Y-119500000D01*
X187500000Y-119500000D01*
X187500000Y-110002135D01*
X188099500Y-110002135D01*
X188099500Y-110997870D01*
X188099501Y-110997876D01*
X188105908Y-111057483D01*
X188156202Y-111192328D01*
X188156206Y-111192335D01*
X188242452Y-111307544D01*
X188242455Y-111307547D01*
X188357664Y-111393793D01*
X188357671Y-111393797D01*
X188492517Y-111444091D01*
X188492516Y-111444091D01*
X188499444Y-111444835D01*
X188552127Y-111450500D01*
X190647872Y-111450499D01*
X190707483Y-111444091D01*
X190842331Y-111393796D01*
X190957546Y-111307546D01*
X191043796Y-111192331D01*
X191094091Y-111057483D01*
X191100500Y-110997873D01*
X191100499Y-110002128D01*
X191094091Y-109942517D01*
X191043796Y-109807669D01*
X191043795Y-109807668D01*
X191043793Y-109807664D01*
X190957547Y-109692455D01*
X190957544Y-109692452D01*
X190842335Y-109606206D01*
X190842328Y-109606202D01*
X190707482Y-109555908D01*
X190707483Y-109555908D01*
X190647883Y-109549501D01*
X190647881Y-109549500D01*
X190647873Y-109549500D01*
X190647864Y-109549500D01*
X188552129Y-109549500D01*
X188552123Y-109549501D01*
X188492516Y-109555908D01*
X188357671Y-109606202D01*
X188357664Y-109606206D01*
X188242455Y-109692452D01*
X188242452Y-109692455D01*
X188156206Y-109807664D01*
X188156202Y-109807671D01*
X188105908Y-109942517D01*
X188099501Y-110002116D01*
X188099501Y-110002123D01*
X188099500Y-110002135D01*
X187500000Y-110002135D01*
X187500000Y-109000000D01*
X185799180Y-109000000D01*
X185732141Y-108980315D01*
X185686386Y-108927511D01*
X185676442Y-108858353D01*
X185694483Y-108809558D01*
X185773197Y-108685523D01*
X185839439Y-108581142D01*
X185976084Y-108290758D01*
X186075256Y-107985538D01*
X186135392Y-107670294D01*
X186138851Y-107615316D01*
X186155543Y-107350005D01*
X186155543Y-107349989D01*
X186135393Y-107029716D01*
X186135392Y-107029709D01*
X186135392Y-107029706D01*
X186075256Y-106714462D01*
X185976084Y-106409242D01*
X185976081Y-106409235D01*
X185839441Y-106118861D01*
X185839437Y-106118855D01*
X185667479Y-105847891D01*
X185667477Y-105847888D01*
X185462912Y-105600611D01*
X185410493Y-105551386D01*
X185228964Y-105380920D01*
X185228961Y-105380918D01*
X185228955Y-105380913D01*
X184969339Y-105192291D01*
X184969321Y-105192280D01*
X184688096Y-105037675D01*
X184688093Y-105037674D01*
X184389703Y-104919533D01*
X184389706Y-104919533D01*
X184078864Y-104839723D01*
X184078851Y-104839721D01*
X183760475Y-104799500D01*
X183760464Y-104799500D01*
X183439536Y-104799500D01*
X183439524Y-104799500D01*
X183121148Y-104839721D01*
X183121135Y-104839723D01*
X182810294Y-104919533D01*
X182511906Y-105037674D01*
X182511903Y-105037675D01*
X182230678Y-105192280D01*
X182230660Y-105192291D01*
X181971044Y-105380913D01*
X181971034Y-105380921D01*
X181737087Y-105600611D01*
X181532522Y-105847888D01*
X181532520Y-105847891D01*
X181360562Y-106118855D01*
X181360558Y-106118861D01*
X181223918Y-106409235D01*
X181223916Y-106409240D01*
X181124745Y-106714457D01*
X181064607Y-107029709D01*
X181064606Y-107029716D01*
X181044457Y-107349989D01*
X181044457Y-107350005D01*
X181064606Y-107670283D01*
X181064607Y-107670290D01*
X181064608Y-107670294D01*
X181124736Y-107985498D01*
X181124745Y-107985542D01*
X181223916Y-108290759D01*
X181223918Y-108290764D01*
X181360558Y-108581138D01*
X181360562Y-108581144D01*
X181505517Y-108809558D01*
X181524818Y-108876709D01*
X181504751Y-108943635D01*
X181451686Y-108989087D01*
X181400820Y-109000000D01*
X176000000Y-109000000D01*
X173037200Y-112950400D01*
X172981229Y-112992221D01*
X172938000Y-113000000D01*
X168065228Y-113000000D01*
X167998189Y-112980315D01*
X167963047Y-112946250D01*
X165250000Y-109000000D01*
X162955819Y-109000000D01*
X162888780Y-108980315D01*
X162880300Y-108974142D01*
X162714516Y-108863369D01*
X162714511Y-108863366D01*
X162641915Y-108833296D01*
X162585765Y-108810038D01*
X162532436Y-108787949D01*
X162532432Y-108787948D01*
X162532428Y-108787946D01*
X162435788Y-108768724D01*
X162339144Y-108749500D01*
X162339141Y-108749500D01*
X156431872Y-108749500D01*
X156234791Y-108749500D01*
X156234788Y-108749500D01*
X156041503Y-108787946D01*
X156041499Y-108787948D01*
X156041497Y-108787948D01*
X156041496Y-108787949D01*
X155966077Y-108819188D01*
X155966075Y-108819189D01*
X155859417Y-108863368D01*
X155859417Y-108863369D01*
X155859416Y-108863369D01*
X155690484Y-108976245D01*
X155689588Y-108974905D01*
X155632472Y-108999166D01*
X155618113Y-109000000D01*
X151250000Y-109000000D01*
X151250000Y-113666204D01*
X151230315Y-113733243D01*
X151177511Y-113778998D01*
X151165159Y-113783858D01*
X151112502Y-113801383D01*
X151112496Y-113801386D01*
X150991462Y-113879171D01*
X150991451Y-113879179D01*
X150938659Y-113924923D01*
X150844433Y-114033664D01*
X150844430Y-114033668D01*
X150784664Y-114164534D01*
X150764976Y-114231582D01*
X150744500Y-114374000D01*
X150744500Y-120120725D01*
X150724815Y-120187764D01*
X150672011Y-120233519D01*
X150602853Y-120243463D01*
X150587045Y-120240127D01*
X150438764Y-120198580D01*
X150438759Y-120198579D01*
X150438758Y-120198579D01*
X150292962Y-120178539D01*
X150147168Y-120158500D01*
X150147167Y-120158500D01*
X149852833Y-120158500D01*
X149852832Y-120158500D01*
X149561242Y-120198579D01*
X149561235Y-120198580D01*
X149277821Y-120277989D01*
X149007858Y-120395250D01*
X148756376Y-120548179D01*
X148528059Y-120733929D01*
X148327162Y-120949036D01*
X148327162Y-120949037D01*
X148157421Y-121189502D01*
X148022008Y-121450838D01*
X147923444Y-121728170D01*
X147923439Y-121728187D01*
X147863559Y-122016350D01*
X147863558Y-122016352D01*
X147843473Y-122310000D01*
X147863558Y-122603647D01*
X147863559Y-122603649D01*
X147923439Y-122891812D01*
X147923444Y-122891829D01*
X147986167Y-123068313D01*
X148022009Y-123169163D01*
X148157421Y-123430497D01*
X148327158Y-123670958D01*
X148327162Y-123670962D01*
X148327162Y-123670963D01*
X148528059Y-123886070D01*
X148655757Y-123989960D01*
X148756373Y-124071818D01*
X148756375Y-124071819D01*
X148756376Y-124071820D01*
X149007854Y-124224747D01*
X149007859Y-124224749D01*
X149024901Y-124232151D01*
X149078548Y-124276915D01*
X149099478Y-124343576D01*
X149099500Y-124345886D01*
X149099500Y-125162769D01*
X149079815Y-125229808D01*
X149063182Y-125250450D01*
X148957287Y-125356345D01*
X148865187Y-125505663D01*
X148865186Y-125505666D01*
X148810001Y-125672203D01*
X148810001Y-125672204D01*
X148810000Y-125672204D01*
X148799500Y-125774983D01*
X148799500Y-126400001D01*
X148799501Y-126400019D01*
X148810000Y-126502796D01*
X148810001Y-126502799D01*
X148865185Y-126669331D01*
X148865187Y-126669336D01*
X148957289Y-126818657D01*
X149050951Y-126912319D01*
X149084436Y-126973642D01*
X149079452Y-127043334D01*
X149050951Y-127087681D01*
X148957289Y-127181342D01*
X148865187Y-127330663D01*
X148865186Y-127330666D01*
X148810001Y-127497203D01*
X148810001Y-127497204D01*
X148810000Y-127497204D01*
X148799500Y-127599983D01*
X148799500Y-128225001D01*
X148799501Y-128225019D01*
X148810000Y-128327796D01*
X148810001Y-128327799D01*
X148865185Y-128494331D01*
X148865189Y-128494340D01*
X148920724Y-128584377D01*
X148939164Y-128651769D01*
X148918241Y-128718433D01*
X148864599Y-128763202D01*
X148795268Y-128771863D01*
X148780250Y-128768450D01*
X148768421Y-128764976D01*
X148666690Y-128750350D01*
X148626000Y-128744500D01*
X132582500Y-128744500D01*
X132582499Y-128744500D01*
X132515460Y-128724815D01*
X132469705Y-128672011D01*
X132458499Y-128620500D01*
X132458499Y-125812129D01*
X132458498Y-125812123D01*
X132452091Y-125752516D01*
X132401797Y-125617671D01*
X132401793Y-125617664D01*
X132315547Y-125502455D01*
X132315544Y-125502452D01*
X132200335Y-125416206D01*
X132200328Y-125416202D01*
X132065482Y-125365908D01*
X132065483Y-125365908D01*
X132005883Y-125359501D01*
X132005881Y-125359500D01*
X132005873Y-125359500D01*
X132005865Y-125359500D01*
X128772499Y-125359500D01*
X128705460Y-125339815D01*
X128659705Y-125287011D01*
X128648499Y-125235500D01*
X128648499Y-125177129D01*
X128648498Y-125177123D01*
X128648497Y-125177116D01*
X128642091Y-125117517D01*
X128591796Y-124982669D01*
X128591795Y-124982668D01*
X128591793Y-124982664D01*
X128505547Y-124867455D01*
X128505544Y-124867452D01*
X128390335Y-124781206D01*
X128390328Y-124781202D01*
X128255482Y-124730908D01*
X128255483Y-124730908D01*
X128195883Y-124724501D01*
X128195881Y-124724500D01*
X128195873Y-124724500D01*
X128195864Y-124724500D01*
X124544129Y-124724500D01*
X124544123Y-124724501D01*
X124484516Y-124730908D01*
X124349671Y-124781202D01*
X124349664Y-124781206D01*
X124234455Y-124867452D01*
X124234452Y-124867455D01*
X124148206Y-124982664D01*
X124148202Y-124982671D01*
X124097908Y-125117517D01*
X124091501Y-125177116D01*
X124091501Y-125177123D01*
X124091500Y-125177135D01*
X124091500Y-129101370D01*
X124092898Y-129112502D01*
X124102060Y-129185450D01*
X124114314Y-129215033D01*
X124157136Y-129318415D01*
X124157137Y-129318416D01*
X124209121Y-129385335D01*
X124209127Y-129385341D01*
X124670604Y-129846819D01*
X124704089Y-129908142D01*
X124699105Y-129977834D01*
X124657233Y-130033767D01*
X124591769Y-130058184D01*
X124582923Y-130058500D01*
X112207108Y-130058500D01*
X112079812Y-130092608D01*
X111965686Y-130158500D01*
X111965683Y-130158502D01*
X111872502Y-130251683D01*
X111872500Y-130251686D01*
X111806608Y-130365812D01*
X111772500Y-130493108D01*
X99500500Y-130493108D01*
X99500500Y-122310000D01*
X140223473Y-122310000D01*
X140243558Y-122603647D01*
X140243559Y-122603649D01*
X140303439Y-122891812D01*
X140303444Y-122891829D01*
X140366167Y-123068313D01*
X140402009Y-123169163D01*
X140537421Y-123430497D01*
X140707158Y-123670958D01*
X140707162Y-123670962D01*
X140707162Y-123670963D01*
X140908059Y-123886070D01*
X141035757Y-123989960D01*
X141136373Y-124071818D01*
X141136375Y-124071819D01*
X141136376Y-124071820D01*
X141387858Y-124224749D01*
X141479499Y-124264554D01*
X141657823Y-124342011D01*
X141941242Y-124421421D01*
X142197596Y-124456656D01*
X142232832Y-124461500D01*
X142232833Y-124461500D01*
X142527168Y-124461500D01*
X142558604Y-124457178D01*
X142818758Y-124421421D01*
X143102177Y-124342011D01*
X143372143Y-124224748D01*
X143623627Y-124071818D01*
X143851944Y-123886067D01*
X144052842Y-123670958D01*
X144222579Y-123430497D01*
X144357991Y-123169163D01*
X144456557Y-122891824D01*
X144456558Y-122891817D01*
X144456560Y-122891812D01*
X144493025Y-122716331D01*
X144516441Y-122603647D01*
X144536527Y-122310000D01*
X144516441Y-122016353D01*
X144495766Y-121916860D01*
X144456560Y-121728187D01*
X144456555Y-121728170D01*
X144357991Y-121450838D01*
X144357991Y-121450837D01*
X144222579Y-121189503D01*
X144052842Y-120949042D01*
X144052837Y-120949036D01*
X143851940Y-120733929D01*
X143623623Y-120548179D01*
X143372141Y-120395250D01*
X143102178Y-120277989D01*
X142818764Y-120198580D01*
X142818759Y-120198579D01*
X142818758Y-120198579D01*
X142672962Y-120178539D01*
X142527168Y-120158500D01*
X142527167Y-120158500D01*
X142232833Y-120158500D01*
X142232832Y-120158500D01*
X141941242Y-120198579D01*
X141941235Y-120198580D01*
X141657821Y-120277989D01*
X141387858Y-120395250D01*
X141136376Y-120548179D01*
X140908059Y-120733929D01*
X140707162Y-120949036D01*
X140707162Y-120949037D01*
X140537421Y-121189502D01*
X140402008Y-121450838D01*
X140303444Y-121728170D01*
X140303439Y-121728187D01*
X140243559Y-122016350D01*
X140243558Y-122016352D01*
X140223473Y-122310000D01*
X99500500Y-122310000D01*
X99500500Y-108249999D01*
X102294357Y-108249999D01*
X102294357Y-108250000D01*
X102314884Y-108471535D01*
X102314885Y-108471537D01*
X102375769Y-108685523D01*
X102375775Y-108685538D01*
X102474938Y-108884683D01*
X102474943Y-108884691D01*
X102609020Y-109062238D01*
X102773437Y-109212123D01*
X102773439Y-109212125D01*
X102962595Y-109329245D01*
X102962596Y-109329245D01*
X102962599Y-109329247D01*
X103170060Y-109409618D01*
X103388757Y-109450500D01*
X103388759Y-109450500D01*
X103611241Y-109450500D01*
X103611243Y-109450500D01*
X103829940Y-109409618D01*
X104037401Y-109329247D01*
X104226562Y-109212124D01*
X104390981Y-109062236D01*
X104437979Y-109000000D01*
X112500000Y-109000000D01*
X112500000Y-119500000D01*
X124000000Y-119500000D01*
X126962800Y-115549600D01*
X127018771Y-115507779D01*
X127062000Y-115500000D01*
X131934772Y-115500000D01*
X132001811Y-115519685D01*
X132036953Y-115553750D01*
X134750000Y-119500000D01*
X137492774Y-119500000D01*
X137559813Y-119519685D01*
X137568292Y-119525857D01*
X137734072Y-119636628D01*
X137734085Y-119636635D01*
X137862826Y-119689961D01*
X137905737Y-119707735D01*
X137916157Y-119712051D01*
X138012805Y-119731275D01*
X138061128Y-119740887D01*
X138109451Y-119750500D01*
X138109452Y-119750500D01*
X143931874Y-119750500D01*
X143951202Y-119746655D01*
X144028520Y-119731275D01*
X144125168Y-119712051D01*
X144178497Y-119689961D01*
X144307246Y-119636632D01*
X144471114Y-119527139D01*
X144471113Y-119527139D01*
X144476179Y-119523755D01*
X144477074Y-119525095D01*
X144534192Y-119500834D01*
X144548551Y-119500000D01*
X148750000Y-119500000D01*
X148750000Y-114833795D01*
X148769685Y-114766756D01*
X148822489Y-114721001D01*
X148834828Y-114716145D01*
X148887504Y-114698613D01*
X149008543Y-114620825D01*
X149061347Y-114575070D01*
X149155567Y-114466336D01*
X149215338Y-114335459D01*
X149235023Y-114268420D01*
X149235024Y-114268416D01*
X149255500Y-114126000D01*
X149255500Y-106124000D01*
X149243947Y-106016544D01*
X149232741Y-105965033D01*
X149232637Y-105964722D01*
X149198616Y-105862502D01*
X149198613Y-105862496D01*
X149120828Y-105741462D01*
X149120820Y-105741450D01*
X149089411Y-105705202D01*
X149060386Y-105641646D01*
X149070330Y-105572488D01*
X149116085Y-105519684D01*
X149183124Y-105500000D01*
X149876000Y-105500000D01*
X149943039Y-105519685D01*
X149988794Y-105572489D01*
X150000000Y-105624000D01*
X150000000Y-107750000D01*
X152157981Y-107750000D01*
X152225020Y-107769685D01*
X152245663Y-107786320D01*
X152289810Y-107830468D01*
X152289811Y-107830469D01*
X152289813Y-107830470D01*
X152289815Y-107830472D01*
X152435394Y-107918478D01*
X152597804Y-107969086D01*
X152668384Y-107975500D01*
X152668387Y-107975500D01*
X153181613Y-107975500D01*
X153181616Y-107975500D01*
X153252196Y-107969086D01*
X153414606Y-107918478D01*
X153560185Y-107830472D01*
X153604337Y-107786320D01*
X153665660Y-107752834D01*
X153692019Y-107750000D01*
X153807981Y-107750000D01*
X153875020Y-107769685D01*
X153895663Y-107786320D01*
X153939810Y-107830468D01*
X153939811Y-107830469D01*
X153939813Y-107830470D01*
X153939815Y-107830472D01*
X154085394Y-107918478D01*
X154247804Y-107969086D01*
X154318384Y-107975500D01*
X154318387Y-107975500D01*
X154831613Y-107975500D01*
X154831616Y-107975500D01*
X154902196Y-107969086D01*
X155064606Y-107918478D01*
X155210185Y-107830472D01*
X155254337Y-107786320D01*
X155315660Y-107752834D01*
X155342019Y-107750000D01*
X157251106Y-107750000D01*
X157318145Y-107769685D01*
X157350370Y-107799686D01*
X157382455Y-107842546D01*
X157428644Y-107877123D01*
X157497665Y-107928793D01*
X157497672Y-107928797D01*
X157505000Y-107931530D01*
X157632518Y-107979091D01*
X157692128Y-107985500D01*
X158053836Y-107985499D01*
X158078028Y-107987881D01*
X158099296Y-107992112D01*
X158141459Y-108000500D01*
X158141460Y-108000500D01*
X158338543Y-108000500D01*
X158401974Y-107987882D01*
X158426167Y-107985499D01*
X158787872Y-107985499D01*
X158787873Y-107985499D01*
X158847484Y-107979091D01*
X158931665Y-107947692D01*
X159001356Y-107942708D01*
X159018328Y-107947690D01*
X159102516Y-107979091D01*
X159162126Y-107985500D01*
X160257871Y-107985499D01*
X160317482Y-107979091D01*
X160452330Y-107928796D01*
X160567545Y-107842546D01*
X160599628Y-107799687D01*
X160655561Y-107757818D01*
X160698894Y-107750000D01*
X170750000Y-107750000D01*
X170750000Y-105273385D01*
X174737500Y-105273385D01*
X174737500Y-106893120D01*
X174737501Y-106893126D01*
X174743908Y-106952733D01*
X174794202Y-107087578D01*
X174794206Y-107087585D01*
X174880452Y-107202794D01*
X174880455Y-107202797D01*
X174995664Y-107289043D01*
X174995671Y-107289047D01*
X175130517Y-107339341D01*
X175130516Y-107339341D01*
X175137444Y-107340085D01*
X175190127Y-107345750D01*
X176809872Y-107345749D01*
X176869483Y-107339341D01*
X177004331Y-107289046D01*
X177119546Y-107202796D01*
X177205796Y-107087581D01*
X177256091Y-106952733D01*
X177262500Y-106893123D01*
X177262499Y-105273378D01*
X177256091Y-105213767D01*
X177248078Y-105192284D01*
X177205797Y-105078921D01*
X177205793Y-105078914D01*
X177119547Y-104963705D01*
X177119544Y-104963702D01*
X177004335Y-104877456D01*
X177004328Y-104877452D01*
X176869482Y-104827158D01*
X176869483Y-104827158D01*
X176809883Y-104820751D01*
X176809881Y-104820750D01*
X176809873Y-104820750D01*
X176809864Y-104820750D01*
X175190129Y-104820750D01*
X175190123Y-104820751D01*
X175130516Y-104827158D01*
X174995671Y-104877452D01*
X174995664Y-104877456D01*
X174880455Y-104963702D01*
X174880452Y-104963705D01*
X174794206Y-105078914D01*
X174794202Y-105078921D01*
X174743908Y-105213767D01*
X174739202Y-105257544D01*
X174737501Y-105273373D01*
X174737500Y-105273385D01*
X170750000Y-105273385D01*
X170750000Y-102583246D01*
X174732677Y-102583246D01*
X174732677Y-102583251D01*
X174751929Y-102803311D01*
X174751930Y-102803319D01*
X174809104Y-103016694D01*
X174809105Y-103016696D01*
X174809106Y-103016699D01*
X174902466Y-103216911D01*
X174902468Y-103216915D01*
X175029170Y-103397864D01*
X175029175Y-103397870D01*
X175185378Y-103554073D01*
X175185384Y-103554078D01*
X175366333Y-103680780D01*
X175366335Y-103680781D01*
X175366338Y-103680783D01*
X175566550Y-103774143D01*
X175779932Y-103831319D01*
X175937123Y-103845071D01*
X175999998Y-103850572D01*
X176000000Y-103850572D01*
X176000002Y-103850572D01*
X176055017Y-103845758D01*
X176220068Y-103831319D01*
X176433450Y-103774143D01*
X176633662Y-103680783D01*
X176814620Y-103554075D01*
X176970826Y-103397869D01*
X177097534Y-103216911D01*
X177190894Y-103016699D01*
X177248070Y-102803317D01*
X177267323Y-102583249D01*
X177267315Y-102583161D01*
X177252760Y-102416787D01*
X177248070Y-102363181D01*
X177190894Y-102149799D01*
X177097534Y-101949588D01*
X176970826Y-101768629D01*
X176814620Y-101612423D01*
X176814616Y-101612420D01*
X176814615Y-101612419D01*
X176633666Y-101485717D01*
X176633662Y-101485715D01*
X176633660Y-101485714D01*
X176433450Y-101392355D01*
X176433447Y-101392354D01*
X176433445Y-101392353D01*
X176220070Y-101335179D01*
X176220062Y-101335178D01*
X176000002Y-101315926D01*
X175999998Y-101315926D01*
X175779937Y-101335178D01*
X175779929Y-101335179D01*
X175566554Y-101392353D01*
X175566548Y-101392356D01*
X175366340Y-101485714D01*
X175366338Y-101485715D01*
X175185377Y-101612424D01*
X175029175Y-101768626D01*
X174902466Y-101949587D01*
X174902465Y-101949589D01*
X174809107Y-102149797D01*
X174809104Y-102149803D01*
X174751930Y-102363178D01*
X174751929Y-102363186D01*
X174732677Y-102583246D01*
X170750000Y-102583246D01*
X170750000Y-100129500D01*
X170769685Y-100062461D01*
X170822489Y-100016706D01*
X170874000Y-100005500D01*
X172375990Y-100005500D01*
X172376000Y-100005500D01*
X172483456Y-99993947D01*
X172534967Y-99982741D01*
X172569197Y-99971347D01*
X172637497Y-99948616D01*
X172637501Y-99948613D01*
X172637504Y-99948613D01*
X172758543Y-99870825D01*
X172811347Y-99825070D01*
X172905567Y-99716336D01*
X172965338Y-99585459D01*
X172985023Y-99518420D01*
X172985024Y-99518416D01*
X173005500Y-99376000D01*
X173005500Y-99054702D01*
X181049500Y-99054702D01*
X181049500Y-101245292D01*
X181049501Y-101245298D01*
X181059718Y-101390027D01*
X181059718Y-101390031D01*
X181059719Y-101390034D01*
X181059720Y-101390038D01*
X181113834Y-101630314D01*
X181113835Y-101630319D01*
X181169501Y-101768630D01*
X181205795Y-101858809D01*
X181333216Y-102069589D01*
X181358659Y-102099501D01*
X181492798Y-102257201D01*
X181602990Y-102350930D01*
X181680411Y-102416784D01*
X181891191Y-102544205D01*
X182119683Y-102636165D01*
X182359966Y-102690281D01*
X182504705Y-102700500D01*
X184695294Y-102700499D01*
X184840034Y-102690281D01*
X185080317Y-102636165D01*
X185289105Y-102552135D01*
X186099500Y-102552135D01*
X186099500Y-104947870D01*
X186099501Y-104947876D01*
X186105908Y-105007483D01*
X186156202Y-105142328D01*
X186156206Y-105142335D01*
X186242452Y-105257544D01*
X186242455Y-105257547D01*
X186357664Y-105343793D01*
X186357671Y-105343797D01*
X186492517Y-105394091D01*
X186492516Y-105394091D01*
X186499444Y-105394835D01*
X186552127Y-105400500D01*
X187947872Y-105400499D01*
X188007483Y-105394091D01*
X188142331Y-105343796D01*
X188257546Y-105257546D01*
X188343796Y-105142331D01*
X188394091Y-105007483D01*
X188400500Y-104947873D01*
X188400499Y-102552128D01*
X188394091Y-102492517D01*
X188365844Y-102416784D01*
X188343797Y-102357671D01*
X188343793Y-102357664D01*
X188257547Y-102242455D01*
X188257544Y-102242452D01*
X188142335Y-102156206D01*
X188142328Y-102156202D01*
X188007482Y-102105908D01*
X188007483Y-102105908D01*
X187947883Y-102099501D01*
X187947881Y-102099500D01*
X187947873Y-102099500D01*
X187947864Y-102099500D01*
X186552129Y-102099500D01*
X186552123Y-102099501D01*
X186492516Y-102105908D01*
X186357671Y-102156202D01*
X186357664Y-102156206D01*
X186242455Y-102242452D01*
X186242452Y-102242455D01*
X186156206Y-102357664D01*
X186156202Y-102357671D01*
X186105908Y-102492517D01*
X186099501Y-102552116D01*
X186099501Y-102552123D01*
X186099500Y-102552135D01*
X185289105Y-102552135D01*
X185308809Y-102544205D01*
X185519589Y-102416784D01*
X185707201Y-102257201D01*
X185866784Y-102069589D01*
X185994205Y-101858809D01*
X186086165Y-101630317D01*
X186140281Y-101390034D01*
X186150500Y-101245295D01*
X186150499Y-99054706D01*
X186140281Y-98909966D01*
X186086165Y-98669683D01*
X185994205Y-98441191D01*
X185866784Y-98230411D01*
X185800930Y-98152990D01*
X185707201Y-98042798D01*
X185532027Y-97893796D01*
X185519589Y-97883216D01*
X185308809Y-97755795D01*
X185151121Y-97692331D01*
X185080318Y-97663835D01*
X184840036Y-97609719D01*
X184840029Y-97609718D01*
X184695296Y-97599500D01*
X182504707Y-97599500D01*
X182504701Y-97599501D01*
X182359972Y-97609718D01*
X182359966Y-97609718D01*
X182359966Y-97609719D01*
X182359963Y-97609719D01*
X182359961Y-97609720D01*
X182119685Y-97663834D01*
X182119680Y-97663835D01*
X181891190Y-97755795D01*
X181891185Y-97755798D01*
X181680417Y-97883212D01*
X181680407Y-97883219D01*
X181492798Y-98042798D01*
X181333219Y-98230407D01*
X181333212Y-98230417D01*
X181205798Y-98441185D01*
X181205795Y-98441190D01*
X181113835Y-98669680D01*
X181113835Y-98669682D01*
X181059719Y-98909963D01*
X181059718Y-98909970D01*
X181049500Y-99054702D01*
X173005500Y-99054702D01*
X173005500Y-96624000D01*
X173025185Y-96556961D01*
X173077989Y-96511206D01*
X173119686Y-96502135D01*
X188099500Y-96502135D01*
X188099500Y-97497870D01*
X188099501Y-97497876D01*
X188105908Y-97557483D01*
X188156202Y-97692328D01*
X188156206Y-97692335D01*
X188242452Y-97807544D01*
X188242455Y-97807547D01*
X188357664Y-97893793D01*
X188357671Y-97893797D01*
X188492517Y-97944091D01*
X188492516Y-97944091D01*
X188499444Y-97944835D01*
X188552127Y-97950500D01*
X190647872Y-97950499D01*
X190707483Y-97944091D01*
X190842331Y-97893796D01*
X190957546Y-97807546D01*
X191043796Y-97692331D01*
X191094091Y-97557483D01*
X191100500Y-97497873D01*
X191100499Y-96502128D01*
X191094091Y-96442517D01*
X191081820Y-96409618D01*
X191043797Y-96307671D01*
X191043793Y-96307664D01*
X190957547Y-96192455D01*
X190957544Y-96192452D01*
X190842335Y-96106206D01*
X190842328Y-96106202D01*
X190707482Y-96055908D01*
X190707483Y-96055908D01*
X190647883Y-96049501D01*
X190647881Y-96049500D01*
X190647873Y-96049500D01*
X190647864Y-96049500D01*
X188552129Y-96049500D01*
X188552123Y-96049501D01*
X188492516Y-96055908D01*
X188357671Y-96106202D01*
X188357664Y-96106206D01*
X188242455Y-96192452D01*
X188242452Y-96192455D01*
X188156206Y-96307664D01*
X188156202Y-96307671D01*
X188105908Y-96442517D01*
X188099639Y-96500834D01*
X188099501Y-96502123D01*
X188099500Y-96502135D01*
X173119686Y-96502135D01*
X173129500Y-96500000D01*
X187500000Y-96500000D01*
X187500000Y-86000000D01*
X183180558Y-86000000D01*
X183113519Y-85980315D01*
X183067764Y-85927511D01*
X183057820Y-85858353D01*
X183086845Y-85794797D01*
X183145623Y-85757023D01*
X183169750Y-85752472D01*
X183220068Y-85748070D01*
X183433450Y-85690894D01*
X183633662Y-85597534D01*
X183814620Y-85470826D01*
X183970826Y-85314620D01*
X184097534Y-85133662D01*
X184190894Y-84933450D01*
X184248070Y-84720068D01*
X184267323Y-84500000D01*
X184248070Y-84279932D01*
X184190894Y-84066550D01*
X184097534Y-83866339D01*
X184013037Y-83745664D01*
X183970827Y-83685381D01*
X183913241Y-83627795D01*
X183814620Y-83529174D01*
X183814616Y-83529171D01*
X183814615Y-83529170D01*
X183633666Y-83402468D01*
X183633662Y-83402466D01*
X183586457Y-83380454D01*
X183433450Y-83309106D01*
X183433447Y-83309105D01*
X183433445Y-83309104D01*
X183220070Y-83251930D01*
X183220062Y-83251929D01*
X183000002Y-83232677D01*
X182999998Y-83232677D01*
X182779937Y-83251929D01*
X182779929Y-83251930D01*
X182566554Y-83309104D01*
X182566548Y-83309107D01*
X182366340Y-83402465D01*
X182366338Y-83402466D01*
X182185377Y-83529175D01*
X182029175Y-83685377D01*
X181902466Y-83866338D01*
X181902465Y-83866340D01*
X181809107Y-84066548D01*
X181809104Y-84066554D01*
X181751930Y-84279929D01*
X181751929Y-84279937D01*
X181732677Y-84499997D01*
X181732677Y-84500002D01*
X181751929Y-84720062D01*
X181751930Y-84720070D01*
X181809104Y-84933445D01*
X181809105Y-84933447D01*
X181809106Y-84933450D01*
X181902466Y-85133662D01*
X181902468Y-85133666D01*
X182029170Y-85314615D01*
X182029175Y-85314621D01*
X182185378Y-85470824D01*
X182185384Y-85470829D01*
X182366333Y-85597531D01*
X182366335Y-85597532D01*
X182366338Y-85597534D01*
X182566550Y-85690894D01*
X182779932Y-85748070D01*
X182830249Y-85752472D01*
X182895318Y-85777924D01*
X182936297Y-85834515D01*
X182940175Y-85904277D01*
X182905721Y-85965061D01*
X182843875Y-85997569D01*
X182819442Y-86000000D01*
X180401249Y-86000000D01*
X180334210Y-85980315D01*
X180288455Y-85927511D01*
X180278511Y-85858353D01*
X180307536Y-85794797D01*
X180362472Y-85759491D01*
X180362215Y-85758802D01*
X180365386Y-85757619D01*
X180366314Y-85757023D01*
X180368627Y-85756410D01*
X180369481Y-85756091D01*
X180369483Y-85756091D01*
X180504331Y-85705796D01*
X180619546Y-85619546D01*
X180705796Y-85504331D01*
X180756091Y-85369483D01*
X180762500Y-85309873D01*
X180762499Y-83690128D01*
X180756091Y-83630517D01*
X180729456Y-83559106D01*
X180705797Y-83495671D01*
X180705793Y-83495664D01*
X180619547Y-83380455D01*
X180619544Y-83380452D01*
X180504335Y-83294206D01*
X180504328Y-83294202D01*
X180369482Y-83243908D01*
X180369483Y-83243908D01*
X180309883Y-83237501D01*
X180309881Y-83237500D01*
X180309873Y-83237500D01*
X180309864Y-83237500D01*
X178690129Y-83237500D01*
X178690123Y-83237501D01*
X178630516Y-83243908D01*
X178495671Y-83294202D01*
X178495664Y-83294206D01*
X178380455Y-83380452D01*
X178380452Y-83380455D01*
X178294206Y-83495664D01*
X178294202Y-83495671D01*
X178243908Y-83630517D01*
X178238010Y-83685380D01*
X178237501Y-83690123D01*
X178237500Y-83690135D01*
X178237500Y-85309870D01*
X178237501Y-85309876D01*
X178243908Y-85369483D01*
X178294202Y-85504328D01*
X178294206Y-85504335D01*
X178380452Y-85619544D01*
X178380455Y-85619547D01*
X178495664Y-85705793D01*
X178495671Y-85705797D01*
X178637785Y-85758802D01*
X178637012Y-85760873D01*
X178687982Y-85789895D01*
X178720369Y-85851806D01*
X178714143Y-85921397D01*
X178671281Y-85976576D01*
X178605392Y-85999822D01*
X178598752Y-86000000D01*
X176000000Y-86000000D01*
X173037200Y-89950400D01*
X172981229Y-89992221D01*
X172938000Y-90000000D01*
X168065228Y-90000000D01*
X167998189Y-89980315D01*
X167963047Y-89946250D01*
X165250000Y-86000000D01*
X163013583Y-86000000D01*
X162946544Y-85980315D01*
X162925902Y-85963681D01*
X162828780Y-85866559D01*
X162828760Y-85866537D01*
X162685086Y-85722863D01*
X162685082Y-85722860D01*
X162521218Y-85613369D01*
X162521215Y-85613368D01*
X162392063Y-85559872D01*
X162339135Y-85537948D01*
X162339130Y-85537946D01*
X162242489Y-85518724D01*
X162145845Y-85499500D01*
X162145842Y-85499500D01*
X156515206Y-85499500D01*
X156318125Y-85499500D01*
X156318122Y-85499500D01*
X156124837Y-85537947D01*
X156124829Y-85537949D01*
X156071901Y-85559873D01*
X156071900Y-85559873D01*
X155942758Y-85613364D01*
X155942751Y-85613368D01*
X155908014Y-85636579D01*
X155873277Y-85659790D01*
X155873276Y-85659791D01*
X155778881Y-85722862D01*
X155778880Y-85722863D01*
X155538064Y-85963681D01*
X155476741Y-85997166D01*
X155450383Y-86000000D01*
X151250000Y-86000000D01*
X151250000Y-90666204D01*
X151230315Y-90733243D01*
X151177511Y-90778998D01*
X151165159Y-90783858D01*
X151112502Y-90801383D01*
X151112496Y-90801386D01*
X150991462Y-90879171D01*
X150991451Y-90879179D01*
X150938659Y-90924923D01*
X150844433Y-91033664D01*
X150844430Y-91033668D01*
X150784664Y-91164534D01*
X150764976Y-91231582D01*
X150751906Y-91322489D01*
X150744500Y-91374000D01*
X150744500Y-99376000D01*
X150744501Y-99376009D01*
X150756052Y-99483450D01*
X150756054Y-99483462D01*
X150767260Y-99534972D01*
X150801383Y-99637497D01*
X150801386Y-99637503D01*
X150879171Y-99758537D01*
X150879179Y-99758549D01*
X150910589Y-99794798D01*
X150939614Y-99858354D01*
X150929670Y-99927512D01*
X150883915Y-99980316D01*
X150816876Y-100000000D01*
X150124000Y-100000000D01*
X150056961Y-99980315D01*
X150011206Y-99927511D01*
X150000000Y-99876000D01*
X150000000Y-97750000D01*
X142694385Y-97750000D01*
X142629288Y-97731538D01*
X142558705Y-97688001D01*
X142558699Y-97687998D01*
X142558697Y-97687997D01*
X142549517Y-97684955D01*
X142397709Y-97634651D01*
X142298352Y-97624500D01*
X142298345Y-97624500D01*
X142261434Y-97624500D01*
X142237243Y-97622117D01*
X142202052Y-97615117D01*
X142123542Y-97599500D01*
X142123540Y-97599500D01*
X141926460Y-97599500D01*
X141881913Y-97608360D01*
X141812746Y-97622118D01*
X141788559Y-97624500D01*
X141751663Y-97624500D01*
X141751643Y-97624501D01*
X141652292Y-97634650D01*
X141652289Y-97634651D01*
X141491305Y-97687996D01*
X141491294Y-97688001D01*
X141420712Y-97731538D01*
X141355615Y-97750000D01*
X141144385Y-97750000D01*
X141079288Y-97731538D01*
X141008705Y-97688001D01*
X141008699Y-97687998D01*
X141008697Y-97687997D01*
X140999517Y-97684955D01*
X140847709Y-97634651D01*
X140748346Y-97624500D01*
X140201662Y-97624500D01*
X140201644Y-97624501D01*
X140102292Y-97634650D01*
X140102289Y-97634651D01*
X139941305Y-97687996D01*
X139941294Y-97688001D01*
X139870712Y-97731538D01*
X139805615Y-97750000D01*
X128750000Y-97750000D01*
X128750000Y-105370500D01*
X128730315Y-105437539D01*
X128677511Y-105483294D01*
X128626000Y-105494500D01*
X127624000Y-105494500D01*
X127623991Y-105494500D01*
X127623990Y-105494501D01*
X127516549Y-105506052D01*
X127516537Y-105506054D01*
X127465027Y-105517260D01*
X127362502Y-105551383D01*
X127362496Y-105551386D01*
X127241462Y-105629171D01*
X127241451Y-105629179D01*
X127188659Y-105674923D01*
X127094433Y-105783664D01*
X127094430Y-105783668D01*
X127034664Y-105914534D01*
X127014976Y-105981582D01*
X127009949Y-106016549D01*
X126994502Y-106123990D01*
X126994500Y-106124001D01*
X126994500Y-108876000D01*
X126974815Y-108943039D01*
X126922011Y-108988794D01*
X126870500Y-109000000D01*
X112500000Y-109000000D01*
X104437979Y-109000000D01*
X104525058Y-108884689D01*
X104624229Y-108685528D01*
X104685115Y-108471536D01*
X104705643Y-108250000D01*
X104685115Y-108028464D01*
X104624229Y-107814472D01*
X104601928Y-107769685D01*
X104525061Y-107615316D01*
X104525056Y-107615308D01*
X104390979Y-107437761D01*
X104226562Y-107287876D01*
X104226560Y-107287874D01*
X104037404Y-107170754D01*
X104037398Y-107170752D01*
X103829940Y-107090382D01*
X103611243Y-107049500D01*
X103388757Y-107049500D01*
X103170060Y-107090382D01*
X103038864Y-107141207D01*
X102962601Y-107170752D01*
X102962595Y-107170754D01*
X102773439Y-107287874D01*
X102773437Y-107287876D01*
X102609020Y-107437761D01*
X102474943Y-107615308D01*
X102474938Y-107615316D01*
X102375775Y-107814461D01*
X102375769Y-107814476D01*
X102314885Y-108028462D01*
X102314884Y-108028464D01*
X102294357Y-108249999D01*
X99500500Y-108249999D01*
X99500500Y-98249999D01*
X111494390Y-98249999D01*
X111494390Y-98250002D01*
X111514804Y-98535434D01*
X111575628Y-98815038D01*
X111575630Y-98815044D01*
X111575631Y-98815047D01*
X111665020Y-99054707D01*
X111675635Y-99083167D01*
X111812770Y-99334310D01*
X111812775Y-99334318D01*
X111984254Y-99563388D01*
X111984270Y-99563406D01*
X112186594Y-99765730D01*
X112186612Y-99765746D01*
X112366934Y-99900733D01*
X112408806Y-99956666D01*
X112413790Y-100026358D01*
X112380305Y-100087681D01*
X112366935Y-100099267D01*
X112186606Y-100234260D01*
X112186594Y-100234270D01*
X111984270Y-100436594D01*
X111984254Y-100436612D01*
X111812775Y-100665682D01*
X111812770Y-100665690D01*
X111675635Y-100916833D01*
X111575628Y-101184962D01*
X111514804Y-101464566D01*
X111494390Y-101749998D01*
X111494390Y-101750001D01*
X111514804Y-102035433D01*
X111575628Y-102315037D01*
X111575630Y-102315043D01*
X111575631Y-102315046D01*
X111664058Y-102552127D01*
X111675635Y-102583166D01*
X111812770Y-102834309D01*
X111812775Y-102834317D01*
X111984254Y-103063387D01*
X111984270Y-103063405D01*
X112186594Y-103265729D01*
X112186612Y-103265745D01*
X112415682Y-103437224D01*
X112415690Y-103437229D01*
X112666833Y-103574364D01*
X112666832Y-103574364D01*
X112666836Y-103574365D01*
X112666839Y-103574367D01*
X112934954Y-103674369D01*
X112934960Y-103674370D01*
X112934962Y-103674371D01*
X113214566Y-103735195D01*
X113214568Y-103735195D01*
X113214572Y-103735196D01*
X113468220Y-103753337D01*
X113499999Y-103755610D01*
X113500000Y-103755610D01*
X113500001Y-103755610D01*
X113528595Y-103753564D01*
X113785428Y-103735196D01*
X114065046Y-103674369D01*
X114333161Y-103574367D01*
X114584315Y-103437226D01*
X114813395Y-103265739D01*
X115015739Y-103063395D01*
X115187226Y-102834315D01*
X115324367Y-102583161D01*
X115424369Y-102315046D01*
X115485196Y-102035428D01*
X115505610Y-101750000D01*
X115485196Y-101464572D01*
X115469486Y-101392356D01*
X115424371Y-101184962D01*
X115424370Y-101184960D01*
X115424369Y-101184954D01*
X115324367Y-100916839D01*
X115187226Y-100665685D01*
X115187224Y-100665682D01*
X115015745Y-100436612D01*
X115015729Y-100436594D01*
X114813405Y-100234270D01*
X114813387Y-100234254D01*
X114633065Y-100099267D01*
X114591193Y-100043333D01*
X114586209Y-99973642D01*
X114619694Y-99912319D01*
X114633065Y-99900733D01*
X114813387Y-99765746D01*
X114813387Y-99765745D01*
X114813395Y-99765740D01*
X115015739Y-99563396D01*
X115187226Y-99334316D01*
X115324367Y-99083162D01*
X115424369Y-98815047D01*
X115424371Y-98815038D01*
X115485195Y-98535434D01*
X115485195Y-98535433D01*
X115485196Y-98535429D01*
X115505610Y-98250001D01*
X115485196Y-97964573D01*
X115482134Y-97950499D01*
X115424371Y-97684963D01*
X115424370Y-97684961D01*
X115424369Y-97684955D01*
X115324367Y-97416840D01*
X115187226Y-97165686D01*
X115187224Y-97165683D01*
X115015745Y-96936613D01*
X115015729Y-96936595D01*
X114813405Y-96734271D01*
X114813387Y-96734255D01*
X114798708Y-96723267D01*
X114756836Y-96667334D01*
X114751852Y-96597642D01*
X114785337Y-96536319D01*
X114846660Y-96502834D01*
X114873018Y-96500000D01*
X124000000Y-96500000D01*
X126962800Y-92549600D01*
X127018771Y-92507779D01*
X127062000Y-92500000D01*
X131934772Y-92500000D01*
X132001811Y-92519685D01*
X132036953Y-92553750D01*
X133591202Y-94814476D01*
X134750000Y-96500000D01*
X136987480Y-96500000D01*
X137054519Y-96519685D01*
X137062998Y-96525857D01*
X137170432Y-96597642D01*
X137228785Y-96636632D01*
X137335444Y-96680811D01*
X137410863Y-96712051D01*
X137604153Y-96750499D01*
X137604156Y-96750500D01*
X137604158Y-96750500D01*
X143765208Y-96750500D01*
X143784536Y-96746655D01*
X143861854Y-96731275D01*
X143958502Y-96712051D01*
X144011831Y-96689961D01*
X144140580Y-96636632D01*
X144304448Y-96527139D01*
X144304447Y-96527139D01*
X144309513Y-96523755D01*
X144310408Y-96525095D01*
X144367526Y-96500834D01*
X144381885Y-96500000D01*
X148750000Y-96500000D01*
X148750000Y-91833795D01*
X148769685Y-91766756D01*
X148822489Y-91721001D01*
X148834828Y-91716145D01*
X148887504Y-91698613D01*
X149008543Y-91620825D01*
X149061347Y-91575070D01*
X149155567Y-91466336D01*
X149215338Y-91335459D01*
X149235023Y-91268420D01*
X149235024Y-91268416D01*
X149255500Y-91126000D01*
X149255500Y-84347131D01*
X149275185Y-84280092D01*
X149327989Y-84234337D01*
X149366896Y-84223773D01*
X149452798Y-84214999D01*
X149619335Y-84159814D01*
X149768657Y-84067712D01*
X149892713Y-83943656D01*
X149894461Y-83940821D01*
X149896167Y-83939286D01*
X149897194Y-83937989D01*
X149897415Y-83938164D01*
X149946408Y-83894097D01*
X150015370Y-83882874D01*
X150079453Y-83910717D01*
X150105538Y-83940821D01*
X150107287Y-83943656D01*
X150231343Y-84067712D01*
X150380665Y-84159814D01*
X150547202Y-84214999D01*
X150649990Y-84225500D01*
X151250007Y-84225499D01*
X151250015Y-84225498D01*
X151250018Y-84225498D01*
X151306301Y-84219748D01*
X151352796Y-84214999D01*
X151519333Y-84159814D01*
X151668655Y-84067712D01*
X151792711Y-83943656D01*
X151884813Y-83794334D01*
X151939998Y-83627797D01*
X151950499Y-83525009D01*
X151950499Y-83124000D01*
X151970184Y-83056961D01*
X152022988Y-83011206D01*
X152074499Y-83000000D01*
X155714905Y-83000000D01*
X155781944Y-83019685D01*
X155827699Y-83072489D01*
X155831087Y-83080668D01*
X155857701Y-83152026D01*
X155857706Y-83152035D01*
X155943952Y-83267244D01*
X155943955Y-83267247D01*
X156059164Y-83353493D01*
X156059171Y-83353497D01*
X156194017Y-83403791D01*
X156194016Y-83403791D01*
X156200944Y-83404535D01*
X156253627Y-83410200D01*
X157746372Y-83410199D01*
X157805983Y-83403791D01*
X157940831Y-83353496D01*
X158056046Y-83267246D01*
X158142296Y-83152031D01*
X158168913Y-83080668D01*
X158210784Y-83024734D01*
X158276248Y-83000316D01*
X158285095Y-83000000D01*
X158464905Y-83000000D01*
X158531944Y-83019685D01*
X158577699Y-83072489D01*
X158581087Y-83080668D01*
X158607701Y-83152026D01*
X158607706Y-83152035D01*
X158693952Y-83267244D01*
X158693955Y-83267247D01*
X158809164Y-83353493D01*
X158809171Y-83353497D01*
X158944017Y-83403791D01*
X158944016Y-83403791D01*
X158950944Y-83404535D01*
X159003627Y-83410200D01*
X160496372Y-83410199D01*
X160555983Y-83403791D01*
X160690831Y-83353496D01*
X160806046Y-83267246D01*
X160892296Y-83152031D01*
X160942591Y-83017183D01*
X160949000Y-82957573D01*
X160948999Y-81896628D01*
X160942591Y-81837017D01*
X160942464Y-81836677D01*
X160892297Y-81702171D01*
X160892293Y-81702164D01*
X160800732Y-81579855D01*
X160801986Y-81578915D01*
X160773288Y-81526358D01*
X160778272Y-81456666D01*
X160801414Y-81420656D01*
X160800732Y-81420145D01*
X160892293Y-81297835D01*
X160892292Y-81297835D01*
X160892296Y-81297831D01*
X160942591Y-81162983D01*
X160949000Y-81103373D01*
X160948999Y-80042428D01*
X160942591Y-79982817D01*
X160936902Y-79967565D01*
X160892297Y-79847971D01*
X160892293Y-79847964D01*
X160806047Y-79732755D01*
X160806046Y-79732754D01*
X160799684Y-79727991D01*
X160757816Y-79672055D01*
X160750000Y-79628728D01*
X160750000Y-79371271D01*
X160769685Y-79304232D01*
X160799690Y-79272004D01*
X160806046Y-79267246D01*
X160892296Y-79152031D01*
X160942591Y-79017183D01*
X160949000Y-78957573D01*
X160948999Y-77896628D01*
X160942591Y-77837017D01*
X160915491Y-77764359D01*
X160892297Y-77702171D01*
X160892293Y-77702164D01*
X160800732Y-77579855D01*
X160801986Y-77578915D01*
X160773288Y-77526358D01*
X160778272Y-77456666D01*
X160801414Y-77420656D01*
X160800732Y-77420145D01*
X160892293Y-77297835D01*
X160892292Y-77297835D01*
X160892296Y-77297831D01*
X160942591Y-77162983D01*
X160949000Y-77103373D01*
X160948999Y-76879499D01*
X160968683Y-76812461D01*
X161021487Y-76766706D01*
X161072999Y-76755500D01*
X171204432Y-76755500D01*
X171271471Y-76775185D01*
X171317226Y-76827989D01*
X171327170Y-76897147D01*
X171322363Y-76917818D01*
X171295468Y-77000589D01*
X171238749Y-77297918D01*
X171238748Y-77297925D01*
X171219744Y-77599994D01*
X171219744Y-77600005D01*
X171238748Y-77902074D01*
X171238749Y-77902081D01*
X171295468Y-78199410D01*
X171349234Y-78364884D01*
X171389001Y-78487274D01*
X171517877Y-78761150D01*
X171517879Y-78761153D01*
X171517880Y-78761155D01*
X171680058Y-79016708D01*
X171680061Y-79016712D01*
X171680062Y-79016713D01*
X171872999Y-79249934D01*
X172093643Y-79457132D01*
X172093653Y-79457140D01*
X172338508Y-79635038D01*
X172338513Y-79635040D01*
X172338520Y-79635046D01*
X172603763Y-79780865D01*
X172603768Y-79780867D01*
X172603770Y-79780868D01*
X172603771Y-79780869D01*
X172885186Y-79892289D01*
X172885189Y-79892290D01*
X173178359Y-79967563D01*
X173178363Y-79967564D01*
X173241360Y-79975522D01*
X173478647Y-80005499D01*
X173478656Y-80005499D01*
X173478659Y-80005500D01*
X173478661Y-80005500D01*
X173781339Y-80005500D01*
X173781341Y-80005500D01*
X173781344Y-80005499D01*
X173781352Y-80005499D01*
X173960904Y-79982816D01*
X174081637Y-79967564D01*
X174374810Y-79892290D01*
X174374813Y-79892289D01*
X174656228Y-79780869D01*
X174656229Y-79780868D01*
X174656227Y-79780868D01*
X174656237Y-79780865D01*
X174921480Y-79635046D01*
X175166355Y-79457134D01*
X175387001Y-79249934D01*
X175579938Y-79016713D01*
X175742123Y-78761150D01*
X175870999Y-78487274D01*
X175964533Y-78199406D01*
X176021250Y-77902085D01*
X176021593Y-77896635D01*
X176040256Y-77600005D01*
X176040256Y-77599994D01*
X178839744Y-77599994D01*
X178839744Y-77600005D01*
X178858748Y-77902074D01*
X178858749Y-77902081D01*
X178915468Y-78199410D01*
X178969234Y-78364884D01*
X179009001Y-78487274D01*
X179137877Y-78761150D01*
X179137879Y-78761153D01*
X179137880Y-78761155D01*
X179300058Y-79016708D01*
X179300061Y-79016712D01*
X179300062Y-79016713D01*
X179492999Y-79249934D01*
X179713643Y-79457132D01*
X179713653Y-79457140D01*
X179958508Y-79635038D01*
X179958513Y-79635040D01*
X179958520Y-79635046D01*
X180223763Y-79780865D01*
X180223768Y-79780867D01*
X180223770Y-79780868D01*
X180223771Y-79780869D01*
X180505186Y-79892289D01*
X180505189Y-79892290D01*
X180798359Y-79967563D01*
X180798363Y-79967564D01*
X180861360Y-79975522D01*
X181098647Y-80005499D01*
X181098656Y-80005499D01*
X181098659Y-80005500D01*
X181098661Y-80005500D01*
X181401339Y-80005500D01*
X181401341Y-80005500D01*
X181401344Y-80005499D01*
X181401352Y-80005499D01*
X181580904Y-79982816D01*
X181701637Y-79967564D01*
X181994810Y-79892290D01*
X182014038Y-79884676D01*
X182083615Y-79878300D01*
X182145596Y-79910552D01*
X182147367Y-79912288D01*
X182512219Y-80277140D01*
X182543453Y-80298009D01*
X182543456Y-80298013D01*
X182543457Y-80298012D01*
X182676081Y-80386629D01*
X182676082Y-80386629D01*
X182676086Y-80386632D01*
X182761922Y-80422186D01*
X182858164Y-80462051D01*
X182927230Y-80475789D01*
X182958287Y-80481966D01*
X183051456Y-80500500D01*
X183051459Y-80500500D01*
X183051460Y-80500500D01*
X183248540Y-80500500D01*
X184001376Y-80500500D01*
X184068415Y-80520185D01*
X184089057Y-80536819D01*
X184122096Y-80569858D01*
X184122104Y-80569864D01*
X184122109Y-80569869D01*
X184202195Y-80635110D01*
X184202198Y-80635112D01*
X184202203Y-80635116D01*
X184358984Y-80713853D01*
X184358986Y-80713854D01*
X184492948Y-80745604D01*
X184529697Y-80754314D01*
X184529700Y-80754314D01*
X184662156Y-80754314D01*
X184729195Y-80773999D01*
X184774950Y-80826803D01*
X184786156Y-80878314D01*
X184786156Y-81010769D01*
X184786157Y-81010780D01*
X184826615Y-81181483D01*
X184826617Y-81181486D01*
X184905354Y-81338267D01*
X184970611Y-81418374D01*
X185412566Y-81860328D01*
X185412574Y-81860334D01*
X185412579Y-81860339D01*
X185492665Y-81925580D01*
X185492668Y-81925582D01*
X185492673Y-81925586D01*
X185635277Y-81997203D01*
X185649456Y-82004324D01*
X185791999Y-82038108D01*
X185820167Y-82044784D01*
X185820170Y-82044784D01*
X185995605Y-82044784D01*
X185995608Y-82044784D01*
X186088006Y-82022884D01*
X186166318Y-82004324D01*
X186166319Y-82004323D01*
X186166321Y-82004323D01*
X186323102Y-81925586D01*
X186403209Y-81860329D01*
X187110328Y-81153209D01*
X187175586Y-81073102D01*
X187254323Y-80916321D01*
X187258190Y-80900008D01*
X187288055Y-80773999D01*
X187294784Y-80745608D01*
X187294784Y-80570167D01*
X187278272Y-80500500D01*
X187254324Y-80399456D01*
X187247882Y-80386629D01*
X187175586Y-80242673D01*
X187110329Y-80162566D01*
X186668374Y-79720612D01*
X186668366Y-79720605D01*
X186668360Y-79720600D01*
X186588274Y-79655359D01*
X186588268Y-79655355D01*
X186588267Y-79655354D01*
X186509525Y-79615809D01*
X186431483Y-79576615D01*
X186260780Y-79536157D01*
X186260775Y-79536156D01*
X186260773Y-79536156D01*
X186128314Y-79536156D01*
X186061275Y-79516471D01*
X186015520Y-79463667D01*
X186004314Y-79412156D01*
X186004314Y-79279700D01*
X186004314Y-79279697D01*
X185972373Y-79144931D01*
X185963854Y-79108986D01*
X185963853Y-79108984D01*
X185885116Y-78952203D01*
X185819859Y-78872096D01*
X185377904Y-78430142D01*
X185377896Y-78430135D01*
X185377890Y-78430130D01*
X185297804Y-78364889D01*
X185297798Y-78364885D01*
X185297797Y-78364884D01*
X185219055Y-78325339D01*
X185141013Y-78286145D01*
X184970310Y-78245687D01*
X184970305Y-78245686D01*
X184970303Y-78245686D01*
X184794862Y-78245686D01*
X184794860Y-78245686D01*
X184794854Y-78245687D01*
X184624151Y-78286145D01*
X184522530Y-78337181D01*
X184467368Y-78364884D01*
X184467367Y-78364885D01*
X184387265Y-78430137D01*
X184387258Y-78430143D01*
X184354221Y-78463181D01*
X184292898Y-78496666D01*
X184266540Y-78499500D01*
X183657697Y-78499500D01*
X183590658Y-78479815D01*
X183544903Y-78427011D01*
X183534959Y-78357853D01*
X183539764Y-78337189D01*
X183584533Y-78199406D01*
X183641250Y-77902085D01*
X183641593Y-77896635D01*
X183660256Y-77600005D01*
X183660256Y-77599994D01*
X183641251Y-77297925D01*
X183641250Y-77297918D01*
X183641250Y-77297915D01*
X183584533Y-77000594D01*
X183490999Y-76712726D01*
X183362123Y-76438850D01*
X183199938Y-76183287D01*
X183007001Y-75950066D01*
X182786355Y-75742866D01*
X182786352Y-75742864D01*
X182786346Y-75742859D01*
X182541491Y-75564961D01*
X182541484Y-75564956D01*
X182541480Y-75564954D01*
X182276237Y-75419135D01*
X182276234Y-75419133D01*
X182276229Y-75419131D01*
X182276228Y-75419130D01*
X181994813Y-75307710D01*
X181994810Y-75307709D01*
X181701640Y-75232436D01*
X181701627Y-75232434D01*
X181401352Y-75194500D01*
X181401341Y-75194500D01*
X181098659Y-75194500D01*
X181098647Y-75194500D01*
X180798372Y-75232434D01*
X180798359Y-75232436D01*
X180505189Y-75307709D01*
X180505186Y-75307710D01*
X180223771Y-75419130D01*
X180223770Y-75419131D01*
X179958520Y-75564954D01*
X179958508Y-75564961D01*
X179713653Y-75742859D01*
X179713643Y-75742867D01*
X179493001Y-75950064D01*
X179300058Y-76183291D01*
X179137880Y-76438844D01*
X179009000Y-76712728D01*
X178915468Y-77000589D01*
X178858749Y-77297918D01*
X178858748Y-77297925D01*
X178839744Y-77599994D01*
X176040256Y-77599994D01*
X176021251Y-77297925D01*
X176021250Y-77297918D01*
X176021250Y-77297915D01*
X175964533Y-77000594D01*
X175909487Y-76831180D01*
X175907492Y-76761339D01*
X175939735Y-76705183D01*
X177858101Y-74786819D01*
X177919424Y-74753334D01*
X177945782Y-74750500D01*
X179345193Y-74750500D01*
X179412232Y-74770185D01*
X179444458Y-74800187D01*
X179457453Y-74817546D01*
X179462342Y-74821206D01*
X179572663Y-74903793D01*
X179572670Y-74903797D01*
X179707516Y-74954091D01*
X179707515Y-74954091D01*
X179714443Y-74954835D01*
X179767126Y-74960500D01*
X180942871Y-74960499D01*
X181002482Y-74954091D01*
X181137330Y-74903796D01*
X181175688Y-74875080D01*
X181241153Y-74850663D01*
X181309426Y-74865514D01*
X181324312Y-74875081D01*
X181362669Y-74903795D01*
X181362672Y-74903797D01*
X181497518Y-74954091D01*
X181497517Y-74954091D01*
X181504445Y-74954835D01*
X181557128Y-74960500D01*
X182732873Y-74960499D01*
X182792484Y-74954091D01*
X182927332Y-74903796D01*
X183042547Y-74817546D01*
X183055540Y-74800188D01*
X183111473Y-74758319D01*
X183154807Y-74750500D01*
X184554218Y-74750500D01*
X184621257Y-74770185D01*
X184641899Y-74786819D01*
X186560262Y-76705182D01*
X186593747Y-76766505D01*
X186590512Y-76831181D01*
X186535468Y-77000589D01*
X186478749Y-77297918D01*
X186478748Y-77297925D01*
X186459744Y-77599994D01*
X186459744Y-77600005D01*
X186478748Y-77902074D01*
X186478749Y-77902081D01*
X186535468Y-78199410D01*
X186589234Y-78364884D01*
X186629001Y-78487274D01*
X186757877Y-78761150D01*
X186757879Y-78761153D01*
X186757880Y-78761155D01*
X186920058Y-79016708D01*
X186920061Y-79016712D01*
X186920062Y-79016713D01*
X187112999Y-79249934D01*
X187333643Y-79457132D01*
X187333653Y-79457140D01*
X187578508Y-79635038D01*
X187578513Y-79635040D01*
X187578520Y-79635046D01*
X187843763Y-79780865D01*
X187843768Y-79780867D01*
X187843770Y-79780868D01*
X187843771Y-79780869D01*
X188125186Y-79892289D01*
X188125189Y-79892290D01*
X188418359Y-79967563D01*
X188418363Y-79967564D01*
X188481360Y-79975522D01*
X188718647Y-80005499D01*
X188718656Y-80005499D01*
X188718659Y-80005500D01*
X188718661Y-80005500D01*
X189021339Y-80005500D01*
X189021341Y-80005500D01*
X189021344Y-80005499D01*
X189021352Y-80005499D01*
X189200904Y-79982816D01*
X189321637Y-79967564D01*
X189614810Y-79892290D01*
X189614813Y-79892289D01*
X189896228Y-79780869D01*
X189896229Y-79780868D01*
X189896227Y-79780868D01*
X189896237Y-79780865D01*
X190161480Y-79635046D01*
X190406355Y-79457134D01*
X190627001Y-79249934D01*
X190819938Y-79016713D01*
X190982123Y-78761150D01*
X191110999Y-78487274D01*
X191204533Y-78199406D01*
X191261250Y-77902085D01*
X191261593Y-77896635D01*
X191280256Y-77600005D01*
X191280256Y-77599994D01*
X191261251Y-77297925D01*
X191261250Y-77297918D01*
X191261250Y-77297915D01*
X191204533Y-77000594D01*
X191110999Y-76712726D01*
X190982123Y-76438850D01*
X190819938Y-76183287D01*
X190627001Y-75950066D01*
X190406355Y-75742866D01*
X190406352Y-75742864D01*
X190406346Y-75742859D01*
X190161491Y-75564961D01*
X190161484Y-75564956D01*
X190161480Y-75564954D01*
X189896237Y-75419135D01*
X189896234Y-75419133D01*
X189896229Y-75419131D01*
X189896228Y-75419130D01*
X189614813Y-75307710D01*
X189614810Y-75307709D01*
X189321640Y-75232436D01*
X189321627Y-75232434D01*
X189021352Y-75194500D01*
X189021341Y-75194500D01*
X188718659Y-75194500D01*
X188718647Y-75194500D01*
X188418372Y-75232434D01*
X188418359Y-75232436D01*
X188125194Y-75307708D01*
X188114433Y-75311968D01*
X188105958Y-75315324D01*
X188036382Y-75321700D01*
X187974402Y-75289447D01*
X187972632Y-75287712D01*
X186146601Y-73461681D01*
X186113116Y-73400358D01*
X186118100Y-73330666D01*
X186159972Y-73274733D01*
X186225436Y-73250316D01*
X186234282Y-73250000D01*
X187500000Y-73250000D01*
X187500000Y-64506783D01*
X187519685Y-64439744D01*
X187572489Y-64393989D01*
X187641647Y-64384045D01*
X187705203Y-64413070D01*
X187720136Y-64428465D01*
X187784906Y-64507974D01*
X188492026Y-65215093D01*
X188492034Y-65215099D01*
X188492039Y-65215104D01*
X188572125Y-65280345D01*
X188572128Y-65280347D01*
X188572133Y-65280351D01*
X188728914Y-65359088D01*
X188728916Y-65359089D01*
X188871459Y-65392873D01*
X188899627Y-65399549D01*
X188899630Y-65399549D01*
X189075065Y-65399549D01*
X189075068Y-65399549D01*
X189167466Y-65377649D01*
X189245778Y-65359089D01*
X189245779Y-65359088D01*
X189245781Y-65359088D01*
X189402562Y-65280351D01*
X189482669Y-65215094D01*
X189924623Y-64773139D01*
X189989881Y-64693032D01*
X190068618Y-64536251D01*
X190075319Y-64507981D01*
X190103536Y-64388923D01*
X190109079Y-64365538D01*
X190109079Y-64233079D01*
X190128764Y-64166040D01*
X190181568Y-64120285D01*
X190233079Y-64109079D01*
X190365535Y-64109079D01*
X190365538Y-64109079D01*
X190471727Y-64083911D01*
X190536248Y-64068619D01*
X190536249Y-64068618D01*
X190536251Y-64068618D01*
X190693032Y-63989881D01*
X190773139Y-63924624D01*
X191215093Y-63482669D01*
X191280351Y-63402562D01*
X191359088Y-63245781D01*
X191399549Y-63075068D01*
X191399549Y-62899627D01*
X191369945Y-62774722D01*
X191373638Y-62704952D01*
X191402919Y-62658447D01*
X191500406Y-62560960D01*
X191561727Y-62527477D01*
X191631419Y-62532461D01*
X191639585Y-62535844D01*
X191650436Y-62540800D01*
X191792893Y-62561281D01*
X191935351Y-62540800D01*
X192066266Y-62481012D01*
X192112949Y-62443393D01*
X192958468Y-61597873D01*
X192996088Y-61551190D01*
X193055876Y-61420275D01*
X193076357Y-61277817D01*
X193066101Y-61206483D01*
X193076045Y-61137327D01*
X193121800Y-61084523D01*
X193188839Y-61064839D01*
X193206475Y-61066100D01*
X193277817Y-61076357D01*
X193420275Y-61055876D01*
X193551190Y-60996088D01*
X193597873Y-60958469D01*
X194443392Y-60112949D01*
X194481012Y-60066266D01*
X194540800Y-59935351D01*
X194561281Y-59792893D01*
X194540800Y-59650436D01*
X194487471Y-59533664D01*
X194481013Y-59519522D01*
X194481010Y-59519517D01*
X194443396Y-59472842D01*
X194443390Y-59472835D01*
X193527165Y-58556611D01*
X193527155Y-58556602D01*
X193480480Y-58518987D01*
X193349566Y-58459200D01*
X193349562Y-58459199D01*
X193207107Y-58438719D01*
X193064649Y-58459199D01*
X192933736Y-58518986D01*
X192887041Y-58556615D01*
X192041539Y-59402119D01*
X192041533Y-59402126D01*
X192003911Y-59448811D01*
X192003910Y-59448813D01*
X191944123Y-59579725D01*
X191923643Y-59722182D01*
X191923643Y-59722183D01*
X191933898Y-59793514D01*
X191923954Y-59862673D01*
X191878198Y-59915476D01*
X191811159Y-59935160D01*
X191793514Y-59933898D01*
X191722183Y-59923643D01*
X191579725Y-59944123D01*
X191448812Y-60003910D01*
X191402117Y-60041539D01*
X190556615Y-60887043D01*
X190556609Y-60887050D01*
X190518987Y-60933735D01*
X190518986Y-60933737D01*
X190459199Y-61064649D01*
X190438719Y-61207106D01*
X190459199Y-61349561D01*
X190459199Y-61349562D01*
X190459200Y-61349564D01*
X190464149Y-61360401D01*
X190464150Y-61360402D01*
X190474093Y-61429561D01*
X190445067Y-61493116D01*
X190439036Y-61499594D01*
X190341553Y-61597077D01*
X190280230Y-61630562D01*
X190225275Y-61630054D01*
X190161008Y-61614822D01*
X190100373Y-61600451D01*
X189924932Y-61600451D01*
X189924930Y-61600451D01*
X189924924Y-61600452D01*
X189754221Y-61640910D01*
X189649698Y-61693403D01*
X189597438Y-61719649D01*
X189597437Y-61719650D01*
X189597431Y-61719654D01*
X189517341Y-61784897D01*
X189517323Y-61784913D01*
X189075384Y-62226853D01*
X189075365Y-62226874D01*
X189010124Y-62306960D01*
X189010120Y-62306966D01*
X188931380Y-62463751D01*
X188890922Y-62634454D01*
X188890921Y-62634465D01*
X188890921Y-62766921D01*
X188871236Y-62833960D01*
X188818432Y-62879715D01*
X188766921Y-62890921D01*
X188634462Y-62890921D01*
X188634460Y-62890921D01*
X188634454Y-62890922D01*
X188463751Y-62931380D01*
X188359228Y-62983873D01*
X188306968Y-63010119D01*
X188306967Y-63010120D01*
X188306961Y-63010124D01*
X188226871Y-63075367D01*
X188226853Y-63075383D01*
X187784914Y-63517323D01*
X187784903Y-63517335D01*
X187720137Y-63596838D01*
X187662534Y-63636381D01*
X187592696Y-63638504D01*
X187532798Y-63602533D01*
X187501855Y-63539888D01*
X187500000Y-63518520D01*
X187500000Y-62750000D01*
X176000000Y-62750000D01*
X173037200Y-66700400D01*
X172981229Y-66742221D01*
X172938000Y-66750000D01*
X168065228Y-66750000D01*
X167998189Y-66730315D01*
X167963047Y-66696250D01*
X165250000Y-62750000D01*
X162507226Y-62750000D01*
X162440187Y-62730315D01*
X162431707Y-62724142D01*
X162265927Y-62613371D01*
X162265918Y-62613366D01*
X162193322Y-62583296D01*
X162137172Y-62560038D01*
X162083843Y-62537949D01*
X162083839Y-62537948D01*
X162083835Y-62537946D01*
X161987195Y-62518724D01*
X161890551Y-62499500D01*
X161890548Y-62499500D01*
X156151459Y-62499500D01*
X156151455Y-62499500D01*
X156054812Y-62518724D01*
X155958167Y-62537947D01*
X155958161Y-62537949D01*
X155904834Y-62560037D01*
X155904834Y-62560038D01*
X155859315Y-62578892D01*
X155776089Y-62613366D01*
X155776079Y-62613371D01*
X155607153Y-62726245D01*
X155606257Y-62724904D01*
X155549140Y-62749166D01*
X155534781Y-62750000D01*
X151250000Y-62750000D01*
X151250000Y-67416204D01*
X151230315Y-67483243D01*
X151177511Y-67528998D01*
X151165159Y-67533858D01*
X151112502Y-67551383D01*
X151112496Y-67551386D01*
X150991462Y-67629171D01*
X150991451Y-67629179D01*
X150938659Y-67674923D01*
X150844433Y-67783664D01*
X150844430Y-67783668D01*
X150784664Y-67914534D01*
X150764976Y-67981582D01*
X150744500Y-68124000D01*
X150744500Y-74640500D01*
X150724815Y-74707539D01*
X150672011Y-74753294D01*
X150620500Y-74764500D01*
X150212129Y-74764500D01*
X150212123Y-74764501D01*
X150152515Y-74770909D01*
X150043332Y-74811631D01*
X149973641Y-74816615D01*
X149956668Y-74811631D01*
X149847485Y-74770909D01*
X149847483Y-74770908D01*
X149787883Y-74764501D01*
X149787881Y-74764500D01*
X149787873Y-74764500D01*
X149787864Y-74764500D01*
X148492129Y-74764500D01*
X148492123Y-74764501D01*
X148432516Y-74770908D01*
X148297671Y-74821202D01*
X148297664Y-74821206D01*
X148182455Y-74907452D01*
X148182452Y-74907455D01*
X148096206Y-75022664D01*
X148096202Y-75022671D01*
X148045908Y-75157517D01*
X148039501Y-75217116D01*
X148039500Y-75217135D01*
X148039500Y-75626000D01*
X148019815Y-75693039D01*
X147967011Y-75738794D01*
X147915500Y-75750000D01*
X144250000Y-75750000D01*
X144250000Y-77484425D01*
X144230315Y-77551464D01*
X144177511Y-77597219D01*
X144108353Y-77607163D01*
X144051689Y-77583692D01*
X143940831Y-77500704D01*
X143940828Y-77500702D01*
X143805983Y-77450408D01*
X143758443Y-77445297D01*
X143693892Y-77418558D01*
X143654045Y-77361165D01*
X143647700Y-77322008D01*
X143647700Y-77106300D01*
X142352300Y-77106300D01*
X142352300Y-77322008D01*
X142332615Y-77389047D01*
X142279811Y-77434802D01*
X142241555Y-77445297D01*
X142194020Y-77450407D01*
X142059171Y-77500702D01*
X142059164Y-77500706D01*
X141943955Y-77586952D01*
X141943952Y-77586955D01*
X141852388Y-77709269D01*
X141850831Y-77708103D01*
X141809423Y-77749509D01*
X141741149Y-77764359D01*
X141675686Y-77739939D01*
X141648520Y-77708588D01*
X141647612Y-77709269D01*
X141550732Y-77579855D01*
X141551986Y-77578915D01*
X141523288Y-77526358D01*
X141528272Y-77456666D01*
X141551414Y-77420656D01*
X141550732Y-77420145D01*
X141642293Y-77297835D01*
X141642292Y-77297835D01*
X141642296Y-77297831D01*
X141692591Y-77162983D01*
X141699000Y-77103373D01*
X141698999Y-76042428D01*
X141692591Y-75982817D01*
X141642296Y-75847969D01*
X141642295Y-75847968D01*
X141642293Y-75847964D01*
X141556047Y-75732755D01*
X141556044Y-75732752D01*
X141440835Y-75646506D01*
X141440828Y-75646502D01*
X141305982Y-75596208D01*
X141305983Y-75596208D01*
X141246383Y-75589801D01*
X141246381Y-75589800D01*
X141246373Y-75589800D01*
X141246364Y-75589800D01*
X139753629Y-75589800D01*
X139753623Y-75589801D01*
X139694016Y-75596208D01*
X139559171Y-75646502D01*
X139559164Y-75646506D01*
X139443955Y-75732752D01*
X139443952Y-75732755D01*
X139357706Y-75847964D01*
X139357702Y-75847971D01*
X139307408Y-75982817D01*
X139301001Y-76042416D01*
X139301001Y-76042423D01*
X139301000Y-76042435D01*
X139301000Y-77103370D01*
X139301001Y-77103376D01*
X139307408Y-77162983D01*
X139357702Y-77297828D01*
X139357706Y-77297835D01*
X139449268Y-77420145D01*
X139448013Y-77421084D01*
X139476712Y-77473642D01*
X139471728Y-77543334D01*
X139448585Y-77579343D01*
X139449268Y-77579855D01*
X139357706Y-77702164D01*
X139357702Y-77702171D01*
X139307408Y-77837017D01*
X139301001Y-77896616D01*
X139301001Y-77896623D01*
X139301000Y-77896635D01*
X139301000Y-78957570D01*
X139301001Y-78957576D01*
X139307408Y-79017183D01*
X139357702Y-79152028D01*
X139357706Y-79152035D01*
X139426858Y-79244409D01*
X139443954Y-79267246D01*
X139549812Y-79346491D01*
X139591682Y-79402424D01*
X139599500Y-79445757D01*
X139599500Y-79662769D01*
X139579815Y-79729808D01*
X139563182Y-79750450D01*
X139457287Y-79856345D01*
X139365187Y-80005663D01*
X139365185Y-80005668D01*
X139363194Y-80011677D01*
X139310001Y-80172203D01*
X139310001Y-80172204D01*
X139310000Y-80172204D01*
X139299500Y-80274983D01*
X139299500Y-80900001D01*
X139299501Y-80900019D01*
X139310000Y-81002796D01*
X139310001Y-81002799D01*
X139365185Y-81169331D01*
X139365187Y-81169336D01*
X139372681Y-81181486D01*
X139444441Y-81297828D01*
X139457289Y-81318657D01*
X139550951Y-81412319D01*
X139584436Y-81473642D01*
X139579452Y-81543334D01*
X139550951Y-81587681D01*
X139457289Y-81681342D01*
X139365187Y-81830663D01*
X139365185Y-81830668D01*
X139355354Y-81860337D01*
X139310001Y-81997203D01*
X139310001Y-81997204D01*
X139310000Y-81997204D01*
X139299500Y-82099983D01*
X139299500Y-82370500D01*
X139279815Y-82437539D01*
X139227011Y-82483294D01*
X139175500Y-82494500D01*
X127624000Y-82494500D01*
X127623991Y-82494500D01*
X127623990Y-82494501D01*
X127516549Y-82506052D01*
X127516537Y-82506054D01*
X127465027Y-82517260D01*
X127362502Y-82551383D01*
X127362496Y-82551386D01*
X127241462Y-82629171D01*
X127241451Y-82629179D01*
X127188659Y-82674923D01*
X127094433Y-82783664D01*
X127094430Y-82783668D01*
X127034664Y-82914534D01*
X127014976Y-82981582D01*
X126994500Y-83124000D01*
X126994500Y-85876000D01*
X126974815Y-85943039D01*
X126922011Y-85988794D01*
X126870500Y-86000000D01*
X115559196Y-86000000D01*
X115492157Y-85980315D01*
X115446402Y-85927511D01*
X115436458Y-85858353D01*
X115465483Y-85794797D01*
X115488073Y-85774425D01*
X115525713Y-85748069D01*
X115564620Y-85720826D01*
X115720826Y-85564620D01*
X115847534Y-85383662D01*
X115940894Y-85183450D01*
X115998070Y-84970068D01*
X116017323Y-84750000D01*
X116014704Y-84720068D01*
X115998070Y-84529937D01*
X115998070Y-84529932D01*
X115940894Y-84316550D01*
X115847534Y-84116339D01*
X115724637Y-83940822D01*
X115720827Y-83935381D01*
X115651784Y-83866338D01*
X115564620Y-83779174D01*
X115564616Y-83779171D01*
X115564615Y-83779170D01*
X115383666Y-83652468D01*
X115383662Y-83652466D01*
X115336457Y-83630454D01*
X115183450Y-83559106D01*
X115183447Y-83559105D01*
X115183445Y-83559104D01*
X114970070Y-83501930D01*
X114970062Y-83501929D01*
X114750002Y-83482677D01*
X114749998Y-83482677D01*
X114529937Y-83501929D01*
X114529929Y-83501930D01*
X114316554Y-83559104D01*
X114316548Y-83559107D01*
X114116340Y-83652465D01*
X114116338Y-83652466D01*
X113935377Y-83779175D01*
X113779175Y-83935377D01*
X113652466Y-84116338D01*
X113652465Y-84116340D01*
X113559107Y-84316548D01*
X113559104Y-84316554D01*
X113501930Y-84529929D01*
X113501929Y-84529937D01*
X113482677Y-84749997D01*
X113482677Y-84750002D01*
X113501929Y-84970062D01*
X113501930Y-84970070D01*
X113559104Y-85183445D01*
X113559105Y-85183447D01*
X113559106Y-85183450D01*
X113620272Y-85314621D01*
X113652466Y-85383662D01*
X113652468Y-85383666D01*
X113779170Y-85564615D01*
X113779175Y-85564621D01*
X113935378Y-85720824D01*
X113935384Y-85720829D01*
X114011927Y-85774425D01*
X114055552Y-85829002D01*
X114062746Y-85898500D01*
X114031223Y-85960855D01*
X113970993Y-85996269D01*
X113940804Y-86000000D01*
X112519610Y-86000000D01*
X112493000Y-85992186D01*
X112500000Y-86019610D01*
X112500000Y-96443162D01*
X112480315Y-96510201D01*
X112435429Y-96551993D01*
X112415690Y-96562771D01*
X112415682Y-96562776D01*
X112186612Y-96734255D01*
X112186594Y-96734271D01*
X111984270Y-96936595D01*
X111984254Y-96936613D01*
X111812775Y-97165683D01*
X111812770Y-97165691D01*
X111675635Y-97416834D01*
X111575628Y-97684963D01*
X111514804Y-97964567D01*
X111494390Y-98249999D01*
X99500500Y-98249999D01*
X99500500Y-95249999D01*
X102294357Y-95249999D01*
X102294357Y-95250000D01*
X102314884Y-95471535D01*
X102314885Y-95471537D01*
X102375769Y-95685523D01*
X102375775Y-95685538D01*
X102474938Y-95884683D01*
X102474943Y-95884691D01*
X102609020Y-96062238D01*
X102773437Y-96212123D01*
X102773439Y-96212125D01*
X102962595Y-96329245D01*
X102962596Y-96329245D01*
X102962599Y-96329247D01*
X103170060Y-96409618D01*
X103388757Y-96450500D01*
X103388759Y-96450500D01*
X103611241Y-96450500D01*
X103611243Y-96450500D01*
X103829940Y-96409618D01*
X104037401Y-96329247D01*
X104226562Y-96212124D01*
X104390981Y-96062236D01*
X104525058Y-95884689D01*
X104624229Y-95685528D01*
X104685115Y-95471536D01*
X104705643Y-95250000D01*
X104685115Y-95028464D01*
X104624229Y-94814472D01*
X104624224Y-94814461D01*
X104525061Y-94615316D01*
X104525056Y-94615308D01*
X104390979Y-94437761D01*
X104226562Y-94287876D01*
X104226560Y-94287874D01*
X104037404Y-94170754D01*
X104037398Y-94170752D01*
X103829940Y-94090382D01*
X103611243Y-94049500D01*
X103388757Y-94049500D01*
X103170060Y-94090382D01*
X103038864Y-94141207D01*
X102962601Y-94170752D01*
X102962595Y-94170754D01*
X102773439Y-94287874D01*
X102773437Y-94287876D01*
X102609020Y-94437761D01*
X102474943Y-94615308D01*
X102474938Y-94615316D01*
X102375775Y-94814461D01*
X102375769Y-94814476D01*
X102314885Y-95028462D01*
X102314884Y-95028464D01*
X102294357Y-95249999D01*
X99500500Y-95249999D01*
X99500500Y-83940135D01*
X109987500Y-83940135D01*
X109987500Y-85559870D01*
X109987501Y-85559872D01*
X109993908Y-85619483D01*
X110044202Y-85754328D01*
X110044206Y-85754335D01*
X110130452Y-85869544D01*
X110130455Y-85869547D01*
X110245664Y-85955793D01*
X110245671Y-85955797D01*
X110380517Y-86006091D01*
X110380516Y-86006091D01*
X110387444Y-86006835D01*
X110440127Y-86012500D01*
X112059872Y-86012499D01*
X112119483Y-86006091D01*
X112254331Y-85955796D01*
X112301689Y-85920343D01*
X112367152Y-85895926D01*
X112403408Y-85903812D01*
X112396872Y-85858353D01*
X112420343Y-85801689D01*
X112455796Y-85754331D01*
X112506091Y-85619483D01*
X112512500Y-85559873D01*
X112512499Y-83940128D01*
X112506091Y-83880517D01*
X112500803Y-83866340D01*
X112455797Y-83745671D01*
X112455793Y-83745664D01*
X112369547Y-83630455D01*
X112369544Y-83630452D01*
X112254335Y-83544206D01*
X112254328Y-83544202D01*
X112119482Y-83493908D01*
X112119483Y-83493908D01*
X112059883Y-83487501D01*
X112059881Y-83487500D01*
X112059873Y-83487500D01*
X112059864Y-83487500D01*
X110440129Y-83487500D01*
X110440123Y-83487501D01*
X110380516Y-83493908D01*
X110245671Y-83544202D01*
X110245664Y-83544206D01*
X110130455Y-83630452D01*
X110130452Y-83630455D01*
X110044206Y-83745664D01*
X110044202Y-83745671D01*
X109993908Y-83880517D01*
X109988010Y-83935380D01*
X109987501Y-83940123D01*
X109987500Y-83940135D01*
X99500500Y-83940135D01*
X99500500Y-59792893D01*
X105438719Y-59792893D01*
X105459199Y-59935350D01*
X105518986Y-60066263D01*
X105518987Y-60066264D01*
X105518988Y-60066266D01*
X105556607Y-60112949D01*
X105556610Y-60112952D01*
X105556615Y-60112958D01*
X106330700Y-60887041D01*
X106402127Y-60958468D01*
X106448810Y-60996088D01*
X106579725Y-61055876D01*
X106722183Y-61076357D01*
X106793516Y-61066101D01*
X106862671Y-61076045D01*
X106915475Y-61121799D01*
X106935160Y-61188839D01*
X106933898Y-61206484D01*
X106923643Y-61277815D01*
X106923643Y-61277817D01*
X106944123Y-61420274D01*
X107003910Y-61551187D01*
X107003911Y-61551188D01*
X107003912Y-61551190D01*
X107041531Y-61597873D01*
X107041534Y-61597876D01*
X107041539Y-61597882D01*
X107750619Y-62306960D01*
X107887051Y-62443392D01*
X107933734Y-62481012D01*
X108064649Y-62540800D01*
X108207106Y-62561281D01*
X108207106Y-62561280D01*
X108207107Y-62561281D01*
X108349564Y-62540800D01*
X108360403Y-62535849D01*
X108429559Y-62525906D01*
X108493115Y-62554930D01*
X108499595Y-62560963D01*
X108597077Y-62658445D01*
X108630562Y-62719768D01*
X108630054Y-62774722D01*
X108600451Y-62899625D01*
X108600451Y-63075064D01*
X108600452Y-63075075D01*
X108640910Y-63245778D01*
X108640912Y-63245781D01*
X108719649Y-63402562D01*
X108784906Y-63482669D01*
X109226861Y-63924623D01*
X109226869Y-63924629D01*
X109226874Y-63924634D01*
X109306960Y-63989875D01*
X109306963Y-63989877D01*
X109306968Y-63989881D01*
X109463749Y-64068618D01*
X109463751Y-64068619D01*
X109597730Y-64100373D01*
X109634462Y-64109079D01*
X109634465Y-64109079D01*
X109766921Y-64109079D01*
X109833960Y-64128764D01*
X109879715Y-64181568D01*
X109890921Y-64233079D01*
X109890921Y-64365534D01*
X109890922Y-64365545D01*
X109931380Y-64536248D01*
X109931382Y-64536251D01*
X110010119Y-64693032D01*
X110075376Y-64773139D01*
X110517331Y-65215093D01*
X110517339Y-65215099D01*
X110517344Y-65215104D01*
X110597430Y-65280345D01*
X110597433Y-65280347D01*
X110597438Y-65280351D01*
X110754219Y-65359088D01*
X110754221Y-65359089D01*
X110896764Y-65392873D01*
X110924932Y-65399549D01*
X110924935Y-65399549D01*
X111100370Y-65399549D01*
X111100373Y-65399549D01*
X111192771Y-65377649D01*
X111271083Y-65359089D01*
X111271084Y-65359088D01*
X111271086Y-65359088D01*
X111427867Y-65280351D01*
X111507974Y-65215094D01*
X112215093Y-64507974D01*
X112270676Y-64439744D01*
X112279863Y-64428467D01*
X112337466Y-64388923D01*
X112407303Y-64386800D01*
X112467202Y-64422771D01*
X112498145Y-64485415D01*
X112500000Y-64506783D01*
X112500000Y-73250000D01*
X113765718Y-73250000D01*
X113832757Y-73269685D01*
X113878512Y-73322489D01*
X113888456Y-73391647D01*
X113859431Y-73455203D01*
X113853399Y-73461681D01*
X112027367Y-75287711D01*
X111966044Y-75321196D01*
X111896352Y-75316212D01*
X111894042Y-75315324D01*
X111874807Y-75307709D01*
X111581640Y-75232436D01*
X111581627Y-75232434D01*
X111281352Y-75194500D01*
X111281341Y-75194500D01*
X110978659Y-75194500D01*
X110978647Y-75194500D01*
X110678372Y-75232434D01*
X110678359Y-75232436D01*
X110385189Y-75307709D01*
X110385186Y-75307710D01*
X110103771Y-75419130D01*
X110103770Y-75419131D01*
X109838520Y-75564954D01*
X109838508Y-75564961D01*
X109593653Y-75742859D01*
X109593643Y-75742867D01*
X109373001Y-75950064D01*
X109180058Y-76183291D01*
X109017880Y-76438844D01*
X108889000Y-76712728D01*
X108795468Y-77000589D01*
X108738749Y-77297918D01*
X108738748Y-77297925D01*
X108719744Y-77599994D01*
X108719744Y-77600005D01*
X108738748Y-77902074D01*
X108738749Y-77902081D01*
X108795468Y-78199410D01*
X108849234Y-78364884D01*
X108889001Y-78487274D01*
X109017877Y-78761150D01*
X109017879Y-78761153D01*
X109017880Y-78761155D01*
X109180058Y-79016708D01*
X109180061Y-79016712D01*
X109180062Y-79016713D01*
X109372999Y-79249934D01*
X109593643Y-79457132D01*
X109593653Y-79457140D01*
X109838508Y-79635038D01*
X109838513Y-79635040D01*
X109838520Y-79635046D01*
X110103763Y-79780865D01*
X110103768Y-79780867D01*
X110103770Y-79780868D01*
X110103771Y-79780869D01*
X110385186Y-79892289D01*
X110385189Y-79892290D01*
X110678359Y-79967563D01*
X110678363Y-79967564D01*
X110741360Y-79975522D01*
X110978647Y-80005499D01*
X110978656Y-80005499D01*
X110978659Y-80005500D01*
X110978661Y-80005500D01*
X111281339Y-80005500D01*
X111281341Y-80005500D01*
X111281344Y-80005499D01*
X111281352Y-80005499D01*
X111460904Y-79982816D01*
X111581637Y-79967564D01*
X111874810Y-79892290D01*
X111874813Y-79892289D01*
X112156228Y-79780869D01*
X112156229Y-79780868D01*
X112156227Y-79780868D01*
X112156237Y-79780865D01*
X112421480Y-79635046D01*
X112666355Y-79457134D01*
X112887001Y-79249934D01*
X113079938Y-79016713D01*
X113242123Y-78761150D01*
X113370999Y-78487274D01*
X113464533Y-78199406D01*
X113521250Y-77902085D01*
X113521593Y-77896635D01*
X113540256Y-77600005D01*
X113540256Y-77599994D01*
X116339744Y-77599994D01*
X116339744Y-77600005D01*
X116358748Y-77902074D01*
X116358749Y-77902081D01*
X116415468Y-78199410D01*
X116469234Y-78364884D01*
X116509001Y-78487274D01*
X116637877Y-78761150D01*
X116637879Y-78761153D01*
X116637880Y-78761155D01*
X116800058Y-79016708D01*
X116800061Y-79016712D01*
X116800062Y-79016713D01*
X116992999Y-79249934D01*
X117213643Y-79457132D01*
X117213653Y-79457140D01*
X117458508Y-79635038D01*
X117458526Y-79635050D01*
X117614176Y-79720619D01*
X117668438Y-79750450D01*
X117685237Y-79759685D01*
X117734501Y-79809231D01*
X117749500Y-79868347D01*
X117749500Y-82011041D01*
X117756211Y-82044782D01*
X117759003Y-82058815D01*
X117759003Y-82058816D01*
X117787947Y-82204329D01*
X117787949Y-82204335D01*
X117809169Y-82255564D01*
X117809170Y-82255566D01*
X117815062Y-82269791D01*
X117824500Y-82317241D01*
X117824500Y-82500000D01*
X117824501Y-82500019D01*
X117835000Y-82602796D01*
X117835001Y-82602799D01*
X117890185Y-82769331D01*
X117890186Y-82769334D01*
X117982288Y-82918656D01*
X118106344Y-83042712D01*
X118255666Y-83134814D01*
X118422203Y-83189999D01*
X118524991Y-83200500D01*
X119150008Y-83200499D01*
X119150016Y-83200498D01*
X119150019Y-83200498D01*
X119206302Y-83194748D01*
X119252797Y-83189999D01*
X119419334Y-83134814D01*
X119568656Y-83042712D01*
X119662319Y-82949049D01*
X119723642Y-82915564D01*
X119793334Y-82920548D01*
X119837681Y-82949049D01*
X119931344Y-83042712D01*
X120080666Y-83134814D01*
X120247203Y-83189999D01*
X120349991Y-83200500D01*
X120975008Y-83200499D01*
X120975016Y-83200498D01*
X120975019Y-83200498D01*
X121031302Y-83194748D01*
X121077797Y-83189999D01*
X121244334Y-83134814D01*
X121393656Y-83042712D01*
X121517712Y-82918656D01*
X121609814Y-82769334D01*
X121664999Y-82602797D01*
X121675500Y-82500009D01*
X121675499Y-81499992D01*
X121664999Y-81397203D01*
X121609814Y-81230666D01*
X121517712Y-81081344D01*
X121393656Y-80957288D01*
X121244334Y-80865186D01*
X121077797Y-80810001D01*
X121077795Y-80810000D01*
X120975010Y-80799500D01*
X120349998Y-80799500D01*
X120349980Y-80799501D01*
X120247203Y-80810000D01*
X120247200Y-80810001D01*
X120080668Y-80865185D01*
X120080659Y-80865189D01*
X119939596Y-80952198D01*
X119872204Y-80970638D01*
X119805541Y-80949715D01*
X119760771Y-80896073D01*
X119750500Y-80846659D01*
X119750500Y-79868347D01*
X119770185Y-79801308D01*
X119814763Y-79759685D01*
X119831562Y-79750450D01*
X120041480Y-79635046D01*
X120286355Y-79457134D01*
X120507001Y-79249934D01*
X120699938Y-79016713D01*
X120862123Y-78761150D01*
X120990999Y-78487274D01*
X121084533Y-78199406D01*
X121141250Y-77902085D01*
X121141593Y-77896635D01*
X121160256Y-77600005D01*
X121160256Y-77599994D01*
X121141251Y-77297925D01*
X121141250Y-77297918D01*
X121141250Y-77297915D01*
X121084533Y-77000594D01*
X120990999Y-76712726D01*
X120862123Y-76438850D01*
X120699938Y-76183287D01*
X120507001Y-75950066D01*
X120286355Y-75742866D01*
X120286352Y-75742864D01*
X120286346Y-75742859D01*
X120041491Y-75564961D01*
X120041484Y-75564956D01*
X120041480Y-75564954D01*
X119776237Y-75419135D01*
X119776234Y-75419133D01*
X119776229Y-75419131D01*
X119776228Y-75419130D01*
X119494813Y-75307710D01*
X119494810Y-75307709D01*
X119201640Y-75232436D01*
X119201627Y-75232434D01*
X118901352Y-75194500D01*
X118901341Y-75194500D01*
X118598659Y-75194500D01*
X118598647Y-75194500D01*
X118298372Y-75232434D01*
X118298359Y-75232436D01*
X118005189Y-75307709D01*
X118005186Y-75307710D01*
X117723771Y-75419130D01*
X117723770Y-75419131D01*
X117458520Y-75564954D01*
X117458508Y-75564961D01*
X117213653Y-75742859D01*
X117213643Y-75742867D01*
X116993001Y-75950064D01*
X116800058Y-76183291D01*
X116637880Y-76438844D01*
X116509000Y-76712728D01*
X116415468Y-77000589D01*
X116358749Y-77297918D01*
X116358748Y-77297925D01*
X116339744Y-77599994D01*
X113540256Y-77599994D01*
X113521251Y-77297925D01*
X113521250Y-77297918D01*
X113521250Y-77297915D01*
X113464533Y-77000594D01*
X113409487Y-76831180D01*
X113407492Y-76761339D01*
X113439735Y-76705183D01*
X115358101Y-74786819D01*
X115419424Y-74753334D01*
X115445782Y-74750500D01*
X116845193Y-74750500D01*
X116912232Y-74770185D01*
X116944458Y-74800187D01*
X116957453Y-74817546D01*
X116962342Y-74821206D01*
X117072663Y-74903793D01*
X117072670Y-74903797D01*
X117207516Y-74954091D01*
X117207515Y-74954091D01*
X117214443Y-74954835D01*
X117267126Y-74960500D01*
X118442871Y-74960499D01*
X118502482Y-74954091D01*
X118637330Y-74903796D01*
X118675688Y-74875080D01*
X118741153Y-74850663D01*
X118809426Y-74865514D01*
X118824312Y-74875081D01*
X118862669Y-74903795D01*
X118862672Y-74903797D01*
X118997518Y-74954091D01*
X118997517Y-74954091D01*
X119004445Y-74954835D01*
X119057128Y-74960500D01*
X120232873Y-74960499D01*
X120292484Y-74954091D01*
X120427332Y-74903796D01*
X120542547Y-74817546D01*
X120555540Y-74800188D01*
X120611473Y-74758319D01*
X120654807Y-74750500D01*
X122054218Y-74750500D01*
X122121257Y-74770185D01*
X122141899Y-74786819D01*
X124060262Y-76705182D01*
X124093747Y-76766505D01*
X124090512Y-76831181D01*
X124035468Y-77000589D01*
X123978749Y-77297918D01*
X123978748Y-77297925D01*
X123959744Y-77599994D01*
X123959744Y-77600005D01*
X123978748Y-77902074D01*
X123978749Y-77902081D01*
X124035468Y-78199410D01*
X124089234Y-78364884D01*
X124129001Y-78487274D01*
X124257877Y-78761150D01*
X124257879Y-78761153D01*
X124257880Y-78761155D01*
X124420058Y-79016708D01*
X124420061Y-79016712D01*
X124420062Y-79016713D01*
X124612999Y-79249934D01*
X124833643Y-79457132D01*
X124833653Y-79457140D01*
X125078508Y-79635038D01*
X125078513Y-79635040D01*
X125078520Y-79635046D01*
X125343763Y-79780865D01*
X125343768Y-79780867D01*
X125343770Y-79780868D01*
X125343771Y-79780869D01*
X125625186Y-79892289D01*
X125625189Y-79892290D01*
X125918359Y-79967563D01*
X125918363Y-79967564D01*
X125981360Y-79975522D01*
X126218647Y-80005499D01*
X126218656Y-80005499D01*
X126218659Y-80005500D01*
X126218661Y-80005500D01*
X126521339Y-80005500D01*
X126521341Y-80005500D01*
X126521344Y-80005499D01*
X126521352Y-80005499D01*
X126700904Y-79982816D01*
X126821637Y-79967564D01*
X127114810Y-79892290D01*
X127114813Y-79892289D01*
X127396228Y-79780869D01*
X127396229Y-79780868D01*
X127396227Y-79780868D01*
X127396237Y-79780865D01*
X127661480Y-79635046D01*
X127906355Y-79457134D01*
X128127001Y-79249934D01*
X128319938Y-79016713D01*
X128482123Y-78761150D01*
X128610999Y-78487274D01*
X128704533Y-78199406D01*
X128761250Y-77902085D01*
X128761593Y-77896635D01*
X128780256Y-77600005D01*
X128780256Y-77599994D01*
X128761251Y-77297925D01*
X128761250Y-77297918D01*
X128761250Y-77297915D01*
X128704533Y-77000594D01*
X128610999Y-76712726D01*
X128482123Y-76438850D01*
X128319938Y-76183287D01*
X128127001Y-75950066D01*
X127906355Y-75742866D01*
X127906352Y-75742864D01*
X127906346Y-75742859D01*
X127661491Y-75564961D01*
X127661484Y-75564956D01*
X127661480Y-75564954D01*
X127396237Y-75419135D01*
X127396234Y-75419133D01*
X127396229Y-75419131D01*
X127396228Y-75419130D01*
X127114813Y-75307710D01*
X127114810Y-75307709D01*
X126821640Y-75232436D01*
X126821627Y-75232434D01*
X126521352Y-75194500D01*
X126521341Y-75194500D01*
X126218659Y-75194500D01*
X126218647Y-75194500D01*
X125918372Y-75232434D01*
X125918359Y-75232436D01*
X125625194Y-75307708D01*
X125614433Y-75311968D01*
X125605958Y-75315324D01*
X125536382Y-75321700D01*
X125474402Y-75289447D01*
X125472632Y-75287712D01*
X123646601Y-73461681D01*
X123613116Y-73400358D01*
X123618100Y-73330666D01*
X123659972Y-73274733D01*
X123725436Y-73250316D01*
X123734282Y-73250000D01*
X124000000Y-73250000D01*
X126962800Y-69299600D01*
X127018771Y-69257779D01*
X127062000Y-69250000D01*
X131934772Y-69250000D01*
X132001811Y-69269685D01*
X132036953Y-69303750D01*
X134750000Y-73250000D01*
X136991116Y-73250000D01*
X137058155Y-73269685D01*
X137078797Y-73286319D01*
X137319614Y-73527137D01*
X137319618Y-73527140D01*
X137483478Y-73636628D01*
X137483484Y-73636631D01*
X137483485Y-73636632D01*
X137665564Y-73712052D01*
X137826788Y-73744121D01*
X137858856Y-73750499D01*
X137858857Y-73750500D01*
X137858858Y-73750500D01*
X143598542Y-73750500D01*
X143630614Y-73744120D01*
X143695188Y-73731275D01*
X143791836Y-73712051D01*
X143845165Y-73689961D01*
X143973914Y-73636632D01*
X144137782Y-73527139D01*
X144277139Y-73387782D01*
X144277139Y-73387780D01*
X144287347Y-73377573D01*
X144287350Y-73377569D01*
X144378603Y-73286318D01*
X144439926Y-73252833D01*
X144466283Y-73250000D01*
X148750000Y-73250000D01*
X148750000Y-68583795D01*
X148769685Y-68516756D01*
X148822489Y-68471001D01*
X148834828Y-68466145D01*
X148887504Y-68448613D01*
X149008543Y-68370825D01*
X149061347Y-68325070D01*
X149155567Y-68216336D01*
X149215338Y-68085459D01*
X149235023Y-68018420D01*
X149235024Y-68018416D01*
X149255500Y-67876000D01*
X149255500Y-59874000D01*
X149243947Y-59766544D01*
X149232741Y-59715033D01*
X149232637Y-59714722D01*
X149198616Y-59612502D01*
X149198613Y-59612496D01*
X149147950Y-59533664D01*
X149120825Y-59491457D01*
X149083874Y-59448813D01*
X149075076Y-59438659D01*
X149075072Y-59438656D01*
X149075070Y-59438653D01*
X148966336Y-59344433D01*
X148966333Y-59344431D01*
X148966331Y-59344430D01*
X148835465Y-59284664D01*
X148835460Y-59284662D01*
X148835459Y-59284662D01*
X148768420Y-59264977D01*
X148768422Y-59264977D01*
X148768417Y-59264976D01*
X148706347Y-59256052D01*
X148626000Y-59244500D01*
X127624000Y-59244500D01*
X127623991Y-59244500D01*
X127623990Y-59244501D01*
X127516549Y-59256052D01*
X127516537Y-59256054D01*
X127465027Y-59267260D01*
X127362502Y-59301383D01*
X127362496Y-59301386D01*
X127241462Y-59379171D01*
X127241451Y-59379179D01*
X127188659Y-59424923D01*
X127094433Y-59533664D01*
X127094430Y-59533668D01*
X127034664Y-59664534D01*
X127014976Y-59731582D01*
X127009949Y-59766549D01*
X126994502Y-59873990D01*
X126994500Y-59874001D01*
X126994500Y-62626000D01*
X126974815Y-62693039D01*
X126922011Y-62738794D01*
X126870500Y-62750000D01*
X112500000Y-62750000D01*
X112500000Y-63518521D01*
X112480315Y-63585560D01*
X112427511Y-63631315D01*
X112358353Y-63641259D01*
X112294797Y-63612234D01*
X112279862Y-63596838D01*
X112216063Y-63518521D01*
X112215094Y-63517331D01*
X111773139Y-63075377D01*
X111773127Y-63075367D01*
X111773125Y-63075365D01*
X111693039Y-63010124D01*
X111693033Y-63010120D01*
X111693032Y-63010119D01*
X111614290Y-62970574D01*
X111536248Y-62931380D01*
X111365545Y-62890922D01*
X111365540Y-62890921D01*
X111365538Y-62890921D01*
X111233079Y-62890921D01*
X111166040Y-62871236D01*
X111120285Y-62818432D01*
X111109079Y-62766921D01*
X111109079Y-62634465D01*
X111109079Y-62634462D01*
X111091440Y-62560038D01*
X111068619Y-62463751D01*
X111058395Y-62443393D01*
X110989881Y-62306968D01*
X110924624Y-62226861D01*
X110482669Y-61784907D01*
X110482657Y-61784897D01*
X110482655Y-61784895D01*
X110402569Y-61719654D01*
X110402563Y-61719650D01*
X110402562Y-61719649D01*
X110263511Y-61649816D01*
X110245778Y-61640910D01*
X110075075Y-61600452D01*
X110075070Y-61600451D01*
X110075068Y-61600451D01*
X109899627Y-61600451D01*
X109899625Y-61600451D01*
X109774722Y-61630054D01*
X109704950Y-61626360D01*
X109658445Y-61597077D01*
X109560963Y-61499595D01*
X109527478Y-61438272D01*
X109532462Y-61368580D01*
X109535850Y-61360402D01*
X109540800Y-61349564D01*
X109561281Y-61207107D01*
X109561191Y-61206484D01*
X109540800Y-61064649D01*
X109481013Y-60933736D01*
X109481012Y-60933735D01*
X109481012Y-60933734D01*
X109443393Y-60887051D01*
X109443388Y-60887046D01*
X109443384Y-60887041D01*
X108597880Y-60041539D01*
X108597873Y-60041532D01*
X108551190Y-60003912D01*
X108532893Y-59995556D01*
X108420273Y-59944123D01*
X108420274Y-59944123D01*
X108277817Y-59923643D01*
X108277816Y-59923643D01*
X108206484Y-59933898D01*
X108137326Y-59923954D01*
X108084523Y-59878198D01*
X108064839Y-59811158D01*
X108066100Y-59793525D01*
X108076357Y-59722183D01*
X108055876Y-59579725D01*
X107996088Y-59448810D01*
X107958469Y-59402127D01*
X107958464Y-59402122D01*
X107958460Y-59402117D01*
X107112956Y-58556615D01*
X107112949Y-58556608D01*
X107066266Y-58518988D01*
X107048777Y-58511001D01*
X106935349Y-58459199D01*
X106935350Y-58459199D01*
X106792893Y-58438719D01*
X106650437Y-58459199D01*
X106650433Y-58459200D01*
X106519522Y-58518986D01*
X106519517Y-58518989D01*
X106472842Y-58556603D01*
X106472835Y-58556609D01*
X105556611Y-59472834D01*
X105556602Y-59472844D01*
X105518987Y-59519519D01*
X105459200Y-59650433D01*
X105459199Y-59650437D01*
X105438719Y-59792893D01*
X99500500Y-59792893D01*
X99500500Y-56752706D01*
X99500559Y-56750000D01*
X101844475Y-56750000D01*
X101864551Y-57043511D01*
X101864552Y-57043513D01*
X101924404Y-57331543D01*
X101924409Y-57331559D01*
X102022927Y-57608762D01*
X102158278Y-57869977D01*
X102158282Y-57869983D01*
X102327932Y-58110323D01*
X102528743Y-58325338D01*
X102629792Y-58407547D01*
X102756951Y-58510999D01*
X102756953Y-58511000D01*
X102756954Y-58511001D01*
X103008319Y-58663860D01*
X103008324Y-58663862D01*
X103278154Y-58781065D01*
X103278159Y-58781067D01*
X103561445Y-58860440D01*
X103817681Y-58895659D01*
X103852901Y-58900500D01*
X103852902Y-58900500D01*
X104147099Y-58900500D01*
X104178520Y-58896180D01*
X104438555Y-58860440D01*
X104721841Y-58781067D01*
X104991682Y-58663859D01*
X105243049Y-58510999D01*
X105471260Y-58325335D01*
X105672065Y-58110326D01*
X105841722Y-57869976D01*
X105977072Y-57608764D01*
X106075592Y-57331554D01*
X106075592Y-57331549D01*
X106075595Y-57331543D01*
X106087345Y-57274997D01*
X147694435Y-57274997D01*
X147694435Y-57275002D01*
X147698720Y-57313034D01*
X147699500Y-57326917D01*
X147699500Y-58097870D01*
X147699501Y-58097876D01*
X147705908Y-58157483D01*
X147756202Y-58292328D01*
X147756206Y-58292335D01*
X147842452Y-58407544D01*
X147842455Y-58407547D01*
X147957664Y-58493793D01*
X147957671Y-58493797D01*
X147999999Y-58509584D01*
X148092517Y-58544091D01*
X148152127Y-58550500D01*
X148847872Y-58550499D01*
X148907483Y-58544091D01*
X148956665Y-58525746D01*
X149026355Y-58520761D01*
X149043333Y-58525747D01*
X149092508Y-58544088D01*
X149092511Y-58544089D01*
X149092517Y-58544091D01*
X149152127Y-58550500D01*
X149847872Y-58550499D01*
X149907483Y-58544091D01*
X149956665Y-58525746D01*
X150026355Y-58520761D01*
X150043333Y-58525747D01*
X150092508Y-58544088D01*
X150092511Y-58544089D01*
X150092517Y-58544091D01*
X150152127Y-58550500D01*
X150847872Y-58550499D01*
X150907483Y-58544091D01*
X150956665Y-58525746D01*
X151026355Y-58520761D01*
X151043333Y-58525747D01*
X151092508Y-58544088D01*
X151092511Y-58544089D01*
X151092517Y-58544091D01*
X151152127Y-58550500D01*
X151847872Y-58550499D01*
X151907483Y-58544091D01*
X152042331Y-58493796D01*
X152157546Y-58407546D01*
X152243796Y-58292331D01*
X152294091Y-58157483D01*
X152300500Y-58097873D01*
X152300499Y-57326917D01*
X152301279Y-57313034D01*
X152305565Y-57275000D01*
X152305565Y-57274998D01*
X152301279Y-57236963D01*
X152300499Y-57223078D01*
X152300499Y-56750000D01*
X193844475Y-56750000D01*
X193864551Y-57043511D01*
X193864552Y-57043513D01*
X193924404Y-57331543D01*
X193924409Y-57331559D01*
X194022927Y-57608762D01*
X194158278Y-57869977D01*
X194158282Y-57869983D01*
X194327932Y-58110323D01*
X194528743Y-58325338D01*
X194629792Y-58407547D01*
X194756951Y-58510999D01*
X194756953Y-58511000D01*
X194756954Y-58511001D01*
X195008319Y-58663860D01*
X195008324Y-58663862D01*
X195278154Y-58781065D01*
X195278159Y-58781067D01*
X195561445Y-58860440D01*
X195817681Y-58895659D01*
X195852901Y-58900500D01*
X195852902Y-58900500D01*
X196147099Y-58900500D01*
X196178520Y-58896180D01*
X196438555Y-58860440D01*
X196721841Y-58781067D01*
X196991682Y-58663859D01*
X197243049Y-58510999D01*
X197471260Y-58325335D01*
X197672065Y-58110326D01*
X197841722Y-57869976D01*
X197977072Y-57608764D01*
X198075592Y-57331554D01*
X198075592Y-57331549D01*
X198075595Y-57331543D01*
X198110151Y-57165247D01*
X198135448Y-57043511D01*
X198155525Y-56750000D01*
X198135448Y-56456489D01*
X198110151Y-56334753D01*
X198075595Y-56168456D01*
X198075590Y-56168440D01*
X198017827Y-56005910D01*
X197977072Y-55891236D01*
X197841722Y-55630024D01*
X197841721Y-55630022D01*
X197841717Y-55630016D01*
X197672067Y-55389676D01*
X197500598Y-55206078D01*
X197471260Y-55174665D01*
X197471258Y-55174664D01*
X197471256Y-55174661D01*
X197243045Y-54988998D01*
X196991680Y-54836139D01*
X196991675Y-54836137D01*
X196721845Y-54718934D01*
X196438560Y-54639561D01*
X196438556Y-54639560D01*
X196438555Y-54639560D01*
X196292826Y-54619530D01*
X196147099Y-54599500D01*
X196147098Y-54599500D01*
X195852902Y-54599500D01*
X195852901Y-54599500D01*
X195561445Y-54639560D01*
X195561439Y-54639561D01*
X195278154Y-54718934D01*
X195008324Y-54836137D01*
X195008319Y-54836139D01*
X194756954Y-54988998D01*
X194528743Y-55174661D01*
X194327932Y-55389676D01*
X194158282Y-55630016D01*
X194158278Y-55630022D01*
X194022927Y-55891237D01*
X193924409Y-56168440D01*
X193924404Y-56168456D01*
X193864552Y-56456486D01*
X193864551Y-56456488D01*
X193844475Y-56750000D01*
X152300499Y-56750000D01*
X152300499Y-56452129D01*
X152300498Y-56452123D01*
X152300497Y-56452116D01*
X152294091Y-56392517D01*
X152281158Y-56357843D01*
X152243797Y-56257671D01*
X152243793Y-56257664D01*
X152157547Y-56142455D01*
X152157544Y-56142452D01*
X152042335Y-56056206D01*
X152042328Y-56056202D01*
X151907486Y-56005910D01*
X151907485Y-56005909D01*
X151907483Y-56005909D01*
X151847873Y-55999500D01*
X151847863Y-55999500D01*
X151152129Y-55999500D01*
X151152123Y-55999501D01*
X151092516Y-56005908D01*
X151043332Y-56024253D01*
X150973640Y-56029237D01*
X150956667Y-56024253D01*
X150907486Y-56005910D01*
X150907485Y-56005909D01*
X150907483Y-56005909D01*
X150847873Y-55999500D01*
X150847863Y-55999500D01*
X150152129Y-55999500D01*
X150152123Y-55999501D01*
X150092516Y-56005908D01*
X150043332Y-56024253D01*
X149973640Y-56029237D01*
X149956667Y-56024253D01*
X149907486Y-56005910D01*
X149907485Y-56005909D01*
X149907483Y-56005909D01*
X149847873Y-55999500D01*
X149847863Y-55999500D01*
X149152129Y-55999500D01*
X149152123Y-55999501D01*
X149092516Y-56005908D01*
X149043332Y-56024253D01*
X148973640Y-56029237D01*
X148956667Y-56024253D01*
X148907486Y-56005910D01*
X148907485Y-56005909D01*
X148907483Y-56005909D01*
X148847873Y-55999500D01*
X148847863Y-55999500D01*
X148152129Y-55999500D01*
X148152123Y-55999501D01*
X148092516Y-56005908D01*
X147957671Y-56056202D01*
X147957664Y-56056206D01*
X147842455Y-56142452D01*
X147842452Y-56142455D01*
X147756206Y-56257664D01*
X147756202Y-56257671D01*
X147705908Y-56392517D01*
X147699501Y-56452116D01*
X147699501Y-56452123D01*
X147699500Y-56452135D01*
X147699500Y-57223082D01*
X147698720Y-57236965D01*
X147694435Y-57274997D01*
X106087345Y-57274997D01*
X106110151Y-57165247D01*
X106135448Y-57043511D01*
X106155525Y-56750000D01*
X106135448Y-56456489D01*
X106110151Y-56334753D01*
X106075595Y-56168456D01*
X106075590Y-56168440D01*
X106017827Y-56005910D01*
X105977072Y-55891236D01*
X105841722Y-55630024D01*
X105841721Y-55630022D01*
X105841717Y-55630016D01*
X105672067Y-55389676D01*
X105500598Y-55206078D01*
X105471260Y-55174665D01*
X105471258Y-55174664D01*
X105471256Y-55174661D01*
X105243045Y-54988998D01*
X104991680Y-54836139D01*
X104991675Y-54836137D01*
X104721845Y-54718934D01*
X104438560Y-54639561D01*
X104438556Y-54639560D01*
X104438555Y-54639560D01*
X104292826Y-54619530D01*
X104147099Y-54599500D01*
X104147098Y-54599500D01*
X103852902Y-54599500D01*
X103852901Y-54599500D01*
X103561445Y-54639560D01*
X103561439Y-54639561D01*
X103278154Y-54718934D01*
X103008324Y-54836137D01*
X103008319Y-54836139D01*
X102756954Y-54988998D01*
X102528743Y-55174661D01*
X102327932Y-55389676D01*
X102158282Y-55630016D01*
X102158278Y-55630022D01*
X102022927Y-55891237D01*
X101924409Y-56168440D01*
X101924404Y-56168456D01*
X101864552Y-56456486D01*
X101864551Y-56456488D01*
X101844475Y-56750000D01*
X99500559Y-56750000D01*
X99500618Y-56747297D01*
X99509722Y-56538780D01*
X99517386Y-56363226D01*
X99518326Y-56352495D01*
X99568152Y-55974025D01*
X99570025Y-55963405D01*
X99652649Y-55590709D01*
X99655440Y-55580295D01*
X99770230Y-55216227D01*
X99773917Y-55206095D01*
X99920003Y-54853412D01*
X99924561Y-54843638D01*
X100100822Y-54505045D01*
X100106217Y-54495700D01*
X100311325Y-54173744D01*
X100317515Y-54164905D01*
X100549896Y-53862060D01*
X100556834Y-53853791D01*
X100814726Y-53572352D01*
X100822352Y-53564726D01*
X101103791Y-53306834D01*
X101112060Y-53299896D01*
X101414905Y-53067515D01*
X101423744Y-53061325D01*
X101745700Y-52856217D01*
X101755045Y-52850822D01*
X102093638Y-52674561D01*
X102103412Y-52670003D01*
X102456095Y-52523917D01*
X102466227Y-52520230D01*
X102830295Y-52405440D01*
X102840709Y-52402649D01*
X103213405Y-52320025D01*
X103224025Y-52318152D01*
X103602495Y-52268326D01*
X103613226Y-52267386D01*
X103997297Y-52250617D01*
X104002706Y-52250500D01*
X104065892Y-52250500D01*
X145983132Y-52250500D01*
X146050171Y-52270185D01*
G37*
%TD.AperFunction*%
%TD*%
%TA.AperFunction,Conductor*%
%TO.N,+12V{slash}6*%
G36*
X159590239Y-91269685D02*
G01*
X159635994Y-91322489D01*
X159647200Y-91374000D01*
X159647200Y-94602800D01*
X162288800Y-94602800D01*
X162288800Y-92478900D01*
X162308485Y-92411861D01*
X162361289Y-92366106D01*
X162412800Y-92354900D01*
X163587200Y-92354900D01*
X163654239Y-92374585D01*
X163699994Y-92427389D01*
X163711200Y-92478900D01*
X163711200Y-94602800D01*
X166352800Y-94602800D01*
X166352800Y-92624000D01*
X166372485Y-92556961D01*
X166425289Y-92511206D01*
X166476800Y-92500000D01*
X166500000Y-92500000D01*
X172376000Y-92500000D01*
X172443039Y-92519685D01*
X172488794Y-92572489D01*
X172500000Y-92624000D01*
X172500000Y-99376000D01*
X172480315Y-99443039D01*
X172427511Y-99488794D01*
X172376000Y-99500000D01*
X161754589Y-99500000D01*
X161687550Y-99480315D01*
X161685731Y-99479124D01*
X161602535Y-99423535D01*
X161484152Y-99374499D01*
X161484146Y-99374497D01*
X161358479Y-99349500D01*
X161358477Y-99349500D01*
X157685931Y-99349500D01*
X157685929Y-99349500D01*
X157560261Y-99374497D01*
X157560251Y-99374500D01*
X157511220Y-99394810D01*
X157441881Y-99423530D01*
X157441863Y-99423540D01*
X157358709Y-99479102D01*
X157292032Y-99499980D01*
X157289819Y-99500000D01*
X151374000Y-99500000D01*
X151306961Y-99480315D01*
X151261206Y-99427511D01*
X151250000Y-99376000D01*
X151250000Y-91374000D01*
X151269685Y-91306961D01*
X151322489Y-91261206D01*
X151374000Y-91250000D01*
X159250000Y-91250000D01*
X159523200Y-91250000D01*
X159590239Y-91269685D01*
G37*
%TD.AperFunction*%
%TD*%
%TA.AperFunction,Conductor*%
%TO.N,+12V{slash}4*%
G36*
X159590239Y-137519685D02*
G01*
X159635994Y-137572489D01*
X159647200Y-137624000D01*
X159647200Y-140857501D01*
X162288800Y-140857501D01*
X162288800Y-138733601D01*
X162308485Y-138666562D01*
X162361289Y-138620807D01*
X162412800Y-138609601D01*
X163587200Y-138609601D01*
X163654239Y-138629286D01*
X163699994Y-138682090D01*
X163711200Y-138733601D01*
X163711200Y-140857501D01*
X166352800Y-140857501D01*
X166352800Y-138874000D01*
X166372485Y-138806961D01*
X166425289Y-138761206D01*
X166476800Y-138750000D01*
X166500000Y-138750000D01*
X172376000Y-138750000D01*
X172443039Y-138769685D01*
X172488794Y-138822489D01*
X172500000Y-138874000D01*
X172500000Y-145626000D01*
X172480315Y-145693039D01*
X172427511Y-145738794D01*
X172376000Y-145750000D01*
X151374000Y-145750000D01*
X151306961Y-145730315D01*
X151261206Y-145677511D01*
X151250000Y-145626000D01*
X151250000Y-137624000D01*
X151269685Y-137556961D01*
X151322489Y-137511206D01*
X151374000Y-137500000D01*
X159250000Y-137500000D01*
X159523200Y-137500000D01*
X159590239Y-137519685D01*
G37*
%TD.AperFunction*%
%TD*%
%TA.AperFunction,Conductor*%
%TO.N,+12V{slash}2*%
G36*
X139366513Y-83019685D02*
G01*
X139405012Y-83058903D01*
X139457288Y-83143656D01*
X139581344Y-83267712D01*
X139730666Y-83359814D01*
X139897203Y-83414999D01*
X139999991Y-83425500D01*
X141000008Y-83425499D01*
X141000016Y-83425498D01*
X141000019Y-83425498D01*
X141056302Y-83419748D01*
X141102797Y-83414999D01*
X141269334Y-83359814D01*
X141418656Y-83267712D01*
X141542712Y-83143656D01*
X141594987Y-83058903D01*
X141646935Y-83012179D01*
X141700526Y-83000000D01*
X141799474Y-83000000D01*
X141866513Y-83019685D01*
X141905012Y-83058903D01*
X141957288Y-83143656D01*
X142081344Y-83267712D01*
X142230666Y-83359814D01*
X142397203Y-83414999D01*
X142499991Y-83425500D01*
X143500008Y-83425499D01*
X143500016Y-83425498D01*
X143500019Y-83425498D01*
X143556302Y-83419748D01*
X143602797Y-83414999D01*
X143769334Y-83359814D01*
X143918656Y-83267712D01*
X144042712Y-83143656D01*
X144094987Y-83058903D01*
X144146935Y-83012179D01*
X144200526Y-83000000D01*
X144250000Y-83000000D01*
X147925502Y-83000000D01*
X147992541Y-83019685D01*
X148038296Y-83072489D01*
X148049502Y-83124000D01*
X148049502Y-83525018D01*
X148060001Y-83627796D01*
X148060002Y-83627799D01*
X148115186Y-83794331D01*
X148115187Y-83794334D01*
X148207289Y-83943656D01*
X148331345Y-84067712D01*
X148480667Y-84159814D01*
X148647204Y-84214999D01*
X148647206Y-84214999D01*
X148647209Y-84215000D01*
X148651958Y-84216017D01*
X148713392Y-84249299D01*
X148747079Y-84310511D01*
X148750000Y-84337269D01*
X148750000Y-91126000D01*
X148730315Y-91193039D01*
X148677511Y-91238794D01*
X148626000Y-91250000D01*
X140476800Y-91250000D01*
X140409761Y-91230315D01*
X140364006Y-91177511D01*
X140352800Y-91126000D01*
X140352800Y-87897200D01*
X137711200Y-87897200D01*
X137711200Y-90021100D01*
X137691515Y-90088139D01*
X137638711Y-90133894D01*
X137587200Y-90145100D01*
X136412800Y-90145100D01*
X136345761Y-90125415D01*
X136300006Y-90072611D01*
X136288800Y-90021100D01*
X136288800Y-87897200D01*
X133647200Y-87897200D01*
X133647200Y-89876000D01*
X133627515Y-89943039D01*
X133574711Y-89988794D01*
X133523200Y-90000000D01*
X127624000Y-90000000D01*
X127556961Y-89980315D01*
X127511206Y-89927511D01*
X127500000Y-89876000D01*
X127500000Y-83124000D01*
X127519685Y-83056961D01*
X127572489Y-83011206D01*
X127624000Y-83000000D01*
X139299474Y-83000000D01*
X139366513Y-83019685D01*
G37*
%TD.AperFunction*%
%TD*%
M02*
