M48
; DRILL file {KiCad 8.0.5} date 2025-09-24T23:13:46-0700
; FORMAT={-:-/ absolute / metric / decimal}
; #@! TF.CreationDate,2025-09-24T23:13:46-07:00
; #@! TF.GenerationSoftware,Kicad,Pcbnew,8.0.5
; #@! TF.FileFunction,Plated,1,6,PTH
FMAT,2
METRIC
; #@! TA.AperFunction,Plated,PTH,ViaDrill
T1C0.300
; #@! TA.AperFunction,Plated,PTH,ViaDrill
T2C0.400
; #@! TA.AperFunction,Plated,PTH,ComponentDrill
T3C0.600
; #@! TA.AperFunction,Plated,PTH,ComponentDrill
T4C0.864
; #@! TA.AperFunction,Plated,PTH,ComponentDrill
T5C1.000
; #@! TA.AperFunction,Plated,PTH,ComponentDrill
T6C1.900
; #@! TA.AperFunction,Plated,PTH,ComponentDrill
T7C1.905
; #@! TA.AperFunction,Plated,PTH,ComponentDrill
T8C2.591
; #@! TA.AperFunction,Plated,PTH,ComponentDrill
T9C2.700
%
G90
G05
T1
X118.6Y-68.0
X118.6Y-69.054
X118.6Y-91.25
X118.6Y-92.22
X118.6Y-114.25
X118.6Y-115.304
X118.6Y-137.5
X118.6Y-138.554
X120.662Y-82.0
X130.1Y-100.6
X130.1Y-102.35
X131.75Y-100.6
X131.75Y-102.35
X133.45Y-100.6
X133.475Y-102.35
X135.0Y-100.6
X135.025Y-102.35
X137.25Y-99.975
X138.0Y-100.75
X139.1Y-102.6
X140.0Y-102.0
X140.475Y-98.6
X140.5Y-79.5
X141.985Y-104.5
X142.025Y-98.6
X143.0Y-79.5
X143.401Y-102.575
X144.43Y-101.82
X146.75Y-79.75
X146.75Y-80.75
X147.025Y-100.6
X147.025Y-102.35
X147.075Y-98.85
X147.075Y-104.1
X148.0Y-78.0
X148.5Y-57.275
X148.75Y-79.5
X149.05Y-83.0
X149.5Y-57.275
X150.5Y-57.275
X150.95Y-83.0
X151.0Y-78.0
X151.5Y-57.275
X152.062Y-78.0
X152.833Y-80.898
X152.925Y-101.75
X152.925Y-107.0
X152.975Y-103.5
X152.975Y-105.25
X154.0Y-81.45
X154.25Y-98.25
X154.25Y-120.75
X154.25Y-143.75
X155.5Y-104.0
X158.2Y-101.25
X159.71Y-107.0
X159.75Y-79.5
X159.75Y-101.25
X160.9Y-103.16
X161.875Y-103.524
X162.75Y-102.75
X162.775Y-104.275
X163.0Y-94.057
X163.0Y-97.75
X163.0Y-117.113
X163.0Y-120.75
X163.0Y-140.311
X163.0Y-143.75
X164.7Y-103.5
X164.7Y-105.25
X166.25Y-103.5
X166.25Y-105.25
X167.9Y-103.5
X167.925Y-105.25
X169.55Y-103.5
X169.575Y-105.25
X170.5Y-93.58
X170.5Y-97.75
X170.5Y-116.746
X170.5Y-120.75
X170.5Y-139.913
X170.5Y-143.75
X181.4Y-66.946
X181.4Y-68.0
X181.4Y-90.113
X181.4Y-91.1
X181.4Y-113.28
X181.4Y-114.25
X181.4Y-136.446
X181.4Y-137.5
T2
X104.0Y-62.75
X104.0Y-83.75
X104.0Y-102.0
X104.0Y-142.75
X106.758Y-59.758
X106.758Y-145.742
X110.0Y-56.75
X110.0Y-148.75
X111.145Y-64.145
X114.14Y-137.5
X114.39Y-68.0
X114.39Y-91.167
X114.39Y-114.25
X122.395Y-65.0
X122.395Y-88.0
X122.395Y-111.25
X122.395Y-134.5
X126.0Y-56.75
X129.5Y-61.75
X129.5Y-65.587
X129.5Y-85.0
X129.5Y-88.754
X129.5Y-107.75
X129.5Y-111.837
X129.5Y-132.25
X129.5Y-135.087
X137.0Y-61.75
X137.0Y-65.189
X137.0Y-70.802
X137.0Y-85.0
X137.0Y-88.443
X137.0Y-94.057
X137.0Y-107.75
X137.0Y-111.387
X137.0Y-117.0
X137.0Y-132.0
X137.0Y-134.637
X137.0Y-140.25
X140.5Y-76.573
X140.5Y-82.412
X142.0Y-56.75
X143.0Y-82.412
X145.75Y-61.75
X145.75Y-85.0
X145.75Y-107.75
X145.75Y-131.0
X150.0Y-127.912
X150.0Y-145.0
X154.25Y-74.5
X157.0Y-76.573
X157.0Y-82.427
X158.0Y-56.75
X158.25Y-79.5
X159.75Y-82.427
X162.25Y-149.0
X163.0Y-65.25
X163.0Y-70.863
X163.0Y-74.75
X163.0Y-88.443
X163.0Y-111.5
X163.0Y-134.698
X170.5Y-70.413
X170.5Y-74.75
X174.0Y-56.75
X176.125Y-149.0
X177.605Y-71.0
X177.605Y-94.25
X177.605Y-117.25
X177.605Y-140.5
X185.72Y-68.0
X185.72Y-91.167
X185.72Y-114.5
X185.72Y-137.5
X186.04Y-80.79
X188.855Y-64.145
X188.855Y-141.355
X190.0Y-56.75
X190.0Y-149.0
X193.242Y-59.758
X193.242Y-145.742
X196.0Y-62.75
X196.0Y-78.75
X196.0Y-94.75
X196.0Y-110.75
X196.0Y-126.75
X196.0Y-142.75
T4
X111.25Y-84.75
X114.75Y-84.75
X176.0Y-102.583
X176.0Y-106.083
X179.5Y-84.5
X183.0Y-84.5
T5
X103.5Y-95.25
X103.5Y-108.25
T6
X113.5Y-98.25
X113.5Y-101.75
X113.5Y-105.25
T7
X111.13Y-77.6
X118.75Y-77.6
X126.37Y-77.6
X142.38Y-122.31
X146.19Y-150.25
X150.0Y-122.31
X150.0Y-150.25
X153.81Y-150.25
X157.62Y-122.31
X173.63Y-77.6
X181.25Y-77.6
X188.87Y-77.6
T8
X107.32Y-128.4
X111.13Y-128.4
X126.37Y-128.4
X130.18Y-128.4
X142.38Y-150.25
X157.62Y-150.25
X169.82Y-128.4
X173.63Y-128.4
X188.87Y-128.4
X192.68Y-128.4
T9
X145.75Y-65.5
X145.75Y-70.5
X145.75Y-88.667
X145.75Y-93.667
X145.75Y-111.833
X145.75Y-116.833
X145.75Y-135.0
X145.75Y-140.0
X154.25Y-65.5
X154.25Y-70.5
X154.25Y-88.667
X154.25Y-93.667
X154.25Y-111.833
X154.25Y-116.833
X154.25Y-135.0
X154.25Y-140.0
X183.6Y-100.15
X183.6Y-107.35
T3
X190.15Y-97.0G85X189.05Y-97.0
G05
X190.15Y-110.5G85X189.05Y-110.5
G05
T5
X187.25Y-103.25G85X187.25Y-104.25
G05
M30
