%TF.GenerationSoftware,KiCad,Pcbnew,8.0.5*%
%TF.CreationDate,2025-09-24T23:13:40-07:00*%
%TF.ProjectId,Power8Board V1,506f7765-7238-4426-9f61-72642056312e,rev?*%
%TF.SameCoordinates,Original*%
%TF.FileFunction,Copper,L3,Inr*%
%TF.FilePolarity,Positive*%
%FSLAX46Y46*%
G04 Gerber Fmt 4.6, Leading zero omitted, Abs format (unit mm)*
G04 Created by KiCad (PCBNEW 8.0.5) date 2025-09-24 23:13:40*
%MOMM*%
%LPD*%
G01*
G04 APERTURE LIST*
G04 Aperture macros list*
%AMRoundRect*
0 Rectangle with rounded corners*
0 $1 Rounding radius*
0 $2 $3 $4 $5 $6 $7 $8 $9 X,Y pos of 4 corners*
0 Add a 4 corners polygon primitive as box body*
4,1,4,$2,$3,$4,$5,$6,$7,$8,$9,$2,$3,0*
0 Add four circle primitives for the rounded corners*
1,1,$1+$1,$2,$3*
1,1,$1+$1,$4,$5*
1,1,$1+$1,$6,$7*
1,1,$1+$1,$8,$9*
0 Add four rect primitives between the rounded corners*
20,1,$1+$1,$2,$3,$4,$5,0*
20,1,$1+$1,$4,$5,$6,$7,0*
20,1,$1+$1,$6,$7,$8,$9,0*
20,1,$1+$1,$8,$9,$2,$3,0*%
%AMOutline5P*
0 Free polygon, 5 corners , with rotation*
0 The origin of the aperture is its center*
0 number of corners: always 5*
0 $1 to $10 corner X, Y*
0 $11 Rotation angle, in degrees counterclockwise*
0 create outline with 5 corners*
4,1,5,$1,$2,$3,$4,$5,$6,$7,$8,$9,$10,$1,$2,$11*%
%AMOutline6P*
0 Free polygon, 6 corners , with rotation*
0 The origin of the aperture is its center*
0 number of corners: always 6*
0 $1 to $12 corner X, Y*
0 $13 Rotation angle, in degrees counterclockwise*
0 create outline with 6 corners*
4,1,6,$1,$2,$3,$4,$5,$6,$7,$8,$9,$10,$11,$12,$1,$2,$13*%
%AMOutline7P*
0 Free polygon, 7 corners , with rotation*
0 The origin of the aperture is its center*
0 number of corners: always 7*
0 $1 to $14 corner X, Y*
0 $15 Rotation angle, in degrees counterclockwise*
0 create outline with 7 corners*
4,1,7,$1,$2,$3,$4,$5,$6,$7,$8,$9,$10,$11,$12,$13,$14,$1,$2,$15*%
%AMOutline8P*
0 Free polygon, 8 corners , with rotation*
0 The origin of the aperture is its center*
0 number of corners: always 8*
0 $1 to $16 corner X, Y*
0 $17 Rotation angle, in degrees counterclockwise*
0 create outline with 8 corners*
4,1,8,$1,$2,$3,$4,$5,$6,$7,$8,$9,$10,$11,$12,$13,$14,$15,$16,$1,$2,$17*%
G04 Aperture macros list end*
%TA.AperFunction,ComponentPad*%
%ADD10R,3.800000X3.800000*%
%TD*%
%TA.AperFunction,ComponentPad*%
%ADD11C,4.100000*%
%TD*%
%TA.AperFunction,ComponentPad*%
%ADD12R,1.524000X1.524000*%
%TD*%
%TA.AperFunction,ComponentPad*%
%ADD13C,1.524000*%
%TD*%
%TA.AperFunction,ComponentPad*%
%ADD14R,2.000000X0.900000*%
%TD*%
%TA.AperFunction,ComponentPad*%
%ADD15RoundRect,1.025000X-1.025000X1.025000X-1.025000X-1.025000X1.025000X-1.025000X1.025000X1.025000X0*%
%TD*%
%TA.AperFunction,ComponentPad*%
%ADD16R,1.300000X2.300000*%
%TD*%
%TA.AperFunction,ComponentPad*%
%ADD17C,3.810000*%
%TD*%
%TA.AperFunction,ComponentPad*%
%ADD18R,3.556000X5.080000*%
%TD*%
%TA.AperFunction,ComponentPad*%
%ADD19Outline5P,-2.540000X1.778000X2.540000X1.778000X2.540000X-0.533400X1.295400X-1.778000X-2.540000X-1.778000X270.000000*%
%TD*%
%TA.AperFunction,ComponentPad*%
%ADD20Outline5P,-2.540000X1.778000X1.295400X1.778000X2.540000X0.533400X2.540000X-1.778000X-2.540000X-1.778000X270.000000*%
%TD*%
%TA.AperFunction,ComponentPad*%
%ADD21C,1.400000*%
%TD*%
%TA.AperFunction,ComponentPad*%
%ADD22R,3.000000X3.000000*%
%TD*%
%TA.AperFunction,ComponentPad*%
%ADD23C,3.000000*%
%TD*%
%TA.AperFunction,ComponentPad*%
%ADD24C,3.302000*%
%TD*%
%TA.AperFunction,ComponentPad*%
%ADD25C,4.318000*%
%TD*%
%TA.AperFunction,ComponentPad*%
%ADD26C,2.794000*%
%TD*%
%TA.AperFunction,ComponentPad*%
%ADD27C,3.048000*%
%TD*%
%TA.AperFunction,ViaPad*%
%ADD28C,0.800000*%
%TD*%
%TA.AperFunction,ViaPad*%
%ADD29C,0.600000*%
%TD*%
%TA.AperFunction,ViaPad*%
%ADD30C,0.500000*%
%TD*%
%TA.AperFunction,Conductor*%
%ADD31C,1.000000*%
%TD*%
%TA.AperFunction,Conductor*%
%ADD32C,0.300000*%
%TD*%
%TA.AperFunction,Conductor*%
%ADD33C,0.400000*%
%TD*%
G04 APERTURE END LIST*
D10*
%TO.N,GND*%
%TO.C,J1*%
X145750000Y-116833332D03*
D11*
%TO.N,+12V{slash}1*%
X145750000Y-111833332D03*
%TD*%
D10*
%TO.N,GND*%
%TO.C,J5*%
X154250000Y-111833332D03*
D11*
%TO.N,+12V{slash}5*%
X154250000Y-116833332D03*
%TD*%
D10*
%TO.N,GND*%
%TO.C,J0*%
X145750000Y-140000000D03*
D11*
%TO.N,+12V{slash}0*%
X145750000Y-135000000D03*
%TD*%
D12*
%TO.N,+48V*%
%TO.C,C3*%
X179500000Y-84500000D03*
D13*
%TO.N,GND*%
X183000000Y-84500000D03*
%TD*%
D14*
%TO.N,*%
%TO.C,J10*%
X189600000Y-97000000D03*
X189600000Y-110500000D03*
D15*
%TO.N,GND*%
X183600000Y-100150000D03*
D11*
%TO.N,+48V*%
X183600000Y-107350000D03*
D16*
%TO.N,unconnected-(J10-NC-Pad3)*%
X187250000Y-103750000D03*
%TD*%
D10*
%TO.N,GND*%
%TO.C,J4*%
X154250000Y-135000000D03*
D11*
%TO.N,+12V{slash}4*%
X154250000Y-140000000D03*
%TD*%
D10*
%TO.N,GND*%
%TO.C,J2*%
X145750000Y-93666666D03*
D11*
%TO.N,+12V{slash}2*%
X145750000Y-88666666D03*
%TD*%
D17*
%TO.N,+48V*%
%TO.C,U1*%
X173630000Y-77600000D03*
%TO.N,Net-(U1-On{slash}Off)*%
X181250000Y-77600000D03*
%TO.N,GND*%
X188870000Y-77600000D03*
D18*
X192680000Y-128400000D03*
D19*
X188870000Y-127765000D03*
D20*
%TO.N,+12V*%
X173630000Y-127765000D03*
D18*
X169820000Y-128400000D03*
%TD*%
D10*
%TO.N,GND*%
%TO.C,J3*%
X145750000Y-70500000D03*
D11*
%TO.N,+12V{slash}3*%
X145750000Y-65500000D03*
%TD*%
D10*
%TO.N,GND*%
%TO.C,J7*%
X154250000Y-65500000D03*
D11*
%TO.N,+12V{slash}7*%
X154250000Y-70500000D03*
%TD*%
D12*
%TO.N,+48V*%
%TO.C,C2*%
X111250000Y-84750000D03*
D13*
%TO.N,GND*%
X114750000Y-84750000D03*
%TD*%
D21*
%TO.N,*%
%TO.C,J9*%
X103500000Y-108250000D03*
X103500000Y-95250000D03*
D22*
%TO.N,+12V*%
X113500000Y-105250000D03*
D23*
%TO.N,GND*%
X113500000Y-101750000D03*
%TO.N,+5V*%
X113500000Y-98250001D03*
%TD*%
D10*
%TO.N,GND*%
%TO.C,J6*%
X154250000Y-88666666D03*
D11*
%TO.N,+12V{slash}6*%
X154250000Y-93666666D03*
%TD*%
D24*
%TO.N,+48V*%
%TO.C,U3*%
X142380000Y-122310000D03*
%TO.N,Net-(U3-On{slash}Off)*%
X150000000Y-122310000D03*
%TO.N,GND*%
X157620000Y-122310000D03*
D25*
X157620000Y-150250000D03*
D26*
X153810000Y-150250000D03*
D27*
%TO.N,Net-(U3-Trim)*%
X150000000Y-150250000D03*
D26*
%TO.N,+5V*%
X146190000Y-150250000D03*
D25*
X142380000Y-150250000D03*
%TD*%
D12*
%TO.N,+48V*%
%TO.C,C1*%
X176000000Y-106083250D03*
D13*
%TO.N,GND*%
X176000000Y-102583249D03*
%TD*%
D17*
%TO.N,+48V*%
%TO.C,U2*%
X111130000Y-77600000D03*
%TO.N,Net-(U2-On{slash}Off)*%
X118750000Y-77600000D03*
%TO.N,GND*%
X126370000Y-77600000D03*
D18*
X130180000Y-128400000D03*
D19*
X126370000Y-127765000D03*
D20*
%TO.N,+12V*%
X111130000Y-127765000D03*
D18*
X107320000Y-128400000D03*
%TD*%
D28*
%TO.N,+12V*%
X104000000Y-142750000D03*
X110000000Y-148750000D03*
X176125000Y-149000000D03*
X104000000Y-62750000D03*
X104000000Y-83750000D03*
X104000000Y-102000000D03*
X162250000Y-149000000D03*
X190000000Y-149000000D03*
X196000000Y-142750000D03*
X196000000Y-126750000D03*
X196000000Y-110750000D03*
X196000000Y-94750000D03*
X196000000Y-78750000D03*
X196000000Y-62750000D03*
X190000000Y-56750000D03*
X174000000Y-56750000D03*
X158000000Y-56750000D03*
X142000000Y-56750000D03*
X126000000Y-56750000D03*
X110000000Y-56750000D03*
D29*
%TO.N,+12V{slash}4*%
X154250000Y-143750000D03*
X163000000Y-143750000D03*
X170500000Y-143750000D03*
X163000000Y-140311402D03*
X170500000Y-139913000D03*
%TO.N,+12V{slash}5*%
X154250000Y-120750000D03*
X163000000Y-120750000D03*
X163000000Y-117113402D03*
X170500000Y-120750000D03*
X170500000Y-116746332D03*
%TO.N,+12V{slash}6*%
X154250000Y-98250000D03*
X163000000Y-97750000D03*
X163000000Y-94056701D03*
X170500000Y-97750000D03*
X170500000Y-93579666D03*
D28*
%TO.N,GND*%
X137000000Y-94056701D03*
D29*
X118600001Y-68000000D03*
X181399999Y-91100000D03*
D28*
X163000000Y-88443299D03*
X150000000Y-127912500D03*
D29*
X118600001Y-137500000D03*
X149050001Y-83000000D03*
D28*
X193242462Y-59757538D03*
D29*
X133450000Y-100600000D03*
X140475000Y-98600000D03*
D28*
X177604999Y-71000000D03*
D29*
X159750000Y-101250000D03*
D28*
X106757538Y-145742462D03*
D29*
X181399999Y-68000000D03*
X152975000Y-103500000D03*
X120662500Y-82000000D03*
X118600001Y-114250000D03*
X133475000Y-102350000D03*
D28*
X106757538Y-59757538D03*
D30*
X155500000Y-104000000D03*
D28*
X137000000Y-117000000D03*
D29*
X154000000Y-81449999D03*
D28*
X137000000Y-70802001D03*
X177605000Y-94250000D03*
D29*
X181399999Y-137500000D03*
D28*
X143000000Y-82412500D03*
D29*
X166250000Y-105250000D03*
X147025000Y-100600000D03*
X118600001Y-91250000D03*
X137250000Y-99975000D03*
X162750000Y-102750000D03*
D28*
X163000000Y-134698000D03*
X157000000Y-82427100D03*
X163000000Y-65250000D03*
X163000000Y-111500000D03*
D30*
X144430000Y-101820000D03*
D29*
X148750000Y-79500000D03*
D28*
X140500000Y-82412500D03*
D29*
X181399999Y-114250000D03*
D28*
X122395001Y-134500000D03*
X177605000Y-140500000D03*
X159750000Y-82427100D03*
X122395001Y-65000000D03*
X150000000Y-145000000D03*
X122395001Y-88000000D03*
D29*
X147025000Y-102350000D03*
D28*
X137000000Y-140250000D03*
D29*
X152975000Y-105250000D03*
D30*
X143400674Y-102575002D03*
D29*
X166250000Y-103500000D03*
D28*
X186040470Y-80790470D03*
X193242462Y-145742462D03*
X122395001Y-111250000D03*
D29*
X151500000Y-57275000D03*
D28*
X177605000Y-117250000D03*
%TO.N,+48V*%
X111145235Y-64145235D03*
X140500000Y-76572900D03*
%TO.N,+12V{slash}0*%
X137000000Y-134636598D03*
X137000000Y-132000000D03*
X145750000Y-131000000D03*
X129500000Y-135087000D03*
X129500000Y-132250000D03*
%TO.N,+12V{slash}1*%
X129500000Y-111837000D03*
X145750000Y-107750000D03*
X129500000Y-107750000D03*
X137000000Y-107750000D03*
X137000000Y-111386598D03*
%TO.N,+12V{slash}2*%
X137000000Y-85000000D03*
X145750000Y-85000000D03*
X129500000Y-88753666D03*
X137000000Y-88443299D03*
X129500000Y-85000000D03*
%TO.N,+12V{slash}3*%
X129500000Y-61750000D03*
X137000000Y-61750000D03*
X137000000Y-65188599D03*
X145750000Y-61750000D03*
X129500000Y-65587000D03*
%TO.N,+12V{slash}7*%
X154250000Y-74500000D03*
X170500000Y-70413000D03*
X170500000Y-74750000D03*
X163000000Y-74750000D03*
X163000000Y-70863402D03*
%TO.N,+3.3V*%
X188854765Y-64145235D03*
X114390000Y-91166666D03*
X185720000Y-91166666D03*
D29*
X142025000Y-98600000D03*
D28*
X157000000Y-76572900D03*
D29*
X141984999Y-104500000D03*
D28*
X185720000Y-68000000D03*
X114390000Y-68000000D03*
X114140000Y-137500000D03*
D29*
X158200000Y-101250000D03*
X150949999Y-83000000D03*
D28*
X185720000Y-137500000D03*
X185720000Y-114500000D03*
X114390000Y-114250000D03*
D29*
X150500000Y-57275000D03*
%TO.N,+3.3VA{slash}2*%
X159709999Y-107000000D03*
X162775000Y-104275000D03*
D30*
%TO.N,SDA*%
X140000000Y-102000000D03*
D29*
X149500000Y-57275000D03*
D30*
X161874614Y-103524010D03*
D29*
X151000000Y-78000000D03*
X148000000Y-78000000D03*
D30*
%TO.N,SCL*%
X160900000Y-103160000D03*
X139100000Y-102600000D03*
D29*
X148500000Y-57275000D03*
X152062164Y-78000000D03*
%TO.N,/Voltage Sensing/AIN0*%
X140500000Y-79500000D03*
X146750000Y-79750000D03*
%TO.N,/Voltage Sensing/AIN1*%
X146750000Y-80750000D03*
X143000000Y-79500000D03*
D28*
%TO.N,+5V*%
X188854765Y-141354765D03*
X158250000Y-79500000D03*
D29*
%TO.N,/Voltage Sensing/AIN2*%
X152833423Y-80897540D03*
X159750000Y-79500000D03*
%TO.N,/Current Sensing/INA240 Current Sensor 1/OUT1*%
X118600001Y-115303602D03*
X147075000Y-98850000D03*
%TO.N,/Current Sensing/INA240 Current Sensor 2/OUT2*%
X118600001Y-92220268D03*
X130100000Y-100600000D03*
%TO.N,/Current Sensing/INA240 Current Sensor 3/OUT3*%
X118600001Y-69053602D03*
X130100000Y-102350000D03*
%TO.N,/Current Sensing/INA240 Current Sensor 4/OUT4*%
X181399999Y-136446398D03*
X152925000Y-101750000D03*
%TO.N,/Current Sensing/INA240 Current Sensor 5/OUT5*%
X181399999Y-113279729D03*
X152925000Y-107000000D03*
%TO.N,/Current Sensing/INA240 Current Sensor 6/OUT6*%
X181399999Y-90113063D03*
X167925000Y-105250000D03*
%TO.N,/Current Sensing/INA240 Current Sensor 7/OUT7*%
X181399999Y-66946397D03*
X167900000Y-103500000D03*
%TO.N,/Current Sensing/INA240 Current Sensor 0/OUT0*%
X118600001Y-138553602D03*
X147075000Y-104100000D03*
%TO.N,Net-(U12-AIN2)*%
X131750000Y-100600000D03*
X135000000Y-100600000D03*
%TO.N,Net-(U12-AIN3)*%
X135025000Y-102350000D03*
D30*
X138000000Y-100750000D03*
D29*
X131750000Y-102350000D03*
%TO.N,Net-(U13-AIN2)*%
X169575000Y-105250000D03*
X164700000Y-105250000D03*
%TO.N,Net-(U13-AIN3)*%
X169550000Y-103500000D03*
X164700000Y-103500000D03*
%TD*%
D31*
%TO.N,+3.3V*%
X142025000Y-98500000D02*
X142025000Y-98600000D01*
X154500000Y-97000000D02*
X143525000Y-97000000D01*
X158200000Y-100700000D02*
X154500000Y-97000000D01*
X143525000Y-97000000D02*
X142025000Y-98500000D01*
X158200000Y-101250000D02*
X158200000Y-100700000D01*
X141984999Y-104500000D02*
X141984999Y-107943092D01*
X150949999Y-80924401D02*
X150949999Y-83000000D01*
X128928091Y-121000000D02*
X115500000Y-121000000D01*
X158500000Y-75072900D02*
X158500000Y-64000000D01*
X157000000Y-76572900D02*
X155301500Y-76572900D01*
X157000000Y-76572900D02*
X158500000Y-75072900D01*
X141984999Y-107943092D02*
X128928091Y-121000000D01*
X155301500Y-76572900D02*
X150949999Y-80924401D01*
D32*
%TO.N,/Voltage Sensing/AIN0*%
X146750000Y-79750000D02*
X145850000Y-78850000D01*
X145850000Y-78850000D02*
X141150000Y-78850000D01*
X141150000Y-78850000D02*
X140500000Y-79500000D01*
%TO.N,/Voltage Sensing/AIN1*%
X144250000Y-80750000D02*
X143000000Y-79500000D01*
X146750000Y-80750000D02*
X144250000Y-80750000D01*
%TO.N,/Voltage Sensing/AIN2*%
X159000000Y-80250000D02*
X159750000Y-79500000D01*
X152833423Y-80897540D02*
X153480963Y-80250000D01*
X153480963Y-80250000D02*
X159000000Y-80250000D01*
D33*
%TO.N,/Current Sensing/INA240 Current Sensor 1/OUT1*%
X140640000Y-102265097D02*
X139665097Y-103240000D01*
X147075000Y-98850000D02*
X144775000Y-101150000D01*
X144775000Y-101150000D02*
X141350000Y-101150000D01*
X139260000Y-103240000D02*
X127196398Y-115303602D01*
X127196398Y-115303602D02*
X118600001Y-115303602D01*
X139665097Y-103240000D02*
X139260000Y-103240000D01*
X140640000Y-101860000D02*
X140640000Y-102265097D01*
X141350000Y-101150000D02*
X140640000Y-101860000D01*
%TO.N,/Current Sensing/INA240 Current Sensor 2/OUT2*%
X118600001Y-92225808D02*
X118600001Y-92220268D01*
X124809326Y-98435133D02*
X118600001Y-92225808D01*
X126979733Y-100600000D02*
X130100000Y-100600000D01*
X124814866Y-98435133D02*
X124809326Y-98435133D01*
X124814866Y-98435133D02*
X126979733Y-100600000D01*
%TO.N,/Current Sensing/INA240 Current Sensor 3/OUT3*%
X131050000Y-99450000D02*
X132000000Y-98500000D01*
X118600001Y-75305000D02*
X118600001Y-69053602D01*
X119700621Y-75305000D02*
X118600001Y-75305000D01*
X121045000Y-78295000D02*
X121045000Y-76649379D01*
X132000000Y-89250000D02*
X121045000Y-78295000D01*
X132000000Y-98500000D02*
X132000000Y-89250000D01*
X121045000Y-76649379D02*
X119700621Y-75305000D01*
X131050000Y-101400000D02*
X131050000Y-99450000D01*
X130100000Y-102350000D02*
X131050000Y-101400000D01*
D32*
%TO.N,/Current Sensing/INA240 Current Sensor 4/OUT4*%
X167946398Y-136446398D02*
X150250000Y-118750000D01*
X152175000Y-101750000D02*
X152925000Y-101750000D01*
X181399999Y-136446398D02*
X167946398Y-136446398D01*
X150250000Y-103675000D02*
X152175000Y-101750000D01*
X150250000Y-118750000D02*
X150250000Y-103675000D01*
%TO.N,/Current Sensing/INA240 Current Sensor 5/OUT5*%
X162850491Y-113279729D02*
X156570762Y-107000000D01*
X156570762Y-107000000D02*
X152925000Y-107000000D01*
X181399999Y-113279729D02*
X162850491Y-113279729D01*
%TO.N,/Current Sensing/INA240 Current Sensor 6/OUT6*%
X181399999Y-90113063D02*
X179750000Y-91763062D01*
X168675000Y-104500000D02*
X167925000Y-105250000D01*
X171250000Y-102705097D02*
X169455097Y-104500000D01*
X171250000Y-101969239D02*
X171250000Y-102705097D01*
X169455097Y-104500000D02*
X168675000Y-104500000D01*
X179750000Y-93469239D02*
X171250000Y-101969239D01*
X179750000Y-91763062D02*
X179750000Y-93469239D01*
%TO.N,/Current Sensing/INA240 Current Sensor 7/OUT7*%
X167150000Y-80100000D02*
X167150000Y-102750000D01*
X167150000Y-102750000D02*
X167900000Y-103500000D01*
X181399999Y-66946397D02*
X180303603Y-66946397D01*
X180303603Y-66946397D02*
X167150000Y-80100000D01*
D33*
%TO.N,/Current Sensing/INA240 Current Sensor 0/OUT0*%
X119296399Y-139250000D02*
X118600001Y-138553602D01*
D32*
X147075000Y-104100000D02*
X147075000Y-104850000D01*
D33*
X138250000Y-128750000D02*
X127750000Y-139250000D01*
D32*
X147075000Y-104850000D02*
X138250000Y-113675000D01*
D33*
X138250000Y-113675000D02*
X138250000Y-128750000D01*
X127750000Y-139250000D02*
X119296399Y-139250000D01*
D32*
%TO.N,Net-(U12-AIN2)*%
X135025000Y-100625000D02*
X135000000Y-100600000D01*
X134350000Y-99950000D02*
X135000000Y-100600000D01*
X132400000Y-99950000D02*
X134350000Y-99950000D01*
X131750000Y-100600000D02*
X132400000Y-99950000D01*
%TO.N,Net-(U12-AIN3)*%
X135400000Y-102350000D02*
X135025000Y-102350000D01*
X132250000Y-103000000D02*
X134375000Y-103000000D01*
X137125000Y-100625000D02*
X135400000Y-102350000D01*
X131750000Y-102350000D02*
X131750000Y-102500000D01*
X131750000Y-102500000D02*
X132250000Y-103000000D01*
X138000000Y-100750000D02*
X137875000Y-100625000D01*
X134375000Y-103000000D02*
X135025000Y-102350000D01*
X137875000Y-100625000D02*
X137125000Y-100625000D01*
%TO.N,Net-(U13-AIN2)*%
X165700000Y-106250000D02*
X164700000Y-105250000D01*
X168575000Y-106250000D02*
X169575000Y-105250000D01*
X168575000Y-106250000D02*
X165700000Y-106250000D01*
%TO.N,Net-(U13-AIN3)*%
X168290000Y-104010000D02*
X169040000Y-104010000D01*
X168050000Y-104250000D02*
X165450000Y-104250000D01*
X165450000Y-104250000D02*
X164700000Y-103500000D01*
X168050000Y-104250000D02*
X168290000Y-104010000D01*
X169040000Y-104010000D02*
X169550000Y-103500000D01*
%TD*%
%TA.AperFunction,Conductor*%
%TO.N,+3.3V*%
G36*
X196002702Y-52250617D02*
G01*
X196386771Y-52267386D01*
X196397506Y-52268326D01*
X196775971Y-52318152D01*
X196786597Y-52320025D01*
X197159284Y-52402648D01*
X197169710Y-52405442D01*
X197533765Y-52520227D01*
X197543911Y-52523920D01*
X197896578Y-52670000D01*
X197906369Y-52674566D01*
X198244942Y-52850816D01*
X198254310Y-52856224D01*
X198576244Y-53061318D01*
X198585105Y-53067523D01*
X198887930Y-53299889D01*
X198896217Y-53306843D01*
X199177635Y-53564715D01*
X199185284Y-53572364D01*
X199443156Y-53853782D01*
X199450110Y-53862069D01*
X199682476Y-54164894D01*
X199688681Y-54173755D01*
X199893775Y-54495689D01*
X199899183Y-54505057D01*
X200075430Y-54843623D01*
X200080002Y-54853427D01*
X200226075Y-55206078D01*
X200229775Y-55216244D01*
X200344554Y-55580278D01*
X200347354Y-55590727D01*
X200429971Y-55963389D01*
X200431849Y-55974042D01*
X200481671Y-56352473D01*
X200482614Y-56363249D01*
X200499382Y-56747297D01*
X200499500Y-56752706D01*
X200499500Y-148747293D01*
X200499382Y-148752702D01*
X200482614Y-149136750D01*
X200481671Y-149147526D01*
X200431849Y-149525957D01*
X200429971Y-149536610D01*
X200347354Y-149909272D01*
X200344554Y-149919721D01*
X200229775Y-150283755D01*
X200226075Y-150293921D01*
X200080002Y-150646572D01*
X200075430Y-150656376D01*
X199899183Y-150994942D01*
X199893775Y-151004310D01*
X199688681Y-151326244D01*
X199682476Y-151335105D01*
X199450110Y-151637930D01*
X199443156Y-151646217D01*
X199185284Y-151927635D01*
X199177635Y-151935284D01*
X198896217Y-152193156D01*
X198887930Y-152200110D01*
X198585105Y-152432476D01*
X198576244Y-152438681D01*
X198254310Y-152643775D01*
X198244942Y-152649183D01*
X197906376Y-152825430D01*
X197896572Y-152830002D01*
X197543921Y-152976075D01*
X197533755Y-152979775D01*
X197169721Y-153094554D01*
X197159272Y-153097354D01*
X196786610Y-153179971D01*
X196775957Y-153181849D01*
X196397526Y-153231671D01*
X196386750Y-153232614D01*
X196002703Y-153249382D01*
X195997294Y-153249500D01*
X104002706Y-153249500D01*
X103997297Y-153249382D01*
X103613249Y-153232614D01*
X103602473Y-153231671D01*
X103224042Y-153181849D01*
X103213389Y-153179971D01*
X102840727Y-153097354D01*
X102830278Y-153094554D01*
X102466244Y-152979775D01*
X102456078Y-152976075D01*
X102103427Y-152830002D01*
X102093623Y-152825430D01*
X101755057Y-152649183D01*
X101745689Y-152643775D01*
X101423755Y-152438681D01*
X101414894Y-152432476D01*
X101112069Y-152200110D01*
X101103782Y-152193156D01*
X100822364Y-151935284D01*
X100814715Y-151927635D01*
X100556843Y-151646217D01*
X100549889Y-151637930D01*
X100317523Y-151335105D01*
X100311318Y-151326244D01*
X100108803Y-151008359D01*
X100106223Y-151004309D01*
X100100816Y-150994942D01*
X100094937Y-150983648D01*
X99924566Y-150656369D01*
X99919997Y-150646572D01*
X99773920Y-150293911D01*
X99770224Y-150283755D01*
X99655442Y-149919710D01*
X99652648Y-149909284D01*
X99570025Y-149536597D01*
X99568152Y-149525971D01*
X99518326Y-149147506D01*
X99517386Y-149136771D01*
X99500618Y-148752702D01*
X99500559Y-148750000D01*
X101844475Y-148750000D01*
X101864551Y-149043511D01*
X101864552Y-149043513D01*
X101924404Y-149331543D01*
X101924409Y-149331559D01*
X102022927Y-149608762D01*
X102158278Y-149869977D01*
X102158282Y-149869983D01*
X102327932Y-150110323D01*
X102327935Y-150110326D01*
X102524536Y-150320834D01*
X102528743Y-150325338D01*
X102656384Y-150429181D01*
X102756951Y-150510999D01*
X102756953Y-150511000D01*
X102756954Y-150511001D01*
X103008319Y-150663860D01*
X103008324Y-150663862D01*
X103209363Y-150751185D01*
X103278159Y-150781067D01*
X103561445Y-150860440D01*
X103817681Y-150895659D01*
X103852901Y-150900500D01*
X103852902Y-150900500D01*
X104147099Y-150900500D01*
X104178520Y-150896180D01*
X104438555Y-150860440D01*
X104721841Y-150781067D01*
X104991682Y-150663859D01*
X105243049Y-150510999D01*
X105471260Y-150325335D01*
X105541618Y-150250000D01*
X139715639Y-150250000D01*
X139735064Y-150571147D01*
X139735064Y-150571152D01*
X139735065Y-150571153D01*
X139793060Y-150887623D01*
X139793061Y-150887627D01*
X139793062Y-150887631D01*
X139888772Y-151194776D01*
X139888776Y-151194787D01*
X139888777Y-151194790D01*
X139888779Y-151194795D01*
X140020825Y-151488190D01*
X140116356Y-151646217D01*
X140187273Y-151763528D01*
X140187279Y-151763537D01*
X140385699Y-152016801D01*
X140613198Y-152244300D01*
X140857597Y-152435775D01*
X140866470Y-152442726D01*
X141141810Y-152609175D01*
X141435205Y-152741221D01*
X141435215Y-152741224D01*
X141435223Y-152741227D01*
X141639986Y-152805033D01*
X141742377Y-152836940D01*
X142058847Y-152894935D01*
X142380000Y-152914361D01*
X142701153Y-152894935D01*
X143017623Y-152836940D01*
X143324795Y-152741221D01*
X143618190Y-152609175D01*
X143893530Y-152442726D01*
X144146798Y-152244303D01*
X144374303Y-152016798D01*
X144572726Y-151763530D01*
X144659384Y-151620180D01*
X144710910Y-151572995D01*
X144779769Y-151561156D01*
X144844098Y-151588425D01*
X144853180Y-151596651D01*
X144944217Y-151687688D01*
X144944235Y-151687704D01*
X145161511Y-151850354D01*
X145161519Y-151850359D01*
X145399730Y-151980433D01*
X145399734Y-151980435D01*
X145399736Y-151980436D01*
X145654047Y-152075289D01*
X145654050Y-152075289D01*
X145654051Y-152075290D01*
X145919262Y-152132983D01*
X145919264Y-152132983D01*
X145919268Y-152132984D01*
X146159856Y-152150191D01*
X146189999Y-152152347D01*
X146190000Y-152152347D01*
X146190001Y-152152347D01*
X146217123Y-152150407D01*
X146460732Y-152132984D01*
X146725953Y-152075289D01*
X146980264Y-151980436D01*
X147218486Y-151850356D01*
X147435772Y-151687698D01*
X147627698Y-151495772D01*
X147790356Y-151278486D01*
X147916103Y-151048198D01*
X147965508Y-150998794D01*
X148033781Y-150983942D01*
X148099246Y-151008359D01*
X148136148Y-151055033D01*
X148136818Y-151054687D01*
X148138612Y-151058149D01*
X148138667Y-151058219D01*
X148138764Y-151058444D01*
X148138765Y-151058447D01*
X148138766Y-151058448D01*
X148266186Y-151304356D01*
X148425903Y-151530623D01*
X148614942Y-151733035D01*
X148829782Y-151907821D01*
X148829784Y-151907822D01*
X148829785Y-151907823D01*
X149066423Y-152051725D01*
X149239917Y-152127083D01*
X149320452Y-152162065D01*
X149587141Y-152236788D01*
X149828364Y-152269942D01*
X149861519Y-152274500D01*
X149861520Y-152274500D01*
X150138481Y-152274500D01*
X150168061Y-152270434D01*
X150412859Y-152236788D01*
X150679548Y-152162065D01*
X150933578Y-152051724D01*
X151170218Y-151907821D01*
X151385058Y-151733035D01*
X151574097Y-151530623D01*
X151733814Y-151304356D01*
X151861234Y-151058448D01*
X151861242Y-151058422D01*
X151861322Y-151058243D01*
X151861368Y-151058187D01*
X151863182Y-151054687D01*
X151863954Y-151055087D01*
X151906077Y-151004588D01*
X151972734Y-150983648D01*
X152040132Y-151002070D01*
X152083896Y-151048199D01*
X152209640Y-151278480D01*
X152209645Y-151278488D01*
X152372295Y-151495764D01*
X152372311Y-151495782D01*
X152564217Y-151687688D01*
X152564235Y-151687704D01*
X152781511Y-151850354D01*
X152781519Y-151850359D01*
X153019730Y-151980433D01*
X153019734Y-151980435D01*
X153019736Y-151980436D01*
X153274047Y-152075289D01*
X153274050Y-152075289D01*
X153274051Y-152075290D01*
X153539262Y-152132983D01*
X153539264Y-152132983D01*
X153539268Y-152132984D01*
X153779856Y-152150191D01*
X153809999Y-152152347D01*
X153810000Y-152152347D01*
X153810001Y-152152347D01*
X153837123Y-152150407D01*
X154080732Y-152132984D01*
X154345953Y-152075289D01*
X154600264Y-151980436D01*
X154838486Y-151850356D01*
X155055772Y-151687698D01*
X155146820Y-151596649D01*
X155208141Y-151563166D01*
X155277833Y-151568150D01*
X155333767Y-151610021D01*
X155340617Y-151620182D01*
X155427273Y-151763528D01*
X155427279Y-151763537D01*
X155625699Y-152016801D01*
X155853198Y-152244300D01*
X156097597Y-152435775D01*
X156106470Y-152442726D01*
X156381810Y-152609175D01*
X156675205Y-152741221D01*
X156675215Y-152741224D01*
X156675223Y-152741227D01*
X156879986Y-152805033D01*
X156982377Y-152836940D01*
X157298847Y-152894935D01*
X157620000Y-152914361D01*
X157941153Y-152894935D01*
X158257623Y-152836940D01*
X158564795Y-152741221D01*
X158858190Y-152609175D01*
X159133530Y-152442726D01*
X159386798Y-152244303D01*
X159614303Y-152016798D01*
X159812726Y-151763530D01*
X159979175Y-151488190D01*
X160111221Y-151194795D01*
X160206940Y-150887623D01*
X160264935Y-150571153D01*
X160284361Y-150250000D01*
X160264935Y-149928847D01*
X160206940Y-149612377D01*
X160147893Y-149422888D01*
X160111227Y-149305223D01*
X160111223Y-149305212D01*
X160111221Y-149305205D01*
X159979175Y-149011810D01*
X159972036Y-149000000D01*
X161344540Y-149000000D01*
X161364326Y-149188256D01*
X161364327Y-149188259D01*
X161422818Y-149368277D01*
X161422821Y-149368284D01*
X161517467Y-149532216D01*
X161623971Y-149650500D01*
X161644129Y-149672888D01*
X161797265Y-149784148D01*
X161797270Y-149784151D01*
X161970192Y-149861142D01*
X161970197Y-149861144D01*
X162155354Y-149900500D01*
X162155355Y-149900500D01*
X162344644Y-149900500D01*
X162344646Y-149900500D01*
X162529803Y-149861144D01*
X162702730Y-149784151D01*
X162855871Y-149672888D01*
X162982533Y-149532216D01*
X163077179Y-149368284D01*
X163135674Y-149188256D01*
X163155460Y-149000000D01*
X175219540Y-149000000D01*
X175239326Y-149188256D01*
X175239327Y-149188259D01*
X175297818Y-149368277D01*
X175297821Y-149368284D01*
X175392467Y-149532216D01*
X175498971Y-149650500D01*
X175519129Y-149672888D01*
X175672265Y-149784148D01*
X175672270Y-149784151D01*
X175845192Y-149861142D01*
X175845197Y-149861144D01*
X176030354Y-149900500D01*
X176030355Y-149900500D01*
X176219644Y-149900500D01*
X176219646Y-149900500D01*
X176404803Y-149861144D01*
X176577730Y-149784151D01*
X176730871Y-149672888D01*
X176857533Y-149532216D01*
X176952179Y-149368284D01*
X177010674Y-149188256D01*
X177030460Y-149000000D01*
X189094540Y-149000000D01*
X189114326Y-149188256D01*
X189114327Y-149188259D01*
X189172818Y-149368277D01*
X189172821Y-149368284D01*
X189267467Y-149532216D01*
X189373971Y-149650500D01*
X189394129Y-149672888D01*
X189547265Y-149784148D01*
X189547270Y-149784151D01*
X189720192Y-149861142D01*
X189720197Y-149861144D01*
X189905354Y-149900500D01*
X189905355Y-149900500D01*
X190094644Y-149900500D01*
X190094646Y-149900500D01*
X190279803Y-149861144D01*
X190452730Y-149784151D01*
X190605871Y-149672888D01*
X190732533Y-149532216D01*
X190827179Y-149368284D01*
X190885674Y-149188256D01*
X190905460Y-149000000D01*
X190885674Y-148811744D01*
X190865612Y-148750000D01*
X193844475Y-148750000D01*
X193864551Y-149043511D01*
X193864552Y-149043513D01*
X193924404Y-149331543D01*
X193924409Y-149331559D01*
X194022927Y-149608762D01*
X194158278Y-149869977D01*
X194158282Y-149869983D01*
X194327932Y-150110323D01*
X194327935Y-150110326D01*
X194524536Y-150320834D01*
X194528743Y-150325338D01*
X194656384Y-150429181D01*
X194756951Y-150510999D01*
X194756953Y-150511000D01*
X194756954Y-150511001D01*
X195008319Y-150663860D01*
X195008324Y-150663862D01*
X195209363Y-150751185D01*
X195278159Y-150781067D01*
X195561445Y-150860440D01*
X195817681Y-150895659D01*
X195852901Y-150900500D01*
X195852902Y-150900500D01*
X196147099Y-150900500D01*
X196178520Y-150896180D01*
X196438555Y-150860440D01*
X196721841Y-150781067D01*
X196991682Y-150663859D01*
X197243049Y-150510999D01*
X197471260Y-150325335D01*
X197672065Y-150110326D01*
X197841722Y-149869976D01*
X197977072Y-149608764D01*
X198075592Y-149331554D01*
X198075592Y-149331549D01*
X198075595Y-149331543D01*
X198119911Y-149118277D01*
X198135448Y-149043511D01*
X198155525Y-148750000D01*
X198135448Y-148456489D01*
X198112832Y-148347653D01*
X198075595Y-148168456D01*
X198075590Y-148168440D01*
X197977072Y-147891237D01*
X197977072Y-147891236D01*
X197841722Y-147630024D01*
X197841721Y-147630022D01*
X197841717Y-147630016D01*
X197672067Y-147389676D01*
X197471256Y-147174661D01*
X197243045Y-146988998D01*
X196991680Y-146836139D01*
X196991675Y-146836137D01*
X196721845Y-146718934D01*
X196438560Y-146639561D01*
X196438556Y-146639560D01*
X196438555Y-146639560D01*
X196292826Y-146619530D01*
X196147099Y-146599500D01*
X196147098Y-146599500D01*
X195852902Y-146599500D01*
X195852901Y-146599500D01*
X195561445Y-146639560D01*
X195561439Y-146639561D01*
X195278154Y-146718934D01*
X195008324Y-146836137D01*
X195008319Y-146836139D01*
X194756954Y-146988998D01*
X194528743Y-147174661D01*
X194327932Y-147389676D01*
X194158282Y-147630016D01*
X194158278Y-147630022D01*
X194022927Y-147891237D01*
X193924409Y-148168440D01*
X193924404Y-148168456D01*
X193864552Y-148456486D01*
X193864551Y-148456488D01*
X193844475Y-148750000D01*
X190865612Y-148750000D01*
X190827179Y-148631716D01*
X190732533Y-148467784D01*
X190605871Y-148327112D01*
X190605870Y-148327111D01*
X190452734Y-148215851D01*
X190452729Y-148215848D01*
X190279807Y-148138857D01*
X190279802Y-148138855D01*
X190134001Y-148107865D01*
X190094646Y-148099500D01*
X189905354Y-148099500D01*
X189872897Y-148106398D01*
X189720197Y-148138855D01*
X189720192Y-148138857D01*
X189547270Y-148215848D01*
X189547265Y-148215851D01*
X189394129Y-148327111D01*
X189267466Y-148467785D01*
X189172821Y-148631715D01*
X189172818Y-148631722D01*
X189114327Y-148811740D01*
X189114326Y-148811744D01*
X189094540Y-149000000D01*
X177030460Y-149000000D01*
X177010674Y-148811744D01*
X176952179Y-148631716D01*
X176857533Y-148467784D01*
X176730871Y-148327112D01*
X176730870Y-148327111D01*
X176577734Y-148215851D01*
X176577729Y-148215848D01*
X176404807Y-148138857D01*
X176404802Y-148138855D01*
X176259001Y-148107865D01*
X176219646Y-148099500D01*
X176030354Y-148099500D01*
X175997897Y-148106398D01*
X175845197Y-148138855D01*
X175845192Y-148138857D01*
X175672270Y-148215848D01*
X175672265Y-148215851D01*
X175519129Y-148327111D01*
X175392466Y-148467785D01*
X175297821Y-148631715D01*
X175297818Y-148631722D01*
X175239327Y-148811740D01*
X175239326Y-148811744D01*
X175219540Y-149000000D01*
X163155460Y-149000000D01*
X163135674Y-148811744D01*
X163077179Y-148631716D01*
X162982533Y-148467784D01*
X162855871Y-148327112D01*
X162855870Y-148327111D01*
X162702734Y-148215851D01*
X162702729Y-148215848D01*
X162529807Y-148138857D01*
X162529802Y-148138855D01*
X162384001Y-148107865D01*
X162344646Y-148099500D01*
X162155354Y-148099500D01*
X162122897Y-148106398D01*
X161970197Y-148138855D01*
X161970192Y-148138857D01*
X161797270Y-148215848D01*
X161797265Y-148215851D01*
X161644129Y-148327111D01*
X161517466Y-148467785D01*
X161422821Y-148631715D01*
X161422818Y-148631722D01*
X161364327Y-148811740D01*
X161364326Y-148811744D01*
X161344540Y-149000000D01*
X159972036Y-149000000D01*
X159812726Y-148736470D01*
X159730656Y-148631716D01*
X159614300Y-148483198D01*
X159386801Y-148255699D01*
X159133537Y-148057279D01*
X159133532Y-148057276D01*
X159133530Y-148057274D01*
X158858190Y-147890825D01*
X158564795Y-147758779D01*
X158564790Y-147758777D01*
X158564787Y-147758776D01*
X158564776Y-147758772D01*
X158257631Y-147663062D01*
X158257627Y-147663061D01*
X158257623Y-147663060D01*
X157941153Y-147605065D01*
X157941152Y-147605064D01*
X157941147Y-147605064D01*
X157620000Y-147585639D01*
X157298852Y-147605064D01*
X157298847Y-147605065D01*
X156982377Y-147663060D01*
X156982374Y-147663060D01*
X156982368Y-147663062D01*
X156675223Y-147758772D01*
X156675212Y-147758776D01*
X156386183Y-147888857D01*
X156381810Y-147890825D01*
X156286599Y-147948382D01*
X156106471Y-148057273D01*
X156106462Y-148057279D01*
X155853198Y-148255699D01*
X155625699Y-148483198D01*
X155427279Y-148736462D01*
X155427270Y-148736476D01*
X155340616Y-148879818D01*
X155289088Y-148927005D01*
X155220229Y-148938843D01*
X155155900Y-148911574D01*
X155146819Y-148903348D01*
X155055782Y-148812311D01*
X155055764Y-148812295D01*
X154838488Y-148649645D01*
X154838480Y-148649640D01*
X154600269Y-148519566D01*
X154600265Y-148519564D01*
X154345948Y-148424709D01*
X154080737Y-148367016D01*
X153810001Y-148347653D01*
X153809999Y-148347653D01*
X153539262Y-148367016D01*
X153274051Y-148424709D01*
X153019734Y-148519564D01*
X153019730Y-148519566D01*
X152781519Y-148649640D01*
X152781511Y-148649645D01*
X152564235Y-148812295D01*
X152564217Y-148812311D01*
X152372311Y-149004217D01*
X152372295Y-149004235D01*
X152209645Y-149221511D01*
X152209644Y-149221513D01*
X152083896Y-149451801D01*
X152034490Y-149501206D01*
X151966217Y-149516057D01*
X151900753Y-149491640D01*
X151863854Y-149444964D01*
X151863182Y-149445313D01*
X151861378Y-149441832D01*
X151861326Y-149441766D01*
X151861235Y-149441556D01*
X151861234Y-149441552D01*
X151733814Y-149195644D01*
X151574097Y-148969377D01*
X151385058Y-148766965D01*
X151170218Y-148592179D01*
X151170216Y-148592178D01*
X151170214Y-148592176D01*
X150933576Y-148448274D01*
X150679551Y-148337936D01*
X150679549Y-148337935D01*
X150679548Y-148337935D01*
X150603673Y-148316676D01*
X150412864Y-148263213D01*
X150412860Y-148263212D01*
X150412859Y-148263212D01*
X150275669Y-148244356D01*
X150138481Y-148225500D01*
X150138480Y-148225500D01*
X149861520Y-148225500D01*
X149861519Y-148225500D01*
X149587141Y-148263212D01*
X149587135Y-148263213D01*
X149320448Y-148337936D01*
X149066423Y-148448274D01*
X148829785Y-148592176D01*
X148614941Y-148766965D01*
X148425907Y-148969372D01*
X148425904Y-148969374D01*
X148425903Y-148969377D01*
X148395949Y-149011812D01*
X148266186Y-149195643D01*
X148138764Y-149441556D01*
X148138663Y-149441790D01*
X148138611Y-149441851D01*
X148136818Y-149445313D01*
X148136053Y-149444916D01*
X148093892Y-149495431D01*
X148027228Y-149516352D01*
X147959836Y-149497910D01*
X147916103Y-149451800D01*
X147790359Y-149221519D01*
X147790354Y-149221511D01*
X147627704Y-149004235D01*
X147627688Y-149004217D01*
X147435782Y-148812311D01*
X147435764Y-148812295D01*
X147218488Y-148649645D01*
X147218480Y-148649640D01*
X146980269Y-148519566D01*
X146980265Y-148519564D01*
X146725948Y-148424709D01*
X146460737Y-148367016D01*
X146190001Y-148347653D01*
X146189999Y-148347653D01*
X145919262Y-148367016D01*
X145654051Y-148424709D01*
X145399734Y-148519564D01*
X145399730Y-148519566D01*
X145161519Y-148649640D01*
X145161511Y-148649645D01*
X144944235Y-148812295D01*
X144944224Y-148812305D01*
X144853180Y-148903349D01*
X144791856Y-148936833D01*
X144722165Y-148931849D01*
X144666231Y-148889977D01*
X144659382Y-148879817D01*
X144572726Y-148736470D01*
X144490656Y-148631716D01*
X144374300Y-148483198D01*
X144146801Y-148255699D01*
X143893537Y-148057279D01*
X143893532Y-148057276D01*
X143893530Y-148057274D01*
X143618190Y-147890825D01*
X143324795Y-147758779D01*
X143324790Y-147758777D01*
X143324787Y-147758776D01*
X143324776Y-147758772D01*
X143017631Y-147663062D01*
X143017627Y-147663061D01*
X143017623Y-147663060D01*
X142701153Y-147605065D01*
X142701152Y-147605064D01*
X142701147Y-147605064D01*
X142380000Y-147585639D01*
X142058852Y-147605064D01*
X142058847Y-147605065D01*
X141742377Y-147663060D01*
X141742374Y-147663060D01*
X141742368Y-147663062D01*
X141435223Y-147758772D01*
X141435212Y-147758776D01*
X141146183Y-147888857D01*
X141141810Y-147890825D01*
X141046599Y-147948382D01*
X140866471Y-148057273D01*
X140866462Y-148057279D01*
X140613198Y-148255699D01*
X140385699Y-148483198D01*
X140187279Y-148736462D01*
X140187273Y-148736471D01*
X140141769Y-148811744D01*
X140025409Y-149004228D01*
X140020824Y-149011812D01*
X140020823Y-149011814D01*
X140006557Y-149043513D01*
X139899126Y-149282216D01*
X139888776Y-149305212D01*
X139888772Y-149305223D01*
X139793062Y-149612368D01*
X139793060Y-149612374D01*
X139793060Y-149612377D01*
X139748484Y-149855619D01*
X139735064Y-149928852D01*
X139715639Y-150250000D01*
X105541618Y-150250000D01*
X105672065Y-150110326D01*
X105841722Y-149869976D01*
X105977072Y-149608764D01*
X106075592Y-149331554D01*
X106075592Y-149331549D01*
X106075595Y-149331543D01*
X106119911Y-149118277D01*
X106135448Y-149043511D01*
X106155525Y-148750000D01*
X109094540Y-148750000D01*
X109114326Y-148938256D01*
X109114327Y-148938259D01*
X109172818Y-149118277D01*
X109172821Y-149118284D01*
X109267467Y-149282216D01*
X109394129Y-149422888D01*
X109547265Y-149534148D01*
X109547270Y-149534151D01*
X109720192Y-149611142D01*
X109720197Y-149611144D01*
X109905354Y-149650500D01*
X109905355Y-149650500D01*
X110094644Y-149650500D01*
X110094646Y-149650500D01*
X110279803Y-149611144D01*
X110452730Y-149534151D01*
X110605871Y-149422888D01*
X110732533Y-149282216D01*
X110827179Y-149118284D01*
X110885674Y-148938256D01*
X110905460Y-148750000D01*
X110885674Y-148561744D01*
X110827179Y-148381716D01*
X110732533Y-148217784D01*
X110605871Y-148077112D01*
X110605870Y-148077111D01*
X110452734Y-147965851D01*
X110452729Y-147965848D01*
X110279807Y-147888857D01*
X110279802Y-147888855D01*
X110134001Y-147857865D01*
X110094646Y-147849500D01*
X109905354Y-147849500D01*
X109872897Y-147856398D01*
X109720197Y-147888855D01*
X109720192Y-147888857D01*
X109547270Y-147965848D01*
X109547265Y-147965851D01*
X109394129Y-148077111D01*
X109267466Y-148217785D01*
X109172821Y-148381715D01*
X109172818Y-148381722D01*
X109114327Y-148561740D01*
X109114326Y-148561744D01*
X109094540Y-148750000D01*
X106155525Y-148750000D01*
X106135448Y-148456489D01*
X106112832Y-148347653D01*
X106075595Y-148168456D01*
X106075590Y-148168440D01*
X105977072Y-147891237D01*
X105977072Y-147891236D01*
X105841722Y-147630024D01*
X105841721Y-147630022D01*
X105841717Y-147630016D01*
X105672067Y-147389676D01*
X105471256Y-147174661D01*
X105243045Y-146988998D01*
X104991680Y-146836139D01*
X104991675Y-146836137D01*
X104721845Y-146718934D01*
X104438560Y-146639561D01*
X104438556Y-146639560D01*
X104438555Y-146639560D01*
X104292826Y-146619530D01*
X104147099Y-146599500D01*
X104147098Y-146599500D01*
X103852902Y-146599500D01*
X103852901Y-146599500D01*
X103561445Y-146639560D01*
X103561439Y-146639561D01*
X103278154Y-146718934D01*
X103008324Y-146836137D01*
X103008319Y-146836139D01*
X102756954Y-146988998D01*
X102528743Y-147174661D01*
X102327932Y-147389676D01*
X102158282Y-147630016D01*
X102158278Y-147630022D01*
X102022927Y-147891237D01*
X101924409Y-148168440D01*
X101924404Y-148168456D01*
X101864552Y-148456486D01*
X101864551Y-148456488D01*
X101844475Y-148750000D01*
X99500559Y-148750000D01*
X99500500Y-148747293D01*
X99500500Y-145742462D01*
X105852078Y-145742462D01*
X105871864Y-145930718D01*
X105871865Y-145930721D01*
X105930356Y-146110739D01*
X105930359Y-146110746D01*
X106025005Y-146274678D01*
X106151667Y-146415350D01*
X106304803Y-146526610D01*
X106304808Y-146526613D01*
X106477730Y-146603604D01*
X106477735Y-146603606D01*
X106662892Y-146642962D01*
X106662893Y-146642962D01*
X106852182Y-146642962D01*
X106852184Y-146642962D01*
X107037341Y-146603606D01*
X107210268Y-146526613D01*
X107363409Y-146415350D01*
X107490071Y-146274678D01*
X107584717Y-146110746D01*
X107643212Y-145930718D01*
X107662998Y-145742462D01*
X107643212Y-145554206D01*
X107584717Y-145374178D01*
X107490071Y-145210246D01*
X107363409Y-145069574D01*
X107363408Y-145069573D01*
X107267649Y-145000000D01*
X149094540Y-145000000D01*
X149114326Y-145188256D01*
X149114327Y-145188259D01*
X149172818Y-145368277D01*
X149172821Y-145368284D01*
X149267467Y-145532216D01*
X149394129Y-145672888D01*
X149547265Y-145784148D01*
X149547270Y-145784151D01*
X149720192Y-145861142D01*
X149720197Y-145861144D01*
X149905354Y-145900500D01*
X149905355Y-145900500D01*
X150094644Y-145900500D01*
X150094646Y-145900500D01*
X150279803Y-145861144D01*
X150452730Y-145784151D01*
X150510110Y-145742462D01*
X192337002Y-145742462D01*
X192356788Y-145930718D01*
X192356789Y-145930721D01*
X192415280Y-146110739D01*
X192415283Y-146110746D01*
X192509929Y-146274678D01*
X192636591Y-146415350D01*
X192789727Y-146526610D01*
X192789732Y-146526613D01*
X192962654Y-146603604D01*
X192962659Y-146603606D01*
X193147816Y-146642962D01*
X193147817Y-146642962D01*
X193337106Y-146642962D01*
X193337108Y-146642962D01*
X193522265Y-146603606D01*
X193695192Y-146526613D01*
X193848333Y-146415350D01*
X193974995Y-146274678D01*
X194069641Y-146110746D01*
X194128136Y-145930718D01*
X194147922Y-145742462D01*
X194128136Y-145554206D01*
X194069641Y-145374178D01*
X193974995Y-145210246D01*
X193848333Y-145069574D01*
X193848332Y-145069573D01*
X193695196Y-144958313D01*
X193695191Y-144958310D01*
X193522269Y-144881319D01*
X193522264Y-144881317D01*
X193376463Y-144850327D01*
X193337108Y-144841962D01*
X193147816Y-144841962D01*
X193115359Y-144848860D01*
X192962659Y-144881317D01*
X192962654Y-144881319D01*
X192789732Y-144958310D01*
X192789727Y-144958313D01*
X192636591Y-145069573D01*
X192509928Y-145210247D01*
X192415283Y-145374177D01*
X192415280Y-145374184D01*
X192363933Y-145532216D01*
X192356788Y-145554206D01*
X192337002Y-145742462D01*
X150510110Y-145742462D01*
X150605871Y-145672888D01*
X150732533Y-145532216D01*
X150827179Y-145368284D01*
X150885674Y-145188256D01*
X150905460Y-145000000D01*
X150885674Y-144811744D01*
X150827179Y-144631716D01*
X150732533Y-144467784D01*
X150605871Y-144327112D01*
X150605870Y-144327111D01*
X150452734Y-144215851D01*
X150452729Y-144215848D01*
X150279807Y-144138857D01*
X150279802Y-144138855D01*
X150134001Y-144107865D01*
X150094646Y-144099500D01*
X149905354Y-144099500D01*
X149872897Y-144106398D01*
X149720197Y-144138855D01*
X149720192Y-144138857D01*
X149547270Y-144215848D01*
X149547265Y-144215851D01*
X149394129Y-144327111D01*
X149267466Y-144467785D01*
X149172821Y-144631715D01*
X149172818Y-144631722D01*
X149114327Y-144811740D01*
X149114326Y-144811744D01*
X149094540Y-145000000D01*
X107267649Y-145000000D01*
X107210272Y-144958313D01*
X107210267Y-144958310D01*
X107037345Y-144881319D01*
X107037340Y-144881317D01*
X106891539Y-144850327D01*
X106852184Y-144841962D01*
X106662892Y-144841962D01*
X106630435Y-144848860D01*
X106477735Y-144881317D01*
X106477730Y-144881319D01*
X106304808Y-144958310D01*
X106304803Y-144958313D01*
X106151667Y-145069573D01*
X106025004Y-145210247D01*
X105930359Y-145374177D01*
X105930356Y-145374184D01*
X105879009Y-145532216D01*
X105871864Y-145554206D01*
X105852078Y-145742462D01*
X99500500Y-145742462D01*
X99500500Y-143749996D01*
X153444435Y-143749996D01*
X153444435Y-143750003D01*
X153464630Y-143929249D01*
X153464631Y-143929254D01*
X153524211Y-144099523D01*
X153597304Y-144215849D01*
X153620184Y-144252262D01*
X153747738Y-144379816D01*
X153838080Y-144436582D01*
X153887739Y-144467785D01*
X153900478Y-144475789D01*
X154070745Y-144535368D01*
X154070750Y-144535369D01*
X154249996Y-144555565D01*
X154250000Y-144555565D01*
X154250004Y-144555565D01*
X154429249Y-144535369D01*
X154429252Y-144535368D01*
X154429255Y-144535368D01*
X154599522Y-144475789D01*
X154752262Y-144379816D01*
X154879816Y-144252262D01*
X154975789Y-144099522D01*
X155035368Y-143929255D01*
X155055565Y-143750000D01*
X155055565Y-143749996D01*
X162194435Y-143749996D01*
X162194435Y-143750003D01*
X162214630Y-143929249D01*
X162214631Y-143929254D01*
X162274211Y-144099523D01*
X162347304Y-144215849D01*
X162370184Y-144252262D01*
X162497738Y-144379816D01*
X162588080Y-144436582D01*
X162637739Y-144467785D01*
X162650478Y-144475789D01*
X162820745Y-144535368D01*
X162820750Y-144535369D01*
X162999996Y-144555565D01*
X163000000Y-144555565D01*
X163000004Y-144555565D01*
X163179249Y-144535369D01*
X163179252Y-144535368D01*
X163179255Y-144535368D01*
X163349522Y-144475789D01*
X163502262Y-144379816D01*
X163629816Y-144252262D01*
X163725789Y-144099522D01*
X163785368Y-143929255D01*
X163805565Y-143750000D01*
X163805565Y-143749996D01*
X169694435Y-143749996D01*
X169694435Y-143750003D01*
X169714630Y-143929249D01*
X169714631Y-143929254D01*
X169774211Y-144099523D01*
X169847304Y-144215849D01*
X169870184Y-144252262D01*
X169997738Y-144379816D01*
X170088080Y-144436582D01*
X170137739Y-144467785D01*
X170150478Y-144475789D01*
X170320745Y-144535368D01*
X170320750Y-144535369D01*
X170499996Y-144555565D01*
X170500000Y-144555565D01*
X170500004Y-144555565D01*
X170679249Y-144535369D01*
X170679252Y-144535368D01*
X170679255Y-144535368D01*
X170849522Y-144475789D01*
X171002262Y-144379816D01*
X171129816Y-144252262D01*
X171225789Y-144099522D01*
X171285368Y-143929255D01*
X171305565Y-143750000D01*
X171294354Y-143650500D01*
X171285369Y-143570750D01*
X171285368Y-143570745D01*
X171272562Y-143534148D01*
X171225789Y-143400478D01*
X171129816Y-143247738D01*
X171002262Y-143120184D01*
X170999227Y-143118277D01*
X170849523Y-143024211D01*
X170679254Y-142964631D01*
X170679249Y-142964630D01*
X170500004Y-142944435D01*
X170499996Y-142944435D01*
X170320750Y-142964630D01*
X170320745Y-142964631D01*
X170150476Y-143024211D01*
X169997737Y-143120184D01*
X169870184Y-143247737D01*
X169774211Y-143400476D01*
X169714631Y-143570745D01*
X169714630Y-143570750D01*
X169694435Y-143749996D01*
X163805565Y-143749996D01*
X163794354Y-143650500D01*
X163785369Y-143570750D01*
X163785368Y-143570745D01*
X163772562Y-143534148D01*
X163725789Y-143400478D01*
X163629816Y-143247738D01*
X163502262Y-143120184D01*
X163499227Y-143118277D01*
X163349523Y-143024211D01*
X163179254Y-142964631D01*
X163179249Y-142964630D01*
X163000004Y-142944435D01*
X162999996Y-142944435D01*
X162820750Y-142964630D01*
X162820745Y-142964631D01*
X162650476Y-143024211D01*
X162497737Y-143120184D01*
X162370184Y-143247737D01*
X162274211Y-143400476D01*
X162214631Y-143570745D01*
X162214630Y-143570750D01*
X162194435Y-143749996D01*
X155055565Y-143749996D01*
X155044354Y-143650500D01*
X155035369Y-143570750D01*
X155035368Y-143570745D01*
X155022562Y-143534148D01*
X154975789Y-143400478D01*
X154879816Y-143247738D01*
X154752262Y-143120184D01*
X154749227Y-143118277D01*
X154599523Y-143024211D01*
X154429254Y-142964631D01*
X154429249Y-142964630D01*
X154250004Y-142944435D01*
X154249996Y-142944435D01*
X154070750Y-142964630D01*
X154070745Y-142964631D01*
X153900476Y-143024211D01*
X153747737Y-143120184D01*
X153620184Y-143247737D01*
X153524211Y-143400476D01*
X153464631Y-143570745D01*
X153464630Y-143570750D01*
X153444435Y-143749996D01*
X99500500Y-143749996D01*
X99500500Y-142750000D01*
X103094540Y-142750000D01*
X103114326Y-142938256D01*
X103114327Y-142938259D01*
X103172818Y-143118277D01*
X103172821Y-143118284D01*
X103267467Y-143282216D01*
X103373949Y-143400476D01*
X103394129Y-143422888D01*
X103547265Y-143534148D01*
X103547270Y-143534151D01*
X103720192Y-143611142D01*
X103720197Y-143611144D01*
X103905354Y-143650500D01*
X103905355Y-143650500D01*
X104094644Y-143650500D01*
X104094646Y-143650500D01*
X104279803Y-143611144D01*
X104452730Y-143534151D01*
X104605871Y-143422888D01*
X104732533Y-143282216D01*
X104827179Y-143118284D01*
X104885674Y-142938256D01*
X104905460Y-142750000D01*
X195094540Y-142750000D01*
X195114326Y-142938256D01*
X195114327Y-142938259D01*
X195172818Y-143118277D01*
X195172821Y-143118284D01*
X195267467Y-143282216D01*
X195373949Y-143400476D01*
X195394129Y-143422888D01*
X195547265Y-143534148D01*
X195547270Y-143534151D01*
X195720192Y-143611142D01*
X195720197Y-143611144D01*
X195905354Y-143650500D01*
X195905355Y-143650500D01*
X196094644Y-143650500D01*
X196094646Y-143650500D01*
X196279803Y-143611144D01*
X196452730Y-143534151D01*
X196605871Y-143422888D01*
X196732533Y-143282216D01*
X196827179Y-143118284D01*
X196885674Y-142938256D01*
X196905460Y-142750000D01*
X196885674Y-142561744D01*
X196827179Y-142381716D01*
X196732533Y-142217784D01*
X196605871Y-142077112D01*
X196605870Y-142077111D01*
X196452734Y-141965851D01*
X196452729Y-141965848D01*
X196279807Y-141888857D01*
X196279802Y-141888855D01*
X196134001Y-141857865D01*
X196094646Y-141849500D01*
X195905354Y-141849500D01*
X195872897Y-141856398D01*
X195720197Y-141888855D01*
X195720192Y-141888857D01*
X195547270Y-141965848D01*
X195547265Y-141965851D01*
X195394129Y-142077111D01*
X195267466Y-142217785D01*
X195172821Y-142381715D01*
X195172818Y-142381722D01*
X195117979Y-142550500D01*
X195114326Y-142561744D01*
X195094540Y-142750000D01*
X104905460Y-142750000D01*
X104885674Y-142561744D01*
X104827179Y-142381716D01*
X104732533Y-142217784D01*
X104605871Y-142077112D01*
X104605870Y-142077111D01*
X104452734Y-141965851D01*
X104452729Y-141965848D01*
X104279807Y-141888857D01*
X104279802Y-141888855D01*
X104134001Y-141857865D01*
X104094646Y-141849500D01*
X103905354Y-141849500D01*
X103872897Y-141856398D01*
X103720197Y-141888855D01*
X103720192Y-141888857D01*
X103547270Y-141965848D01*
X103547265Y-141965851D01*
X103394129Y-142077111D01*
X103267466Y-142217785D01*
X103172821Y-142381715D01*
X103172818Y-142381722D01*
X103117979Y-142550500D01*
X103114326Y-142561744D01*
X103094540Y-142750000D01*
X99500500Y-142750000D01*
X99500500Y-140250000D01*
X136094540Y-140250000D01*
X136114326Y-140438256D01*
X136114327Y-140438259D01*
X136172818Y-140618277D01*
X136172821Y-140618284D01*
X136267467Y-140782216D01*
X136394129Y-140922888D01*
X136547265Y-141034148D01*
X136547270Y-141034151D01*
X136720192Y-141111142D01*
X136720197Y-141111144D01*
X136905354Y-141150500D01*
X136905355Y-141150500D01*
X137094644Y-141150500D01*
X137094646Y-141150500D01*
X137279803Y-141111144D01*
X137452730Y-141034151D01*
X137605871Y-140922888D01*
X137732533Y-140782216D01*
X137827179Y-140618284D01*
X137885674Y-140438256D01*
X137905460Y-140250000D01*
X137885674Y-140061744D01*
X137827179Y-139881716D01*
X137732533Y-139717784D01*
X137605871Y-139577112D01*
X137605870Y-139577111D01*
X137452734Y-139465851D01*
X137452729Y-139465848D01*
X137279807Y-139388857D01*
X137279802Y-139388855D01*
X137134001Y-139357865D01*
X137094646Y-139349500D01*
X136905354Y-139349500D01*
X136872897Y-139356398D01*
X136720197Y-139388855D01*
X136720192Y-139388857D01*
X136547270Y-139465848D01*
X136547265Y-139465851D01*
X136394129Y-139577111D01*
X136267466Y-139717785D01*
X136172821Y-139881715D01*
X136172818Y-139881722D01*
X136134386Y-140000005D01*
X136114326Y-140061744D01*
X136094540Y-140250000D01*
X99500500Y-140250000D01*
X99500500Y-125812135D01*
X105041500Y-125812135D01*
X105041500Y-130987870D01*
X105041501Y-130987876D01*
X105047908Y-131047483D01*
X105098202Y-131182328D01*
X105098206Y-131182335D01*
X105184452Y-131297544D01*
X105184455Y-131297547D01*
X105299664Y-131383793D01*
X105299671Y-131383797D01*
X105434517Y-131434091D01*
X105434516Y-131434091D01*
X105441444Y-131434835D01*
X105494127Y-131440500D01*
X109145872Y-131440499D01*
X109205483Y-131434091D01*
X109340331Y-131383796D01*
X109455546Y-131297546D01*
X109541796Y-131182331D01*
X109592091Y-131047483D01*
X109598500Y-130987873D01*
X109598500Y-130929499D01*
X109618185Y-130862460D01*
X109670989Y-130816705D01*
X109722500Y-130805499D01*
X111648500Y-130805499D01*
X111715539Y-130825184D01*
X111761294Y-130877988D01*
X111772500Y-130929499D01*
X111772500Y-131386891D01*
X111806608Y-131514187D01*
X111839554Y-131571250D01*
X111872500Y-131628314D01*
X111965686Y-131721500D01*
X112079814Y-131787392D01*
X112207108Y-131821500D01*
X117376000Y-131821500D01*
X117443039Y-131841185D01*
X117488794Y-131893989D01*
X117500000Y-131945500D01*
X117500000Y-139000000D01*
X117499999Y-139000000D01*
X117501995Y-139000007D01*
X117867907Y-139001403D01*
X117934869Y-139021343D01*
X117964553Y-139051445D01*
X117965842Y-139050418D01*
X117970185Y-139055864D01*
X118097739Y-139183418D01*
X118155149Y-139219491D01*
X118240285Y-139272986D01*
X118250479Y-139279391D01*
X118344873Y-139312421D01*
X118353987Y-139315610D01*
X118400713Y-139344971D01*
X118752285Y-139696542D01*
X118849854Y-139794111D01*
X118849858Y-139794115D01*
X118964581Y-139870771D01*
X118964585Y-139870773D01*
X118964588Y-139870775D01*
X119039265Y-139901707D01*
X119039266Y-139901707D01*
X119039268Y-139901709D01*
X119092065Y-139923578D01*
X119092070Y-139923580D01*
X119092079Y-139923581D01*
X119092080Y-139923582D01*
X119118944Y-139928925D01*
X119118950Y-139928926D01*
X119118990Y-139928934D01*
X119209336Y-139946905D01*
X119227405Y-139950500D01*
X119227406Y-139950500D01*
X127818996Y-139950500D01*
X127927457Y-139928925D01*
X127954328Y-139923580D01*
X128055397Y-139881716D01*
X128081807Y-139870777D01*
X128081808Y-139870776D01*
X128081811Y-139870775D01*
X128196543Y-139794114D01*
X128910452Y-139080203D01*
X128971773Y-139046720D01*
X128998603Y-139043887D01*
X143225974Y-139098190D01*
X143292937Y-139118130D01*
X143338490Y-139171108D01*
X143349500Y-139222189D01*
X143349500Y-141947870D01*
X143349501Y-141947876D01*
X143355908Y-142007483D01*
X143406202Y-142142328D01*
X143406206Y-142142335D01*
X143492452Y-142257544D01*
X143492455Y-142257547D01*
X143607664Y-142343793D01*
X143607671Y-142343797D01*
X143742517Y-142394091D01*
X143742516Y-142394091D01*
X143749444Y-142394835D01*
X143802127Y-142400500D01*
X147697872Y-142400499D01*
X147757483Y-142394091D01*
X147892331Y-142343796D01*
X148007546Y-142257546D01*
X148093796Y-142142331D01*
X148144091Y-142007483D01*
X148150500Y-141947873D01*
X148150499Y-139241459D01*
X148170184Y-139174421D01*
X148222987Y-139128666D01*
X148274971Y-139117461D01*
X151680577Y-139130460D01*
X151747541Y-139150400D01*
X151793094Y-139203378D01*
X151802774Y-139272574D01*
X151798035Y-139292776D01*
X151774746Y-139364454D01*
X151774746Y-139364455D01*
X151774744Y-139364462D01*
X151743135Y-139530158D01*
X151714607Y-139679709D01*
X151714606Y-139679716D01*
X151694457Y-139999994D01*
X151694457Y-140000005D01*
X151714606Y-140320283D01*
X151714607Y-140320290D01*
X151714608Y-140320294D01*
X151762359Y-140570616D01*
X151774745Y-140635542D01*
X151873916Y-140940759D01*
X151873918Y-140940764D01*
X152010558Y-141231138D01*
X152010562Y-141231144D01*
X152182520Y-141502108D01*
X152182522Y-141502111D01*
X152365292Y-141723042D01*
X152387089Y-141749390D01*
X152617598Y-141965851D01*
X152621034Y-141969078D01*
X152621044Y-141969086D01*
X152880660Y-142157708D01*
X152880666Y-142157711D01*
X152880672Y-142157716D01*
X153161903Y-142312324D01*
X153460294Y-142430466D01*
X153460293Y-142430466D01*
X153771135Y-142510276D01*
X153771139Y-142510277D01*
X153837935Y-142518715D01*
X154089524Y-142550499D01*
X154089533Y-142550499D01*
X154089536Y-142550500D01*
X154089538Y-142550500D01*
X154410462Y-142550500D01*
X154410464Y-142550500D01*
X154410467Y-142550499D01*
X154410475Y-142550499D01*
X154600463Y-142526497D01*
X154728861Y-142510277D01*
X155039706Y-142430466D01*
X155338097Y-142312324D01*
X155619328Y-142157716D01*
X155878964Y-141969080D01*
X156112911Y-141749390D01*
X156317478Y-141502110D01*
X156489439Y-141231142D01*
X156626084Y-140940758D01*
X156725256Y-140635538D01*
X156785392Y-140320294D01*
X156785930Y-140311740D01*
X156785952Y-140311398D01*
X162194435Y-140311398D01*
X162194435Y-140311405D01*
X162214630Y-140490651D01*
X162214631Y-140490656D01*
X162274211Y-140660925D01*
X162297739Y-140698369D01*
X162370184Y-140813664D01*
X162497738Y-140941218D01*
X162569772Y-140986480D01*
X162645639Y-141034151D01*
X162650478Y-141037191D01*
X162820745Y-141096770D01*
X162820750Y-141096771D01*
X162999996Y-141116967D01*
X163000000Y-141116967D01*
X163000004Y-141116967D01*
X163179249Y-141096771D01*
X163179252Y-141096770D01*
X163179255Y-141096770D01*
X163349522Y-141037191D01*
X163502262Y-140941218D01*
X163629816Y-140813664D01*
X163725789Y-140660924D01*
X163785368Y-140490657D01*
X163785369Y-140490651D01*
X163805565Y-140311405D01*
X163805565Y-140311398D01*
X163785369Y-140132152D01*
X163785368Y-140132147D01*
X163760733Y-140061744D01*
X163725789Y-139961880D01*
X163718638Y-139950500D01*
X163675422Y-139881722D01*
X163629816Y-139809140D01*
X163502262Y-139681586D01*
X163499270Y-139679706D01*
X163349523Y-139585613D01*
X163179254Y-139526033D01*
X163179249Y-139526032D01*
X163000004Y-139505837D01*
X162999996Y-139505837D01*
X162820750Y-139526032D01*
X162820745Y-139526033D01*
X162650476Y-139585613D01*
X162497737Y-139681586D01*
X162370184Y-139809139D01*
X162274211Y-139961878D01*
X162214631Y-140132147D01*
X162214630Y-140132152D01*
X162194435Y-140311398D01*
X156785952Y-140311398D01*
X156805543Y-140000005D01*
X156805543Y-139999994D01*
X156785393Y-139679716D01*
X156785392Y-139679709D01*
X156785392Y-139679706D01*
X156725256Y-139364462D01*
X156708345Y-139312418D01*
X156706349Y-139242580D01*
X156742429Y-139182747D01*
X156805129Y-139151917D01*
X156826748Y-139150102D01*
X169782483Y-139199551D01*
X169849446Y-139219491D01*
X169894999Y-139272469D01*
X169904679Y-139341665D01*
X169875411Y-139405110D01*
X169870375Y-139410498D01*
X169870184Y-139410737D01*
X169774211Y-139563476D01*
X169714631Y-139733745D01*
X169714630Y-139733750D01*
X169694435Y-139912996D01*
X169694435Y-139913003D01*
X169714630Y-140092249D01*
X169714631Y-140092254D01*
X169774211Y-140262523D01*
X169870184Y-140415262D01*
X169997738Y-140542816D01*
X170088080Y-140599582D01*
X170117844Y-140618284D01*
X170150478Y-140638789D01*
X170291847Y-140688256D01*
X170320745Y-140698368D01*
X170320750Y-140698369D01*
X170499996Y-140718565D01*
X170500000Y-140718565D01*
X170500004Y-140718565D01*
X170679249Y-140698369D01*
X170679252Y-140698368D01*
X170679255Y-140698368D01*
X170849522Y-140638789D01*
X171002262Y-140542816D01*
X171045078Y-140500000D01*
X176699540Y-140500000D01*
X176719326Y-140688256D01*
X176719327Y-140688259D01*
X176777818Y-140868277D01*
X176777821Y-140868284D01*
X176872467Y-141032216D01*
X176978971Y-141150500D01*
X176999129Y-141172888D01*
X177152265Y-141284148D01*
X177152270Y-141284151D01*
X177325192Y-141361142D01*
X177325197Y-141361144D01*
X177510354Y-141400500D01*
X177510355Y-141400500D01*
X177699644Y-141400500D01*
X177699646Y-141400500D01*
X177884803Y-141361144D01*
X177899130Y-141354765D01*
X187949305Y-141354765D01*
X187969091Y-141543021D01*
X187969092Y-141543024D01*
X188027583Y-141723042D01*
X188027586Y-141723049D01*
X188122232Y-141886981D01*
X188196160Y-141969086D01*
X188248894Y-142027653D01*
X188402030Y-142138913D01*
X188402035Y-142138916D01*
X188574957Y-142215907D01*
X188574962Y-142215909D01*
X188760119Y-142255265D01*
X188760120Y-142255265D01*
X188949409Y-142255265D01*
X188949411Y-142255265D01*
X189134568Y-142215909D01*
X189307495Y-142138916D01*
X189460636Y-142027653D01*
X189587298Y-141886981D01*
X189681944Y-141723049D01*
X189740439Y-141543021D01*
X189760225Y-141354765D01*
X189740439Y-141166509D01*
X189681944Y-140986481D01*
X189587298Y-140822549D01*
X189460636Y-140681877D01*
X189431797Y-140660924D01*
X189307499Y-140570616D01*
X189307494Y-140570613D01*
X189134572Y-140493622D01*
X189134567Y-140493620D01*
X188988766Y-140462630D01*
X188949411Y-140454265D01*
X188760119Y-140454265D01*
X188727662Y-140461163D01*
X188574962Y-140493620D01*
X188574957Y-140493622D01*
X188402035Y-140570613D01*
X188402030Y-140570616D01*
X188248894Y-140681876D01*
X188122231Y-140822550D01*
X188027586Y-140986480D01*
X188027583Y-140986487D01*
X187969092Y-141166505D01*
X187969091Y-141166509D01*
X187949305Y-141354765D01*
X177899130Y-141354765D01*
X178057730Y-141284151D01*
X178210871Y-141172888D01*
X178337533Y-141032216D01*
X178432179Y-140868284D01*
X178490674Y-140688256D01*
X178510460Y-140500000D01*
X178490674Y-140311744D01*
X178432179Y-140131716D01*
X178337533Y-139967784D01*
X178210871Y-139827112D01*
X178186135Y-139809140D01*
X178057734Y-139715851D01*
X178057729Y-139715848D01*
X177884807Y-139638857D01*
X177884802Y-139638855D01*
X177739001Y-139607865D01*
X177699646Y-139599500D01*
X177510354Y-139599500D01*
X177477897Y-139606398D01*
X177325197Y-139638855D01*
X177325192Y-139638857D01*
X177152270Y-139715848D01*
X177152265Y-139715851D01*
X176999129Y-139827111D01*
X176872466Y-139967785D01*
X176777821Y-140131715D01*
X176777818Y-140131722D01*
X176719438Y-140311398D01*
X176719326Y-140311744D01*
X176699540Y-140500000D01*
X171045078Y-140500000D01*
X171129816Y-140415262D01*
X171225789Y-140262522D01*
X171285368Y-140092255D01*
X171288806Y-140061744D01*
X171305565Y-139913003D01*
X171305565Y-139912996D01*
X171285369Y-139733750D01*
X171285368Y-139733745D01*
X171252165Y-139638856D01*
X171225789Y-139563478D01*
X171129816Y-139410738D01*
X171129814Y-139410736D01*
X171126330Y-139406367D01*
X171099919Y-139341682D01*
X171112672Y-139272986D01*
X171160541Y-139222090D01*
X171223746Y-139205052D01*
X182112665Y-139246613D01*
X182999999Y-139250000D01*
X183000000Y-139250000D01*
X183000000Y-131945500D01*
X183019685Y-131878461D01*
X183072489Y-131832706D01*
X183124000Y-131821500D01*
X187792890Y-131821500D01*
X187792892Y-131821500D01*
X187920186Y-131787392D01*
X188034314Y-131721500D01*
X188127500Y-131628314D01*
X188193392Y-131514186D01*
X188227500Y-131386892D01*
X188227500Y-130929499D01*
X188247185Y-130862460D01*
X188299989Y-130816705D01*
X188351495Y-130805499D01*
X190277500Y-130805499D01*
X190344539Y-130825184D01*
X190390294Y-130877988D01*
X190401500Y-130929497D01*
X190401500Y-130987869D01*
X190401501Y-130987876D01*
X190407908Y-131047483D01*
X190458202Y-131182328D01*
X190458206Y-131182335D01*
X190544452Y-131297544D01*
X190544455Y-131297547D01*
X190659664Y-131383793D01*
X190659671Y-131383797D01*
X190794517Y-131434091D01*
X190794516Y-131434091D01*
X190801444Y-131434835D01*
X190854127Y-131440500D01*
X194505872Y-131440499D01*
X194565483Y-131434091D01*
X194700331Y-131383796D01*
X194815546Y-131297546D01*
X194901796Y-131182331D01*
X194952091Y-131047483D01*
X194958500Y-130987873D01*
X194958499Y-127209840D01*
X194978184Y-127142802D01*
X195030988Y-127097047D01*
X195100146Y-127087103D01*
X195163702Y-127116128D01*
X195189885Y-127147839D01*
X195267467Y-127282216D01*
X195394129Y-127422888D01*
X195547265Y-127534148D01*
X195547270Y-127534151D01*
X195720192Y-127611142D01*
X195720197Y-127611144D01*
X195905354Y-127650500D01*
X195905355Y-127650500D01*
X196094644Y-127650500D01*
X196094646Y-127650500D01*
X196279803Y-127611144D01*
X196452730Y-127534151D01*
X196605871Y-127422888D01*
X196732533Y-127282216D01*
X196827179Y-127118284D01*
X196885674Y-126938256D01*
X196905460Y-126750000D01*
X196885674Y-126561744D01*
X196827179Y-126381716D01*
X196732533Y-126217784D01*
X196605871Y-126077112D01*
X196605870Y-126077111D01*
X196452734Y-125965851D01*
X196452729Y-125965848D01*
X196279807Y-125888857D01*
X196279802Y-125888855D01*
X196134001Y-125857865D01*
X196094646Y-125849500D01*
X195905354Y-125849500D01*
X195872897Y-125856398D01*
X195720197Y-125888855D01*
X195720192Y-125888857D01*
X195547270Y-125965848D01*
X195547265Y-125965851D01*
X195394129Y-126077111D01*
X195267465Y-126217785D01*
X195189886Y-126352158D01*
X195139319Y-126400374D01*
X195070712Y-126413597D01*
X195005847Y-126387629D01*
X194965319Y-126330715D01*
X194958499Y-126290158D01*
X194958499Y-125812129D01*
X194958498Y-125812123D01*
X194958497Y-125812116D01*
X194952091Y-125752517D01*
X194901796Y-125617669D01*
X194901795Y-125617668D01*
X194901793Y-125617664D01*
X194815547Y-125502455D01*
X194815544Y-125502452D01*
X194700335Y-125416206D01*
X194700328Y-125416202D01*
X194565482Y-125365908D01*
X194565483Y-125365908D01*
X194505883Y-125359501D01*
X194505881Y-125359500D01*
X194505873Y-125359500D01*
X194505865Y-125359500D01*
X191272499Y-125359500D01*
X191205460Y-125339815D01*
X191159705Y-125287011D01*
X191148499Y-125235500D01*
X191148499Y-125177129D01*
X191148498Y-125177123D01*
X191148497Y-125177116D01*
X191142091Y-125117517D01*
X191091796Y-124982669D01*
X191091795Y-124982668D01*
X191091793Y-124982664D01*
X191005547Y-124867455D01*
X191005544Y-124867452D01*
X190890335Y-124781206D01*
X190890328Y-124781202D01*
X190755482Y-124730908D01*
X190755483Y-124730908D01*
X190695883Y-124724501D01*
X190695881Y-124724500D01*
X190695873Y-124724500D01*
X190695864Y-124724500D01*
X187044129Y-124724500D01*
X187044123Y-124724501D01*
X186984516Y-124730908D01*
X186849671Y-124781202D01*
X186849664Y-124781206D01*
X186734455Y-124867452D01*
X186734452Y-124867455D01*
X186648206Y-124982664D01*
X186648202Y-124982671D01*
X186597908Y-125117517D01*
X186591501Y-125177116D01*
X186591501Y-125177123D01*
X186591500Y-125177135D01*
X186591500Y-129101370D01*
X186602060Y-129185449D01*
X186657136Y-129318415D01*
X186657137Y-129318416D01*
X186709121Y-129385335D01*
X186709127Y-129385341D01*
X187170604Y-129846819D01*
X187204089Y-129908142D01*
X187199105Y-129977834D01*
X187157233Y-130033767D01*
X187091769Y-130058184D01*
X187082923Y-130058500D01*
X183124000Y-130058500D01*
X183056961Y-130038815D01*
X183011206Y-129986011D01*
X183000000Y-129934500D01*
X183000000Y-110002135D01*
X188099500Y-110002135D01*
X188099500Y-110997870D01*
X188099501Y-110997876D01*
X188105908Y-111057483D01*
X188156202Y-111192328D01*
X188156206Y-111192335D01*
X188242452Y-111307544D01*
X188242455Y-111307547D01*
X188357664Y-111393793D01*
X188357671Y-111393797D01*
X188492517Y-111444091D01*
X188492516Y-111444091D01*
X188499444Y-111444835D01*
X188552127Y-111450500D01*
X190647872Y-111450499D01*
X190707483Y-111444091D01*
X190842331Y-111393796D01*
X190957546Y-111307546D01*
X191043796Y-111192331D01*
X191094091Y-111057483D01*
X191100500Y-110997873D01*
X191100500Y-110750000D01*
X195094540Y-110750000D01*
X195114326Y-110938256D01*
X195114327Y-110938259D01*
X195172818Y-111118277D01*
X195172821Y-111118284D01*
X195267467Y-111282216D01*
X195367935Y-111393797D01*
X195394129Y-111422888D01*
X195547265Y-111534148D01*
X195547270Y-111534151D01*
X195720192Y-111611142D01*
X195720197Y-111611144D01*
X195905354Y-111650500D01*
X195905355Y-111650500D01*
X196094644Y-111650500D01*
X196094646Y-111650500D01*
X196279803Y-111611144D01*
X196452730Y-111534151D01*
X196605871Y-111422888D01*
X196732533Y-111282216D01*
X196827179Y-111118284D01*
X196885674Y-110938256D01*
X196905460Y-110750000D01*
X196885674Y-110561744D01*
X196827179Y-110381716D01*
X196732533Y-110217784D01*
X196605871Y-110077112D01*
X196605870Y-110077111D01*
X196452734Y-109965851D01*
X196452729Y-109965848D01*
X196279807Y-109888857D01*
X196279802Y-109888855D01*
X196134001Y-109857865D01*
X196094646Y-109849500D01*
X195905354Y-109849500D01*
X195872897Y-109856398D01*
X195720197Y-109888855D01*
X195720192Y-109888857D01*
X195547270Y-109965848D01*
X195547265Y-109965851D01*
X195394129Y-110077111D01*
X195267466Y-110217785D01*
X195172821Y-110381715D01*
X195172818Y-110381722D01*
X195114327Y-110561740D01*
X195114326Y-110561744D01*
X195094540Y-110750000D01*
X191100500Y-110750000D01*
X191100499Y-110002128D01*
X191094091Y-109942517D01*
X191078419Y-109900499D01*
X191043797Y-109807671D01*
X191043793Y-109807664D01*
X190957547Y-109692455D01*
X190957544Y-109692452D01*
X190842335Y-109606206D01*
X190842328Y-109606202D01*
X190707482Y-109555908D01*
X190707483Y-109555908D01*
X190647883Y-109549501D01*
X190647881Y-109549500D01*
X190647873Y-109549500D01*
X190647864Y-109549500D01*
X188552129Y-109549500D01*
X188552123Y-109549501D01*
X188492516Y-109555908D01*
X188357671Y-109606202D01*
X188357664Y-109606206D01*
X188242455Y-109692452D01*
X188242452Y-109692455D01*
X188156206Y-109807664D01*
X188156202Y-109807671D01*
X188105908Y-109942517D01*
X188103400Y-109965849D01*
X188099501Y-110002123D01*
X188099500Y-110002135D01*
X183000000Y-110002135D01*
X183000000Y-109985624D01*
X183019685Y-109918585D01*
X183072489Y-109872830D01*
X183139541Y-109862602D01*
X183439524Y-109900499D01*
X183439533Y-109900499D01*
X183439536Y-109900500D01*
X183439538Y-109900500D01*
X183760462Y-109900500D01*
X183760464Y-109900500D01*
X183760467Y-109900499D01*
X183760475Y-109900499D01*
X183979494Y-109872830D01*
X184078861Y-109860277D01*
X184389706Y-109780466D01*
X184688097Y-109662324D01*
X184969328Y-109507716D01*
X185228964Y-109319080D01*
X185462911Y-109099390D01*
X185667478Y-108852110D01*
X185839439Y-108581142D01*
X185976084Y-108290758D01*
X186075256Y-107985538D01*
X186135392Y-107670294D01*
X186138851Y-107615316D01*
X186155543Y-107350005D01*
X186155543Y-107349989D01*
X186135393Y-107029716D01*
X186135392Y-107029709D01*
X186135392Y-107029706D01*
X186075256Y-106714462D01*
X185976084Y-106409242D01*
X185976081Y-106409235D01*
X185839441Y-106118861D01*
X185839437Y-106118855D01*
X185667479Y-105847891D01*
X185667477Y-105847888D01*
X185462912Y-105600611D01*
X185249813Y-105400498D01*
X185228964Y-105380920D01*
X185228961Y-105380918D01*
X185228955Y-105380913D01*
X184969339Y-105192291D01*
X184969321Y-105192280D01*
X184688096Y-105037675D01*
X184688093Y-105037674D01*
X184389703Y-104919533D01*
X184389706Y-104919533D01*
X184078864Y-104839723D01*
X184078851Y-104839721D01*
X183760475Y-104799500D01*
X183760464Y-104799500D01*
X183439536Y-104799500D01*
X183439524Y-104799500D01*
X183139541Y-104837397D01*
X183070563Y-104826270D01*
X183018551Y-104779617D01*
X183000000Y-104714375D01*
X183000000Y-102824499D01*
X183019685Y-102757460D01*
X183072489Y-102711705D01*
X183124000Y-102700499D01*
X184695293Y-102700499D01*
X184695294Y-102700499D01*
X184840034Y-102690281D01*
X185080317Y-102636165D01*
X185289105Y-102552135D01*
X186099500Y-102552135D01*
X186099500Y-104947870D01*
X186099501Y-104947876D01*
X186105908Y-105007483D01*
X186156202Y-105142328D01*
X186156206Y-105142335D01*
X186242452Y-105257544D01*
X186242455Y-105257547D01*
X186357664Y-105343793D01*
X186357671Y-105343797D01*
X186492517Y-105394091D01*
X186492516Y-105394091D01*
X186499444Y-105394835D01*
X186552127Y-105400500D01*
X187947872Y-105400499D01*
X188007483Y-105394091D01*
X188142331Y-105343796D01*
X188257546Y-105257546D01*
X188343796Y-105142331D01*
X188394091Y-105007483D01*
X188400500Y-104947873D01*
X188400499Y-102552128D01*
X188394091Y-102492517D01*
X188365844Y-102416784D01*
X188343797Y-102357671D01*
X188343793Y-102357664D01*
X188257547Y-102242455D01*
X188257544Y-102242452D01*
X188142335Y-102156206D01*
X188142328Y-102156202D01*
X188007482Y-102105908D01*
X188007483Y-102105908D01*
X187947883Y-102099501D01*
X187947881Y-102099500D01*
X187947873Y-102099500D01*
X187947864Y-102099500D01*
X186552129Y-102099500D01*
X186552123Y-102099501D01*
X186492516Y-102105908D01*
X186357671Y-102156202D01*
X186357664Y-102156206D01*
X186242455Y-102242452D01*
X186242452Y-102242455D01*
X186156206Y-102357664D01*
X186156202Y-102357671D01*
X186105908Y-102492517D01*
X186099501Y-102552116D01*
X186099501Y-102552123D01*
X186099500Y-102552135D01*
X185289105Y-102552135D01*
X185308809Y-102544205D01*
X185519589Y-102416784D01*
X185707201Y-102257201D01*
X185866784Y-102069589D01*
X185994205Y-101858809D01*
X186086165Y-101630317D01*
X186140281Y-101390034D01*
X186150500Y-101245295D01*
X186150499Y-99054706D01*
X186140281Y-98909966D01*
X186086165Y-98669683D01*
X185994205Y-98441191D01*
X185866784Y-98230411D01*
X185800930Y-98152990D01*
X185707201Y-98042798D01*
X185532027Y-97893796D01*
X185519589Y-97883216D01*
X185308809Y-97755795D01*
X185151121Y-97692331D01*
X185080318Y-97663835D01*
X184840036Y-97609719D01*
X184840029Y-97609718D01*
X184695297Y-97599500D01*
X184695295Y-97599500D01*
X183124000Y-97599500D01*
X183056961Y-97579815D01*
X183011206Y-97527011D01*
X183000000Y-97475500D01*
X183000000Y-96502135D01*
X188099500Y-96502135D01*
X188099500Y-97497870D01*
X188099501Y-97497876D01*
X188105908Y-97557483D01*
X188156202Y-97692328D01*
X188156206Y-97692335D01*
X188242452Y-97807544D01*
X188242455Y-97807547D01*
X188357664Y-97893793D01*
X188357671Y-97893797D01*
X188492517Y-97944091D01*
X188492516Y-97944091D01*
X188499444Y-97944835D01*
X188552127Y-97950500D01*
X190647872Y-97950499D01*
X190707483Y-97944091D01*
X190842331Y-97893796D01*
X190957546Y-97807546D01*
X191043796Y-97692331D01*
X191094091Y-97557483D01*
X191100500Y-97497873D01*
X191100499Y-96502128D01*
X191094091Y-96442517D01*
X191081820Y-96409618D01*
X191043797Y-96307671D01*
X191043793Y-96307664D01*
X190957547Y-96192455D01*
X190957544Y-96192452D01*
X190842335Y-96106206D01*
X190842328Y-96106202D01*
X190707482Y-96055908D01*
X190707483Y-96055908D01*
X190647883Y-96049501D01*
X190647881Y-96049500D01*
X190647873Y-96049500D01*
X190647864Y-96049500D01*
X188552129Y-96049500D01*
X188552123Y-96049501D01*
X188492516Y-96055908D01*
X188357671Y-96106202D01*
X188357664Y-96106206D01*
X188242455Y-96192452D01*
X188242452Y-96192455D01*
X188156206Y-96307664D01*
X188156202Y-96307671D01*
X188105908Y-96442517D01*
X188099501Y-96502116D01*
X188099501Y-96502123D01*
X188099500Y-96502135D01*
X183000000Y-96502135D01*
X183000000Y-94750000D01*
X195094540Y-94750000D01*
X195114326Y-94938256D01*
X195114327Y-94938259D01*
X195172818Y-95118277D01*
X195172821Y-95118284D01*
X195267467Y-95282216D01*
X195394129Y-95422888D01*
X195547265Y-95534148D01*
X195547270Y-95534151D01*
X195720192Y-95611142D01*
X195720197Y-95611144D01*
X195905354Y-95650500D01*
X195905355Y-95650500D01*
X196094644Y-95650500D01*
X196094646Y-95650500D01*
X196279803Y-95611144D01*
X196452730Y-95534151D01*
X196605871Y-95422888D01*
X196732533Y-95282216D01*
X196827179Y-95118284D01*
X196885674Y-94938256D01*
X196905460Y-94750000D01*
X196885674Y-94561744D01*
X196827179Y-94381716D01*
X196732533Y-94217784D01*
X196605871Y-94077112D01*
X196605870Y-94077111D01*
X196452734Y-93965851D01*
X196452729Y-93965848D01*
X196279807Y-93888857D01*
X196279802Y-93888855D01*
X196134001Y-93857865D01*
X196094646Y-93849500D01*
X195905354Y-93849500D01*
X195872897Y-93856398D01*
X195720197Y-93888855D01*
X195720192Y-93888857D01*
X195547270Y-93965848D01*
X195547265Y-93965851D01*
X195394129Y-94077111D01*
X195267466Y-94217785D01*
X195172821Y-94381715D01*
X195172818Y-94381722D01*
X195114327Y-94561740D01*
X195114326Y-94561744D01*
X195094540Y-94750000D01*
X183000000Y-94750000D01*
X183000000Y-85880948D01*
X183019685Y-85813909D01*
X183072489Y-85768154D01*
X183113192Y-85757420D01*
X183220068Y-85748070D01*
X183433450Y-85690894D01*
X183633662Y-85597534D01*
X183814620Y-85470826D01*
X183970826Y-85314620D01*
X184097534Y-85133662D01*
X184190894Y-84933450D01*
X184248070Y-84720068D01*
X184267323Y-84500000D01*
X184248070Y-84279932D01*
X184190894Y-84066550D01*
X184097534Y-83866339D01*
X183970826Y-83685380D01*
X183814620Y-83529174D01*
X183814616Y-83529171D01*
X183814615Y-83529170D01*
X183633666Y-83402468D01*
X183633662Y-83402466D01*
X183589161Y-83381715D01*
X183433450Y-83309106D01*
X183433447Y-83309105D01*
X183433445Y-83309104D01*
X183220070Y-83251930D01*
X183220063Y-83251929D01*
X183113192Y-83242579D01*
X183048123Y-83217126D01*
X183007145Y-83160535D01*
X183000000Y-83119051D01*
X183000000Y-80790470D01*
X185135010Y-80790470D01*
X185154796Y-80978726D01*
X185154797Y-80978729D01*
X185213288Y-81158747D01*
X185213291Y-81158754D01*
X185307937Y-81322686D01*
X185434599Y-81463358D01*
X185587735Y-81574618D01*
X185587740Y-81574621D01*
X185760662Y-81651612D01*
X185760667Y-81651614D01*
X185945824Y-81690970D01*
X185945825Y-81690970D01*
X186135114Y-81690970D01*
X186135116Y-81690970D01*
X186320273Y-81651614D01*
X186493200Y-81574621D01*
X186646341Y-81463358D01*
X186773003Y-81322686D01*
X186867649Y-81158754D01*
X186926144Y-80978726D01*
X186945930Y-80790470D01*
X186926144Y-80602214D01*
X186867649Y-80422186D01*
X186773003Y-80258254D01*
X186646341Y-80117582D01*
X186646340Y-80117581D01*
X186493204Y-80006321D01*
X186493199Y-80006318D01*
X186320277Y-79929327D01*
X186320272Y-79929325D01*
X186174471Y-79898335D01*
X186135116Y-79889970D01*
X185945824Y-79889970D01*
X185913367Y-79896868D01*
X185760667Y-79929325D01*
X185760662Y-79929327D01*
X185587740Y-80006318D01*
X185587735Y-80006321D01*
X185434599Y-80117581D01*
X185307936Y-80258255D01*
X185213291Y-80422185D01*
X185213288Y-80422192D01*
X185154797Y-80602210D01*
X185154796Y-80602214D01*
X185135010Y-80790470D01*
X183000000Y-80790470D01*
X183000000Y-79303039D01*
X183019685Y-79236000D01*
X183028457Y-79223998D01*
X183199936Y-79016715D01*
X183199939Y-79016711D01*
X183249728Y-78938256D01*
X183362123Y-78761150D01*
X183490999Y-78487274D01*
X183584533Y-78199406D01*
X183641250Y-77902085D01*
X183641251Y-77902074D01*
X183660256Y-77600005D01*
X183660256Y-77599994D01*
X186459744Y-77599994D01*
X186459744Y-77600005D01*
X186478748Y-77902074D01*
X186478749Y-77902081D01*
X186535468Y-78199410D01*
X186594703Y-78381715D01*
X186629001Y-78487274D01*
X186757877Y-78761150D01*
X186757879Y-78761153D01*
X186757880Y-78761155D01*
X186920058Y-79016708D01*
X186920061Y-79016712D01*
X186920062Y-79016713D01*
X187112999Y-79249934D01*
X187297177Y-79422888D01*
X187333643Y-79457132D01*
X187333653Y-79457140D01*
X187578508Y-79635038D01*
X187578513Y-79635040D01*
X187578520Y-79635046D01*
X187843763Y-79780865D01*
X187843768Y-79780867D01*
X187843770Y-79780868D01*
X187843771Y-79780869D01*
X188125186Y-79892289D01*
X188125189Y-79892290D01*
X188418359Y-79967563D01*
X188418363Y-79967564D01*
X188481360Y-79975522D01*
X188718647Y-80005499D01*
X188718656Y-80005499D01*
X188718659Y-80005500D01*
X188718661Y-80005500D01*
X189021339Y-80005500D01*
X189021341Y-80005500D01*
X189021344Y-80005499D01*
X189021352Y-80005499D01*
X189200539Y-79982862D01*
X189321637Y-79967564D01*
X189614810Y-79892290D01*
X189620670Y-79889970D01*
X189896228Y-79780869D01*
X189896229Y-79780868D01*
X189896227Y-79780868D01*
X189896237Y-79780865D01*
X190161480Y-79635046D01*
X190406355Y-79457134D01*
X190627001Y-79249934D01*
X190819938Y-79016713D01*
X190982123Y-78761150D01*
X190987370Y-78750000D01*
X195094540Y-78750000D01*
X195114326Y-78938256D01*
X195114327Y-78938259D01*
X195172818Y-79118277D01*
X195172821Y-79118284D01*
X195267467Y-79282216D01*
X195394129Y-79422888D01*
X195547265Y-79534148D01*
X195547270Y-79534151D01*
X195720192Y-79611142D01*
X195720197Y-79611144D01*
X195905354Y-79650500D01*
X195905355Y-79650500D01*
X196094644Y-79650500D01*
X196094646Y-79650500D01*
X196279803Y-79611144D01*
X196452730Y-79534151D01*
X196605871Y-79422888D01*
X196732533Y-79282216D01*
X196827179Y-79118284D01*
X196885674Y-78938256D01*
X196905460Y-78750000D01*
X196885674Y-78561744D01*
X196827179Y-78381716D01*
X196732533Y-78217784D01*
X196605871Y-78077112D01*
X196605870Y-78077111D01*
X196452734Y-77965851D01*
X196452729Y-77965848D01*
X196279807Y-77888857D01*
X196279802Y-77888855D01*
X196134001Y-77857865D01*
X196094646Y-77849500D01*
X195905354Y-77849500D01*
X195872897Y-77856398D01*
X195720197Y-77888855D01*
X195720192Y-77888857D01*
X195547270Y-77965848D01*
X195547265Y-77965851D01*
X195394129Y-78077111D01*
X195267466Y-78217785D01*
X195172821Y-78381715D01*
X195172818Y-78381722D01*
X195114327Y-78561740D01*
X195114326Y-78561744D01*
X195094540Y-78750000D01*
X190987370Y-78750000D01*
X191110999Y-78487274D01*
X191204533Y-78199406D01*
X191261250Y-77902085D01*
X191261251Y-77902074D01*
X191280256Y-77600005D01*
X191280256Y-77599994D01*
X191261251Y-77297925D01*
X191261250Y-77297918D01*
X191261250Y-77297915D01*
X191204533Y-77000594D01*
X191110999Y-76712726D01*
X190982123Y-76438850D01*
X190819938Y-76183287D01*
X190627001Y-75950066D01*
X190406355Y-75742866D01*
X190406352Y-75742864D01*
X190406346Y-75742859D01*
X190161491Y-75564961D01*
X190161484Y-75564956D01*
X190161480Y-75564954D01*
X189896237Y-75419135D01*
X189896234Y-75419133D01*
X189896229Y-75419131D01*
X189896228Y-75419130D01*
X189614813Y-75307710D01*
X189614810Y-75307709D01*
X189321640Y-75232436D01*
X189321627Y-75232434D01*
X189021352Y-75194500D01*
X189021341Y-75194500D01*
X188718659Y-75194500D01*
X188718647Y-75194500D01*
X188418372Y-75232434D01*
X188418359Y-75232436D01*
X188125189Y-75307709D01*
X188125186Y-75307710D01*
X187843771Y-75419130D01*
X187843770Y-75419131D01*
X187578520Y-75564954D01*
X187578508Y-75564961D01*
X187333653Y-75742859D01*
X187333643Y-75742867D01*
X187113001Y-75950064D01*
X186920058Y-76183291D01*
X186757880Y-76438844D01*
X186629000Y-76712728D01*
X186535468Y-77000589D01*
X186478749Y-77297918D01*
X186478748Y-77297925D01*
X186459744Y-77599994D01*
X183660256Y-77599994D01*
X183641251Y-77297925D01*
X183641250Y-77297918D01*
X183641250Y-77297915D01*
X183584533Y-77000594D01*
X183490999Y-76712726D01*
X183362123Y-76438850D01*
X183199938Y-76183287D01*
X183028455Y-75976000D01*
X183000891Y-75911798D01*
X183000000Y-75896960D01*
X183000000Y-66000000D01*
X163814948Y-66000000D01*
X163747909Y-65980315D01*
X163702154Y-65927511D01*
X163692210Y-65858353D01*
X163721235Y-65794797D01*
X163722797Y-65793029D01*
X163723293Y-65792477D01*
X163732533Y-65782216D01*
X163827179Y-65618284D01*
X163885674Y-65438256D01*
X163905460Y-65250000D01*
X163885674Y-65061744D01*
X163827179Y-64881716D01*
X163732533Y-64717784D01*
X163605871Y-64577112D01*
X163581275Y-64559242D01*
X163452734Y-64465851D01*
X163452729Y-64465848D01*
X163279807Y-64388857D01*
X163279802Y-64388855D01*
X163134001Y-64357865D01*
X163094646Y-64349500D01*
X162905354Y-64349500D01*
X162872897Y-64356398D01*
X162720197Y-64388855D01*
X162720192Y-64388857D01*
X162547270Y-64465848D01*
X162547265Y-64465851D01*
X162394129Y-64577111D01*
X162267466Y-64717785D01*
X162172821Y-64881715D01*
X162172818Y-64881722D01*
X162116587Y-65054784D01*
X162114326Y-65061744D01*
X162094540Y-65250000D01*
X162114326Y-65438256D01*
X162114327Y-65438259D01*
X162172818Y-65618277D01*
X162172821Y-65618284D01*
X162267467Y-65782216D01*
X162276153Y-65791862D01*
X162277203Y-65793029D01*
X162307432Y-65856020D01*
X162298806Y-65925356D01*
X162254065Y-65979021D01*
X162187412Y-65999978D01*
X162185052Y-66000000D01*
X156774500Y-66000000D01*
X156707461Y-65980315D01*
X156661706Y-65927511D01*
X156650500Y-65876000D01*
X156650499Y-63552129D01*
X156650498Y-63552123D01*
X156650497Y-63552116D01*
X156644091Y-63492517D01*
X156595070Y-63361086D01*
X156593797Y-63357671D01*
X156593793Y-63357664D01*
X156507547Y-63242455D01*
X156507544Y-63242452D01*
X156392335Y-63156206D01*
X156392328Y-63156202D01*
X156257482Y-63105908D01*
X156257483Y-63105908D01*
X156197883Y-63099501D01*
X156197881Y-63099500D01*
X156197873Y-63099500D01*
X156197864Y-63099500D01*
X152302129Y-63099500D01*
X152302123Y-63099501D01*
X152242516Y-63105908D01*
X152107671Y-63156202D01*
X152107664Y-63156206D01*
X151992455Y-63242452D01*
X151992452Y-63242455D01*
X151906206Y-63357664D01*
X151906202Y-63357671D01*
X151855908Y-63492517D01*
X151849501Y-63552116D01*
X151849500Y-63552127D01*
X151849500Y-64725857D01*
X151849501Y-65876000D01*
X151829816Y-65943039D01*
X151777013Y-65988794D01*
X151725501Y-66000000D01*
X148401002Y-66000000D01*
X148333963Y-65980315D01*
X148288208Y-65927511D01*
X148278264Y-65858353D01*
X148279198Y-65852765D01*
X148280193Y-65847545D01*
X148285392Y-65820294D01*
X148285392Y-65820288D01*
X148285393Y-65820288D01*
X148305543Y-65500005D01*
X148305543Y-65499994D01*
X148285393Y-65179716D01*
X148285392Y-65179709D01*
X148285392Y-65179706D01*
X148225256Y-64864462D01*
X148126084Y-64559242D01*
X148105600Y-64515711D01*
X147989441Y-64268861D01*
X147989437Y-64268855D01*
X147817479Y-63997891D01*
X147817477Y-63997888D01*
X147612912Y-63750611D01*
X147401536Y-63552116D01*
X147378964Y-63530920D01*
X147378961Y-63530918D01*
X147378955Y-63530913D01*
X147119339Y-63342291D01*
X147119321Y-63342280D01*
X146838096Y-63187675D01*
X146838093Y-63187674D01*
X146539703Y-63069533D01*
X146539706Y-63069533D01*
X146228864Y-62989723D01*
X146228851Y-62989721D01*
X145910475Y-62949500D01*
X145910464Y-62949500D01*
X145589536Y-62949500D01*
X145589524Y-62949500D01*
X145271148Y-62989721D01*
X145271135Y-62989723D01*
X144960294Y-63069533D01*
X144661906Y-63187674D01*
X144661903Y-63187675D01*
X144380678Y-63342280D01*
X144380660Y-63342291D01*
X144121044Y-63530913D01*
X144121034Y-63530921D01*
X143887087Y-63750611D01*
X143682522Y-63997888D01*
X143682520Y-63997891D01*
X143510562Y-64268855D01*
X143510558Y-64268861D01*
X143373918Y-64559235D01*
X143373916Y-64559240D01*
X143274745Y-64864457D01*
X143214607Y-65179709D01*
X143214606Y-65179716D01*
X143194457Y-65499994D01*
X143194457Y-65500005D01*
X143214606Y-65820288D01*
X143220802Y-65852765D01*
X143214027Y-65922306D01*
X143170732Y-65977145D01*
X143104662Y-65999871D01*
X143098998Y-66000000D01*
X137759662Y-66000000D01*
X137692623Y-65980315D01*
X137646868Y-65927511D01*
X137636924Y-65858353D01*
X137665949Y-65794797D01*
X137667512Y-65793028D01*
X137683514Y-65775256D01*
X137732533Y-65720815D01*
X137827179Y-65556883D01*
X137885674Y-65376855D01*
X137905460Y-65188599D01*
X137885674Y-65000343D01*
X137827179Y-64820315D01*
X137732533Y-64656383D01*
X137605871Y-64515711D01*
X137602854Y-64513519D01*
X137452734Y-64404450D01*
X137452729Y-64404447D01*
X137279807Y-64327456D01*
X137279802Y-64327454D01*
X137134001Y-64296464D01*
X137094646Y-64288099D01*
X136905354Y-64288099D01*
X136872897Y-64294997D01*
X136720197Y-64327454D01*
X136720192Y-64327456D01*
X136547270Y-64404447D01*
X136547265Y-64404450D01*
X136394129Y-64515710D01*
X136267466Y-64656384D01*
X136172821Y-64820314D01*
X136172818Y-64820321D01*
X136142344Y-64914112D01*
X136114326Y-65000343D01*
X136094540Y-65188599D01*
X136114326Y-65376855D01*
X136114327Y-65376858D01*
X136172818Y-65556876D01*
X136172821Y-65556883D01*
X136267467Y-65720815D01*
X136316486Y-65775256D01*
X136332488Y-65793028D01*
X136362718Y-65856019D01*
X136354093Y-65925355D01*
X136309351Y-65979020D01*
X136242699Y-65999978D01*
X136240338Y-66000000D01*
X130483322Y-66000000D01*
X130416283Y-65980315D01*
X130370528Y-65927511D01*
X130360584Y-65858353D01*
X130365391Y-65837683D01*
X130379899Y-65793028D01*
X130385674Y-65775256D01*
X130405460Y-65587000D01*
X130385674Y-65398744D01*
X130327179Y-65218716D01*
X130232533Y-65054784D01*
X130105871Y-64914112D01*
X130061282Y-64881716D01*
X129952734Y-64802851D01*
X129952729Y-64802848D01*
X129779807Y-64725857D01*
X129779802Y-64725855D01*
X129634001Y-64694865D01*
X129594646Y-64686500D01*
X129405354Y-64686500D01*
X129372897Y-64693398D01*
X129220197Y-64725855D01*
X129220192Y-64725857D01*
X129047270Y-64802848D01*
X129047265Y-64802851D01*
X128894129Y-64914111D01*
X128767466Y-65054785D01*
X128672821Y-65218715D01*
X128672818Y-65218722D01*
X128624225Y-65368277D01*
X128614326Y-65398744D01*
X128594540Y-65587000D01*
X128614326Y-65775256D01*
X128614326Y-65775258D01*
X128614327Y-65775260D01*
X128634609Y-65837683D01*
X128636604Y-65907524D01*
X128600523Y-65967356D01*
X128537822Y-65998184D01*
X128516678Y-66000000D01*
X122932273Y-66000000D01*
X122865234Y-65980315D01*
X122819479Y-65927511D01*
X122809535Y-65858353D01*
X122838560Y-65794797D01*
X122859388Y-65775682D01*
X122934906Y-65720815D01*
X123000872Y-65672888D01*
X123127534Y-65532216D01*
X123222180Y-65368284D01*
X123280675Y-65188256D01*
X123300461Y-65000000D01*
X123280675Y-64811744D01*
X123222180Y-64631716D01*
X123127534Y-64467784D01*
X123000872Y-64327112D01*
X123000871Y-64327111D01*
X122847735Y-64215851D01*
X122847730Y-64215848D01*
X122674808Y-64138857D01*
X122674803Y-64138855D01*
X122529002Y-64107865D01*
X122489647Y-64099500D01*
X122300355Y-64099500D01*
X122267898Y-64106398D01*
X122115198Y-64138855D01*
X122115193Y-64138857D01*
X121942271Y-64215848D01*
X121942266Y-64215851D01*
X121789130Y-64327111D01*
X121662467Y-64467785D01*
X121567822Y-64631715D01*
X121567819Y-64631722D01*
X121509328Y-64811740D01*
X121509327Y-64811744D01*
X121489541Y-65000000D01*
X121509327Y-65188256D01*
X121509328Y-65188259D01*
X121567819Y-65368277D01*
X121567822Y-65368284D01*
X121662468Y-65532216D01*
X121789130Y-65672888D01*
X121930614Y-65775682D01*
X121973280Y-65831012D01*
X121979259Y-65900625D01*
X121946653Y-65962420D01*
X121885815Y-65996777D01*
X121857729Y-66000000D01*
X117500000Y-66000000D01*
X117500000Y-75471635D01*
X117480315Y-75538674D01*
X117448885Y-75571953D01*
X117213653Y-75742858D01*
X117213643Y-75742867D01*
X116993001Y-75950064D01*
X116800058Y-76183291D01*
X116637880Y-76438844D01*
X116509000Y-76712728D01*
X116415468Y-77000589D01*
X116358749Y-77297918D01*
X116358748Y-77297925D01*
X116339744Y-77599994D01*
X116339744Y-77600005D01*
X116358748Y-77902074D01*
X116358749Y-77902081D01*
X116415468Y-78199410D01*
X116474703Y-78381715D01*
X116509001Y-78487274D01*
X116637877Y-78761150D01*
X116637879Y-78761153D01*
X116637880Y-78761155D01*
X116800058Y-79016708D01*
X116800061Y-79016712D01*
X116800062Y-79016713D01*
X116992999Y-79249934D01*
X117177177Y-79422888D01*
X117213643Y-79457132D01*
X117213653Y-79457140D01*
X117448885Y-79628046D01*
X117491551Y-79683376D01*
X117500000Y-79728364D01*
X117500000Y-129934500D01*
X117480315Y-130001539D01*
X117427511Y-130047294D01*
X117376000Y-130058500D01*
X112917076Y-130058500D01*
X112850037Y-130038815D01*
X112804282Y-129986011D01*
X112794338Y-129916853D01*
X112823363Y-129853297D01*
X112829395Y-129846819D01*
X113290884Y-129385331D01*
X113342864Y-129318416D01*
X113397940Y-129185450D01*
X113408500Y-129101377D01*
X113408499Y-125177128D01*
X113402091Y-125117517D01*
X113351796Y-124982669D01*
X113351795Y-124982668D01*
X113351793Y-124982664D01*
X113265547Y-124867455D01*
X113265544Y-124867452D01*
X113150335Y-124781206D01*
X113150328Y-124781202D01*
X113015482Y-124730908D01*
X113015483Y-124730908D01*
X112955883Y-124724501D01*
X112955881Y-124724500D01*
X112955873Y-124724500D01*
X112955864Y-124724500D01*
X109304129Y-124724500D01*
X109304123Y-124724501D01*
X109244516Y-124730908D01*
X109109671Y-124781202D01*
X109109664Y-124781206D01*
X108994455Y-124867452D01*
X108994452Y-124867455D01*
X108908206Y-124982664D01*
X108908202Y-124982671D01*
X108857908Y-125117517D01*
X108851501Y-125177116D01*
X108851501Y-125177123D01*
X108851500Y-125177135D01*
X108851500Y-125235500D01*
X108831815Y-125302539D01*
X108779011Y-125348294D01*
X108727500Y-125359500D01*
X105494129Y-125359500D01*
X105494123Y-125359501D01*
X105434516Y-125365908D01*
X105299671Y-125416202D01*
X105299664Y-125416206D01*
X105184455Y-125502452D01*
X105184452Y-125502455D01*
X105098206Y-125617664D01*
X105098202Y-125617671D01*
X105047908Y-125752517D01*
X105041501Y-125812116D01*
X105041501Y-125812123D01*
X105041500Y-125812135D01*
X99500500Y-125812135D01*
X99500500Y-108249999D01*
X102294357Y-108249999D01*
X102294357Y-108250000D01*
X102314884Y-108471535D01*
X102314885Y-108471537D01*
X102375769Y-108685523D01*
X102375775Y-108685538D01*
X102474938Y-108884683D01*
X102474943Y-108884691D01*
X102609020Y-109062238D01*
X102773437Y-109212123D01*
X102773439Y-109212125D01*
X102962595Y-109329245D01*
X102962596Y-109329245D01*
X102962599Y-109329247D01*
X103170060Y-109409618D01*
X103388757Y-109450500D01*
X103388759Y-109450500D01*
X103611241Y-109450500D01*
X103611243Y-109450500D01*
X103829940Y-109409618D01*
X104037401Y-109329247D01*
X104226562Y-109212124D01*
X104390981Y-109062236D01*
X104525058Y-108884689D01*
X104624229Y-108685528D01*
X104685115Y-108471536D01*
X104705643Y-108250000D01*
X104685115Y-108028464D01*
X104624229Y-107814472D01*
X104624224Y-107814461D01*
X104525061Y-107615316D01*
X104525056Y-107615308D01*
X104390979Y-107437761D01*
X104226562Y-107287876D01*
X104226560Y-107287874D01*
X104037404Y-107170754D01*
X104037398Y-107170752D01*
X103829940Y-107090382D01*
X103611243Y-107049500D01*
X103388757Y-107049500D01*
X103170060Y-107090382D01*
X103038864Y-107141207D01*
X102962601Y-107170752D01*
X102962595Y-107170754D01*
X102773439Y-107287874D01*
X102773437Y-107287876D01*
X102609020Y-107437761D01*
X102474943Y-107615308D01*
X102474938Y-107615316D01*
X102375775Y-107814461D01*
X102375769Y-107814476D01*
X102314885Y-108028462D01*
X102314884Y-108028464D01*
X102294357Y-108249999D01*
X99500500Y-108249999D01*
X99500500Y-102000000D01*
X103094540Y-102000000D01*
X103114326Y-102188256D01*
X103114327Y-102188259D01*
X103172818Y-102368277D01*
X103172821Y-102368284D01*
X103267467Y-102532216D01*
X103394129Y-102672888D01*
X103547265Y-102784148D01*
X103547270Y-102784151D01*
X103720192Y-102861142D01*
X103720197Y-102861144D01*
X103905354Y-102900500D01*
X103905355Y-102900500D01*
X104094644Y-102900500D01*
X104094646Y-102900500D01*
X104279803Y-102861144D01*
X104452730Y-102784151D01*
X104605871Y-102672888D01*
X104732533Y-102532216D01*
X104827179Y-102368284D01*
X104885674Y-102188256D01*
X104905460Y-102000000D01*
X104885674Y-101811744D01*
X104827179Y-101631716D01*
X104732533Y-101467784D01*
X104605871Y-101327112D01*
X104605870Y-101327111D01*
X104452734Y-101215851D01*
X104452729Y-101215848D01*
X104279807Y-101138857D01*
X104279802Y-101138855D01*
X104134001Y-101107865D01*
X104094646Y-101099500D01*
X103905354Y-101099500D01*
X103872897Y-101106398D01*
X103720197Y-101138855D01*
X103720192Y-101138857D01*
X103547270Y-101215848D01*
X103547265Y-101215851D01*
X103394129Y-101327111D01*
X103267466Y-101467785D01*
X103172821Y-101631715D01*
X103172818Y-101631722D01*
X103114327Y-101811740D01*
X103114326Y-101811744D01*
X103094540Y-102000000D01*
X99500500Y-102000000D01*
X99500500Y-98249999D01*
X111494390Y-98249999D01*
X111494390Y-98250002D01*
X111514804Y-98535434D01*
X111575628Y-98815038D01*
X111575630Y-98815044D01*
X111575631Y-98815047D01*
X111665020Y-99054707D01*
X111675635Y-99083167D01*
X111812770Y-99334310D01*
X111812775Y-99334318D01*
X111984254Y-99563388D01*
X111984270Y-99563406D01*
X112186594Y-99765730D01*
X112186612Y-99765746D01*
X112366934Y-99900733D01*
X112408806Y-99956666D01*
X112413790Y-100026358D01*
X112380305Y-100087681D01*
X112366935Y-100099267D01*
X112186606Y-100234260D01*
X112186594Y-100234270D01*
X111984270Y-100436594D01*
X111984254Y-100436612D01*
X111812775Y-100665682D01*
X111812770Y-100665690D01*
X111675635Y-100916833D01*
X111575628Y-101184962D01*
X111514804Y-101464566D01*
X111494390Y-101749998D01*
X111494390Y-101750001D01*
X111514804Y-102035433D01*
X111575628Y-102315037D01*
X111575630Y-102315043D01*
X111575631Y-102315046D01*
X111664058Y-102552127D01*
X111675635Y-102583166D01*
X111812770Y-102834309D01*
X111812775Y-102834317D01*
X111980309Y-103058117D01*
X112004726Y-103123581D01*
X111989874Y-103191854D01*
X111940469Y-103241259D01*
X111900021Y-103253925D01*
X111900068Y-103254124D01*
X111897299Y-103254778D01*
X111894305Y-103255716D01*
X111892518Y-103255908D01*
X111757671Y-103306202D01*
X111757664Y-103306206D01*
X111642455Y-103392452D01*
X111642452Y-103392455D01*
X111556206Y-103507664D01*
X111556202Y-103507671D01*
X111505908Y-103642517D01*
X111499501Y-103702116D01*
X111499501Y-103702123D01*
X111499500Y-103702135D01*
X111499500Y-106797870D01*
X111499501Y-106797876D01*
X111505908Y-106857483D01*
X111556202Y-106992328D01*
X111556206Y-106992335D01*
X111642452Y-107107544D01*
X111642455Y-107107547D01*
X111757664Y-107193793D01*
X111757671Y-107193797D01*
X111892517Y-107244091D01*
X111892516Y-107244091D01*
X111899444Y-107244835D01*
X111952127Y-107250500D01*
X115047872Y-107250499D01*
X115107483Y-107244091D01*
X115242331Y-107193796D01*
X115357546Y-107107546D01*
X115443796Y-106992331D01*
X115494091Y-106857483D01*
X115500500Y-106797873D01*
X115500499Y-103702128D01*
X115494091Y-103642517D01*
X115443796Y-103507669D01*
X115443795Y-103507668D01*
X115443793Y-103507664D01*
X115357547Y-103392455D01*
X115357544Y-103392452D01*
X115242335Y-103306206D01*
X115242328Y-103306202D01*
X115107482Y-103255908D01*
X115107484Y-103255908D01*
X115105699Y-103255717D01*
X115104407Y-103255182D01*
X115099938Y-103254126D01*
X115100109Y-103253401D01*
X115041148Y-103228978D01*
X115001301Y-103171585D01*
X114998808Y-103101760D01*
X115019687Y-103058120D01*
X115187226Y-102834315D01*
X115324367Y-102583161D01*
X115424369Y-102315046D01*
X115485196Y-102035428D01*
X115505610Y-101750000D01*
X115485196Y-101464572D01*
X115468981Y-101390034D01*
X115424371Y-101184962D01*
X115424370Y-101184960D01*
X115424369Y-101184954D01*
X115324367Y-100916839D01*
X115187226Y-100665685D01*
X115187224Y-100665682D01*
X115015745Y-100436612D01*
X115015729Y-100436594D01*
X114813405Y-100234270D01*
X114813387Y-100234254D01*
X114633065Y-100099267D01*
X114591193Y-100043333D01*
X114586209Y-99973642D01*
X114619694Y-99912319D01*
X114633065Y-99900733D01*
X114813387Y-99765746D01*
X114813387Y-99765745D01*
X114813395Y-99765740D01*
X115015739Y-99563396D01*
X115187226Y-99334316D01*
X115324367Y-99083162D01*
X115424369Y-98815047D01*
X115424371Y-98815038D01*
X115485195Y-98535434D01*
X115485195Y-98535433D01*
X115485196Y-98535429D01*
X115505610Y-98250001D01*
X115485196Y-97964573D01*
X115482134Y-97950499D01*
X115424371Y-97684963D01*
X115424370Y-97684961D01*
X115424369Y-97684955D01*
X115324367Y-97416840D01*
X115187226Y-97165686D01*
X115187224Y-97165683D01*
X115015745Y-96936613D01*
X115015729Y-96936595D01*
X114813405Y-96734271D01*
X114813387Y-96734255D01*
X114584317Y-96562776D01*
X114584309Y-96562771D01*
X114333166Y-96425636D01*
X114333167Y-96425636D01*
X114225915Y-96385633D01*
X114065046Y-96325632D01*
X114065043Y-96325631D01*
X114065037Y-96325629D01*
X113785433Y-96264805D01*
X113500001Y-96244391D01*
X113499999Y-96244391D01*
X113214566Y-96264805D01*
X112934962Y-96325629D01*
X112666833Y-96425636D01*
X112415690Y-96562771D01*
X112415682Y-96562776D01*
X112186612Y-96734255D01*
X112186594Y-96734271D01*
X111984270Y-96936595D01*
X111984254Y-96936613D01*
X111812775Y-97165683D01*
X111812770Y-97165691D01*
X111675635Y-97416834D01*
X111575628Y-97684963D01*
X111514804Y-97964567D01*
X111494390Y-98249999D01*
X99500500Y-98249999D01*
X99500500Y-95249999D01*
X102294357Y-95249999D01*
X102294357Y-95250000D01*
X102314884Y-95471535D01*
X102314885Y-95471537D01*
X102375769Y-95685523D01*
X102375775Y-95685538D01*
X102474938Y-95884683D01*
X102474943Y-95884691D01*
X102609020Y-96062238D01*
X102773437Y-96212123D01*
X102773439Y-96212125D01*
X102962595Y-96329245D01*
X102962596Y-96329245D01*
X102962599Y-96329247D01*
X103170060Y-96409618D01*
X103388757Y-96450500D01*
X103388759Y-96450500D01*
X103611241Y-96450500D01*
X103611243Y-96450500D01*
X103829940Y-96409618D01*
X104037401Y-96329247D01*
X104226562Y-96212124D01*
X104390981Y-96062236D01*
X104525058Y-95884689D01*
X104624229Y-95685528D01*
X104685115Y-95471536D01*
X104705643Y-95250000D01*
X104685115Y-95028464D01*
X104624229Y-94814472D01*
X104592126Y-94750000D01*
X104525061Y-94615316D01*
X104525056Y-94615308D01*
X104390979Y-94437761D01*
X104226562Y-94287876D01*
X104226560Y-94287874D01*
X104037404Y-94170754D01*
X104037398Y-94170752D01*
X103829940Y-94090382D01*
X103611243Y-94049500D01*
X103388757Y-94049500D01*
X103170060Y-94090382D01*
X103038864Y-94141207D01*
X102962601Y-94170752D01*
X102962595Y-94170754D01*
X102773439Y-94287874D01*
X102773437Y-94287876D01*
X102609020Y-94437761D01*
X102474943Y-94615308D01*
X102474938Y-94615316D01*
X102375775Y-94814461D01*
X102375769Y-94814476D01*
X102314885Y-95028462D01*
X102314884Y-95028464D01*
X102294357Y-95249999D01*
X99500500Y-95249999D01*
X99500500Y-83750000D01*
X103094540Y-83750000D01*
X103114326Y-83938256D01*
X103114327Y-83938259D01*
X103172818Y-84118277D01*
X103172821Y-84118284D01*
X103267467Y-84282216D01*
X103394129Y-84422888D01*
X103547265Y-84534148D01*
X103547270Y-84534151D01*
X103720192Y-84611142D01*
X103720197Y-84611144D01*
X103905354Y-84650500D01*
X103905355Y-84650500D01*
X104094644Y-84650500D01*
X104094646Y-84650500D01*
X104279803Y-84611144D01*
X104452730Y-84534151D01*
X104605871Y-84422888D01*
X104732533Y-84282216D01*
X104827179Y-84118284D01*
X104885063Y-83940135D01*
X109987500Y-83940135D01*
X109987500Y-85559870D01*
X109987501Y-85559876D01*
X109993908Y-85619483D01*
X110044202Y-85754328D01*
X110044206Y-85754335D01*
X110130452Y-85869544D01*
X110130455Y-85869547D01*
X110245664Y-85955793D01*
X110245671Y-85955797D01*
X110380517Y-86006091D01*
X110380516Y-86006091D01*
X110387444Y-86006835D01*
X110440127Y-86012500D01*
X112059872Y-86012499D01*
X112119483Y-86006091D01*
X112254331Y-85955796D01*
X112369546Y-85869546D01*
X112455796Y-85754331D01*
X112506091Y-85619483D01*
X112512500Y-85559873D01*
X112512499Y-84749997D01*
X113482677Y-84749997D01*
X113482677Y-84750002D01*
X113501929Y-84970062D01*
X113501930Y-84970070D01*
X113559104Y-85183445D01*
X113559105Y-85183447D01*
X113559106Y-85183450D01*
X113620272Y-85314621D01*
X113652466Y-85383662D01*
X113652468Y-85383666D01*
X113779170Y-85564615D01*
X113779175Y-85564621D01*
X113935378Y-85720824D01*
X113935384Y-85720829D01*
X114116333Y-85847531D01*
X114116335Y-85847532D01*
X114116338Y-85847534D01*
X114316550Y-85940894D01*
X114529932Y-85998070D01*
X114687123Y-86011822D01*
X114749998Y-86017323D01*
X114750000Y-86017323D01*
X114750002Y-86017323D01*
X114805151Y-86012498D01*
X114970068Y-85998070D01*
X115183450Y-85940894D01*
X115383662Y-85847534D01*
X115564620Y-85720826D01*
X115720826Y-85564620D01*
X115847534Y-85383662D01*
X115940894Y-85183450D01*
X115998070Y-84970068D01*
X116017323Y-84750000D01*
X116014704Y-84720068D01*
X115998439Y-84534151D01*
X115998070Y-84529932D01*
X115940894Y-84316550D01*
X115847534Y-84116339D01*
X115784180Y-84025859D01*
X115720827Y-83935381D01*
X115651784Y-83866338D01*
X115564620Y-83779174D01*
X115564616Y-83779171D01*
X115564615Y-83779170D01*
X115383666Y-83652468D01*
X115383662Y-83652466D01*
X115336457Y-83630454D01*
X115183450Y-83559106D01*
X115183447Y-83559105D01*
X115183445Y-83559104D01*
X114970070Y-83501930D01*
X114970062Y-83501929D01*
X114750002Y-83482677D01*
X114749998Y-83482677D01*
X114529937Y-83501929D01*
X114529929Y-83501930D01*
X114316554Y-83559104D01*
X114316548Y-83559107D01*
X114116340Y-83652465D01*
X114116338Y-83652466D01*
X113935377Y-83779175D01*
X113779175Y-83935377D01*
X113652466Y-84116338D01*
X113652465Y-84116340D01*
X113559107Y-84316548D01*
X113559104Y-84316554D01*
X113501930Y-84529929D01*
X113501929Y-84529937D01*
X113482677Y-84749997D01*
X112512499Y-84749997D01*
X112512499Y-83940128D01*
X112506091Y-83880517D01*
X112500803Y-83866340D01*
X112455797Y-83745671D01*
X112455793Y-83745664D01*
X112369547Y-83630455D01*
X112369544Y-83630452D01*
X112254335Y-83544206D01*
X112254328Y-83544202D01*
X112119482Y-83493908D01*
X112119483Y-83493908D01*
X112059883Y-83487501D01*
X112059881Y-83487500D01*
X112059873Y-83487500D01*
X112059864Y-83487500D01*
X110440129Y-83487500D01*
X110440123Y-83487501D01*
X110380516Y-83493908D01*
X110245671Y-83544202D01*
X110245664Y-83544206D01*
X110130455Y-83630452D01*
X110130452Y-83630455D01*
X110044206Y-83745664D01*
X110044202Y-83745671D01*
X109993908Y-83880517D01*
X109988010Y-83935380D01*
X109987501Y-83940123D01*
X109987500Y-83940135D01*
X104885063Y-83940135D01*
X104885674Y-83938256D01*
X104905460Y-83750000D01*
X104885674Y-83561744D01*
X104827179Y-83381716D01*
X104732533Y-83217784D01*
X104605871Y-83077112D01*
X104605870Y-83077111D01*
X104452734Y-82965851D01*
X104452729Y-82965848D01*
X104279807Y-82888857D01*
X104279802Y-82888855D01*
X104134001Y-82857865D01*
X104094646Y-82849500D01*
X103905354Y-82849500D01*
X103872897Y-82856398D01*
X103720197Y-82888855D01*
X103720192Y-82888857D01*
X103547270Y-82965848D01*
X103547265Y-82965851D01*
X103394129Y-83077111D01*
X103267466Y-83217785D01*
X103172821Y-83381715D01*
X103172818Y-83381722D01*
X103115183Y-83559106D01*
X103114326Y-83561744D01*
X103094540Y-83750000D01*
X99500500Y-83750000D01*
X99500500Y-77599994D01*
X108719744Y-77599994D01*
X108719744Y-77600005D01*
X108738748Y-77902074D01*
X108738749Y-77902081D01*
X108795468Y-78199410D01*
X108854703Y-78381715D01*
X108889001Y-78487274D01*
X109017877Y-78761150D01*
X109017879Y-78761153D01*
X109017880Y-78761155D01*
X109180058Y-79016708D01*
X109180061Y-79016712D01*
X109180062Y-79016713D01*
X109372999Y-79249934D01*
X109557177Y-79422888D01*
X109593643Y-79457132D01*
X109593653Y-79457140D01*
X109838508Y-79635038D01*
X109838513Y-79635040D01*
X109838520Y-79635046D01*
X110103763Y-79780865D01*
X110103768Y-79780867D01*
X110103770Y-79780868D01*
X110103771Y-79780869D01*
X110385186Y-79892289D01*
X110385189Y-79892290D01*
X110678359Y-79967563D01*
X110678363Y-79967564D01*
X110741360Y-79975522D01*
X110978647Y-80005499D01*
X110978656Y-80005499D01*
X110978659Y-80005500D01*
X110978661Y-80005500D01*
X111281339Y-80005500D01*
X111281341Y-80005500D01*
X111281344Y-80005499D01*
X111281352Y-80005499D01*
X111460539Y-79982862D01*
X111581637Y-79967564D01*
X111874810Y-79892290D01*
X111880670Y-79889970D01*
X112156228Y-79780869D01*
X112156229Y-79780868D01*
X112156227Y-79780868D01*
X112156237Y-79780865D01*
X112421480Y-79635046D01*
X112666355Y-79457134D01*
X112887001Y-79249934D01*
X113079938Y-79016713D01*
X113242123Y-78761150D01*
X113370999Y-78487274D01*
X113464533Y-78199406D01*
X113521250Y-77902085D01*
X113521251Y-77902074D01*
X113540256Y-77600005D01*
X113540256Y-77599994D01*
X113521251Y-77297925D01*
X113521250Y-77297918D01*
X113521250Y-77297915D01*
X113464533Y-77000594D01*
X113370999Y-76712726D01*
X113242123Y-76438850D01*
X113079938Y-76183287D01*
X112887001Y-75950066D01*
X112666355Y-75742866D01*
X112666352Y-75742864D01*
X112666346Y-75742859D01*
X112421491Y-75564961D01*
X112421484Y-75564956D01*
X112421480Y-75564954D01*
X112156237Y-75419135D01*
X112156234Y-75419133D01*
X112156229Y-75419131D01*
X112156228Y-75419130D01*
X111874813Y-75307710D01*
X111874810Y-75307709D01*
X111581640Y-75232436D01*
X111581627Y-75232434D01*
X111281352Y-75194500D01*
X111281341Y-75194500D01*
X110978659Y-75194500D01*
X110978647Y-75194500D01*
X110678372Y-75232434D01*
X110678359Y-75232436D01*
X110385189Y-75307709D01*
X110385186Y-75307710D01*
X110103771Y-75419130D01*
X110103770Y-75419131D01*
X109838520Y-75564954D01*
X109838508Y-75564961D01*
X109593653Y-75742859D01*
X109593643Y-75742867D01*
X109373001Y-75950064D01*
X109180058Y-76183291D01*
X109017880Y-76438844D01*
X108889000Y-76712728D01*
X108795468Y-77000589D01*
X108738749Y-77297918D01*
X108738748Y-77297925D01*
X108719744Y-77599994D01*
X99500500Y-77599994D01*
X99500500Y-64145235D01*
X110239775Y-64145235D01*
X110259561Y-64333491D01*
X110259562Y-64333494D01*
X110318053Y-64513512D01*
X110318056Y-64513519D01*
X110412702Y-64677451D01*
X110525610Y-64802848D01*
X110539364Y-64818123D01*
X110692500Y-64929383D01*
X110692505Y-64929386D01*
X110865427Y-65006377D01*
X110865432Y-65006379D01*
X111050589Y-65045735D01*
X111050590Y-65045735D01*
X111239879Y-65045735D01*
X111239881Y-65045735D01*
X111425038Y-65006379D01*
X111597965Y-64929386D01*
X111751106Y-64818123D01*
X111877768Y-64677451D01*
X111972414Y-64513519D01*
X112030909Y-64333491D01*
X112050695Y-64145235D01*
X112030909Y-63956979D01*
X111972414Y-63776951D01*
X111877768Y-63613019D01*
X111751106Y-63472347D01*
X111751105Y-63472346D01*
X111597969Y-63361086D01*
X111597964Y-63361083D01*
X111425042Y-63284092D01*
X111425037Y-63284090D01*
X111279236Y-63253100D01*
X111239881Y-63244735D01*
X111050589Y-63244735D01*
X111018132Y-63251633D01*
X110865432Y-63284090D01*
X110865427Y-63284092D01*
X110692505Y-63361083D01*
X110692500Y-63361086D01*
X110539364Y-63472346D01*
X110412701Y-63613020D01*
X110318056Y-63776950D01*
X110318053Y-63776957D01*
X110259562Y-63956975D01*
X110259561Y-63956979D01*
X110239775Y-64145235D01*
X99500500Y-64145235D01*
X99500500Y-62750000D01*
X103094540Y-62750000D01*
X103114326Y-62938256D01*
X103114327Y-62938259D01*
X103172818Y-63118277D01*
X103172821Y-63118284D01*
X103267467Y-63282216D01*
X103338482Y-63361086D01*
X103394129Y-63422888D01*
X103547265Y-63534148D01*
X103547270Y-63534151D01*
X103720192Y-63611142D01*
X103720197Y-63611144D01*
X103905354Y-63650500D01*
X103905355Y-63650500D01*
X104094644Y-63650500D01*
X104094646Y-63650500D01*
X104279803Y-63611144D01*
X104452730Y-63534151D01*
X104605871Y-63422888D01*
X104732533Y-63282216D01*
X104827179Y-63118284D01*
X104885674Y-62938256D01*
X104905460Y-62750000D01*
X195094540Y-62750000D01*
X195114326Y-62938256D01*
X195114327Y-62938259D01*
X195172818Y-63118277D01*
X195172821Y-63118284D01*
X195267467Y-63282216D01*
X195338482Y-63361086D01*
X195394129Y-63422888D01*
X195547265Y-63534148D01*
X195547270Y-63534151D01*
X195720192Y-63611142D01*
X195720197Y-63611144D01*
X195905354Y-63650500D01*
X195905355Y-63650500D01*
X196094644Y-63650500D01*
X196094646Y-63650500D01*
X196279803Y-63611144D01*
X196452730Y-63534151D01*
X196605871Y-63422888D01*
X196732533Y-63282216D01*
X196827179Y-63118284D01*
X196885674Y-62938256D01*
X196905460Y-62750000D01*
X196885674Y-62561744D01*
X196827179Y-62381716D01*
X196732533Y-62217784D01*
X196605871Y-62077112D01*
X196605870Y-62077111D01*
X196452734Y-61965851D01*
X196452729Y-61965848D01*
X196279807Y-61888857D01*
X196279802Y-61888855D01*
X196134001Y-61857865D01*
X196094646Y-61849500D01*
X195905354Y-61849500D01*
X195872897Y-61856398D01*
X195720197Y-61888855D01*
X195720192Y-61888857D01*
X195547270Y-61965848D01*
X195547265Y-61965851D01*
X195394129Y-62077111D01*
X195267466Y-62217785D01*
X195172821Y-62381715D01*
X195172818Y-62381722D01*
X195114327Y-62561740D01*
X195114326Y-62561744D01*
X195094540Y-62750000D01*
X104905460Y-62750000D01*
X104885674Y-62561744D01*
X104827179Y-62381716D01*
X104732533Y-62217784D01*
X104605871Y-62077112D01*
X104605870Y-62077111D01*
X104452734Y-61965851D01*
X104452729Y-61965848D01*
X104279807Y-61888857D01*
X104279802Y-61888855D01*
X104134001Y-61857865D01*
X104094646Y-61849500D01*
X103905354Y-61849500D01*
X103872897Y-61856398D01*
X103720197Y-61888855D01*
X103720192Y-61888857D01*
X103547270Y-61965848D01*
X103547265Y-61965851D01*
X103394129Y-62077111D01*
X103267466Y-62217785D01*
X103172821Y-62381715D01*
X103172818Y-62381722D01*
X103114327Y-62561740D01*
X103114326Y-62561744D01*
X103094540Y-62750000D01*
X99500500Y-62750000D01*
X99500500Y-61750000D01*
X128594540Y-61750000D01*
X128614326Y-61938256D01*
X128614327Y-61938259D01*
X128672818Y-62118277D01*
X128672821Y-62118284D01*
X128767467Y-62282216D01*
X128857063Y-62381722D01*
X128894129Y-62422888D01*
X129047265Y-62534148D01*
X129047270Y-62534151D01*
X129220192Y-62611142D01*
X129220197Y-62611144D01*
X129405354Y-62650500D01*
X129405355Y-62650500D01*
X129594644Y-62650500D01*
X129594646Y-62650500D01*
X129779803Y-62611144D01*
X129952730Y-62534151D01*
X130105871Y-62422888D01*
X130232533Y-62282216D01*
X130327179Y-62118284D01*
X130385674Y-61938256D01*
X130405460Y-61750000D01*
X136094540Y-61750000D01*
X136114326Y-61938256D01*
X136114327Y-61938259D01*
X136172818Y-62118277D01*
X136172821Y-62118284D01*
X136267467Y-62282216D01*
X136357063Y-62381722D01*
X136394129Y-62422888D01*
X136547265Y-62534148D01*
X136547270Y-62534151D01*
X136720192Y-62611142D01*
X136720197Y-62611144D01*
X136905354Y-62650500D01*
X136905355Y-62650500D01*
X137094644Y-62650500D01*
X137094646Y-62650500D01*
X137279803Y-62611144D01*
X137452730Y-62534151D01*
X137605871Y-62422888D01*
X137732533Y-62282216D01*
X137827179Y-62118284D01*
X137885674Y-61938256D01*
X137905460Y-61750000D01*
X144844540Y-61750000D01*
X144864326Y-61938256D01*
X144864327Y-61938259D01*
X144922818Y-62118277D01*
X144922821Y-62118284D01*
X145017467Y-62282216D01*
X145107063Y-62381722D01*
X145144129Y-62422888D01*
X145297265Y-62534148D01*
X145297270Y-62534151D01*
X145470192Y-62611142D01*
X145470197Y-62611144D01*
X145655354Y-62650500D01*
X145655355Y-62650500D01*
X145844644Y-62650500D01*
X145844646Y-62650500D01*
X146029803Y-62611144D01*
X146202730Y-62534151D01*
X146355871Y-62422888D01*
X146482533Y-62282216D01*
X146577179Y-62118284D01*
X146635674Y-61938256D01*
X146655460Y-61750000D01*
X146635674Y-61561744D01*
X146577179Y-61381716D01*
X146482533Y-61217784D01*
X146355871Y-61077112D01*
X146355870Y-61077111D01*
X146202734Y-60965851D01*
X146202729Y-60965848D01*
X146029807Y-60888857D01*
X146029802Y-60888855D01*
X145884001Y-60857865D01*
X145844646Y-60849500D01*
X145655354Y-60849500D01*
X145622897Y-60856398D01*
X145470197Y-60888855D01*
X145470192Y-60888857D01*
X145297270Y-60965848D01*
X145297265Y-60965851D01*
X145144129Y-61077111D01*
X145017466Y-61217785D01*
X144922821Y-61381715D01*
X144922818Y-61381722D01*
X144864327Y-61561740D01*
X144864326Y-61561744D01*
X144844540Y-61750000D01*
X137905460Y-61750000D01*
X137885674Y-61561744D01*
X137827179Y-61381716D01*
X137732533Y-61217784D01*
X137605871Y-61077112D01*
X137605870Y-61077111D01*
X137452734Y-60965851D01*
X137452729Y-60965848D01*
X137279807Y-60888857D01*
X137279802Y-60888855D01*
X137134001Y-60857865D01*
X137094646Y-60849500D01*
X136905354Y-60849500D01*
X136872897Y-60856398D01*
X136720197Y-60888855D01*
X136720192Y-60888857D01*
X136547270Y-60965848D01*
X136547265Y-60965851D01*
X136394129Y-61077111D01*
X136267466Y-61217785D01*
X136172821Y-61381715D01*
X136172818Y-61381722D01*
X136114327Y-61561740D01*
X136114326Y-61561744D01*
X136094540Y-61750000D01*
X130405460Y-61750000D01*
X130385674Y-61561744D01*
X130327179Y-61381716D01*
X130232533Y-61217784D01*
X130105871Y-61077112D01*
X130105870Y-61077111D01*
X129952734Y-60965851D01*
X129952729Y-60965848D01*
X129779807Y-60888857D01*
X129779802Y-60888855D01*
X129634001Y-60857865D01*
X129594646Y-60849500D01*
X129405354Y-60849500D01*
X129372897Y-60856398D01*
X129220197Y-60888855D01*
X129220192Y-60888857D01*
X129047270Y-60965848D01*
X129047265Y-60965851D01*
X128894129Y-61077111D01*
X128767466Y-61217785D01*
X128672821Y-61381715D01*
X128672818Y-61381722D01*
X128614327Y-61561740D01*
X128614326Y-61561744D01*
X128594540Y-61750000D01*
X99500500Y-61750000D01*
X99500500Y-59757538D01*
X105852078Y-59757538D01*
X105871864Y-59945794D01*
X105871865Y-59945797D01*
X105930356Y-60125815D01*
X105930359Y-60125822D01*
X106025005Y-60289754D01*
X106151667Y-60430426D01*
X106304803Y-60541686D01*
X106304808Y-60541689D01*
X106477730Y-60618680D01*
X106477735Y-60618682D01*
X106662892Y-60658038D01*
X106662893Y-60658038D01*
X106852182Y-60658038D01*
X106852184Y-60658038D01*
X107037341Y-60618682D01*
X107210268Y-60541689D01*
X107363409Y-60430426D01*
X107490071Y-60289754D01*
X107584717Y-60125822D01*
X107643212Y-59945794D01*
X107662998Y-59757538D01*
X192337002Y-59757538D01*
X192356788Y-59945794D01*
X192356789Y-59945797D01*
X192415280Y-60125815D01*
X192415283Y-60125822D01*
X192509929Y-60289754D01*
X192636591Y-60430426D01*
X192789727Y-60541686D01*
X192789732Y-60541689D01*
X192962654Y-60618680D01*
X192962659Y-60618682D01*
X193147816Y-60658038D01*
X193147817Y-60658038D01*
X193337106Y-60658038D01*
X193337108Y-60658038D01*
X193522265Y-60618682D01*
X193695192Y-60541689D01*
X193848333Y-60430426D01*
X193974995Y-60289754D01*
X194069641Y-60125822D01*
X194128136Y-59945794D01*
X194147922Y-59757538D01*
X194128136Y-59569282D01*
X194069641Y-59389254D01*
X193974995Y-59225322D01*
X193848333Y-59084650D01*
X193848332Y-59084649D01*
X193695196Y-58973389D01*
X193695191Y-58973386D01*
X193522269Y-58896395D01*
X193522264Y-58896393D01*
X193353113Y-58860440D01*
X193337108Y-58857038D01*
X193147816Y-58857038D01*
X193131811Y-58860440D01*
X192962659Y-58896393D01*
X192962654Y-58896395D01*
X192789732Y-58973386D01*
X192789727Y-58973389D01*
X192636591Y-59084649D01*
X192509928Y-59225323D01*
X192415283Y-59389253D01*
X192415280Y-59389260D01*
X192356789Y-59569278D01*
X192356788Y-59569282D01*
X192337002Y-59757538D01*
X107662998Y-59757538D01*
X107643212Y-59569282D01*
X107584717Y-59389254D01*
X107490071Y-59225322D01*
X107363409Y-59084650D01*
X107363408Y-59084649D01*
X107210272Y-58973389D01*
X107210267Y-58973386D01*
X107037345Y-58896395D01*
X107037340Y-58896393D01*
X106868189Y-58860440D01*
X106852184Y-58857038D01*
X106662892Y-58857038D01*
X106646887Y-58860440D01*
X106477735Y-58896393D01*
X106477730Y-58896395D01*
X106304808Y-58973386D01*
X106304803Y-58973389D01*
X106151667Y-59084649D01*
X106025004Y-59225323D01*
X105930359Y-59389253D01*
X105930356Y-59389260D01*
X105871865Y-59569278D01*
X105871864Y-59569282D01*
X105852078Y-59757538D01*
X99500500Y-59757538D01*
X99500500Y-56752706D01*
X99500559Y-56750000D01*
X101844475Y-56750000D01*
X101864551Y-57043511D01*
X101864552Y-57043513D01*
X101924404Y-57331543D01*
X101924409Y-57331559D01*
X102022927Y-57608762D01*
X102158278Y-57869977D01*
X102158282Y-57869983D01*
X102327932Y-58110323D01*
X102528743Y-58325338D01*
X102656384Y-58429181D01*
X102756951Y-58510999D01*
X102756953Y-58511000D01*
X102756954Y-58511001D01*
X103008319Y-58663860D01*
X103008324Y-58663862D01*
X103278154Y-58781065D01*
X103278159Y-58781067D01*
X103561445Y-58860440D01*
X103817681Y-58895659D01*
X103852901Y-58900500D01*
X103852902Y-58900500D01*
X104147099Y-58900500D01*
X104178520Y-58896180D01*
X104438555Y-58860440D01*
X104721841Y-58781067D01*
X104991682Y-58663859D01*
X105243049Y-58510999D01*
X105471260Y-58325335D01*
X105672065Y-58110326D01*
X105841722Y-57869976D01*
X105977072Y-57608764D01*
X106075592Y-57331554D01*
X106075592Y-57331549D01*
X106075595Y-57331543D01*
X106119911Y-57118277D01*
X106135448Y-57043511D01*
X106155525Y-56750000D01*
X109094540Y-56750000D01*
X109114326Y-56938256D01*
X109114327Y-56938259D01*
X109172818Y-57118277D01*
X109172821Y-57118284D01*
X109267467Y-57282216D01*
X109311896Y-57331559D01*
X109394129Y-57422888D01*
X109547265Y-57534148D01*
X109547270Y-57534151D01*
X109720192Y-57611142D01*
X109720197Y-57611144D01*
X109905354Y-57650500D01*
X109905355Y-57650500D01*
X110094644Y-57650500D01*
X110094646Y-57650500D01*
X110279803Y-57611144D01*
X110452730Y-57534151D01*
X110605871Y-57422888D01*
X110732533Y-57282216D01*
X110827179Y-57118284D01*
X110885674Y-56938256D01*
X110905460Y-56750000D01*
X125094540Y-56750000D01*
X125114326Y-56938256D01*
X125114327Y-56938259D01*
X125172818Y-57118277D01*
X125172821Y-57118284D01*
X125267467Y-57282216D01*
X125311896Y-57331559D01*
X125394129Y-57422888D01*
X125547265Y-57534148D01*
X125547270Y-57534151D01*
X125720192Y-57611142D01*
X125720197Y-57611144D01*
X125905354Y-57650500D01*
X125905355Y-57650500D01*
X126094644Y-57650500D01*
X126094646Y-57650500D01*
X126279803Y-57611144D01*
X126452730Y-57534151D01*
X126605871Y-57422888D01*
X126732533Y-57282216D01*
X126827179Y-57118284D01*
X126885674Y-56938256D01*
X126905460Y-56750000D01*
X141094540Y-56750000D01*
X141114326Y-56938256D01*
X141114327Y-56938259D01*
X141172818Y-57118277D01*
X141172821Y-57118284D01*
X141267467Y-57282216D01*
X141311896Y-57331559D01*
X141394129Y-57422888D01*
X141547265Y-57534148D01*
X141547270Y-57534151D01*
X141720192Y-57611142D01*
X141720197Y-57611144D01*
X141905354Y-57650500D01*
X141905355Y-57650500D01*
X142094644Y-57650500D01*
X142094646Y-57650500D01*
X142279803Y-57611144D01*
X142452730Y-57534151D01*
X142605871Y-57422888D01*
X142732533Y-57282216D01*
X142736701Y-57274996D01*
X147694435Y-57274996D01*
X147694435Y-57275003D01*
X147714630Y-57454249D01*
X147714631Y-57454254D01*
X147774211Y-57624523D01*
X147790534Y-57650500D01*
X147870184Y-57777262D01*
X147997738Y-57904816D01*
X148150478Y-58000789D01*
X148320745Y-58060368D01*
X148320750Y-58060369D01*
X148499996Y-58080565D01*
X148500000Y-58080565D01*
X148500004Y-58080565D01*
X148679249Y-58060369D01*
X148679252Y-58060368D01*
X148679255Y-58060368D01*
X148849522Y-58000789D01*
X148934027Y-57947691D01*
X149001264Y-57928690D01*
X149065973Y-57947691D01*
X149150475Y-58000788D01*
X149320745Y-58060368D01*
X149320750Y-58060369D01*
X149499996Y-58080565D01*
X149500000Y-58080565D01*
X149500004Y-58080565D01*
X149679249Y-58060369D01*
X149679252Y-58060368D01*
X149679255Y-58060368D01*
X149849522Y-58000789D01*
X150002262Y-57904816D01*
X150129816Y-57777262D01*
X150225789Y-57624522D01*
X150285368Y-57454255D01*
X150285369Y-57454249D01*
X150305565Y-57275003D01*
X150305565Y-57274996D01*
X150694435Y-57274996D01*
X150694435Y-57275003D01*
X150714630Y-57454249D01*
X150714631Y-57454254D01*
X150774211Y-57624523D01*
X150790534Y-57650500D01*
X150870184Y-57777262D01*
X150997738Y-57904816D01*
X151150478Y-58000789D01*
X151320745Y-58060368D01*
X151320750Y-58060369D01*
X151499996Y-58080565D01*
X151500000Y-58080565D01*
X151500004Y-58080565D01*
X151679249Y-58060369D01*
X151679252Y-58060368D01*
X151679255Y-58060368D01*
X151849522Y-58000789D01*
X152002262Y-57904816D01*
X152129816Y-57777262D01*
X152225789Y-57624522D01*
X152285368Y-57454255D01*
X152285369Y-57454249D01*
X152305565Y-57275003D01*
X152305565Y-57274996D01*
X152285369Y-57095750D01*
X152285368Y-57095745D01*
X152267091Y-57043513D01*
X152225789Y-56925478D01*
X152129816Y-56772738D01*
X152107078Y-56750000D01*
X157094540Y-56750000D01*
X157114326Y-56938256D01*
X157114327Y-56938259D01*
X157172818Y-57118277D01*
X157172821Y-57118284D01*
X157267467Y-57282216D01*
X157311896Y-57331559D01*
X157394129Y-57422888D01*
X157547265Y-57534148D01*
X157547270Y-57534151D01*
X157720192Y-57611142D01*
X157720197Y-57611144D01*
X157905354Y-57650500D01*
X157905355Y-57650500D01*
X158094644Y-57650500D01*
X158094646Y-57650500D01*
X158279803Y-57611144D01*
X158452730Y-57534151D01*
X158605871Y-57422888D01*
X158732533Y-57282216D01*
X158827179Y-57118284D01*
X158885674Y-56938256D01*
X158905460Y-56750000D01*
X173094540Y-56750000D01*
X173114326Y-56938256D01*
X173114327Y-56938259D01*
X173172818Y-57118277D01*
X173172821Y-57118284D01*
X173267467Y-57282216D01*
X173311896Y-57331559D01*
X173394129Y-57422888D01*
X173547265Y-57534148D01*
X173547270Y-57534151D01*
X173720192Y-57611142D01*
X173720197Y-57611144D01*
X173905354Y-57650500D01*
X173905355Y-57650500D01*
X174094644Y-57650500D01*
X174094646Y-57650500D01*
X174279803Y-57611144D01*
X174452730Y-57534151D01*
X174605871Y-57422888D01*
X174732533Y-57282216D01*
X174827179Y-57118284D01*
X174885674Y-56938256D01*
X174905460Y-56750000D01*
X189094540Y-56750000D01*
X189114326Y-56938256D01*
X189114327Y-56938259D01*
X189172818Y-57118277D01*
X189172821Y-57118284D01*
X189267467Y-57282216D01*
X189311896Y-57331559D01*
X189394129Y-57422888D01*
X189547265Y-57534148D01*
X189547270Y-57534151D01*
X189720192Y-57611142D01*
X189720197Y-57611144D01*
X189905354Y-57650500D01*
X189905355Y-57650500D01*
X190094644Y-57650500D01*
X190094646Y-57650500D01*
X190279803Y-57611144D01*
X190452730Y-57534151D01*
X190605871Y-57422888D01*
X190732533Y-57282216D01*
X190827179Y-57118284D01*
X190885674Y-56938256D01*
X190905460Y-56750000D01*
X193844475Y-56750000D01*
X193864551Y-57043511D01*
X193864552Y-57043513D01*
X193924404Y-57331543D01*
X193924409Y-57331559D01*
X194022927Y-57608762D01*
X194158278Y-57869977D01*
X194158282Y-57869983D01*
X194327932Y-58110323D01*
X194528743Y-58325338D01*
X194656384Y-58429181D01*
X194756951Y-58510999D01*
X194756953Y-58511000D01*
X194756954Y-58511001D01*
X195008319Y-58663860D01*
X195008324Y-58663862D01*
X195278154Y-58781065D01*
X195278159Y-58781067D01*
X195561445Y-58860440D01*
X195817681Y-58895659D01*
X195852901Y-58900500D01*
X195852902Y-58900500D01*
X196147099Y-58900500D01*
X196178520Y-58896180D01*
X196438555Y-58860440D01*
X196721841Y-58781067D01*
X196991682Y-58663859D01*
X197243049Y-58510999D01*
X197471260Y-58325335D01*
X197672065Y-58110326D01*
X197841722Y-57869976D01*
X197977072Y-57608764D01*
X198075592Y-57331554D01*
X198075592Y-57331549D01*
X198075595Y-57331543D01*
X198119911Y-57118277D01*
X198135448Y-57043511D01*
X198155525Y-56750000D01*
X198135448Y-56456489D01*
X198085845Y-56217784D01*
X198075595Y-56168456D01*
X198075590Y-56168440D01*
X197977072Y-55891237D01*
X197977072Y-55891236D01*
X197841722Y-55630024D01*
X197841721Y-55630022D01*
X197841717Y-55630016D01*
X197672067Y-55389676D01*
X197500598Y-55206078D01*
X197471260Y-55174665D01*
X197471258Y-55174664D01*
X197471256Y-55174661D01*
X197243045Y-54988998D01*
X196991680Y-54836139D01*
X196991675Y-54836137D01*
X196721845Y-54718934D01*
X196438560Y-54639561D01*
X196438556Y-54639560D01*
X196438555Y-54639560D01*
X196292826Y-54619530D01*
X196147099Y-54599500D01*
X196147098Y-54599500D01*
X195852902Y-54599500D01*
X195852901Y-54599500D01*
X195561445Y-54639560D01*
X195561439Y-54639561D01*
X195278154Y-54718934D01*
X195008324Y-54836137D01*
X195008319Y-54836139D01*
X194756954Y-54988998D01*
X194528743Y-55174661D01*
X194327932Y-55389676D01*
X194158282Y-55630016D01*
X194158278Y-55630022D01*
X194022927Y-55891237D01*
X193924409Y-56168440D01*
X193924404Y-56168456D01*
X193864552Y-56456486D01*
X193864551Y-56456488D01*
X193844475Y-56750000D01*
X190905460Y-56750000D01*
X190885674Y-56561744D01*
X190827179Y-56381716D01*
X190732533Y-56217784D01*
X190605871Y-56077112D01*
X190605870Y-56077111D01*
X190452734Y-55965851D01*
X190452729Y-55965848D01*
X190279807Y-55888857D01*
X190279802Y-55888855D01*
X190134001Y-55857865D01*
X190094646Y-55849500D01*
X189905354Y-55849500D01*
X189872897Y-55856398D01*
X189720197Y-55888855D01*
X189720192Y-55888857D01*
X189547270Y-55965848D01*
X189547265Y-55965851D01*
X189394129Y-56077111D01*
X189267466Y-56217785D01*
X189172821Y-56381715D01*
X189172818Y-56381722D01*
X189118399Y-56549209D01*
X189114326Y-56561744D01*
X189094540Y-56750000D01*
X174905460Y-56750000D01*
X174885674Y-56561744D01*
X174827179Y-56381716D01*
X174732533Y-56217784D01*
X174605871Y-56077112D01*
X174605870Y-56077111D01*
X174452734Y-55965851D01*
X174452729Y-55965848D01*
X174279807Y-55888857D01*
X174279802Y-55888855D01*
X174134001Y-55857865D01*
X174094646Y-55849500D01*
X173905354Y-55849500D01*
X173872897Y-55856398D01*
X173720197Y-55888855D01*
X173720192Y-55888857D01*
X173547270Y-55965848D01*
X173547265Y-55965851D01*
X173394129Y-56077111D01*
X173267466Y-56217785D01*
X173172821Y-56381715D01*
X173172818Y-56381722D01*
X173118399Y-56549209D01*
X173114326Y-56561744D01*
X173094540Y-56750000D01*
X158905460Y-56750000D01*
X158885674Y-56561744D01*
X158827179Y-56381716D01*
X158732533Y-56217784D01*
X158605871Y-56077112D01*
X158605870Y-56077111D01*
X158452734Y-55965851D01*
X158452729Y-55965848D01*
X158279807Y-55888857D01*
X158279802Y-55888855D01*
X158134001Y-55857865D01*
X158094646Y-55849500D01*
X157905354Y-55849500D01*
X157872897Y-55856398D01*
X157720197Y-55888855D01*
X157720192Y-55888857D01*
X157547270Y-55965848D01*
X157547265Y-55965851D01*
X157394129Y-56077111D01*
X157267466Y-56217785D01*
X157172821Y-56381715D01*
X157172818Y-56381722D01*
X157118399Y-56549209D01*
X157114326Y-56561744D01*
X157094540Y-56750000D01*
X152107078Y-56750000D01*
X152002262Y-56645184D01*
X151934027Y-56602309D01*
X151849523Y-56549211D01*
X151679254Y-56489631D01*
X151679249Y-56489630D01*
X151500004Y-56469435D01*
X151499996Y-56469435D01*
X151320750Y-56489630D01*
X151320745Y-56489631D01*
X151150476Y-56549211D01*
X150997737Y-56645184D01*
X150870184Y-56772737D01*
X150774211Y-56925476D01*
X150714631Y-57095745D01*
X150714630Y-57095750D01*
X150694435Y-57274996D01*
X150305565Y-57274996D01*
X150285369Y-57095750D01*
X150285368Y-57095745D01*
X150267091Y-57043513D01*
X150225789Y-56925478D01*
X150129816Y-56772738D01*
X150002262Y-56645184D01*
X149934027Y-56602309D01*
X149849523Y-56549211D01*
X149679254Y-56489631D01*
X149679249Y-56489630D01*
X149500004Y-56469435D01*
X149499996Y-56469435D01*
X149320750Y-56489630D01*
X149320737Y-56489633D01*
X149150479Y-56549209D01*
X149065971Y-56602309D01*
X148998734Y-56621309D01*
X148934029Y-56602309D01*
X148849520Y-56549209D01*
X148679262Y-56489633D01*
X148679249Y-56489630D01*
X148500004Y-56469435D01*
X148499996Y-56469435D01*
X148320750Y-56489630D01*
X148320745Y-56489631D01*
X148150476Y-56549211D01*
X147997737Y-56645184D01*
X147870184Y-56772737D01*
X147774211Y-56925476D01*
X147714631Y-57095745D01*
X147714630Y-57095750D01*
X147694435Y-57274996D01*
X142736701Y-57274996D01*
X142827179Y-57118284D01*
X142885674Y-56938256D01*
X142905460Y-56750000D01*
X142885674Y-56561744D01*
X142827179Y-56381716D01*
X142732533Y-56217784D01*
X142605871Y-56077112D01*
X142605870Y-56077111D01*
X142452734Y-55965851D01*
X142452729Y-55965848D01*
X142279807Y-55888857D01*
X142279802Y-55888855D01*
X142134001Y-55857865D01*
X142094646Y-55849500D01*
X141905354Y-55849500D01*
X141872897Y-55856398D01*
X141720197Y-55888855D01*
X141720192Y-55888857D01*
X141547270Y-55965848D01*
X141547265Y-55965851D01*
X141394129Y-56077111D01*
X141267466Y-56217785D01*
X141172821Y-56381715D01*
X141172818Y-56381722D01*
X141118399Y-56549209D01*
X141114326Y-56561744D01*
X141094540Y-56750000D01*
X126905460Y-56750000D01*
X126885674Y-56561744D01*
X126827179Y-56381716D01*
X126732533Y-56217784D01*
X126605871Y-56077112D01*
X126605870Y-56077111D01*
X126452734Y-55965851D01*
X126452729Y-55965848D01*
X126279807Y-55888857D01*
X126279802Y-55888855D01*
X126134001Y-55857865D01*
X126094646Y-55849500D01*
X125905354Y-55849500D01*
X125872897Y-55856398D01*
X125720197Y-55888855D01*
X125720192Y-55888857D01*
X125547270Y-55965848D01*
X125547265Y-55965851D01*
X125394129Y-56077111D01*
X125267466Y-56217785D01*
X125172821Y-56381715D01*
X125172818Y-56381722D01*
X125118399Y-56549209D01*
X125114326Y-56561744D01*
X125094540Y-56750000D01*
X110905460Y-56750000D01*
X110885674Y-56561744D01*
X110827179Y-56381716D01*
X110732533Y-56217784D01*
X110605871Y-56077112D01*
X110605870Y-56077111D01*
X110452734Y-55965851D01*
X110452729Y-55965848D01*
X110279807Y-55888857D01*
X110279802Y-55888855D01*
X110134001Y-55857865D01*
X110094646Y-55849500D01*
X109905354Y-55849500D01*
X109872897Y-55856398D01*
X109720197Y-55888855D01*
X109720192Y-55888857D01*
X109547270Y-55965848D01*
X109547265Y-55965851D01*
X109394129Y-56077111D01*
X109267466Y-56217785D01*
X109172821Y-56381715D01*
X109172818Y-56381722D01*
X109118399Y-56549209D01*
X109114326Y-56561744D01*
X109094540Y-56750000D01*
X106155525Y-56750000D01*
X106135448Y-56456489D01*
X106085845Y-56217784D01*
X106075595Y-56168456D01*
X106075590Y-56168440D01*
X105977072Y-55891237D01*
X105977072Y-55891236D01*
X105841722Y-55630024D01*
X105841721Y-55630022D01*
X105841717Y-55630016D01*
X105672067Y-55389676D01*
X105500598Y-55206078D01*
X105471260Y-55174665D01*
X105471258Y-55174664D01*
X105471256Y-55174661D01*
X105243045Y-54988998D01*
X104991680Y-54836139D01*
X104991675Y-54836137D01*
X104721845Y-54718934D01*
X104438560Y-54639561D01*
X104438556Y-54639560D01*
X104438555Y-54639560D01*
X104292826Y-54619530D01*
X104147099Y-54599500D01*
X104147098Y-54599500D01*
X103852902Y-54599500D01*
X103852901Y-54599500D01*
X103561445Y-54639560D01*
X103561439Y-54639561D01*
X103278154Y-54718934D01*
X103008324Y-54836137D01*
X103008319Y-54836139D01*
X102756954Y-54988998D01*
X102528743Y-55174661D01*
X102327932Y-55389676D01*
X102158282Y-55630016D01*
X102158278Y-55630022D01*
X102022927Y-55891237D01*
X101924409Y-56168440D01*
X101924404Y-56168456D01*
X101864552Y-56456486D01*
X101864551Y-56456488D01*
X101844475Y-56750000D01*
X99500559Y-56750000D01*
X99500618Y-56747297D01*
X99505138Y-56643762D01*
X99517386Y-56363226D01*
X99518326Y-56352495D01*
X99568152Y-55974025D01*
X99570025Y-55963405D01*
X99652649Y-55590709D01*
X99655440Y-55580295D01*
X99770230Y-55216227D01*
X99773917Y-55206095D01*
X99920003Y-54853412D01*
X99924561Y-54843638D01*
X100100822Y-54505045D01*
X100106217Y-54495700D01*
X100311325Y-54173744D01*
X100317515Y-54164905D01*
X100549896Y-53862060D01*
X100556834Y-53853791D01*
X100814726Y-53572352D01*
X100822352Y-53564726D01*
X101103791Y-53306834D01*
X101112060Y-53299896D01*
X101414905Y-53067515D01*
X101423744Y-53061325D01*
X101745700Y-52856217D01*
X101755045Y-52850822D01*
X102093638Y-52674561D01*
X102103412Y-52670003D01*
X102456095Y-52523917D01*
X102466227Y-52520230D01*
X102830295Y-52405440D01*
X102840709Y-52402649D01*
X103213405Y-52320025D01*
X103224025Y-52318152D01*
X103602495Y-52268326D01*
X103613226Y-52267386D01*
X103997297Y-52250617D01*
X104002706Y-52250500D01*
X104065892Y-52250500D01*
X195934108Y-52250500D01*
X195997294Y-52250500D01*
X196002702Y-52250617D01*
G37*
%TD.AperFunction*%
%TD*%
M02*
